G04 #@! TF.GenerationSoftware,KiCad,Pcbnew,8.0.9*
G04 #@! TF.CreationDate,2025-03-02T13:49:30+01:00*
G04 #@! TF.ProjectId,cjss501,636a7373-3530-4312-9e6b-696361645f70,rev?*
G04 #@! TF.SameCoordinates,Original*
G04 #@! TF.FileFunction,Soldermask,Top*
G04 #@! TF.FilePolarity,Negative*
%FSLAX46Y46*%
G04 Gerber Fmt 4.6, Leading zero omitted, Abs format (unit mm)*
G04 Created by KiCad (PCBNEW 8.0.9) date 2025-03-02 13:49:30*
%MOMM*%
%LPD*%
G01*
G04 APERTURE LIST*
%ADD10C,1.600000*%
%ADD11O,1.600000X1.600000*%
%ADD12C,5.600000*%
%ADD13R,1.200000X1.200000*%
%ADD14C,1.200000*%
%ADD15C,3.000000*%
%ADD16C,2.500000*%
%ADD17R,1.700000X1.700000*%
%ADD18O,1.700000X1.700000*%
%ADD19R,1.600000X1.600000*%
%ADD20R,1.050000X1.500000*%
%ADD21O,1.050000X1.500000*%
%ADD22C,2.200000*%
%ADD23C,2.000000*%
%ADD24O,1.900000X3.200000*%
%ADD25C,3.200000*%
G04 APERTURE END LIST*
D10*
X92710000Y-53340000D03*
D11*
X92710000Y-55880000D03*
D12*
X154940000Y-48260000D03*
D13*
X139700000Y-76200000D03*
D14*
X138200000Y-76200000D03*
D15*
X68580000Y-64370000D03*
D16*
X70530000Y-70420000D03*
D15*
X82730000Y-70420000D03*
X82780000Y-58370000D03*
D16*
X70530000Y-58420000D03*
D17*
X129540000Y-91440000D03*
D18*
X127000000Y-91440000D03*
D10*
X106680000Y-53340000D03*
D11*
X106680000Y-55880000D03*
D10*
X137160000Y-80645000D03*
D11*
X137160000Y-83185000D03*
D19*
X110490000Y-58420000D03*
D11*
X110490000Y-66040000D03*
D17*
X81915000Y-91440000D03*
D18*
X79375000Y-91440000D03*
D10*
X140970000Y-80645000D03*
D11*
X140970000Y-83185000D03*
D10*
X106680000Y-77470000D03*
D11*
X106680000Y-80010000D03*
D10*
X151130000Y-60325000D03*
X151130000Y-65325000D03*
X100330000Y-67310000D03*
D11*
X100330000Y-64770000D03*
D10*
X100330000Y-71120000D03*
D11*
X100330000Y-73660000D03*
D17*
X57150000Y-91440000D03*
D20*
X104140000Y-72390000D03*
D21*
X105410000Y-72390000D03*
X106680000Y-72390000D03*
D19*
X110490000Y-74930000D03*
D11*
X110490000Y-82550000D03*
D10*
X147320000Y-65405000D03*
D11*
X147320000Y-62865000D03*
D22*
X115730000Y-38100000D03*
X125730000Y-38100000D03*
D23*
X113230000Y-47800000D03*
X120730000Y-47800000D03*
X128230000Y-47800000D03*
X115730000Y-50300000D03*
X125730000Y-50300000D03*
D10*
X135890000Y-57150000D03*
D11*
X135890000Y-54610000D03*
D19*
X93345000Y-86360000D03*
D10*
X90845000Y-86360000D03*
X92710000Y-59690000D03*
D11*
X92710000Y-62230000D03*
D10*
X102870000Y-59690000D03*
D11*
X102870000Y-62230000D03*
D20*
X93980000Y-72390000D03*
D21*
X95250000Y-72390000D03*
X96520000Y-72390000D03*
D17*
X34290000Y-77040000D03*
D10*
X96520000Y-77470000D03*
D11*
X96520000Y-80010000D03*
D10*
X147320000Y-57150000D03*
D11*
X147320000Y-54610000D03*
D24*
X104000000Y-44510000D03*
X91700000Y-44510000D03*
D23*
X94100000Y-48260000D03*
X101600000Y-48260000D03*
D22*
X94100000Y-41010000D03*
D19*
X64770000Y-58420000D03*
D11*
X64770000Y-66040000D03*
D25*
X36830000Y-90170000D03*
D10*
X135890000Y-65405000D03*
D11*
X135890000Y-62865000D03*
D15*
X43180000Y-64370000D03*
D16*
X45130000Y-70420000D03*
D15*
X57330000Y-70420000D03*
X57380000Y-58370000D03*
D16*
X45130000Y-58420000D03*
D10*
X139700000Y-60325000D03*
X139700000Y-65325000D03*
D17*
X34290000Y-53975000D03*
D18*
X36830000Y-53975000D03*
D10*
X148590000Y-80645000D03*
D11*
X148590000Y-83185000D03*
D13*
X106680000Y-60960000D03*
D14*
X106680000Y-59460000D03*
D19*
X39370000Y-58420000D03*
D11*
X39370000Y-66040000D03*
D17*
X52070000Y-91440000D03*
X34290000Y-71755000D03*
D10*
X90170000Y-67310000D03*
D11*
X90170000Y-64770000D03*
D10*
X137160000Y-91440000D03*
D11*
X134620000Y-91440000D03*
D10*
X152400000Y-80645000D03*
D11*
X152400000Y-83185000D03*
D12*
X36830000Y-48260000D03*
D15*
X68580000Y-80880000D03*
D16*
X70530000Y-86930000D03*
D15*
X82730000Y-86930000D03*
X82780000Y-74880000D03*
D16*
X70530000Y-74930000D03*
D10*
X102870000Y-53340000D03*
D11*
X102870000Y-55880000D03*
D19*
X64770000Y-74930000D03*
D11*
X64770000Y-82550000D03*
D13*
X151130000Y-76200000D03*
D14*
X149630000Y-76200000D03*
D10*
X139700000Y-57150000D03*
D11*
X139700000Y-54610000D03*
D10*
X135890000Y-69215000D03*
D11*
X135890000Y-71755000D03*
D15*
X114300000Y-64370000D03*
D16*
X116250000Y-70420000D03*
D15*
X128450000Y-70420000D03*
X128500000Y-58370000D03*
D16*
X116250000Y-58420000D03*
D20*
X93980000Y-67310000D03*
D21*
X95250000Y-67310000D03*
X96520000Y-67310000D03*
D20*
X104140000Y-67310000D03*
D21*
X105410000Y-67310000D03*
X106680000Y-67310000D03*
D10*
X147320000Y-69215000D03*
D11*
X147320000Y-71755000D03*
D15*
X114300000Y-80880000D03*
D16*
X116250000Y-86930000D03*
D15*
X128450000Y-86930000D03*
X128500000Y-74880000D03*
D16*
X116250000Y-74930000D03*
D17*
X70485000Y-91440000D03*
D18*
X73025000Y-91440000D03*
D19*
X39370000Y-74930000D03*
D11*
X39370000Y-82550000D03*
D17*
X105410000Y-91440000D03*
D18*
X107950000Y-91440000D03*
X110490000Y-91440000D03*
D10*
X96520000Y-53340000D03*
D11*
X96520000Y-55880000D03*
D20*
X142240000Y-70485000D03*
D21*
X140970000Y-70485000D03*
X139700000Y-70485000D03*
D10*
X45085000Y-53975000D03*
D11*
X42545000Y-53975000D03*
D10*
X92710000Y-81200000D03*
X92710000Y-76200000D03*
D17*
X157480000Y-54610000D03*
D18*
X157480000Y-57150000D03*
X157480000Y-59690000D03*
D10*
X90170000Y-71120000D03*
D11*
X90170000Y-73660000D03*
D15*
X43180000Y-80880000D03*
D16*
X45130000Y-86930000D03*
D15*
X57330000Y-86930000D03*
X57380000Y-74880000D03*
D16*
X45130000Y-74930000D03*
D10*
X97790000Y-86360000D03*
X102790000Y-86360000D03*
D17*
X118110000Y-91440000D03*
D18*
X120650000Y-91440000D03*
D10*
X102870000Y-81200000D03*
X102870000Y-76200000D03*
D20*
X153670000Y-70485000D03*
D21*
X152400000Y-70485000D03*
X151130000Y-70485000D03*
D24*
X149600000Y-44510000D03*
X137300000Y-44510000D03*
D23*
X139700000Y-48260000D03*
X147200000Y-48260000D03*
D22*
X139700000Y-41010000D03*
D17*
X97785000Y-91440000D03*
D18*
X100325000Y-91440000D03*
D17*
X157480000Y-67310000D03*
D18*
X157480000Y-64770000D03*
D13*
X96520000Y-60960000D03*
D14*
X96520000Y-59460000D03*
D22*
X70010000Y-38100000D03*
X80010000Y-38100000D03*
D23*
X67510000Y-47800000D03*
X75010000Y-47800000D03*
X82510000Y-47800000D03*
X70010000Y-50300000D03*
X80010000Y-50300000D03*
D24*
X58420000Y-44510000D03*
X46120000Y-44510000D03*
D23*
X48520000Y-48260000D03*
X56020000Y-48260000D03*
D22*
X48520000Y-41010000D03*
D10*
X89535000Y-91440000D03*
D11*
X86995000Y-91440000D03*
D10*
X151130000Y-57150000D03*
D11*
X151130000Y-54610000D03*
D25*
X154940000Y-90170000D03*
M02*
