%TF.GenerationSoftware,KiCad,Pcbnew,8.0.9*%
%TF.CreationDate,2025-03-02T13:49:47+01:00*%
%TF.ProjectId,cjss501,636a7373-3530-4312-9e6b-696361645f70,rev?*%
%TF.SameCoordinates,Original*%
%TF.FileFunction,Drillmap*%
%TF.FilePolarity,Positive*%
%FSLAX45Y45*%
G04 Gerber Fmt 4.5, Leading zero omitted, Abs format (unit mm)*
G04 Created by KiCad (PCBNEW 8.0.9) date 2025-03-02 13:49:47*
%MOMM*%
%LPD*%
G01*
G04 APERTURE LIST*
%ADD10C,0.050000*%
%ADD11C,0.200000*%
%ADD12C,0.180000*%
%ADD13C,0.100000*%
%ADD14C,0.320000*%
G04 APERTURE END LIST*
D10*
X15621000Y-3556000D02*
G75*
G02*
X15875000Y-3810000I0J-254000D01*
G01*
X15875000Y-9017000D02*
G75*
G02*
X15621000Y-9271000I-254000J0D01*
G01*
X3302000Y-9017000D02*
X3302000Y-3810000D01*
X3302000Y-3810000D02*
G75*
G02*
X3556000Y-3556000I254000J0D01*
G01*
X3556000Y-9271000D02*
G75*
G02*
X3302000Y-9017000I0J254000D01*
G01*
X3556000Y-3556000D02*
X15621000Y-3556000D01*
X15621000Y-9271000D02*
X3556000Y-9271000D01*
X15875000Y-3810000D02*
X15875000Y-9017000D01*
D11*
D12*
X4522000Y-4361000D02*
X4702000Y-4541000D01*
X4702000Y-4361000D02*
X4522000Y-4541000D01*
D13*
X4702000Y-4516000D02*
X4702000Y-4386000D01*
X4522000Y-4386000D02*
G75*
G02*
X4702000Y-4386000I90000J0D01*
G01*
X4522000Y-4386000D02*
X4522000Y-4516000D01*
X4522000Y-4516000D02*
G75*
G03*
X4702000Y-4516000I90000J0D01*
G01*
D12*
X5752000Y-4361000D02*
X5932000Y-4541000D01*
X5932000Y-4361000D02*
X5752000Y-4541000D01*
D13*
X5932000Y-4516000D02*
X5932000Y-4386000D01*
X5752000Y-4386000D02*
G75*
G02*
X5932000Y-4386000I90000J0D01*
G01*
X5752000Y-4386000D02*
X5752000Y-4516000D01*
X5752000Y-4516000D02*
G75*
G03*
X5932000Y-4516000I90000J0D01*
G01*
D12*
X9080000Y-4361000D02*
X9260000Y-4541000D01*
X9260000Y-4361000D02*
X9080000Y-4541000D01*
D13*
X9260000Y-4516000D02*
X9260000Y-4386000D01*
X9080000Y-4386000D02*
G75*
G02*
X9260000Y-4386000I90000J0D01*
G01*
X9080000Y-4386000D02*
X9080000Y-4516000D01*
X9080000Y-4516000D02*
G75*
G03*
X9260000Y-4516000I90000J0D01*
G01*
D12*
X10310000Y-4361000D02*
X10490000Y-4541000D01*
X10490000Y-4361000D02*
X10310000Y-4541000D01*
D13*
X10490000Y-4516000D02*
X10490000Y-4386000D01*
X10310000Y-4386000D02*
G75*
G02*
X10490000Y-4386000I90000J0D01*
G01*
X10310000Y-4386000D02*
X10310000Y-4516000D01*
X10310000Y-4516000D02*
G75*
G03*
X10490000Y-4516000I90000J0D01*
G01*
D12*
X13640000Y-4361000D02*
X13820000Y-4541000D01*
X13820000Y-4361000D02*
X13640000Y-4541000D01*
D13*
X13820000Y-4516000D02*
X13820000Y-4386000D01*
X13640000Y-4386000D02*
G75*
G02*
X13820000Y-4386000I90000J0D01*
G01*
X13640000Y-4386000D02*
X13640000Y-4516000D01*
X13640000Y-4516000D02*
G75*
G03*
X13820000Y-4516000I90000J0D01*
G01*
D12*
X14870000Y-4361000D02*
X15050000Y-4541000D01*
X15050000Y-4361000D02*
X14870000Y-4541000D01*
D13*
X15050000Y-4516000D02*
X15050000Y-4386000D01*
X14870000Y-4386000D02*
G75*
G02*
X15050000Y-4386000I90000J0D01*
G01*
X14870000Y-4386000D02*
X14870000Y-4516000D01*
X14870000Y-4516000D02*
G75*
G03*
X15050000Y-4516000I90000J0D01*
G01*
D14*
X3843000Y-9017000D02*
G75*
G02*
X3523000Y-9017000I-160000J0D01*
G01*
X3523000Y-9017000D02*
G75*
G02*
X3843000Y-9017000I160000J0D01*
G01*
X15654000Y-9017000D02*
G75*
G02*
X15334000Y-9017000I-160000J0D01*
G01*
X15334000Y-9017000D02*
G75*
G02*
X15654000Y-9017000I160000J0D01*
G01*
D11*
X3560277Y-9584984D02*
X3560277Y-9384984D01*
X3560277Y-9384984D02*
X3607896Y-9384984D01*
X3607896Y-9384984D02*
X3636467Y-9394508D01*
X3636467Y-9394508D02*
X3655515Y-9413555D01*
X3655515Y-9413555D02*
X3665039Y-9432603D01*
X3665039Y-9432603D02*
X3674562Y-9470698D01*
X3674562Y-9470698D02*
X3674562Y-9499270D01*
X3674562Y-9499270D02*
X3665039Y-9537365D01*
X3665039Y-9537365D02*
X3655515Y-9556412D01*
X3655515Y-9556412D02*
X3636467Y-9575460D01*
X3636467Y-9575460D02*
X3607896Y-9584984D01*
X3607896Y-9584984D02*
X3560277Y-9584984D01*
X3760277Y-9584984D02*
X3760277Y-9451650D01*
X3760277Y-9489746D02*
X3769801Y-9470698D01*
X3769801Y-9470698D02*
X3779324Y-9461174D01*
X3779324Y-9461174D02*
X3798372Y-9451650D01*
X3798372Y-9451650D02*
X3817420Y-9451650D01*
X3884086Y-9584984D02*
X3884086Y-9451650D01*
X3884086Y-9384984D02*
X3874562Y-9394508D01*
X3874562Y-9394508D02*
X3884086Y-9404031D01*
X3884086Y-9404031D02*
X3893610Y-9394508D01*
X3893610Y-9394508D02*
X3884086Y-9384984D01*
X3884086Y-9384984D02*
X3884086Y-9404031D01*
X4007896Y-9584984D02*
X3988848Y-9575460D01*
X3988848Y-9575460D02*
X3979324Y-9556412D01*
X3979324Y-9556412D02*
X3979324Y-9384984D01*
X4112658Y-9584984D02*
X4093610Y-9575460D01*
X4093610Y-9575460D02*
X4084086Y-9556412D01*
X4084086Y-9556412D02*
X4084086Y-9384984D01*
X4341229Y-9584984D02*
X4341229Y-9384984D01*
X4341229Y-9384984D02*
X4407896Y-9527841D01*
X4407896Y-9527841D02*
X4474563Y-9384984D01*
X4474563Y-9384984D02*
X4474563Y-9584984D01*
X4655515Y-9584984D02*
X4655515Y-9480222D01*
X4655515Y-9480222D02*
X4645991Y-9461174D01*
X4645991Y-9461174D02*
X4626944Y-9451650D01*
X4626944Y-9451650D02*
X4588848Y-9451650D01*
X4588848Y-9451650D02*
X4569801Y-9461174D01*
X4655515Y-9575460D02*
X4636467Y-9584984D01*
X4636467Y-9584984D02*
X4588848Y-9584984D01*
X4588848Y-9584984D02*
X4569801Y-9575460D01*
X4569801Y-9575460D02*
X4560277Y-9556412D01*
X4560277Y-9556412D02*
X4560277Y-9537365D01*
X4560277Y-9537365D02*
X4569801Y-9518317D01*
X4569801Y-9518317D02*
X4588848Y-9508793D01*
X4588848Y-9508793D02*
X4636467Y-9508793D01*
X4636467Y-9508793D02*
X4655515Y-9499270D01*
X4750753Y-9451650D02*
X4750753Y-9651650D01*
X4750753Y-9461174D02*
X4769801Y-9451650D01*
X4769801Y-9451650D02*
X4807896Y-9451650D01*
X4807896Y-9451650D02*
X4826944Y-9461174D01*
X4826944Y-9461174D02*
X4836467Y-9470698D01*
X4836467Y-9470698D02*
X4845991Y-9489746D01*
X4845991Y-9489746D02*
X4845991Y-9546889D01*
X4845991Y-9546889D02*
X4836467Y-9565936D01*
X4836467Y-9565936D02*
X4826944Y-9575460D01*
X4826944Y-9575460D02*
X4807896Y-9584984D01*
X4807896Y-9584984D02*
X4769801Y-9584984D01*
X4769801Y-9584984D02*
X4750753Y-9575460D01*
X4931705Y-9565936D02*
X4941229Y-9575460D01*
X4941229Y-9575460D02*
X4931705Y-9584984D01*
X4931705Y-9584984D02*
X4922182Y-9575460D01*
X4922182Y-9575460D02*
X4931705Y-9565936D01*
X4931705Y-9565936D02*
X4931705Y-9584984D01*
X4931705Y-9461174D02*
X4941229Y-9470698D01*
X4941229Y-9470698D02*
X4931705Y-9480222D01*
X4931705Y-9480222D02*
X4922182Y-9470698D01*
X4922182Y-9470698D02*
X4931705Y-9461174D01*
X4931705Y-9461174D02*
X4931705Y-9480222D01*
D12*
X3119500Y-9823500D02*
X3299500Y-10003500D01*
X3299500Y-9823500D02*
X3119500Y-10003500D01*
D11*
X3665039Y-10004984D02*
X3550753Y-10004984D01*
X3607896Y-10004984D02*
X3607896Y-9804984D01*
X3607896Y-9804984D02*
X3588848Y-9833555D01*
X3588848Y-9833555D02*
X3569801Y-9852603D01*
X3569801Y-9852603D02*
X3550753Y-9862127D01*
X3750753Y-9985936D02*
X3760277Y-9995460D01*
X3760277Y-9995460D02*
X3750753Y-10004984D01*
X3750753Y-10004984D02*
X3741229Y-9995460D01*
X3741229Y-9995460D02*
X3750753Y-9985936D01*
X3750753Y-9985936D02*
X3750753Y-10004984D01*
X3874562Y-9890698D02*
X3855515Y-9881174D01*
X3855515Y-9881174D02*
X3845991Y-9871650D01*
X3845991Y-9871650D02*
X3836467Y-9852603D01*
X3836467Y-9852603D02*
X3836467Y-9843079D01*
X3836467Y-9843079D02*
X3845991Y-9824031D01*
X3845991Y-9824031D02*
X3855515Y-9814508D01*
X3855515Y-9814508D02*
X3874562Y-9804984D01*
X3874562Y-9804984D02*
X3912658Y-9804984D01*
X3912658Y-9804984D02*
X3931705Y-9814508D01*
X3931705Y-9814508D02*
X3941229Y-9824031D01*
X3941229Y-9824031D02*
X3950753Y-9843079D01*
X3950753Y-9843079D02*
X3950753Y-9852603D01*
X3950753Y-9852603D02*
X3941229Y-9871650D01*
X3941229Y-9871650D02*
X3931705Y-9881174D01*
X3931705Y-9881174D02*
X3912658Y-9890698D01*
X3912658Y-9890698D02*
X3874562Y-9890698D01*
X3874562Y-9890698D02*
X3855515Y-9900222D01*
X3855515Y-9900222D02*
X3845991Y-9909746D01*
X3845991Y-9909746D02*
X3836467Y-9928793D01*
X3836467Y-9928793D02*
X3836467Y-9966889D01*
X3836467Y-9966889D02*
X3845991Y-9985936D01*
X3845991Y-9985936D02*
X3855515Y-9995460D01*
X3855515Y-9995460D02*
X3874562Y-10004984D01*
X3874562Y-10004984D02*
X3912658Y-10004984D01*
X3912658Y-10004984D02*
X3931705Y-9995460D01*
X3931705Y-9995460D02*
X3941229Y-9985936D01*
X3941229Y-9985936D02*
X3950753Y-9966889D01*
X3950753Y-9966889D02*
X3950753Y-9928793D01*
X3950753Y-9928793D02*
X3941229Y-9909746D01*
X3941229Y-9909746D02*
X3931705Y-9900222D01*
X3931705Y-9900222D02*
X3912658Y-9890698D01*
X4074562Y-9804984D02*
X4093610Y-9804984D01*
X4093610Y-9804984D02*
X4112658Y-9814508D01*
X4112658Y-9814508D02*
X4122182Y-9824031D01*
X4122182Y-9824031D02*
X4131705Y-9843079D01*
X4131705Y-9843079D02*
X4141229Y-9881174D01*
X4141229Y-9881174D02*
X4141229Y-9928793D01*
X4141229Y-9928793D02*
X4131705Y-9966889D01*
X4131705Y-9966889D02*
X4122182Y-9985936D01*
X4122182Y-9985936D02*
X4112658Y-9995460D01*
X4112658Y-9995460D02*
X4093610Y-10004984D01*
X4093610Y-10004984D02*
X4074562Y-10004984D01*
X4074562Y-10004984D02*
X4055515Y-9995460D01*
X4055515Y-9995460D02*
X4045991Y-9985936D01*
X4045991Y-9985936D02*
X4036467Y-9966889D01*
X4036467Y-9966889D02*
X4026943Y-9928793D01*
X4026943Y-9928793D02*
X4026943Y-9881174D01*
X4026943Y-9881174D02*
X4036467Y-9843079D01*
X4036467Y-9843079D02*
X4045991Y-9824031D01*
X4045991Y-9824031D02*
X4055515Y-9814508D01*
X4055515Y-9814508D02*
X4074562Y-9804984D01*
X4265039Y-9804984D02*
X4284086Y-9804984D01*
X4284086Y-9804984D02*
X4303134Y-9814508D01*
X4303134Y-9814508D02*
X4312658Y-9824031D01*
X4312658Y-9824031D02*
X4322182Y-9843079D01*
X4322182Y-9843079D02*
X4331705Y-9881174D01*
X4331705Y-9881174D02*
X4331705Y-9928793D01*
X4331705Y-9928793D02*
X4322182Y-9966889D01*
X4322182Y-9966889D02*
X4312658Y-9985936D01*
X4312658Y-9985936D02*
X4303134Y-9995460D01*
X4303134Y-9995460D02*
X4284086Y-10004984D01*
X4284086Y-10004984D02*
X4265039Y-10004984D01*
X4265039Y-10004984D02*
X4245991Y-9995460D01*
X4245991Y-9995460D02*
X4236467Y-9985936D01*
X4236467Y-9985936D02*
X4226944Y-9966889D01*
X4226944Y-9966889D02*
X4217420Y-9928793D01*
X4217420Y-9928793D02*
X4217420Y-9881174D01*
X4217420Y-9881174D02*
X4226944Y-9843079D01*
X4226944Y-9843079D02*
X4236467Y-9824031D01*
X4236467Y-9824031D02*
X4245991Y-9814508D01*
X4245991Y-9814508D02*
X4265039Y-9804984D01*
X4417420Y-10004984D02*
X4417420Y-9871650D01*
X4417420Y-9890698D02*
X4426944Y-9881174D01*
X4426944Y-9881174D02*
X4445991Y-9871650D01*
X4445991Y-9871650D02*
X4474563Y-9871650D01*
X4474563Y-9871650D02*
X4493610Y-9881174D01*
X4493610Y-9881174D02*
X4503134Y-9900222D01*
X4503134Y-9900222D02*
X4503134Y-10004984D01*
X4503134Y-9900222D02*
X4512658Y-9881174D01*
X4512658Y-9881174D02*
X4531705Y-9871650D01*
X4531705Y-9871650D02*
X4560277Y-9871650D01*
X4560277Y-9871650D02*
X4579325Y-9881174D01*
X4579325Y-9881174D02*
X4588848Y-9900222D01*
X4588848Y-9900222D02*
X4588848Y-10004984D01*
X4684086Y-10004984D02*
X4684086Y-9871650D01*
X4684086Y-9890698D02*
X4693610Y-9881174D01*
X4693610Y-9881174D02*
X4712658Y-9871650D01*
X4712658Y-9871650D02*
X4741229Y-9871650D01*
X4741229Y-9871650D02*
X4760277Y-9881174D01*
X4760277Y-9881174D02*
X4769801Y-9900222D01*
X4769801Y-9900222D02*
X4769801Y-10004984D01*
X4769801Y-9900222D02*
X4779325Y-9881174D01*
X4779325Y-9881174D02*
X4798372Y-9871650D01*
X4798372Y-9871650D02*
X4826944Y-9871650D01*
X4826944Y-9871650D02*
X4845991Y-9881174D01*
X4845991Y-9881174D02*
X4855515Y-9900222D01*
X4855515Y-9900222D02*
X4855515Y-10004984D01*
X5245991Y-9795460D02*
X5074563Y-10052603D01*
X5503134Y-9804984D02*
X5522182Y-9804984D01*
X5522182Y-9804984D02*
X5541229Y-9814508D01*
X5541229Y-9814508D02*
X5550753Y-9824031D01*
X5550753Y-9824031D02*
X5560277Y-9843079D01*
X5560277Y-9843079D02*
X5569801Y-9881174D01*
X5569801Y-9881174D02*
X5569801Y-9928793D01*
X5569801Y-9928793D02*
X5560277Y-9966889D01*
X5560277Y-9966889D02*
X5550753Y-9985936D01*
X5550753Y-9985936D02*
X5541229Y-9995460D01*
X5541229Y-9995460D02*
X5522182Y-10004984D01*
X5522182Y-10004984D02*
X5503134Y-10004984D01*
X5503134Y-10004984D02*
X5484087Y-9995460D01*
X5484087Y-9995460D02*
X5474563Y-9985936D01*
X5474563Y-9985936D02*
X5465039Y-9966889D01*
X5465039Y-9966889D02*
X5455515Y-9928793D01*
X5455515Y-9928793D02*
X5455515Y-9881174D01*
X5455515Y-9881174D02*
X5465039Y-9843079D01*
X5465039Y-9843079D02*
X5474563Y-9824031D01*
X5474563Y-9824031D02*
X5484087Y-9814508D01*
X5484087Y-9814508D02*
X5503134Y-9804984D01*
X5655515Y-9985936D02*
X5665039Y-9995460D01*
X5665039Y-9995460D02*
X5655515Y-10004984D01*
X5655515Y-10004984D02*
X5645991Y-9995460D01*
X5645991Y-9995460D02*
X5655515Y-9985936D01*
X5655515Y-9985936D02*
X5655515Y-10004984D01*
X5788848Y-9804984D02*
X5807896Y-9804984D01*
X5807896Y-9804984D02*
X5826944Y-9814508D01*
X5826944Y-9814508D02*
X5836467Y-9824031D01*
X5836467Y-9824031D02*
X5845991Y-9843079D01*
X5845991Y-9843079D02*
X5855515Y-9881174D01*
X5855515Y-9881174D02*
X5855515Y-9928793D01*
X5855515Y-9928793D02*
X5845991Y-9966889D01*
X5845991Y-9966889D02*
X5836467Y-9985936D01*
X5836467Y-9985936D02*
X5826944Y-9995460D01*
X5826944Y-9995460D02*
X5807896Y-10004984D01*
X5807896Y-10004984D02*
X5788848Y-10004984D01*
X5788848Y-10004984D02*
X5769801Y-9995460D01*
X5769801Y-9995460D02*
X5760277Y-9985936D01*
X5760277Y-9985936D02*
X5750753Y-9966889D01*
X5750753Y-9966889D02*
X5741229Y-9928793D01*
X5741229Y-9928793D02*
X5741229Y-9881174D01*
X5741229Y-9881174D02*
X5750753Y-9843079D01*
X5750753Y-9843079D02*
X5760277Y-9824031D01*
X5760277Y-9824031D02*
X5769801Y-9814508D01*
X5769801Y-9814508D02*
X5788848Y-9804984D01*
X5922182Y-9804984D02*
X6055515Y-9804984D01*
X6055515Y-9804984D02*
X5969801Y-10004984D01*
X6169801Y-9804984D02*
X6188848Y-9804984D01*
X6188848Y-9804984D02*
X6207896Y-9814508D01*
X6207896Y-9814508D02*
X6217420Y-9824031D01*
X6217420Y-9824031D02*
X6226944Y-9843079D01*
X6226944Y-9843079D02*
X6236467Y-9881174D01*
X6236467Y-9881174D02*
X6236467Y-9928793D01*
X6236467Y-9928793D02*
X6226944Y-9966889D01*
X6226944Y-9966889D02*
X6217420Y-9985936D01*
X6217420Y-9985936D02*
X6207896Y-9995460D01*
X6207896Y-9995460D02*
X6188848Y-10004984D01*
X6188848Y-10004984D02*
X6169801Y-10004984D01*
X6169801Y-10004984D02*
X6150753Y-9995460D01*
X6150753Y-9995460D02*
X6141229Y-9985936D01*
X6141229Y-9985936D02*
X6131706Y-9966889D01*
X6131706Y-9966889D02*
X6122182Y-9928793D01*
X6122182Y-9928793D02*
X6122182Y-9881174D01*
X6122182Y-9881174D02*
X6131706Y-9843079D01*
X6131706Y-9843079D02*
X6141229Y-9824031D01*
X6141229Y-9824031D02*
X6150753Y-9814508D01*
X6150753Y-9814508D02*
X6169801Y-9804984D01*
X6331706Y-10004984D02*
X6369801Y-10004984D01*
X6369801Y-10004984D02*
X6388848Y-9995460D01*
X6388848Y-9995460D02*
X6398372Y-9985936D01*
X6398372Y-9985936D02*
X6417420Y-9957365D01*
X6417420Y-9957365D02*
X6426944Y-9919270D01*
X6426944Y-9919270D02*
X6426944Y-9843079D01*
X6426944Y-9843079D02*
X6417420Y-9824031D01*
X6417420Y-9824031D02*
X6407896Y-9814508D01*
X6407896Y-9814508D02*
X6388848Y-9804984D01*
X6388848Y-9804984D02*
X6350753Y-9804984D01*
X6350753Y-9804984D02*
X6331706Y-9814508D01*
X6331706Y-9814508D02*
X6322182Y-9824031D01*
X6322182Y-9824031D02*
X6312658Y-9843079D01*
X6312658Y-9843079D02*
X6312658Y-9890698D01*
X6312658Y-9890698D02*
X6322182Y-9909746D01*
X6322182Y-9909746D02*
X6331706Y-9919270D01*
X6331706Y-9919270D02*
X6350753Y-9928793D01*
X6350753Y-9928793D02*
X6388848Y-9928793D01*
X6388848Y-9928793D02*
X6407896Y-9919270D01*
X6407896Y-9919270D02*
X6417420Y-9909746D01*
X6417420Y-9909746D02*
X6426944Y-9890698D01*
X6503134Y-9804984D02*
X6503134Y-9843079D01*
X6579325Y-9804984D02*
X6579325Y-9843079D01*
X6874563Y-10081174D02*
X6865039Y-10071650D01*
X6865039Y-10071650D02*
X6845991Y-10043079D01*
X6845991Y-10043079D02*
X6836468Y-10024031D01*
X6836468Y-10024031D02*
X6826944Y-9995460D01*
X6826944Y-9995460D02*
X6817420Y-9947841D01*
X6817420Y-9947841D02*
X6817420Y-9909746D01*
X6817420Y-9909746D02*
X6826944Y-9862127D01*
X6826944Y-9862127D02*
X6836468Y-9833555D01*
X6836468Y-9833555D02*
X6845991Y-9814508D01*
X6845991Y-9814508D02*
X6865039Y-9785936D01*
X6865039Y-9785936D02*
X6874563Y-9776412D01*
X6988848Y-9804984D02*
X7007896Y-9804984D01*
X7007896Y-9804984D02*
X7026944Y-9814508D01*
X7026944Y-9814508D02*
X7036468Y-9824031D01*
X7036468Y-9824031D02*
X7045991Y-9843079D01*
X7045991Y-9843079D02*
X7055515Y-9881174D01*
X7055515Y-9881174D02*
X7055515Y-9928793D01*
X7055515Y-9928793D02*
X7045991Y-9966889D01*
X7045991Y-9966889D02*
X7036468Y-9985936D01*
X7036468Y-9985936D02*
X7026944Y-9995460D01*
X7026944Y-9995460D02*
X7007896Y-10004984D01*
X7007896Y-10004984D02*
X6988848Y-10004984D01*
X6988848Y-10004984D02*
X6969801Y-9995460D01*
X6969801Y-9995460D02*
X6960277Y-9985936D01*
X6960277Y-9985936D02*
X6950753Y-9966889D01*
X6950753Y-9966889D02*
X6941229Y-9928793D01*
X6941229Y-9928793D02*
X6941229Y-9881174D01*
X6941229Y-9881174D02*
X6950753Y-9843079D01*
X6950753Y-9843079D02*
X6960277Y-9824031D01*
X6960277Y-9824031D02*
X6969801Y-9814508D01*
X6969801Y-9814508D02*
X6988848Y-9804984D01*
X7293610Y-10004984D02*
X7293610Y-9804984D01*
X7379325Y-10004984D02*
X7379325Y-9900222D01*
X7379325Y-9900222D02*
X7369801Y-9881174D01*
X7369801Y-9881174D02*
X7350753Y-9871650D01*
X7350753Y-9871650D02*
X7322182Y-9871650D01*
X7322182Y-9871650D02*
X7303134Y-9881174D01*
X7303134Y-9881174D02*
X7293610Y-9890698D01*
X7503134Y-10004984D02*
X7484087Y-9995460D01*
X7484087Y-9995460D02*
X7474563Y-9985936D01*
X7474563Y-9985936D02*
X7465039Y-9966889D01*
X7465039Y-9966889D02*
X7465039Y-9909746D01*
X7465039Y-9909746D02*
X7474563Y-9890698D01*
X7474563Y-9890698D02*
X7484087Y-9881174D01*
X7484087Y-9881174D02*
X7503134Y-9871650D01*
X7503134Y-9871650D02*
X7531706Y-9871650D01*
X7531706Y-9871650D02*
X7550753Y-9881174D01*
X7550753Y-9881174D02*
X7560277Y-9890698D01*
X7560277Y-9890698D02*
X7569801Y-9909746D01*
X7569801Y-9909746D02*
X7569801Y-9966889D01*
X7569801Y-9966889D02*
X7560277Y-9985936D01*
X7560277Y-9985936D02*
X7550753Y-9995460D01*
X7550753Y-9995460D02*
X7531706Y-10004984D01*
X7531706Y-10004984D02*
X7503134Y-10004984D01*
X7684087Y-10004984D02*
X7665039Y-9995460D01*
X7665039Y-9995460D02*
X7655515Y-9976412D01*
X7655515Y-9976412D02*
X7655515Y-9804984D01*
X7836468Y-9995460D02*
X7817420Y-10004984D01*
X7817420Y-10004984D02*
X7779325Y-10004984D01*
X7779325Y-10004984D02*
X7760277Y-9995460D01*
X7760277Y-9995460D02*
X7750753Y-9976412D01*
X7750753Y-9976412D02*
X7750753Y-9900222D01*
X7750753Y-9900222D02*
X7760277Y-9881174D01*
X7760277Y-9881174D02*
X7779325Y-9871650D01*
X7779325Y-9871650D02*
X7817420Y-9871650D01*
X7817420Y-9871650D02*
X7836468Y-9881174D01*
X7836468Y-9881174D02*
X7845991Y-9900222D01*
X7845991Y-9900222D02*
X7845991Y-9919270D01*
X7845991Y-9919270D02*
X7750753Y-9938317D01*
X7922182Y-9995460D02*
X7941230Y-10004984D01*
X7941230Y-10004984D02*
X7979325Y-10004984D01*
X7979325Y-10004984D02*
X7998372Y-9995460D01*
X7998372Y-9995460D02*
X8007896Y-9976412D01*
X8007896Y-9976412D02*
X8007896Y-9966889D01*
X8007896Y-9966889D02*
X7998372Y-9947841D01*
X7998372Y-9947841D02*
X7979325Y-9938317D01*
X7979325Y-9938317D02*
X7950753Y-9938317D01*
X7950753Y-9938317D02*
X7931706Y-9928793D01*
X7931706Y-9928793D02*
X7922182Y-9909746D01*
X7922182Y-9909746D02*
X7922182Y-9900222D01*
X7922182Y-9900222D02*
X7931706Y-9881174D01*
X7931706Y-9881174D02*
X7950753Y-9871650D01*
X7950753Y-9871650D02*
X7979325Y-9871650D01*
X7979325Y-9871650D02*
X7998372Y-9881174D01*
X8245992Y-9928793D02*
X8398373Y-9928793D01*
X8322182Y-10004984D02*
X8322182Y-9852603D01*
X8731706Y-9804984D02*
X8693611Y-9804984D01*
X8693611Y-9804984D02*
X8674563Y-9814508D01*
X8674563Y-9814508D02*
X8665039Y-9824031D01*
X8665039Y-9824031D02*
X8645992Y-9852603D01*
X8645992Y-9852603D02*
X8636468Y-9890698D01*
X8636468Y-9890698D02*
X8636468Y-9966889D01*
X8636468Y-9966889D02*
X8645992Y-9985936D01*
X8645992Y-9985936D02*
X8655515Y-9995460D01*
X8655515Y-9995460D02*
X8674563Y-10004984D01*
X8674563Y-10004984D02*
X8712658Y-10004984D01*
X8712658Y-10004984D02*
X8731706Y-9995460D01*
X8731706Y-9995460D02*
X8741230Y-9985936D01*
X8741230Y-9985936D02*
X8750754Y-9966889D01*
X8750754Y-9966889D02*
X8750754Y-9919270D01*
X8750754Y-9919270D02*
X8741230Y-9900222D01*
X8741230Y-9900222D02*
X8731706Y-9890698D01*
X8731706Y-9890698D02*
X8712658Y-9881174D01*
X8712658Y-9881174D02*
X8674563Y-9881174D01*
X8674563Y-9881174D02*
X8655515Y-9890698D01*
X8655515Y-9890698D02*
X8645992Y-9900222D01*
X8645992Y-9900222D02*
X8636468Y-9919270D01*
X8979325Y-9995460D02*
X8998373Y-10004984D01*
X8998373Y-10004984D02*
X9036468Y-10004984D01*
X9036468Y-10004984D02*
X9055516Y-9995460D01*
X9055516Y-9995460D02*
X9065039Y-9976412D01*
X9065039Y-9976412D02*
X9065039Y-9966889D01*
X9065039Y-9966889D02*
X9055516Y-9947841D01*
X9055516Y-9947841D02*
X9036468Y-9938317D01*
X9036468Y-9938317D02*
X9007896Y-9938317D01*
X9007896Y-9938317D02*
X8988849Y-9928793D01*
X8988849Y-9928793D02*
X8979325Y-9909746D01*
X8979325Y-9909746D02*
X8979325Y-9900222D01*
X8979325Y-9900222D02*
X8988849Y-9881174D01*
X8988849Y-9881174D02*
X9007896Y-9871650D01*
X9007896Y-9871650D02*
X9036468Y-9871650D01*
X9036468Y-9871650D02*
X9055516Y-9881174D01*
X9179325Y-10004984D02*
X9160277Y-9995460D01*
X9160277Y-9995460D02*
X9150754Y-9976412D01*
X9150754Y-9976412D02*
X9150754Y-9804984D01*
X9284087Y-10004984D02*
X9265039Y-9995460D01*
X9265039Y-9995460D02*
X9255516Y-9985936D01*
X9255516Y-9985936D02*
X9245992Y-9966889D01*
X9245992Y-9966889D02*
X9245992Y-9909746D01*
X9245992Y-9909746D02*
X9255516Y-9890698D01*
X9255516Y-9890698D02*
X9265039Y-9881174D01*
X9265039Y-9881174D02*
X9284087Y-9871650D01*
X9284087Y-9871650D02*
X9312658Y-9871650D01*
X9312658Y-9871650D02*
X9331706Y-9881174D01*
X9331706Y-9881174D02*
X9341230Y-9890698D01*
X9341230Y-9890698D02*
X9350754Y-9909746D01*
X9350754Y-9909746D02*
X9350754Y-9966889D01*
X9350754Y-9966889D02*
X9341230Y-9985936D01*
X9341230Y-9985936D02*
X9331706Y-9995460D01*
X9331706Y-9995460D02*
X9312658Y-10004984D01*
X9312658Y-10004984D02*
X9284087Y-10004984D01*
X9407897Y-9871650D02*
X9484087Y-9871650D01*
X9436468Y-9804984D02*
X9436468Y-9976412D01*
X9436468Y-9976412D02*
X9445992Y-9995460D01*
X9445992Y-9995460D02*
X9465039Y-10004984D01*
X9465039Y-10004984D02*
X9484087Y-10004984D01*
X9541230Y-9995460D02*
X9560277Y-10004984D01*
X9560277Y-10004984D02*
X9598373Y-10004984D01*
X9598373Y-10004984D02*
X9617420Y-9995460D01*
X9617420Y-9995460D02*
X9626944Y-9976412D01*
X9626944Y-9976412D02*
X9626944Y-9966889D01*
X9626944Y-9966889D02*
X9617420Y-9947841D01*
X9617420Y-9947841D02*
X9598373Y-9938317D01*
X9598373Y-9938317D02*
X9569801Y-9938317D01*
X9569801Y-9938317D02*
X9550754Y-9928793D01*
X9550754Y-9928793D02*
X9541230Y-9909746D01*
X9541230Y-9909746D02*
X9541230Y-9900222D01*
X9541230Y-9900222D02*
X9550754Y-9881174D01*
X9550754Y-9881174D02*
X9569801Y-9871650D01*
X9569801Y-9871650D02*
X9598373Y-9871650D01*
X9598373Y-9871650D02*
X9617420Y-9881174D01*
X9693611Y-10081174D02*
X9703135Y-10071650D01*
X9703135Y-10071650D02*
X9722182Y-10043079D01*
X9722182Y-10043079D02*
X9731706Y-10024031D01*
X9731706Y-10024031D02*
X9741230Y-9995460D01*
X9741230Y-9995460D02*
X9750754Y-9947841D01*
X9750754Y-9947841D02*
X9750754Y-9909746D01*
X9750754Y-9909746D02*
X9741230Y-9862127D01*
X9741230Y-9862127D02*
X9731706Y-9833555D01*
X9731706Y-9833555D02*
X9722182Y-9814508D01*
X9722182Y-9814508D02*
X9703135Y-9785936D01*
X9703135Y-9785936D02*
X9693611Y-9776412D01*
X10055516Y-10081174D02*
X10045992Y-10071650D01*
X10045992Y-10071650D02*
X10026944Y-10043079D01*
X10026944Y-10043079D02*
X10017420Y-10024031D01*
X10017420Y-10024031D02*
X10007897Y-9995460D01*
X10007897Y-9995460D02*
X9998373Y-9947841D01*
X9998373Y-9947841D02*
X9998373Y-9909746D01*
X9998373Y-9909746D02*
X10007897Y-9862127D01*
X10007897Y-9862127D02*
X10017420Y-9833555D01*
X10017420Y-9833555D02*
X10026944Y-9814508D01*
X10026944Y-9814508D02*
X10045992Y-9785936D01*
X10045992Y-9785936D02*
X10055516Y-9776412D01*
X10131706Y-9871650D02*
X10131706Y-10004984D01*
X10131706Y-9890698D02*
X10141230Y-9881174D01*
X10141230Y-9881174D02*
X10160277Y-9871650D01*
X10160277Y-9871650D02*
X10188849Y-9871650D01*
X10188849Y-9871650D02*
X10207897Y-9881174D01*
X10207897Y-9881174D02*
X10217420Y-9900222D01*
X10217420Y-9900222D02*
X10217420Y-10004984D01*
X10341230Y-10004984D02*
X10322182Y-9995460D01*
X10322182Y-9995460D02*
X10312658Y-9985936D01*
X10312658Y-9985936D02*
X10303135Y-9966889D01*
X10303135Y-9966889D02*
X10303135Y-9909746D01*
X10303135Y-9909746D02*
X10312658Y-9890698D01*
X10312658Y-9890698D02*
X10322182Y-9881174D01*
X10322182Y-9881174D02*
X10341230Y-9871650D01*
X10341230Y-9871650D02*
X10369801Y-9871650D01*
X10369801Y-9871650D02*
X10388849Y-9881174D01*
X10388849Y-9881174D02*
X10398373Y-9890698D01*
X10398373Y-9890698D02*
X10407897Y-9909746D01*
X10407897Y-9909746D02*
X10407897Y-9966889D01*
X10407897Y-9966889D02*
X10398373Y-9985936D01*
X10398373Y-9985936D02*
X10388849Y-9995460D01*
X10388849Y-9995460D02*
X10369801Y-10004984D01*
X10369801Y-10004984D02*
X10341230Y-10004984D01*
X10465039Y-9871650D02*
X10541230Y-9871650D01*
X10493611Y-9804984D02*
X10493611Y-9976412D01*
X10493611Y-9976412D02*
X10503135Y-9995460D01*
X10503135Y-9995460D02*
X10522182Y-10004984D01*
X10522182Y-10004984D02*
X10541230Y-10004984D01*
X10760278Y-9871650D02*
X10760278Y-10071650D01*
X10760278Y-9881174D02*
X10779325Y-9871650D01*
X10779325Y-9871650D02*
X10817420Y-9871650D01*
X10817420Y-9871650D02*
X10836468Y-9881174D01*
X10836468Y-9881174D02*
X10845992Y-9890698D01*
X10845992Y-9890698D02*
X10855516Y-9909746D01*
X10855516Y-9909746D02*
X10855516Y-9966889D01*
X10855516Y-9966889D02*
X10845992Y-9985936D01*
X10845992Y-9985936D02*
X10836468Y-9995460D01*
X10836468Y-9995460D02*
X10817420Y-10004984D01*
X10817420Y-10004984D02*
X10779325Y-10004984D01*
X10779325Y-10004984D02*
X10760278Y-9995460D01*
X10969801Y-10004984D02*
X10950754Y-9995460D01*
X10950754Y-9995460D02*
X10941230Y-9976412D01*
X10941230Y-9976412D02*
X10941230Y-9804984D01*
X11131706Y-10004984D02*
X11131706Y-9900222D01*
X11131706Y-9900222D02*
X11122182Y-9881174D01*
X11122182Y-9881174D02*
X11103135Y-9871650D01*
X11103135Y-9871650D02*
X11065039Y-9871650D01*
X11065039Y-9871650D02*
X11045992Y-9881174D01*
X11131706Y-9995460D02*
X11112659Y-10004984D01*
X11112659Y-10004984D02*
X11065039Y-10004984D01*
X11065039Y-10004984D02*
X11045992Y-9995460D01*
X11045992Y-9995460D02*
X11036468Y-9976412D01*
X11036468Y-9976412D02*
X11036468Y-9957365D01*
X11036468Y-9957365D02*
X11045992Y-9938317D01*
X11045992Y-9938317D02*
X11065039Y-9928793D01*
X11065039Y-9928793D02*
X11112659Y-9928793D01*
X11112659Y-9928793D02*
X11131706Y-9919270D01*
X11198373Y-9871650D02*
X11274563Y-9871650D01*
X11226944Y-9804984D02*
X11226944Y-9976412D01*
X11226944Y-9976412D02*
X11236468Y-9995460D01*
X11236468Y-9995460D02*
X11255516Y-10004984D01*
X11255516Y-10004984D02*
X11274563Y-10004984D01*
X11417420Y-9995460D02*
X11398373Y-10004984D01*
X11398373Y-10004984D02*
X11360277Y-10004984D01*
X11360277Y-10004984D02*
X11341230Y-9995460D01*
X11341230Y-9995460D02*
X11331706Y-9976412D01*
X11331706Y-9976412D02*
X11331706Y-9900222D01*
X11331706Y-9900222D02*
X11341230Y-9881174D01*
X11341230Y-9881174D02*
X11360277Y-9871650D01*
X11360277Y-9871650D02*
X11398373Y-9871650D01*
X11398373Y-9871650D02*
X11417420Y-9881174D01*
X11417420Y-9881174D02*
X11426944Y-9900222D01*
X11426944Y-9900222D02*
X11426944Y-9919270D01*
X11426944Y-9919270D02*
X11331706Y-9938317D01*
X11598373Y-10004984D02*
X11598373Y-9804984D01*
X11598373Y-9995460D02*
X11579325Y-10004984D01*
X11579325Y-10004984D02*
X11541230Y-10004984D01*
X11541230Y-10004984D02*
X11522182Y-9995460D01*
X11522182Y-9995460D02*
X11512658Y-9985936D01*
X11512658Y-9985936D02*
X11503135Y-9966889D01*
X11503135Y-9966889D02*
X11503135Y-9909746D01*
X11503135Y-9909746D02*
X11512658Y-9890698D01*
X11512658Y-9890698D02*
X11522182Y-9881174D01*
X11522182Y-9881174D02*
X11541230Y-9871650D01*
X11541230Y-9871650D02*
X11579325Y-9871650D01*
X11579325Y-9871650D02*
X11598373Y-9881174D01*
X11674563Y-10081174D02*
X11684087Y-10071650D01*
X11684087Y-10071650D02*
X11703135Y-10043079D01*
X11703135Y-10043079D02*
X11712658Y-10024031D01*
X11712658Y-10024031D02*
X11722182Y-9995460D01*
X11722182Y-9995460D02*
X11731706Y-9947841D01*
X11731706Y-9947841D02*
X11731706Y-9909746D01*
X11731706Y-9909746D02*
X11722182Y-9862127D01*
X11722182Y-9862127D02*
X11712658Y-9833555D01*
X11712658Y-9833555D02*
X11703135Y-9814508D01*
X11703135Y-9814508D02*
X11684087Y-9785936D01*
X11684087Y-9785936D02*
X11674563Y-9776412D01*
X3299500Y-10213500D02*
G75*
G02*
X3099500Y-10213500I-100000J0D01*
G01*
X3099500Y-10213500D02*
G75*
G02*
X3299500Y-10213500I100000J0D01*
G01*
X3541229Y-10104984D02*
X3665039Y-10104984D01*
X3665039Y-10104984D02*
X3598372Y-10181174D01*
X3598372Y-10181174D02*
X3626943Y-10181174D01*
X3626943Y-10181174D02*
X3645991Y-10190698D01*
X3645991Y-10190698D02*
X3655515Y-10200222D01*
X3655515Y-10200222D02*
X3665039Y-10219270D01*
X3665039Y-10219270D02*
X3665039Y-10266889D01*
X3665039Y-10266889D02*
X3655515Y-10285936D01*
X3655515Y-10285936D02*
X3645991Y-10295460D01*
X3645991Y-10295460D02*
X3626943Y-10304984D01*
X3626943Y-10304984D02*
X3569801Y-10304984D01*
X3569801Y-10304984D02*
X3550753Y-10295460D01*
X3550753Y-10295460D02*
X3541229Y-10285936D01*
X3750753Y-10285936D02*
X3760277Y-10295460D01*
X3760277Y-10295460D02*
X3750753Y-10304984D01*
X3750753Y-10304984D02*
X3741229Y-10295460D01*
X3741229Y-10295460D02*
X3750753Y-10285936D01*
X3750753Y-10285936D02*
X3750753Y-10304984D01*
X3836467Y-10124031D02*
X3845991Y-10114508D01*
X3845991Y-10114508D02*
X3865039Y-10104984D01*
X3865039Y-10104984D02*
X3912658Y-10104984D01*
X3912658Y-10104984D02*
X3931705Y-10114508D01*
X3931705Y-10114508D02*
X3941229Y-10124031D01*
X3941229Y-10124031D02*
X3950753Y-10143079D01*
X3950753Y-10143079D02*
X3950753Y-10162127D01*
X3950753Y-10162127D02*
X3941229Y-10190698D01*
X3941229Y-10190698D02*
X3826943Y-10304984D01*
X3826943Y-10304984D02*
X3950753Y-10304984D01*
X4074562Y-10104984D02*
X4093610Y-10104984D01*
X4093610Y-10104984D02*
X4112658Y-10114508D01*
X4112658Y-10114508D02*
X4122182Y-10124031D01*
X4122182Y-10124031D02*
X4131705Y-10143079D01*
X4131705Y-10143079D02*
X4141229Y-10181174D01*
X4141229Y-10181174D02*
X4141229Y-10228793D01*
X4141229Y-10228793D02*
X4131705Y-10266889D01*
X4131705Y-10266889D02*
X4122182Y-10285936D01*
X4122182Y-10285936D02*
X4112658Y-10295460D01*
X4112658Y-10295460D02*
X4093610Y-10304984D01*
X4093610Y-10304984D02*
X4074562Y-10304984D01*
X4074562Y-10304984D02*
X4055515Y-10295460D01*
X4055515Y-10295460D02*
X4045991Y-10285936D01*
X4045991Y-10285936D02*
X4036467Y-10266889D01*
X4036467Y-10266889D02*
X4026943Y-10228793D01*
X4026943Y-10228793D02*
X4026943Y-10181174D01*
X4026943Y-10181174D02*
X4036467Y-10143079D01*
X4036467Y-10143079D02*
X4045991Y-10124031D01*
X4045991Y-10124031D02*
X4055515Y-10114508D01*
X4055515Y-10114508D02*
X4074562Y-10104984D01*
X4265039Y-10104984D02*
X4284086Y-10104984D01*
X4284086Y-10104984D02*
X4303134Y-10114508D01*
X4303134Y-10114508D02*
X4312658Y-10124031D01*
X4312658Y-10124031D02*
X4322182Y-10143079D01*
X4322182Y-10143079D02*
X4331705Y-10181174D01*
X4331705Y-10181174D02*
X4331705Y-10228793D01*
X4331705Y-10228793D02*
X4322182Y-10266889D01*
X4322182Y-10266889D02*
X4312658Y-10285936D01*
X4312658Y-10285936D02*
X4303134Y-10295460D01*
X4303134Y-10295460D02*
X4284086Y-10304984D01*
X4284086Y-10304984D02*
X4265039Y-10304984D01*
X4265039Y-10304984D02*
X4245991Y-10295460D01*
X4245991Y-10295460D02*
X4236467Y-10285936D01*
X4236467Y-10285936D02*
X4226944Y-10266889D01*
X4226944Y-10266889D02*
X4217420Y-10228793D01*
X4217420Y-10228793D02*
X4217420Y-10181174D01*
X4217420Y-10181174D02*
X4226944Y-10143079D01*
X4226944Y-10143079D02*
X4236467Y-10124031D01*
X4236467Y-10124031D02*
X4245991Y-10114508D01*
X4245991Y-10114508D02*
X4265039Y-10104984D01*
X4417420Y-10304984D02*
X4417420Y-10171650D01*
X4417420Y-10190698D02*
X4426944Y-10181174D01*
X4426944Y-10181174D02*
X4445991Y-10171650D01*
X4445991Y-10171650D02*
X4474563Y-10171650D01*
X4474563Y-10171650D02*
X4493610Y-10181174D01*
X4493610Y-10181174D02*
X4503134Y-10200222D01*
X4503134Y-10200222D02*
X4503134Y-10304984D01*
X4503134Y-10200222D02*
X4512658Y-10181174D01*
X4512658Y-10181174D02*
X4531705Y-10171650D01*
X4531705Y-10171650D02*
X4560277Y-10171650D01*
X4560277Y-10171650D02*
X4579325Y-10181174D01*
X4579325Y-10181174D02*
X4588848Y-10200222D01*
X4588848Y-10200222D02*
X4588848Y-10304984D01*
X4684086Y-10304984D02*
X4684086Y-10171650D01*
X4684086Y-10190698D02*
X4693610Y-10181174D01*
X4693610Y-10181174D02*
X4712658Y-10171650D01*
X4712658Y-10171650D02*
X4741229Y-10171650D01*
X4741229Y-10171650D02*
X4760277Y-10181174D01*
X4760277Y-10181174D02*
X4769801Y-10200222D01*
X4769801Y-10200222D02*
X4769801Y-10304984D01*
X4769801Y-10200222D02*
X4779325Y-10181174D01*
X4779325Y-10181174D02*
X4798372Y-10171650D01*
X4798372Y-10171650D02*
X4826944Y-10171650D01*
X4826944Y-10171650D02*
X4845991Y-10181174D01*
X4845991Y-10181174D02*
X4855515Y-10200222D01*
X4855515Y-10200222D02*
X4855515Y-10304984D01*
X5245991Y-10095460D02*
X5074563Y-10352603D01*
X5503134Y-10104984D02*
X5522182Y-10104984D01*
X5522182Y-10104984D02*
X5541229Y-10114508D01*
X5541229Y-10114508D02*
X5550753Y-10124031D01*
X5550753Y-10124031D02*
X5560277Y-10143079D01*
X5560277Y-10143079D02*
X5569801Y-10181174D01*
X5569801Y-10181174D02*
X5569801Y-10228793D01*
X5569801Y-10228793D02*
X5560277Y-10266889D01*
X5560277Y-10266889D02*
X5550753Y-10285936D01*
X5550753Y-10285936D02*
X5541229Y-10295460D01*
X5541229Y-10295460D02*
X5522182Y-10304984D01*
X5522182Y-10304984D02*
X5503134Y-10304984D01*
X5503134Y-10304984D02*
X5484087Y-10295460D01*
X5484087Y-10295460D02*
X5474563Y-10285936D01*
X5474563Y-10285936D02*
X5465039Y-10266889D01*
X5465039Y-10266889D02*
X5455515Y-10228793D01*
X5455515Y-10228793D02*
X5455515Y-10181174D01*
X5455515Y-10181174D02*
X5465039Y-10143079D01*
X5465039Y-10143079D02*
X5474563Y-10124031D01*
X5474563Y-10124031D02*
X5484087Y-10114508D01*
X5484087Y-10114508D02*
X5503134Y-10104984D01*
X5655515Y-10285936D02*
X5665039Y-10295460D01*
X5665039Y-10295460D02*
X5655515Y-10304984D01*
X5655515Y-10304984D02*
X5645991Y-10295460D01*
X5645991Y-10295460D02*
X5655515Y-10285936D01*
X5655515Y-10285936D02*
X5655515Y-10304984D01*
X5855515Y-10304984D02*
X5741229Y-10304984D01*
X5798372Y-10304984D02*
X5798372Y-10104984D01*
X5798372Y-10104984D02*
X5779325Y-10133555D01*
X5779325Y-10133555D02*
X5760277Y-10152603D01*
X5760277Y-10152603D02*
X5741229Y-10162127D01*
X5931706Y-10124031D02*
X5941229Y-10114508D01*
X5941229Y-10114508D02*
X5960277Y-10104984D01*
X5960277Y-10104984D02*
X6007896Y-10104984D01*
X6007896Y-10104984D02*
X6026944Y-10114508D01*
X6026944Y-10114508D02*
X6036467Y-10124031D01*
X6036467Y-10124031D02*
X6045991Y-10143079D01*
X6045991Y-10143079D02*
X6045991Y-10162127D01*
X6045991Y-10162127D02*
X6036467Y-10190698D01*
X6036467Y-10190698D02*
X5922182Y-10304984D01*
X5922182Y-10304984D02*
X6045991Y-10304984D01*
X6217420Y-10104984D02*
X6179325Y-10104984D01*
X6179325Y-10104984D02*
X6160277Y-10114508D01*
X6160277Y-10114508D02*
X6150753Y-10124031D01*
X6150753Y-10124031D02*
X6131706Y-10152603D01*
X6131706Y-10152603D02*
X6122182Y-10190698D01*
X6122182Y-10190698D02*
X6122182Y-10266889D01*
X6122182Y-10266889D02*
X6131706Y-10285936D01*
X6131706Y-10285936D02*
X6141229Y-10295460D01*
X6141229Y-10295460D02*
X6160277Y-10304984D01*
X6160277Y-10304984D02*
X6198372Y-10304984D01*
X6198372Y-10304984D02*
X6217420Y-10295460D01*
X6217420Y-10295460D02*
X6226944Y-10285936D01*
X6226944Y-10285936D02*
X6236467Y-10266889D01*
X6236467Y-10266889D02*
X6236467Y-10219270D01*
X6236467Y-10219270D02*
X6226944Y-10200222D01*
X6226944Y-10200222D02*
X6217420Y-10190698D01*
X6217420Y-10190698D02*
X6198372Y-10181174D01*
X6198372Y-10181174D02*
X6160277Y-10181174D01*
X6160277Y-10181174D02*
X6141229Y-10190698D01*
X6141229Y-10190698D02*
X6131706Y-10200222D01*
X6131706Y-10200222D02*
X6122182Y-10219270D01*
X6360277Y-10104984D02*
X6379325Y-10104984D01*
X6379325Y-10104984D02*
X6398372Y-10114508D01*
X6398372Y-10114508D02*
X6407896Y-10124031D01*
X6407896Y-10124031D02*
X6417420Y-10143079D01*
X6417420Y-10143079D02*
X6426944Y-10181174D01*
X6426944Y-10181174D02*
X6426944Y-10228793D01*
X6426944Y-10228793D02*
X6417420Y-10266889D01*
X6417420Y-10266889D02*
X6407896Y-10285936D01*
X6407896Y-10285936D02*
X6398372Y-10295460D01*
X6398372Y-10295460D02*
X6379325Y-10304984D01*
X6379325Y-10304984D02*
X6360277Y-10304984D01*
X6360277Y-10304984D02*
X6341229Y-10295460D01*
X6341229Y-10295460D02*
X6331706Y-10285936D01*
X6331706Y-10285936D02*
X6322182Y-10266889D01*
X6322182Y-10266889D02*
X6312658Y-10228793D01*
X6312658Y-10228793D02*
X6312658Y-10181174D01*
X6312658Y-10181174D02*
X6322182Y-10143079D01*
X6322182Y-10143079D02*
X6331706Y-10124031D01*
X6331706Y-10124031D02*
X6341229Y-10114508D01*
X6341229Y-10114508D02*
X6360277Y-10104984D01*
X6503134Y-10104984D02*
X6503134Y-10143079D01*
X6579325Y-10104984D02*
X6579325Y-10143079D01*
X6874563Y-10381174D02*
X6865039Y-10371650D01*
X6865039Y-10371650D02*
X6845991Y-10343079D01*
X6845991Y-10343079D02*
X6836468Y-10324031D01*
X6836468Y-10324031D02*
X6826944Y-10295460D01*
X6826944Y-10295460D02*
X6817420Y-10247841D01*
X6817420Y-10247841D02*
X6817420Y-10209746D01*
X6817420Y-10209746D02*
X6826944Y-10162127D01*
X6826944Y-10162127D02*
X6836468Y-10133555D01*
X6836468Y-10133555D02*
X6845991Y-10114508D01*
X6845991Y-10114508D02*
X6865039Y-10085936D01*
X6865039Y-10085936D02*
X6874563Y-10076412D01*
X6941229Y-10124031D02*
X6950753Y-10114508D01*
X6950753Y-10114508D02*
X6969801Y-10104984D01*
X6969801Y-10104984D02*
X7017420Y-10104984D01*
X7017420Y-10104984D02*
X7036468Y-10114508D01*
X7036468Y-10114508D02*
X7045991Y-10124031D01*
X7045991Y-10124031D02*
X7055515Y-10143079D01*
X7055515Y-10143079D02*
X7055515Y-10162127D01*
X7055515Y-10162127D02*
X7045991Y-10190698D01*
X7045991Y-10190698D02*
X6931706Y-10304984D01*
X6931706Y-10304984D02*
X7055515Y-10304984D01*
X7293610Y-10304984D02*
X7293610Y-10104984D01*
X7379325Y-10304984D02*
X7379325Y-10200222D01*
X7379325Y-10200222D02*
X7369801Y-10181174D01*
X7369801Y-10181174D02*
X7350753Y-10171650D01*
X7350753Y-10171650D02*
X7322182Y-10171650D01*
X7322182Y-10171650D02*
X7303134Y-10181174D01*
X7303134Y-10181174D02*
X7293610Y-10190698D01*
X7503134Y-10304984D02*
X7484087Y-10295460D01*
X7484087Y-10295460D02*
X7474563Y-10285936D01*
X7474563Y-10285936D02*
X7465039Y-10266889D01*
X7465039Y-10266889D02*
X7465039Y-10209746D01*
X7465039Y-10209746D02*
X7474563Y-10190698D01*
X7474563Y-10190698D02*
X7484087Y-10181174D01*
X7484087Y-10181174D02*
X7503134Y-10171650D01*
X7503134Y-10171650D02*
X7531706Y-10171650D01*
X7531706Y-10171650D02*
X7550753Y-10181174D01*
X7550753Y-10181174D02*
X7560277Y-10190698D01*
X7560277Y-10190698D02*
X7569801Y-10209746D01*
X7569801Y-10209746D02*
X7569801Y-10266889D01*
X7569801Y-10266889D02*
X7560277Y-10285936D01*
X7560277Y-10285936D02*
X7550753Y-10295460D01*
X7550753Y-10295460D02*
X7531706Y-10304984D01*
X7531706Y-10304984D02*
X7503134Y-10304984D01*
X7684087Y-10304984D02*
X7665039Y-10295460D01*
X7665039Y-10295460D02*
X7655515Y-10276412D01*
X7655515Y-10276412D02*
X7655515Y-10104984D01*
X7836468Y-10295460D02*
X7817420Y-10304984D01*
X7817420Y-10304984D02*
X7779325Y-10304984D01*
X7779325Y-10304984D02*
X7760277Y-10295460D01*
X7760277Y-10295460D02*
X7750753Y-10276412D01*
X7750753Y-10276412D02*
X7750753Y-10200222D01*
X7750753Y-10200222D02*
X7760277Y-10181174D01*
X7760277Y-10181174D02*
X7779325Y-10171650D01*
X7779325Y-10171650D02*
X7817420Y-10171650D01*
X7817420Y-10171650D02*
X7836468Y-10181174D01*
X7836468Y-10181174D02*
X7845991Y-10200222D01*
X7845991Y-10200222D02*
X7845991Y-10219270D01*
X7845991Y-10219270D02*
X7750753Y-10238317D01*
X7922182Y-10295460D02*
X7941230Y-10304984D01*
X7941230Y-10304984D02*
X7979325Y-10304984D01*
X7979325Y-10304984D02*
X7998372Y-10295460D01*
X7998372Y-10295460D02*
X8007896Y-10276412D01*
X8007896Y-10276412D02*
X8007896Y-10266889D01*
X8007896Y-10266889D02*
X7998372Y-10247841D01*
X7998372Y-10247841D02*
X7979325Y-10238317D01*
X7979325Y-10238317D02*
X7950753Y-10238317D01*
X7950753Y-10238317D02*
X7931706Y-10228793D01*
X7931706Y-10228793D02*
X7922182Y-10209746D01*
X7922182Y-10209746D02*
X7922182Y-10200222D01*
X7922182Y-10200222D02*
X7931706Y-10181174D01*
X7931706Y-10181174D02*
X7950753Y-10171650D01*
X7950753Y-10171650D02*
X7979325Y-10171650D01*
X7979325Y-10171650D02*
X7998372Y-10181174D01*
X8074563Y-10381174D02*
X8084087Y-10371650D01*
X8084087Y-10371650D02*
X8103134Y-10343079D01*
X8103134Y-10343079D02*
X8112658Y-10324031D01*
X8112658Y-10324031D02*
X8122182Y-10295460D01*
X8122182Y-10295460D02*
X8131706Y-10247841D01*
X8131706Y-10247841D02*
X8131706Y-10209746D01*
X8131706Y-10209746D02*
X8122182Y-10162127D01*
X8122182Y-10162127D02*
X8112658Y-10133555D01*
X8112658Y-10133555D02*
X8103134Y-10114508D01*
X8103134Y-10114508D02*
X8084087Y-10085936D01*
X8084087Y-10085936D02*
X8074563Y-10076412D01*
X8436468Y-10381174D02*
X8426944Y-10371650D01*
X8426944Y-10371650D02*
X8407896Y-10343079D01*
X8407896Y-10343079D02*
X8398373Y-10324031D01*
X8398373Y-10324031D02*
X8388849Y-10295460D01*
X8388849Y-10295460D02*
X8379325Y-10247841D01*
X8379325Y-10247841D02*
X8379325Y-10209746D01*
X8379325Y-10209746D02*
X8388849Y-10162127D01*
X8388849Y-10162127D02*
X8398373Y-10133555D01*
X8398373Y-10133555D02*
X8407896Y-10114508D01*
X8407896Y-10114508D02*
X8426944Y-10085936D01*
X8426944Y-10085936D02*
X8436468Y-10076412D01*
X8512658Y-10171650D02*
X8512658Y-10304984D01*
X8512658Y-10190698D02*
X8522182Y-10181174D01*
X8522182Y-10181174D02*
X8541230Y-10171650D01*
X8541230Y-10171650D02*
X8569801Y-10171650D01*
X8569801Y-10171650D02*
X8588849Y-10181174D01*
X8588849Y-10181174D02*
X8598373Y-10200222D01*
X8598373Y-10200222D02*
X8598373Y-10304984D01*
X8722182Y-10304984D02*
X8703134Y-10295460D01*
X8703134Y-10295460D02*
X8693611Y-10285936D01*
X8693611Y-10285936D02*
X8684087Y-10266889D01*
X8684087Y-10266889D02*
X8684087Y-10209746D01*
X8684087Y-10209746D02*
X8693611Y-10190698D01*
X8693611Y-10190698D02*
X8703134Y-10181174D01*
X8703134Y-10181174D02*
X8722182Y-10171650D01*
X8722182Y-10171650D02*
X8750754Y-10171650D01*
X8750754Y-10171650D02*
X8769801Y-10181174D01*
X8769801Y-10181174D02*
X8779325Y-10190698D01*
X8779325Y-10190698D02*
X8788849Y-10209746D01*
X8788849Y-10209746D02*
X8788849Y-10266889D01*
X8788849Y-10266889D02*
X8779325Y-10285936D01*
X8779325Y-10285936D02*
X8769801Y-10295460D01*
X8769801Y-10295460D02*
X8750754Y-10304984D01*
X8750754Y-10304984D02*
X8722182Y-10304984D01*
X8845992Y-10171650D02*
X8922182Y-10171650D01*
X8874563Y-10104984D02*
X8874563Y-10276412D01*
X8874563Y-10276412D02*
X8884087Y-10295460D01*
X8884087Y-10295460D02*
X8903134Y-10304984D01*
X8903134Y-10304984D02*
X8922182Y-10304984D01*
X9141230Y-10171650D02*
X9141230Y-10371650D01*
X9141230Y-10181174D02*
X9160277Y-10171650D01*
X9160277Y-10171650D02*
X9198373Y-10171650D01*
X9198373Y-10171650D02*
X9217420Y-10181174D01*
X9217420Y-10181174D02*
X9226944Y-10190698D01*
X9226944Y-10190698D02*
X9236468Y-10209746D01*
X9236468Y-10209746D02*
X9236468Y-10266889D01*
X9236468Y-10266889D02*
X9226944Y-10285936D01*
X9226944Y-10285936D02*
X9217420Y-10295460D01*
X9217420Y-10295460D02*
X9198373Y-10304984D01*
X9198373Y-10304984D02*
X9160277Y-10304984D01*
X9160277Y-10304984D02*
X9141230Y-10295460D01*
X9350754Y-10304984D02*
X9331706Y-10295460D01*
X9331706Y-10295460D02*
X9322182Y-10276412D01*
X9322182Y-10276412D02*
X9322182Y-10104984D01*
X9512658Y-10304984D02*
X9512658Y-10200222D01*
X9512658Y-10200222D02*
X9503135Y-10181174D01*
X9503135Y-10181174D02*
X9484087Y-10171650D01*
X9484087Y-10171650D02*
X9445992Y-10171650D01*
X9445992Y-10171650D02*
X9426944Y-10181174D01*
X9512658Y-10295460D02*
X9493611Y-10304984D01*
X9493611Y-10304984D02*
X9445992Y-10304984D01*
X9445992Y-10304984D02*
X9426944Y-10295460D01*
X9426944Y-10295460D02*
X9417420Y-10276412D01*
X9417420Y-10276412D02*
X9417420Y-10257365D01*
X9417420Y-10257365D02*
X9426944Y-10238317D01*
X9426944Y-10238317D02*
X9445992Y-10228793D01*
X9445992Y-10228793D02*
X9493611Y-10228793D01*
X9493611Y-10228793D02*
X9512658Y-10219270D01*
X9579325Y-10171650D02*
X9655515Y-10171650D01*
X9607896Y-10104984D02*
X9607896Y-10276412D01*
X9607896Y-10276412D02*
X9617420Y-10295460D01*
X9617420Y-10295460D02*
X9636468Y-10304984D01*
X9636468Y-10304984D02*
X9655515Y-10304984D01*
X9798373Y-10295460D02*
X9779325Y-10304984D01*
X9779325Y-10304984D02*
X9741230Y-10304984D01*
X9741230Y-10304984D02*
X9722182Y-10295460D01*
X9722182Y-10295460D02*
X9712658Y-10276412D01*
X9712658Y-10276412D02*
X9712658Y-10200222D01*
X9712658Y-10200222D02*
X9722182Y-10181174D01*
X9722182Y-10181174D02*
X9741230Y-10171650D01*
X9741230Y-10171650D02*
X9779325Y-10171650D01*
X9779325Y-10171650D02*
X9798373Y-10181174D01*
X9798373Y-10181174D02*
X9807896Y-10200222D01*
X9807896Y-10200222D02*
X9807896Y-10219270D01*
X9807896Y-10219270D02*
X9712658Y-10238317D01*
X9979325Y-10304984D02*
X9979325Y-10104984D01*
X9979325Y-10295460D02*
X9960277Y-10304984D01*
X9960277Y-10304984D02*
X9922182Y-10304984D01*
X9922182Y-10304984D02*
X9903135Y-10295460D01*
X9903135Y-10295460D02*
X9893611Y-10285936D01*
X9893611Y-10285936D02*
X9884087Y-10266889D01*
X9884087Y-10266889D02*
X9884087Y-10209746D01*
X9884087Y-10209746D02*
X9893611Y-10190698D01*
X9893611Y-10190698D02*
X9903135Y-10181174D01*
X9903135Y-10181174D02*
X9922182Y-10171650D01*
X9922182Y-10171650D02*
X9960277Y-10171650D01*
X9960277Y-10171650D02*
X9979325Y-10181174D01*
X10055516Y-10381174D02*
X10065039Y-10371650D01*
X10065039Y-10371650D02*
X10084087Y-10343079D01*
X10084087Y-10343079D02*
X10093611Y-10324031D01*
X10093611Y-10324031D02*
X10103135Y-10295460D01*
X10103135Y-10295460D02*
X10112658Y-10247841D01*
X10112658Y-10247841D02*
X10112658Y-10209746D01*
X10112658Y-10209746D02*
X10103135Y-10162127D01*
X10103135Y-10162127D02*
X10093611Y-10133555D01*
X10093611Y-10133555D02*
X10084087Y-10114508D01*
X10084087Y-10114508D02*
X10065039Y-10085936D01*
X10065039Y-10085936D02*
X10055516Y-10076412D01*
M02*
