%TF.GenerationSoftware,KiCad,Pcbnew,8.0.9*%
%TF.CreationDate,2025-03-02T13:49:47+01:00*%
%TF.ProjectId,cjss501,636a7373-3530-4312-9e6b-696361645f70,rev?*%
%TF.SameCoordinates,Original*%
%TF.FileFunction,Drillmap*%
%TF.FilePolarity,Positive*%
%FSLAX45Y45*%
G04 Gerber Fmt 4.5, Leading zero omitted, Abs format (unit mm)*
G04 Created by KiCad (PCBNEW 8.0.9) date 2025-03-02 13:49:47*
%MOMM*%
%LPD*%
G01*
G04 APERTURE LIST*
%ADD10C,0.050000*%
%ADD11C,0.200000*%
%ADD12C,0.100000*%
%ADD13C,0.130000*%
%ADD14C,0.150000*%
%ADD15C,0.320000*%
G04 APERTURE END LIST*
D10*
X15621000Y-3556000D02*
G75*
G02*
X15875000Y-3810000I0J-254000D01*
G01*
X15875000Y-9017000D02*
G75*
G02*
X15621000Y-9271000I-254000J0D01*
G01*
X3302000Y-9017000D02*
X3302000Y-3810000D01*
X3302000Y-3810000D02*
G75*
G02*
X3556000Y-3556000I254000J0D01*
G01*
X3556000Y-9271000D02*
G75*
G02*
X3302000Y-9017000I0J254000D01*
G01*
X3556000Y-3556000D02*
X15621000Y-3556000D01*
X15621000Y-9271000D02*
X3556000Y-9271000D01*
X15875000Y-3810000D02*
X15875000Y-9017000D01*
D11*
D12*
X8748000Y-6462000D02*
X8778000Y-6492000D01*
X8778000Y-6462000D02*
X8748000Y-6492000D01*
X8748000Y-8113000D02*
X8778000Y-8143000D01*
X8778000Y-8113000D02*
X8748000Y-8143000D01*
X9682000Y-5946000D02*
G75*
G02*
X9622000Y-5946000I-30000J0D01*
G01*
X9622000Y-5946000D02*
G75*
G02*
X9682000Y-5946000I30000J0D01*
G01*
X9682000Y-6096000D02*
G75*
G02*
X9622000Y-6096000I-30000J0D01*
G01*
X9622000Y-6096000D02*
G75*
G02*
X9682000Y-6096000I30000J0D01*
G01*
X10698000Y-5946000D02*
G75*
G02*
X10638000Y-5946000I-30000J0D01*
G01*
X10638000Y-5946000D02*
G75*
G02*
X10698000Y-5946000I30000J0D01*
G01*
X10698000Y-6096000D02*
G75*
G02*
X10638000Y-6096000I-30000J0D01*
G01*
X10638000Y-6096000D02*
G75*
G02*
X10698000Y-6096000I30000J0D01*
G01*
X13850000Y-7620000D02*
G75*
G02*
X13790000Y-7620000I-30000J0D01*
G01*
X13790000Y-7620000D02*
G75*
G02*
X13850000Y-7620000I30000J0D01*
G01*
X14000000Y-7620000D02*
G75*
G02*
X13940000Y-7620000I-30000J0D01*
G01*
X13940000Y-7620000D02*
G75*
G02*
X14000000Y-7620000I30000J0D01*
G01*
X14993000Y-7620000D02*
G75*
G02*
X14933000Y-7620000I-30000J0D01*
G01*
X14933000Y-7620000D02*
G75*
G02*
X14993000Y-7620000I30000J0D01*
G01*
X15143000Y-7620000D02*
G75*
G02*
X15083000Y-7620000I-30000J0D01*
G01*
X15083000Y-7620000D02*
G75*
G02*
X15143000Y-7620000I30000J0D01*
G01*
X9398000Y-6693500D02*
X9398000Y-6768500D01*
X9360500Y-6731000D02*
X9435500Y-6731000D01*
X9398000Y-7201500D02*
X9398000Y-7276500D01*
X9360500Y-7239000D02*
X9435500Y-7239000D01*
X9525000Y-6693500D02*
X9525000Y-6768500D01*
X9487500Y-6731000D02*
X9562500Y-6731000D01*
X9525000Y-7201500D02*
X9525000Y-7276500D01*
X9487500Y-7239000D02*
X9562500Y-7239000D01*
X9652000Y-6693500D02*
X9652000Y-6768500D01*
X9614500Y-6731000D02*
X9689500Y-6731000D01*
X9652000Y-7201500D02*
X9652000Y-7276500D01*
X9614500Y-7239000D02*
X9689500Y-7239000D01*
X10414000Y-6693500D02*
X10414000Y-6768500D01*
X10376500Y-6731000D02*
X10451500Y-6731000D01*
X10414000Y-7201500D02*
X10414000Y-7276500D01*
X10376500Y-7239000D02*
X10451500Y-7239000D01*
X10541000Y-6693500D02*
X10541000Y-6768500D01*
X10503500Y-6731000D02*
X10578500Y-6731000D01*
X10541000Y-7201500D02*
X10541000Y-7276500D01*
X10503500Y-7239000D02*
X10578500Y-7239000D01*
X10668000Y-6693500D02*
X10668000Y-6768500D01*
X10630500Y-6731000D02*
X10705500Y-6731000D01*
X10668000Y-7201500D02*
X10668000Y-7276500D01*
X10630500Y-7239000D02*
X10705500Y-7239000D01*
X13970000Y-7011000D02*
X13970000Y-7086000D01*
X13932500Y-7048500D02*
X14007500Y-7048500D01*
X14097000Y-7011000D02*
X14097000Y-7086000D01*
X14059500Y-7048500D02*
X14134500Y-7048500D01*
X14224000Y-7011000D02*
X14224000Y-7086000D01*
X14186500Y-7048500D02*
X14261500Y-7048500D01*
X15113000Y-7011000D02*
X15113000Y-7086000D01*
X15075500Y-7048500D02*
X15150500Y-7048500D01*
X15240000Y-7011000D02*
X15240000Y-7086000D01*
X15202500Y-7048500D02*
X15277500Y-7048500D01*
X15367000Y-7011000D02*
X15367000Y-7086000D01*
X15329500Y-7048500D02*
X15404500Y-7048500D01*
X3965284Y-5870284D02*
X3965284Y-5813715D01*
X3908715Y-5813715D01*
X3908715Y-5870284D01*
X3965284Y-5870284D01*
X3965284Y-6632284D02*
X3965284Y-6575715D01*
X3908715Y-6575715D01*
X3908715Y-6632284D01*
X3965284Y-6632284D01*
X3965284Y-7521284D02*
X3965284Y-7464715D01*
X3908715Y-7464715D01*
X3908715Y-7521284D01*
X3965284Y-7521284D01*
X3965284Y-8283284D02*
X3965284Y-8226715D01*
X3908715Y-8226715D01*
X3908715Y-8283284D01*
X3965284Y-8283284D01*
X4282785Y-5425785D02*
X4282785Y-5369216D01*
X4226216Y-5369216D01*
X4226216Y-5425785D01*
X4282785Y-5425785D01*
X4536785Y-5425785D02*
X4536785Y-5369216D01*
X4480216Y-5369216D01*
X4480216Y-5425785D01*
X4536785Y-5425785D01*
X6505284Y-5870284D02*
X6505284Y-5813715D01*
X6448715Y-5813715D01*
X6448715Y-5870284D01*
X6505284Y-5870284D01*
X6505284Y-6632284D02*
X6505284Y-6575715D01*
X6448715Y-6575715D01*
X6448715Y-6632284D01*
X6505284Y-6632284D01*
X6505284Y-7521284D02*
X6505284Y-7464715D01*
X6448715Y-7464715D01*
X6448715Y-7521284D01*
X6505284Y-7521284D01*
X6505284Y-8283284D02*
X6505284Y-8226715D01*
X6448715Y-8226715D01*
X6448715Y-8283284D01*
X6505284Y-8283284D01*
X8727785Y-9172285D02*
X8727785Y-9115716D01*
X8671216Y-9115716D01*
X8671216Y-9172285D01*
X8727785Y-9172285D01*
X8981785Y-9172285D02*
X8981785Y-9115716D01*
X8925216Y-9115716D01*
X8925216Y-9172285D01*
X8981785Y-9172285D01*
X9045285Y-6505284D02*
X9045285Y-6448715D01*
X8988716Y-6448715D01*
X8988716Y-6505284D01*
X9045285Y-6505284D01*
X9045285Y-6759284D02*
X9045285Y-6702715D01*
X8988716Y-6702715D01*
X8988716Y-6759284D01*
X9045285Y-6759284D01*
X9045285Y-7140284D02*
X9045285Y-7083715D01*
X8988716Y-7083715D01*
X8988716Y-7140284D01*
X9045285Y-7140284D01*
X9045285Y-7394284D02*
X9045285Y-7337715D01*
X8988716Y-7337715D01*
X8988716Y-7394284D01*
X9045285Y-7394284D01*
X9112785Y-8664285D02*
X9112785Y-8607716D01*
X9056216Y-8607716D01*
X9056216Y-8664285D01*
X9112785Y-8664285D01*
X9299285Y-5362285D02*
X9299285Y-5305716D01*
X9242716Y-5305716D01*
X9242716Y-5362285D01*
X9299285Y-5362285D01*
X9299285Y-5616284D02*
X9299285Y-5559716D01*
X9242716Y-5559716D01*
X9242716Y-5616284D01*
X9299285Y-5616284D01*
X9299285Y-5997284D02*
X9299285Y-5940715D01*
X9242716Y-5940715D01*
X9242716Y-5997284D01*
X9299285Y-5997284D01*
X9299285Y-6251284D02*
X9299285Y-6194715D01*
X9242716Y-6194715D01*
X9242716Y-6251284D01*
X9299285Y-6251284D01*
X9299285Y-7648284D02*
X9299285Y-7591715D01*
X9242716Y-7591715D01*
X9242716Y-7648284D01*
X9299285Y-7648284D01*
X9299285Y-8148284D02*
X9299285Y-8091715D01*
X9242716Y-8091715D01*
X9242716Y-8148284D01*
X9299285Y-8148284D01*
X9362785Y-8664285D02*
X9362785Y-8607716D01*
X9306216Y-8607716D01*
X9306216Y-8664285D01*
X9362785Y-8664285D01*
X9680285Y-5362285D02*
X9680285Y-5305716D01*
X9623716Y-5305716D01*
X9623716Y-5362285D01*
X9680285Y-5362285D01*
X9680285Y-5616284D02*
X9680285Y-5559716D01*
X9623716Y-5559716D01*
X9623716Y-5616284D01*
X9680285Y-5616284D01*
X9680285Y-7775284D02*
X9680285Y-7718715D01*
X9623716Y-7718715D01*
X9623716Y-7775284D01*
X9680285Y-7775284D01*
X9680285Y-8029284D02*
X9680285Y-7972715D01*
X9623716Y-7972715D01*
X9623716Y-8029284D01*
X9680285Y-8029284D01*
X9807285Y-8664285D02*
X9807285Y-8607716D01*
X9750716Y-8607716D01*
X9750716Y-8664285D01*
X9807285Y-8664285D01*
X10061285Y-6505284D02*
X10061285Y-6448715D01*
X10004716Y-6448715D01*
X10004716Y-6505284D01*
X10061285Y-6505284D01*
X10061285Y-6759284D02*
X10061285Y-6702715D01*
X10004716Y-6702715D01*
X10004716Y-6759284D01*
X10061285Y-6759284D01*
X10061285Y-7140284D02*
X10061285Y-7083715D01*
X10004716Y-7083715D01*
X10004716Y-7140284D01*
X10061285Y-7140284D01*
X10061285Y-7394284D02*
X10061285Y-7337715D01*
X10004716Y-7337715D01*
X10004716Y-7394284D01*
X10061285Y-7394284D01*
X10307285Y-8664285D02*
X10307285Y-8607716D01*
X10250716Y-8607716D01*
X10250716Y-8664285D01*
X10307285Y-8664285D01*
X10315285Y-5362285D02*
X10315285Y-5305716D01*
X10258716Y-5305716D01*
X10258716Y-5362285D01*
X10315285Y-5362285D01*
X10315285Y-5616284D02*
X10315285Y-5559716D01*
X10258716Y-5559716D01*
X10258716Y-5616284D01*
X10315285Y-5616284D01*
X10315285Y-5997284D02*
X10315285Y-5940715D01*
X10258716Y-5940715D01*
X10258716Y-5997284D01*
X10315285Y-5997284D01*
X10315285Y-6251284D02*
X10315285Y-6194715D01*
X10258716Y-6194715D01*
X10258716Y-6251284D01*
X10315285Y-6251284D01*
X10315285Y-7648284D02*
X10315285Y-7591715D01*
X10258716Y-7591715D01*
X10258716Y-7648284D01*
X10315285Y-7648284D01*
X10315285Y-8148284D02*
X10315285Y-8091715D01*
X10258716Y-8091715D01*
X10258716Y-8148284D01*
X10315285Y-8148284D01*
X10696285Y-5362285D02*
X10696285Y-5305716D01*
X10639716Y-5305716D01*
X10639716Y-5362285D01*
X10696285Y-5362285D01*
X10696285Y-5616284D02*
X10696285Y-5559716D01*
X10639716Y-5559716D01*
X10639716Y-5616284D01*
X10696285Y-5616284D01*
X10696285Y-7775284D02*
X10696285Y-7718715D01*
X10639716Y-7718715D01*
X10639716Y-7775284D01*
X10696285Y-7775284D01*
X10696285Y-8029284D02*
X10696285Y-7972715D01*
X10639716Y-7972715D01*
X10639716Y-8029284D01*
X10696285Y-8029284D01*
X11077285Y-5870284D02*
X11077285Y-5813715D01*
X11020716Y-5813715D01*
X11020716Y-5870284D01*
X11077285Y-5870284D01*
X11077285Y-6632284D02*
X11077285Y-6575715D01*
X11020716Y-6575715D01*
X11020716Y-6632284D01*
X11077285Y-6632284D01*
X11077285Y-7521284D02*
X11077285Y-7464715D01*
X11020716Y-7464715D01*
X11020716Y-7521284D01*
X11077285Y-7521284D01*
X11077285Y-8283284D02*
X11077285Y-8226715D01*
X11020716Y-8226715D01*
X11020716Y-8283284D01*
X11077285Y-8283284D01*
X13490284Y-9172285D02*
X13490284Y-9115716D01*
X13433715Y-9115716D01*
X13433715Y-9172285D01*
X13490284Y-9172285D01*
X13617284Y-5489285D02*
X13617284Y-5432716D01*
X13560715Y-5432716D01*
X13560715Y-5489285D01*
X13617284Y-5489285D01*
X13617284Y-5743284D02*
X13617284Y-5686715D01*
X13560715Y-5686715D01*
X13560715Y-5743284D01*
X13617284Y-5743284D01*
X13617284Y-6314784D02*
X13617284Y-6258215D01*
X13560715Y-6258215D01*
X13560715Y-6314784D01*
X13617284Y-6314784D01*
X13617284Y-6568784D02*
X13617284Y-6512215D01*
X13560715Y-6512215D01*
X13560715Y-6568784D01*
X13617284Y-6568784D01*
X13617284Y-6949784D02*
X13617284Y-6893215D01*
X13560715Y-6893215D01*
X13560715Y-6949784D01*
X13617284Y-6949784D01*
X13617284Y-7203784D02*
X13617284Y-7147215D01*
X13560715Y-7147215D01*
X13560715Y-7203784D01*
X13617284Y-7203784D01*
X13744284Y-8092784D02*
X13744284Y-8036215D01*
X13687715Y-8036215D01*
X13687715Y-8092784D01*
X13744284Y-8092784D01*
X13744284Y-8346784D02*
X13744284Y-8290215D01*
X13687715Y-8290215D01*
X13687715Y-8346784D01*
X13744284Y-8346784D01*
X13744284Y-9172285D02*
X13744284Y-9115716D01*
X13687715Y-9115716D01*
X13687715Y-9172285D01*
X13744284Y-9172285D01*
X13998284Y-5489285D02*
X13998284Y-5432716D01*
X13941715Y-5432716D01*
X13941715Y-5489285D01*
X13998284Y-5489285D01*
X13998284Y-5743284D02*
X13998284Y-5686715D01*
X13941715Y-5686715D01*
X13941715Y-5743284D01*
X13998284Y-5743284D01*
X13998284Y-6060784D02*
X13998284Y-6004215D01*
X13941715Y-6004215D01*
X13941715Y-6060784D01*
X13998284Y-6060784D01*
X13998284Y-6560784D02*
X13998284Y-6504215D01*
X13941715Y-6504215D01*
X13941715Y-6560784D01*
X13998284Y-6560784D01*
X14125284Y-8092784D02*
X14125284Y-8036215D01*
X14068715Y-8036215D01*
X14068715Y-8092784D01*
X14125284Y-8092784D01*
X14125284Y-8346784D02*
X14125284Y-8290215D01*
X14068715Y-8290215D01*
X14068715Y-8346784D01*
X14125284Y-8346784D01*
X14760284Y-5489285D02*
X14760284Y-5432716D01*
X14703715Y-5432716D01*
X14703715Y-5489285D01*
X14760284Y-5489285D01*
X14760284Y-5743284D02*
X14760284Y-5686715D01*
X14703715Y-5686715D01*
X14703715Y-5743284D01*
X14760284Y-5743284D01*
X14760284Y-6314784D02*
X14760284Y-6258215D01*
X14703715Y-6258215D01*
X14703715Y-6314784D01*
X14760284Y-6314784D01*
X14760284Y-6568784D02*
X14760284Y-6512215D01*
X14703715Y-6512215D01*
X14703715Y-6568784D01*
X14760284Y-6568784D01*
X14760284Y-6949784D02*
X14760284Y-6893215D01*
X14703715Y-6893215D01*
X14703715Y-6949784D01*
X14760284Y-6949784D01*
X14760284Y-7203784D02*
X14760284Y-7147215D01*
X14703715Y-7147215D01*
X14703715Y-7203784D01*
X14760284Y-7203784D01*
X14887284Y-8092784D02*
X14887284Y-8036215D01*
X14830715Y-8036215D01*
X14830715Y-8092784D01*
X14887284Y-8092784D01*
X14887284Y-8346784D02*
X14887284Y-8290215D01*
X14830715Y-8290215D01*
X14830715Y-8346784D01*
X14887284Y-8346784D01*
X15141284Y-5489285D02*
X15141284Y-5432716D01*
X15084715Y-5432716D01*
X15084715Y-5489285D01*
X15141284Y-5489285D01*
X15141284Y-5743284D02*
X15141284Y-5686715D01*
X15084715Y-5686715D01*
X15084715Y-5743284D01*
X15141284Y-5743284D01*
X15141284Y-6060784D02*
X15141284Y-6004215D01*
X15084715Y-6004215D01*
X15084715Y-6060784D01*
X15141284Y-6060784D01*
X15141284Y-6560784D02*
X15141284Y-6504215D01*
X15084715Y-6504215D01*
X15084715Y-6560784D01*
X15141284Y-6560784D01*
X15268284Y-8092784D02*
X15268284Y-8036215D01*
X15211715Y-8036215D01*
X15211715Y-8092784D01*
X15268284Y-8092784D01*
X15268284Y-8346784D02*
X15268284Y-8290215D01*
X15211715Y-8290215D01*
X15211715Y-8346784D01*
X15268284Y-8346784D01*
X3429000Y-5447500D02*
X3479000Y-5397500D01*
X3429000Y-5347500D01*
X3379000Y-5397500D01*
X3429000Y-5447500D01*
X3429000Y-7225500D02*
X3479000Y-7175500D01*
X3429000Y-7125500D01*
X3379000Y-7175500D01*
X3429000Y-7225500D01*
X3429000Y-7754000D02*
X3479000Y-7704000D01*
X3429000Y-7654000D01*
X3379000Y-7704000D01*
X3429000Y-7754000D01*
X3683000Y-5447500D02*
X3733000Y-5397500D01*
X3683000Y-5347500D01*
X3633000Y-5397500D01*
X3683000Y-5447500D01*
X4513000Y-5892000D02*
X4563000Y-5842000D01*
X4513000Y-5792000D01*
X4463000Y-5842000D01*
X4513000Y-5892000D01*
X4513000Y-7092000D02*
X4563000Y-7042000D01*
X4513000Y-6992000D01*
X4463000Y-7042000D01*
X4513000Y-7092000D01*
X4513000Y-7543000D02*
X4563000Y-7493000D01*
X4513000Y-7443000D01*
X4463000Y-7493000D01*
X4513000Y-7543000D01*
X4513000Y-8743000D02*
X4563000Y-8693000D01*
X4513000Y-8643000D01*
X4463000Y-8693000D01*
X4513000Y-8743000D01*
X5207000Y-9194000D02*
X5257000Y-9144000D01*
X5207000Y-9094000D01*
X5157000Y-9144000D01*
X5207000Y-9194000D01*
X5715000Y-9194000D02*
X5765000Y-9144000D01*
X5715000Y-9094000D01*
X5665000Y-9144000D01*
X5715000Y-9194000D01*
X7048500Y-9194000D02*
X7098500Y-9144000D01*
X7048500Y-9094000D01*
X6998500Y-9144000D01*
X7048500Y-9194000D01*
X7053000Y-5892000D02*
X7103000Y-5842000D01*
X7053000Y-5792000D01*
X7003000Y-5842000D01*
X7053000Y-5892000D01*
X7053000Y-7092000D02*
X7103000Y-7042000D01*
X7053000Y-6992000D01*
X7003000Y-7042000D01*
X7053000Y-7092000D01*
X7053000Y-7543000D02*
X7103000Y-7493000D01*
X7053000Y-7443000D01*
X7003000Y-7493000D01*
X7053000Y-7543000D01*
X7053000Y-8743000D02*
X7103000Y-8693000D01*
X7053000Y-8643000D01*
X7003000Y-8693000D01*
X7053000Y-8743000D01*
X7302500Y-9194000D02*
X7352500Y-9144000D01*
X7302500Y-9094000D01*
X7252500Y-9144000D01*
X7302500Y-9194000D01*
X7937500Y-9194000D02*
X7987500Y-9144000D01*
X7937500Y-9094000D01*
X7887500Y-9144000D01*
X7937500Y-9194000D01*
X8191500Y-9194000D02*
X8241500Y-9144000D01*
X8191500Y-9094000D01*
X8141500Y-9144000D01*
X8191500Y-9194000D01*
X9778500Y-9194000D02*
X9828500Y-9144000D01*
X9778500Y-9094000D01*
X9728500Y-9144000D01*
X9778500Y-9194000D01*
X10032500Y-9194000D02*
X10082500Y-9144000D01*
X10032500Y-9094000D01*
X9982500Y-9144000D01*
X10032500Y-9194000D01*
X10541000Y-9194000D02*
X10591000Y-9144000D01*
X10541000Y-9094000D01*
X10491000Y-9144000D01*
X10541000Y-9194000D01*
X10795000Y-9194000D02*
X10845000Y-9144000D01*
X10795000Y-9094000D01*
X10745000Y-9144000D01*
X10795000Y-9194000D01*
X11049000Y-9194000D02*
X11099000Y-9144000D01*
X11049000Y-9094000D01*
X10999000Y-9144000D01*
X11049000Y-9194000D01*
X11625000Y-5892000D02*
X11675000Y-5842000D01*
X11625000Y-5792000D01*
X11575000Y-5842000D01*
X11625000Y-5892000D01*
X11625000Y-7092000D02*
X11675000Y-7042000D01*
X11625000Y-6992000D01*
X11575000Y-7042000D01*
X11625000Y-7092000D01*
X11625000Y-7543000D02*
X11675000Y-7493000D01*
X11625000Y-7443000D01*
X11575000Y-7493000D01*
X11625000Y-7543000D01*
X11625000Y-8743000D02*
X11675000Y-8693000D01*
X11625000Y-8643000D01*
X11575000Y-8693000D01*
X11625000Y-8743000D01*
X11811000Y-9194000D02*
X11861000Y-9144000D01*
X11811000Y-9094000D01*
X11761000Y-9144000D01*
X11811000Y-9194000D01*
X12065000Y-9194000D02*
X12115000Y-9144000D01*
X12065000Y-9094000D01*
X12015000Y-9144000D01*
X12065000Y-9194000D01*
X12700000Y-9194000D02*
X12750000Y-9144000D01*
X12700000Y-9094000D01*
X12650000Y-9144000D01*
X12700000Y-9194000D01*
X12954000Y-9194000D02*
X13004000Y-9144000D01*
X12954000Y-9094000D01*
X12904000Y-9144000D01*
X12954000Y-9194000D01*
X15748000Y-5511000D02*
X15798000Y-5461000D01*
X15748000Y-5411000D01*
X15698000Y-5461000D01*
X15748000Y-5511000D01*
X15748000Y-5765000D02*
X15798000Y-5715000D01*
X15748000Y-5665000D01*
X15698000Y-5715000D01*
X15748000Y-5765000D01*
X15748000Y-6019000D02*
X15798000Y-5969000D01*
X15748000Y-5919000D01*
X15698000Y-5969000D01*
X15748000Y-6019000D01*
X15748000Y-6527000D02*
X15798000Y-6477000D01*
X15748000Y-6427000D01*
X15698000Y-6477000D01*
X15748000Y-6527000D01*
X15748000Y-6781000D02*
X15798000Y-6731000D01*
X15748000Y-6681000D01*
X15698000Y-6731000D01*
X15748000Y-6781000D01*
D13*
X4253000Y-6372000D02*
X4383000Y-6502000D01*
X4383000Y-6372000D02*
X4253000Y-6502000D01*
X4383000Y-6437000D02*
G75*
G02*
X4253000Y-6437000I-65000J0D01*
G01*
X4253000Y-6437000D02*
G75*
G02*
X4383000Y-6437000I65000J0D01*
G01*
X4253000Y-8023000D02*
X4383000Y-8153000D01*
X4383000Y-8023000D02*
X4253000Y-8153000D01*
X4383000Y-8088000D02*
G75*
G02*
X4253000Y-8088000I-65000J0D01*
G01*
X4253000Y-8088000D02*
G75*
G02*
X4383000Y-8088000I65000J0D01*
G01*
X4787000Y-4761000D02*
X4917000Y-4891000D01*
X4917000Y-4761000D02*
X4787000Y-4891000D01*
X4917000Y-4826000D02*
G75*
G02*
X4787000Y-4826000I-65000J0D01*
G01*
X4787000Y-4826000D02*
G75*
G02*
X4917000Y-4826000I65000J0D01*
G01*
X5537000Y-4761000D02*
X5667000Y-4891000D01*
X5667000Y-4761000D02*
X5537000Y-4891000D01*
X5667000Y-4826000D02*
G75*
G02*
X5537000Y-4826000I-65000J0D01*
G01*
X5537000Y-4826000D02*
G75*
G02*
X5667000Y-4826000I65000J0D01*
G01*
X5668000Y-6977000D02*
X5798000Y-7107000D01*
X5798000Y-6977000D02*
X5668000Y-7107000D01*
X5798000Y-7042000D02*
G75*
G02*
X5668000Y-7042000I-65000J0D01*
G01*
X5668000Y-7042000D02*
G75*
G02*
X5798000Y-7042000I65000J0D01*
G01*
X5668000Y-8628000D02*
X5798000Y-8758000D01*
X5798000Y-8628000D02*
X5668000Y-8758000D01*
X5798000Y-8693000D02*
G75*
G02*
X5668000Y-8693000I-65000J0D01*
G01*
X5668000Y-8693000D02*
G75*
G02*
X5798000Y-8693000I65000J0D01*
G01*
X5673000Y-5772000D02*
X5803000Y-5902000D01*
X5803000Y-5772000D02*
X5673000Y-5902000D01*
X5803000Y-5837000D02*
G75*
G02*
X5673000Y-5837000I-65000J0D01*
G01*
X5673000Y-5837000D02*
G75*
G02*
X5803000Y-5837000I65000J0D01*
G01*
X5673000Y-7423000D02*
X5803000Y-7553000D01*
X5803000Y-7423000D02*
X5673000Y-7553000D01*
X5803000Y-7488000D02*
G75*
G02*
X5673000Y-7488000I-65000J0D01*
G01*
X5673000Y-7488000D02*
G75*
G02*
X5803000Y-7488000I65000J0D01*
G01*
X6686000Y-4715000D02*
X6816000Y-4845000D01*
X6816000Y-4715000D02*
X6686000Y-4845000D01*
X6816000Y-4780000D02*
G75*
G02*
X6686000Y-4780000I-65000J0D01*
G01*
X6686000Y-4780000D02*
G75*
G02*
X6816000Y-4780000I65000J0D01*
G01*
X6793000Y-6372000D02*
X6923000Y-6502000D01*
X6923000Y-6372000D02*
X6793000Y-6502000D01*
X6923000Y-6437000D02*
G75*
G02*
X6793000Y-6437000I-65000J0D01*
G01*
X6793000Y-6437000D02*
G75*
G02*
X6923000Y-6437000I65000J0D01*
G01*
X6793000Y-8023000D02*
X6923000Y-8153000D01*
X6923000Y-8023000D02*
X6793000Y-8153000D01*
X6923000Y-8088000D02*
G75*
G02*
X6793000Y-8088000I-65000J0D01*
G01*
X6793000Y-8088000D02*
G75*
G02*
X6923000Y-8088000I65000J0D01*
G01*
X6936000Y-4965000D02*
X7066000Y-5095000D01*
X7066000Y-4965000D02*
X6936000Y-5095000D01*
X7066000Y-5030000D02*
G75*
G02*
X6936000Y-5030000I-65000J0D01*
G01*
X6936000Y-5030000D02*
G75*
G02*
X7066000Y-5030000I65000J0D01*
G01*
X7436000Y-4715000D02*
X7566000Y-4845000D01*
X7566000Y-4715000D02*
X7436000Y-4845000D01*
X7566000Y-4780000D02*
G75*
G02*
X7436000Y-4780000I-65000J0D01*
G01*
X7436000Y-4780000D02*
G75*
G02*
X7566000Y-4780000I65000J0D01*
G01*
X7936000Y-4965000D02*
X8066000Y-5095000D01*
X8066000Y-4965000D02*
X7936000Y-5095000D01*
X8066000Y-5030000D02*
G75*
G02*
X7936000Y-5030000I-65000J0D01*
G01*
X7936000Y-5030000D02*
G75*
G02*
X8066000Y-5030000I65000J0D01*
G01*
X8186000Y-4715000D02*
X8316000Y-4845000D01*
X8316000Y-4715000D02*
X8186000Y-4845000D01*
X8316000Y-4780000D02*
G75*
G02*
X8186000Y-4780000I-65000J0D01*
G01*
X8186000Y-4780000D02*
G75*
G02*
X8316000Y-4780000I65000J0D01*
G01*
X8208000Y-6977000D02*
X8338000Y-7107000D01*
X8338000Y-6977000D02*
X8208000Y-7107000D01*
X8338000Y-7042000D02*
G75*
G02*
X8208000Y-7042000I-65000J0D01*
G01*
X8208000Y-7042000D02*
G75*
G02*
X8338000Y-7042000I65000J0D01*
G01*
X8208000Y-8628000D02*
X8338000Y-8758000D01*
X8338000Y-8628000D02*
X8208000Y-8758000D01*
X8338000Y-8693000D02*
G75*
G02*
X8208000Y-8693000I-65000J0D01*
G01*
X8208000Y-8693000D02*
G75*
G02*
X8338000Y-8693000I65000J0D01*
G01*
X8213000Y-5772000D02*
X8343000Y-5902000D01*
X8343000Y-5772000D02*
X8213000Y-5902000D01*
X8343000Y-5837000D02*
G75*
G02*
X8213000Y-5837000I-65000J0D01*
G01*
X8213000Y-5837000D02*
G75*
G02*
X8343000Y-5837000I65000J0D01*
G01*
X8213000Y-7423000D02*
X8343000Y-7553000D01*
X8343000Y-7423000D02*
X8213000Y-7553000D01*
X8343000Y-7488000D02*
G75*
G02*
X8213000Y-7488000I-65000J0D01*
G01*
X8213000Y-7488000D02*
G75*
G02*
X8343000Y-7488000I65000J0D01*
G01*
X9345000Y-4761000D02*
X9475000Y-4891000D01*
X9475000Y-4761000D02*
X9345000Y-4891000D01*
X9475000Y-4826000D02*
G75*
G02*
X9345000Y-4826000I-65000J0D01*
G01*
X9345000Y-4826000D02*
G75*
G02*
X9475000Y-4826000I65000J0D01*
G01*
X10095000Y-4761000D02*
X10225000Y-4891000D01*
X10225000Y-4761000D02*
X10095000Y-4891000D01*
X10225000Y-4826000D02*
G75*
G02*
X10095000Y-4826000I-65000J0D01*
G01*
X10095000Y-4826000D02*
G75*
G02*
X10225000Y-4826000I65000J0D01*
G01*
X11258000Y-4715000D02*
X11388000Y-4845000D01*
X11388000Y-4715000D02*
X11258000Y-4845000D01*
X11388000Y-4780000D02*
G75*
G02*
X11258000Y-4780000I-65000J0D01*
G01*
X11258000Y-4780000D02*
G75*
G02*
X11388000Y-4780000I65000J0D01*
G01*
X11365000Y-6372000D02*
X11495000Y-6502000D01*
X11495000Y-6372000D02*
X11365000Y-6502000D01*
X11495000Y-6437000D02*
G75*
G02*
X11365000Y-6437000I-65000J0D01*
G01*
X11365000Y-6437000D02*
G75*
G02*
X11495000Y-6437000I65000J0D01*
G01*
X11365000Y-8023000D02*
X11495000Y-8153000D01*
X11495000Y-8023000D02*
X11365000Y-8153000D01*
X11495000Y-8088000D02*
G75*
G02*
X11365000Y-8088000I-65000J0D01*
G01*
X11365000Y-8088000D02*
G75*
G02*
X11495000Y-8088000I65000J0D01*
G01*
X11508000Y-4965000D02*
X11638000Y-5095000D01*
X11638000Y-4965000D02*
X11508000Y-5095000D01*
X11638000Y-5030000D02*
G75*
G02*
X11508000Y-5030000I-65000J0D01*
G01*
X11508000Y-5030000D02*
G75*
G02*
X11638000Y-5030000I65000J0D01*
G01*
X12008000Y-4715000D02*
X12138000Y-4845000D01*
X12138000Y-4715000D02*
X12008000Y-4845000D01*
X12138000Y-4780000D02*
G75*
G02*
X12008000Y-4780000I-65000J0D01*
G01*
X12008000Y-4780000D02*
G75*
G02*
X12138000Y-4780000I65000J0D01*
G01*
X12508000Y-4965000D02*
X12638000Y-5095000D01*
X12638000Y-4965000D02*
X12508000Y-5095000D01*
X12638000Y-5030000D02*
G75*
G02*
X12508000Y-5030000I-65000J0D01*
G01*
X12508000Y-5030000D02*
G75*
G02*
X12638000Y-5030000I65000J0D01*
G01*
X12758000Y-4715000D02*
X12888000Y-4845000D01*
X12888000Y-4715000D02*
X12758000Y-4845000D01*
X12888000Y-4780000D02*
G75*
G02*
X12758000Y-4780000I-65000J0D01*
G01*
X12758000Y-4780000D02*
G75*
G02*
X12888000Y-4780000I65000J0D01*
G01*
X12780000Y-6977000D02*
X12910000Y-7107000D01*
X12910000Y-6977000D02*
X12780000Y-7107000D01*
X12910000Y-7042000D02*
G75*
G02*
X12780000Y-7042000I-65000J0D01*
G01*
X12780000Y-7042000D02*
G75*
G02*
X12910000Y-7042000I65000J0D01*
G01*
X12780000Y-8628000D02*
X12910000Y-8758000D01*
X12910000Y-8628000D02*
X12780000Y-8758000D01*
X12910000Y-8693000D02*
G75*
G02*
X12780000Y-8693000I-65000J0D01*
G01*
X12780000Y-8693000D02*
G75*
G02*
X12910000Y-8693000I65000J0D01*
G01*
X12785000Y-5772000D02*
X12915000Y-5902000D01*
X12915000Y-5772000D02*
X12785000Y-5902000D01*
X12915000Y-5837000D02*
G75*
G02*
X12785000Y-5837000I-65000J0D01*
G01*
X12785000Y-5837000D02*
G75*
G02*
X12915000Y-5837000I65000J0D01*
G01*
X12785000Y-7423000D02*
X12915000Y-7553000D01*
X12915000Y-7423000D02*
X12785000Y-7553000D01*
X12915000Y-7488000D02*
G75*
G02*
X12785000Y-7488000I-65000J0D01*
G01*
X12785000Y-7488000D02*
G75*
G02*
X12915000Y-7488000I65000J0D01*
G01*
X13905000Y-4761000D02*
X14035000Y-4891000D01*
X14035000Y-4761000D02*
X13905000Y-4891000D01*
X14035000Y-4826000D02*
G75*
G02*
X13905000Y-4826000I-65000J0D01*
G01*
X13905000Y-4826000D02*
G75*
G02*
X14035000Y-4826000I65000J0D01*
G01*
X14655000Y-4761000D02*
X14785000Y-4891000D01*
X14785000Y-4761000D02*
X14655000Y-4891000D01*
X14785000Y-4826000D02*
G75*
G02*
X14655000Y-4826000I-65000J0D01*
G01*
X14655000Y-4826000D02*
G75*
G02*
X14785000Y-4826000I65000J0D01*
G01*
D14*
X4777000Y-4026000D02*
X4927000Y-4176000D01*
X4927000Y-4026000D02*
X4777000Y-4176000D01*
X4852000Y-4026000D02*
X4852000Y-4176000D01*
X4777000Y-4101000D02*
X4927000Y-4101000D01*
X6926000Y-3735000D02*
X7076000Y-3885000D01*
X7076000Y-3735000D02*
X6926000Y-3885000D01*
X7001000Y-3735000D02*
X7001000Y-3885000D01*
X6926000Y-3810000D02*
X7076000Y-3810000D01*
X7926000Y-3735000D02*
X8076000Y-3885000D01*
X8076000Y-3735000D02*
X7926000Y-3885000D01*
X8001000Y-3735000D02*
X8001000Y-3885000D01*
X7926000Y-3810000D02*
X8076000Y-3810000D01*
X9335000Y-4026000D02*
X9485000Y-4176000D01*
X9485000Y-4026000D02*
X9335000Y-4176000D01*
X9410000Y-4026000D02*
X9410000Y-4176000D01*
X9335000Y-4101000D02*
X9485000Y-4101000D01*
X11498000Y-3735000D02*
X11648000Y-3885000D01*
X11648000Y-3735000D02*
X11498000Y-3885000D01*
X11573000Y-3735000D02*
X11573000Y-3885000D01*
X11498000Y-3810000D02*
X11648000Y-3810000D01*
X12498000Y-3735000D02*
X12648000Y-3885000D01*
X12648000Y-3735000D02*
X12498000Y-3885000D01*
X12573000Y-3735000D02*
X12573000Y-3885000D01*
X12498000Y-3810000D02*
X12648000Y-3810000D01*
X13895000Y-4026000D02*
X14045000Y-4176000D01*
X14045000Y-4026000D02*
X13895000Y-4176000D01*
X13970000Y-4026000D02*
X13970000Y-4176000D01*
X13895000Y-4101000D02*
X14045000Y-4101000D01*
D15*
X3523000Y-4666000D02*
X3843000Y-4986000D01*
X3843000Y-4666000D02*
X3523000Y-4986000D01*
X3796138Y-4939138D02*
X3796138Y-4712862D01*
X3569862Y-4712862D01*
X3569862Y-4939138D01*
X3796138Y-4939138D01*
X15334000Y-4666000D02*
X15654000Y-4986000D01*
X15654000Y-4666000D02*
X15334000Y-4986000D01*
X15607138Y-4939138D02*
X15607138Y-4712862D01*
X15380862Y-4712862D01*
X15380862Y-4939138D01*
X15607138Y-4939138D01*
D11*
X3560277Y-9584984D02*
X3560277Y-9384984D01*
X3560277Y-9384984D02*
X3607896Y-9384984D01*
X3607896Y-9384984D02*
X3636467Y-9394508D01*
X3636467Y-9394508D02*
X3655515Y-9413555D01*
X3655515Y-9413555D02*
X3665039Y-9432603D01*
X3665039Y-9432603D02*
X3674562Y-9470698D01*
X3674562Y-9470698D02*
X3674562Y-9499270D01*
X3674562Y-9499270D02*
X3665039Y-9537365D01*
X3665039Y-9537365D02*
X3655515Y-9556412D01*
X3655515Y-9556412D02*
X3636467Y-9575460D01*
X3636467Y-9575460D02*
X3607896Y-9584984D01*
X3607896Y-9584984D02*
X3560277Y-9584984D01*
X3760277Y-9584984D02*
X3760277Y-9451650D01*
X3760277Y-9489746D02*
X3769801Y-9470698D01*
X3769801Y-9470698D02*
X3779324Y-9461174D01*
X3779324Y-9461174D02*
X3798372Y-9451650D01*
X3798372Y-9451650D02*
X3817420Y-9451650D01*
X3884086Y-9584984D02*
X3884086Y-9451650D01*
X3884086Y-9384984D02*
X3874562Y-9394508D01*
X3874562Y-9394508D02*
X3884086Y-9404031D01*
X3884086Y-9404031D02*
X3893610Y-9394508D01*
X3893610Y-9394508D02*
X3884086Y-9384984D01*
X3884086Y-9384984D02*
X3884086Y-9404031D01*
X4007896Y-9584984D02*
X3988848Y-9575460D01*
X3988848Y-9575460D02*
X3979324Y-9556412D01*
X3979324Y-9556412D02*
X3979324Y-9384984D01*
X4112658Y-9584984D02*
X4093610Y-9575460D01*
X4093610Y-9575460D02*
X4084086Y-9556412D01*
X4084086Y-9556412D02*
X4084086Y-9384984D01*
X4341229Y-9584984D02*
X4341229Y-9384984D01*
X4341229Y-9384984D02*
X4407896Y-9527841D01*
X4407896Y-9527841D02*
X4474563Y-9384984D01*
X4474563Y-9384984D02*
X4474563Y-9584984D01*
X4655515Y-9584984D02*
X4655515Y-9480222D01*
X4655515Y-9480222D02*
X4645991Y-9461174D01*
X4645991Y-9461174D02*
X4626944Y-9451650D01*
X4626944Y-9451650D02*
X4588848Y-9451650D01*
X4588848Y-9451650D02*
X4569801Y-9461174D01*
X4655515Y-9575460D02*
X4636467Y-9584984D01*
X4636467Y-9584984D02*
X4588848Y-9584984D01*
X4588848Y-9584984D02*
X4569801Y-9575460D01*
X4569801Y-9575460D02*
X4560277Y-9556412D01*
X4560277Y-9556412D02*
X4560277Y-9537365D01*
X4560277Y-9537365D02*
X4569801Y-9518317D01*
X4569801Y-9518317D02*
X4588848Y-9508793D01*
X4588848Y-9508793D02*
X4636467Y-9508793D01*
X4636467Y-9508793D02*
X4655515Y-9499270D01*
X4750753Y-9451650D02*
X4750753Y-9651650D01*
X4750753Y-9461174D02*
X4769801Y-9451650D01*
X4769801Y-9451650D02*
X4807896Y-9451650D01*
X4807896Y-9451650D02*
X4826944Y-9461174D01*
X4826944Y-9461174D02*
X4836467Y-9470698D01*
X4836467Y-9470698D02*
X4845991Y-9489746D01*
X4845991Y-9489746D02*
X4845991Y-9546889D01*
X4845991Y-9546889D02*
X4836467Y-9565936D01*
X4836467Y-9565936D02*
X4826944Y-9575460D01*
X4826944Y-9575460D02*
X4807896Y-9584984D01*
X4807896Y-9584984D02*
X4769801Y-9584984D01*
X4769801Y-9584984D02*
X4750753Y-9575460D01*
X4931705Y-9565936D02*
X4941229Y-9575460D01*
X4941229Y-9575460D02*
X4931705Y-9584984D01*
X4931705Y-9584984D02*
X4922182Y-9575460D01*
X4922182Y-9575460D02*
X4931705Y-9565936D01*
X4931705Y-9565936D02*
X4931705Y-9584984D01*
X4931705Y-9461174D02*
X4941229Y-9470698D01*
X4941229Y-9470698D02*
X4931705Y-9480222D01*
X4931705Y-9480222D02*
X4922182Y-9470698D01*
X4922182Y-9470698D02*
X4931705Y-9461174D01*
X4931705Y-9461174D02*
X4931705Y-9480222D01*
D12*
X3269500Y-9898500D02*
X3299500Y-9928500D01*
X3299500Y-9898500D02*
X3269500Y-9928500D01*
D11*
X3598372Y-9804984D02*
X3617420Y-9804984D01*
X3617420Y-9804984D02*
X3636467Y-9814508D01*
X3636467Y-9814508D02*
X3645991Y-9824031D01*
X3645991Y-9824031D02*
X3655515Y-9843079D01*
X3655515Y-9843079D02*
X3665039Y-9881174D01*
X3665039Y-9881174D02*
X3665039Y-9928793D01*
X3665039Y-9928793D02*
X3655515Y-9966889D01*
X3655515Y-9966889D02*
X3645991Y-9985936D01*
X3645991Y-9985936D02*
X3636467Y-9995460D01*
X3636467Y-9995460D02*
X3617420Y-10004984D01*
X3617420Y-10004984D02*
X3598372Y-10004984D01*
X3598372Y-10004984D02*
X3579324Y-9995460D01*
X3579324Y-9995460D02*
X3569801Y-9985936D01*
X3569801Y-9985936D02*
X3560277Y-9966889D01*
X3560277Y-9966889D02*
X3550753Y-9928793D01*
X3550753Y-9928793D02*
X3550753Y-9881174D01*
X3550753Y-9881174D02*
X3560277Y-9843079D01*
X3560277Y-9843079D02*
X3569801Y-9824031D01*
X3569801Y-9824031D02*
X3579324Y-9814508D01*
X3579324Y-9814508D02*
X3598372Y-9804984D01*
X3750753Y-9985936D02*
X3760277Y-9995460D01*
X3760277Y-9995460D02*
X3750753Y-10004984D01*
X3750753Y-10004984D02*
X3741229Y-9995460D01*
X3741229Y-9995460D02*
X3750753Y-9985936D01*
X3750753Y-9985936D02*
X3750753Y-10004984D01*
X3826943Y-9804984D02*
X3950753Y-9804984D01*
X3950753Y-9804984D02*
X3884086Y-9881174D01*
X3884086Y-9881174D02*
X3912658Y-9881174D01*
X3912658Y-9881174D02*
X3931705Y-9890698D01*
X3931705Y-9890698D02*
X3941229Y-9900222D01*
X3941229Y-9900222D02*
X3950753Y-9919270D01*
X3950753Y-9919270D02*
X3950753Y-9966889D01*
X3950753Y-9966889D02*
X3941229Y-9985936D01*
X3941229Y-9985936D02*
X3931705Y-9995460D01*
X3931705Y-9995460D02*
X3912658Y-10004984D01*
X3912658Y-10004984D02*
X3855515Y-10004984D01*
X3855515Y-10004984D02*
X3836467Y-9995460D01*
X3836467Y-9995460D02*
X3826943Y-9985936D01*
X4074562Y-9804984D02*
X4093610Y-9804984D01*
X4093610Y-9804984D02*
X4112658Y-9814508D01*
X4112658Y-9814508D02*
X4122182Y-9824031D01*
X4122182Y-9824031D02*
X4131705Y-9843079D01*
X4131705Y-9843079D02*
X4141229Y-9881174D01*
X4141229Y-9881174D02*
X4141229Y-9928793D01*
X4141229Y-9928793D02*
X4131705Y-9966889D01*
X4131705Y-9966889D02*
X4122182Y-9985936D01*
X4122182Y-9985936D02*
X4112658Y-9995460D01*
X4112658Y-9995460D02*
X4093610Y-10004984D01*
X4093610Y-10004984D02*
X4074562Y-10004984D01*
X4074562Y-10004984D02*
X4055515Y-9995460D01*
X4055515Y-9995460D02*
X4045991Y-9985936D01*
X4045991Y-9985936D02*
X4036467Y-9966889D01*
X4036467Y-9966889D02*
X4026943Y-9928793D01*
X4026943Y-9928793D02*
X4026943Y-9881174D01*
X4026943Y-9881174D02*
X4036467Y-9843079D01*
X4036467Y-9843079D02*
X4045991Y-9824031D01*
X4045991Y-9824031D02*
X4055515Y-9814508D01*
X4055515Y-9814508D02*
X4074562Y-9804984D01*
X4265039Y-9804984D02*
X4284086Y-9804984D01*
X4284086Y-9804984D02*
X4303134Y-9814508D01*
X4303134Y-9814508D02*
X4312658Y-9824031D01*
X4312658Y-9824031D02*
X4322182Y-9843079D01*
X4322182Y-9843079D02*
X4331705Y-9881174D01*
X4331705Y-9881174D02*
X4331705Y-9928793D01*
X4331705Y-9928793D02*
X4322182Y-9966889D01*
X4322182Y-9966889D02*
X4312658Y-9985936D01*
X4312658Y-9985936D02*
X4303134Y-9995460D01*
X4303134Y-9995460D02*
X4284086Y-10004984D01*
X4284086Y-10004984D02*
X4265039Y-10004984D01*
X4265039Y-10004984D02*
X4245991Y-9995460D01*
X4245991Y-9995460D02*
X4236467Y-9985936D01*
X4236467Y-9985936D02*
X4226944Y-9966889D01*
X4226944Y-9966889D02*
X4217420Y-9928793D01*
X4217420Y-9928793D02*
X4217420Y-9881174D01*
X4217420Y-9881174D02*
X4226944Y-9843079D01*
X4226944Y-9843079D02*
X4236467Y-9824031D01*
X4236467Y-9824031D02*
X4245991Y-9814508D01*
X4245991Y-9814508D02*
X4265039Y-9804984D01*
X4417420Y-10004984D02*
X4417420Y-9871650D01*
X4417420Y-9890698D02*
X4426944Y-9881174D01*
X4426944Y-9881174D02*
X4445991Y-9871650D01*
X4445991Y-9871650D02*
X4474563Y-9871650D01*
X4474563Y-9871650D02*
X4493610Y-9881174D01*
X4493610Y-9881174D02*
X4503134Y-9900222D01*
X4503134Y-9900222D02*
X4503134Y-10004984D01*
X4503134Y-9900222D02*
X4512658Y-9881174D01*
X4512658Y-9881174D02*
X4531705Y-9871650D01*
X4531705Y-9871650D02*
X4560277Y-9871650D01*
X4560277Y-9871650D02*
X4579325Y-9881174D01*
X4579325Y-9881174D02*
X4588848Y-9900222D01*
X4588848Y-9900222D02*
X4588848Y-10004984D01*
X4684086Y-10004984D02*
X4684086Y-9871650D01*
X4684086Y-9890698D02*
X4693610Y-9881174D01*
X4693610Y-9881174D02*
X4712658Y-9871650D01*
X4712658Y-9871650D02*
X4741229Y-9871650D01*
X4741229Y-9871650D02*
X4760277Y-9881174D01*
X4760277Y-9881174D02*
X4769801Y-9900222D01*
X4769801Y-9900222D02*
X4769801Y-10004984D01*
X4769801Y-9900222D02*
X4779325Y-9881174D01*
X4779325Y-9881174D02*
X4798372Y-9871650D01*
X4798372Y-9871650D02*
X4826944Y-9871650D01*
X4826944Y-9871650D02*
X4845991Y-9881174D01*
X4845991Y-9881174D02*
X4855515Y-9900222D01*
X4855515Y-9900222D02*
X4855515Y-10004984D01*
X5245991Y-9795460D02*
X5074563Y-10052603D01*
X5503134Y-9804984D02*
X5522182Y-9804984D01*
X5522182Y-9804984D02*
X5541229Y-9814508D01*
X5541229Y-9814508D02*
X5550753Y-9824031D01*
X5550753Y-9824031D02*
X5560277Y-9843079D01*
X5560277Y-9843079D02*
X5569801Y-9881174D01*
X5569801Y-9881174D02*
X5569801Y-9928793D01*
X5569801Y-9928793D02*
X5560277Y-9966889D01*
X5560277Y-9966889D02*
X5550753Y-9985936D01*
X5550753Y-9985936D02*
X5541229Y-9995460D01*
X5541229Y-9995460D02*
X5522182Y-10004984D01*
X5522182Y-10004984D02*
X5503134Y-10004984D01*
X5503134Y-10004984D02*
X5484087Y-9995460D01*
X5484087Y-9995460D02*
X5474563Y-9985936D01*
X5474563Y-9985936D02*
X5465039Y-9966889D01*
X5465039Y-9966889D02*
X5455515Y-9928793D01*
X5455515Y-9928793D02*
X5455515Y-9881174D01*
X5455515Y-9881174D02*
X5465039Y-9843079D01*
X5465039Y-9843079D02*
X5474563Y-9824031D01*
X5474563Y-9824031D02*
X5484087Y-9814508D01*
X5484087Y-9814508D02*
X5503134Y-9804984D01*
X5655515Y-9985936D02*
X5665039Y-9995460D01*
X5665039Y-9995460D02*
X5655515Y-10004984D01*
X5655515Y-10004984D02*
X5645991Y-9995460D01*
X5645991Y-9995460D02*
X5655515Y-9985936D01*
X5655515Y-9985936D02*
X5655515Y-10004984D01*
X5788848Y-9804984D02*
X5807896Y-9804984D01*
X5807896Y-9804984D02*
X5826944Y-9814508D01*
X5826944Y-9814508D02*
X5836467Y-9824031D01*
X5836467Y-9824031D02*
X5845991Y-9843079D01*
X5845991Y-9843079D02*
X5855515Y-9881174D01*
X5855515Y-9881174D02*
X5855515Y-9928793D01*
X5855515Y-9928793D02*
X5845991Y-9966889D01*
X5845991Y-9966889D02*
X5836467Y-9985936D01*
X5836467Y-9985936D02*
X5826944Y-9995460D01*
X5826944Y-9995460D02*
X5807896Y-10004984D01*
X5807896Y-10004984D02*
X5788848Y-10004984D01*
X5788848Y-10004984D02*
X5769801Y-9995460D01*
X5769801Y-9995460D02*
X5760277Y-9985936D01*
X5760277Y-9985936D02*
X5750753Y-9966889D01*
X5750753Y-9966889D02*
X5741229Y-9928793D01*
X5741229Y-9928793D02*
X5741229Y-9881174D01*
X5741229Y-9881174D02*
X5750753Y-9843079D01*
X5750753Y-9843079D02*
X5760277Y-9824031D01*
X5760277Y-9824031D02*
X5769801Y-9814508D01*
X5769801Y-9814508D02*
X5788848Y-9804984D01*
X6045991Y-10004984D02*
X5931706Y-10004984D01*
X5988848Y-10004984D02*
X5988848Y-9804984D01*
X5988848Y-9804984D02*
X5969801Y-9833555D01*
X5969801Y-9833555D02*
X5950753Y-9852603D01*
X5950753Y-9852603D02*
X5931706Y-9862127D01*
X6236467Y-10004984D02*
X6122182Y-10004984D01*
X6179325Y-10004984D02*
X6179325Y-9804984D01*
X6179325Y-9804984D02*
X6160277Y-9833555D01*
X6160277Y-9833555D02*
X6141229Y-9852603D01*
X6141229Y-9852603D02*
X6122182Y-9862127D01*
X6350753Y-9890698D02*
X6331706Y-9881174D01*
X6331706Y-9881174D02*
X6322182Y-9871650D01*
X6322182Y-9871650D02*
X6312658Y-9852603D01*
X6312658Y-9852603D02*
X6312658Y-9843079D01*
X6312658Y-9843079D02*
X6322182Y-9824031D01*
X6322182Y-9824031D02*
X6331706Y-9814508D01*
X6331706Y-9814508D02*
X6350753Y-9804984D01*
X6350753Y-9804984D02*
X6388848Y-9804984D01*
X6388848Y-9804984D02*
X6407896Y-9814508D01*
X6407896Y-9814508D02*
X6417420Y-9824031D01*
X6417420Y-9824031D02*
X6426944Y-9843079D01*
X6426944Y-9843079D02*
X6426944Y-9852603D01*
X6426944Y-9852603D02*
X6417420Y-9871650D01*
X6417420Y-9871650D02*
X6407896Y-9881174D01*
X6407896Y-9881174D02*
X6388848Y-9890698D01*
X6388848Y-9890698D02*
X6350753Y-9890698D01*
X6350753Y-9890698D02*
X6331706Y-9900222D01*
X6331706Y-9900222D02*
X6322182Y-9909746D01*
X6322182Y-9909746D02*
X6312658Y-9928793D01*
X6312658Y-9928793D02*
X6312658Y-9966889D01*
X6312658Y-9966889D02*
X6322182Y-9985936D01*
X6322182Y-9985936D02*
X6331706Y-9995460D01*
X6331706Y-9995460D02*
X6350753Y-10004984D01*
X6350753Y-10004984D02*
X6388848Y-10004984D01*
X6388848Y-10004984D02*
X6407896Y-9995460D01*
X6407896Y-9995460D02*
X6417420Y-9985936D01*
X6417420Y-9985936D02*
X6426944Y-9966889D01*
X6426944Y-9966889D02*
X6426944Y-9928793D01*
X6426944Y-9928793D02*
X6417420Y-9909746D01*
X6417420Y-9909746D02*
X6407896Y-9900222D01*
X6407896Y-9900222D02*
X6388848Y-9890698D01*
X6503134Y-9804984D02*
X6503134Y-9843079D01*
X6579325Y-9804984D02*
X6579325Y-9843079D01*
X6874563Y-10081174D02*
X6865039Y-10071650D01*
X6865039Y-10071650D02*
X6845991Y-10043079D01*
X6845991Y-10043079D02*
X6836468Y-10024031D01*
X6836468Y-10024031D02*
X6826944Y-9995460D01*
X6826944Y-9995460D02*
X6817420Y-9947841D01*
X6817420Y-9947841D02*
X6817420Y-9909746D01*
X6817420Y-9909746D02*
X6826944Y-9862127D01*
X6826944Y-9862127D02*
X6836468Y-9833555D01*
X6836468Y-9833555D02*
X6845991Y-9814508D01*
X6845991Y-9814508D02*
X6865039Y-9785936D01*
X6865039Y-9785936D02*
X6874563Y-9776412D01*
X6941229Y-9824031D02*
X6950753Y-9814508D01*
X6950753Y-9814508D02*
X6969801Y-9804984D01*
X6969801Y-9804984D02*
X7017420Y-9804984D01*
X7017420Y-9804984D02*
X7036468Y-9814508D01*
X7036468Y-9814508D02*
X7045991Y-9824031D01*
X7045991Y-9824031D02*
X7055515Y-9843079D01*
X7055515Y-9843079D02*
X7055515Y-9862127D01*
X7055515Y-9862127D02*
X7045991Y-9890698D01*
X7045991Y-9890698D02*
X6931706Y-10004984D01*
X6931706Y-10004984D02*
X7055515Y-10004984D01*
X7293610Y-10004984D02*
X7293610Y-9804984D01*
X7379325Y-10004984D02*
X7379325Y-9900222D01*
X7379325Y-9900222D02*
X7369801Y-9881174D01*
X7369801Y-9881174D02*
X7350753Y-9871650D01*
X7350753Y-9871650D02*
X7322182Y-9871650D01*
X7322182Y-9871650D02*
X7303134Y-9881174D01*
X7303134Y-9881174D02*
X7293610Y-9890698D01*
X7503134Y-10004984D02*
X7484087Y-9995460D01*
X7484087Y-9995460D02*
X7474563Y-9985936D01*
X7474563Y-9985936D02*
X7465039Y-9966889D01*
X7465039Y-9966889D02*
X7465039Y-9909746D01*
X7465039Y-9909746D02*
X7474563Y-9890698D01*
X7474563Y-9890698D02*
X7484087Y-9881174D01*
X7484087Y-9881174D02*
X7503134Y-9871650D01*
X7503134Y-9871650D02*
X7531706Y-9871650D01*
X7531706Y-9871650D02*
X7550753Y-9881174D01*
X7550753Y-9881174D02*
X7560277Y-9890698D01*
X7560277Y-9890698D02*
X7569801Y-9909746D01*
X7569801Y-9909746D02*
X7569801Y-9966889D01*
X7569801Y-9966889D02*
X7560277Y-9985936D01*
X7560277Y-9985936D02*
X7550753Y-9995460D01*
X7550753Y-9995460D02*
X7531706Y-10004984D01*
X7531706Y-10004984D02*
X7503134Y-10004984D01*
X7684087Y-10004984D02*
X7665039Y-9995460D01*
X7665039Y-9995460D02*
X7655515Y-9976412D01*
X7655515Y-9976412D02*
X7655515Y-9804984D01*
X7836468Y-9995460D02*
X7817420Y-10004984D01*
X7817420Y-10004984D02*
X7779325Y-10004984D01*
X7779325Y-10004984D02*
X7760277Y-9995460D01*
X7760277Y-9995460D02*
X7750753Y-9976412D01*
X7750753Y-9976412D02*
X7750753Y-9900222D01*
X7750753Y-9900222D02*
X7760277Y-9881174D01*
X7760277Y-9881174D02*
X7779325Y-9871650D01*
X7779325Y-9871650D02*
X7817420Y-9871650D01*
X7817420Y-9871650D02*
X7836468Y-9881174D01*
X7836468Y-9881174D02*
X7845991Y-9900222D01*
X7845991Y-9900222D02*
X7845991Y-9919270D01*
X7845991Y-9919270D02*
X7750753Y-9938317D01*
X7922182Y-9995460D02*
X7941230Y-10004984D01*
X7941230Y-10004984D02*
X7979325Y-10004984D01*
X7979325Y-10004984D02*
X7998372Y-9995460D01*
X7998372Y-9995460D02*
X8007896Y-9976412D01*
X8007896Y-9976412D02*
X8007896Y-9966889D01*
X8007896Y-9966889D02*
X7998372Y-9947841D01*
X7998372Y-9947841D02*
X7979325Y-9938317D01*
X7979325Y-9938317D02*
X7950753Y-9938317D01*
X7950753Y-9938317D02*
X7931706Y-9928793D01*
X7931706Y-9928793D02*
X7922182Y-9909746D01*
X7922182Y-9909746D02*
X7922182Y-9900222D01*
X7922182Y-9900222D02*
X7931706Y-9881174D01*
X7931706Y-9881174D02*
X7950753Y-9871650D01*
X7950753Y-9871650D02*
X7979325Y-9871650D01*
X7979325Y-9871650D02*
X7998372Y-9881174D01*
X8074563Y-10081174D02*
X8084087Y-10071650D01*
X8084087Y-10071650D02*
X8103134Y-10043079D01*
X8103134Y-10043079D02*
X8112658Y-10024031D01*
X8112658Y-10024031D02*
X8122182Y-9995460D01*
X8122182Y-9995460D02*
X8131706Y-9947841D01*
X8131706Y-9947841D02*
X8131706Y-9909746D01*
X8131706Y-9909746D02*
X8122182Y-9862127D01*
X8122182Y-9862127D02*
X8112658Y-9833555D01*
X8112658Y-9833555D02*
X8103134Y-9814508D01*
X8103134Y-9814508D02*
X8084087Y-9785936D01*
X8084087Y-9785936D02*
X8074563Y-9776412D01*
D12*
X3299500Y-10177500D02*
G75*
G02*
X3239500Y-10177500I-30000J0D01*
G01*
X3239500Y-10177500D02*
G75*
G02*
X3299500Y-10177500I30000J0D01*
G01*
D11*
X3598372Y-10068984D02*
X3617420Y-10068984D01*
X3617420Y-10068984D02*
X3636467Y-10078508D01*
X3636467Y-10078508D02*
X3645991Y-10088031D01*
X3645991Y-10088031D02*
X3655515Y-10107079D01*
X3655515Y-10107079D02*
X3665039Y-10145174D01*
X3665039Y-10145174D02*
X3665039Y-10192793D01*
X3665039Y-10192793D02*
X3655515Y-10230889D01*
X3655515Y-10230889D02*
X3645991Y-10249936D01*
X3645991Y-10249936D02*
X3636467Y-10259460D01*
X3636467Y-10259460D02*
X3617420Y-10268984D01*
X3617420Y-10268984D02*
X3598372Y-10268984D01*
X3598372Y-10268984D02*
X3579324Y-10259460D01*
X3579324Y-10259460D02*
X3569801Y-10249936D01*
X3569801Y-10249936D02*
X3560277Y-10230889D01*
X3560277Y-10230889D02*
X3550753Y-10192793D01*
X3550753Y-10192793D02*
X3550753Y-10145174D01*
X3550753Y-10145174D02*
X3560277Y-10107079D01*
X3560277Y-10107079D02*
X3569801Y-10088031D01*
X3569801Y-10088031D02*
X3579324Y-10078508D01*
X3579324Y-10078508D02*
X3598372Y-10068984D01*
X3750753Y-10249936D02*
X3760277Y-10259460D01*
X3760277Y-10259460D02*
X3750753Y-10268984D01*
X3750753Y-10268984D02*
X3741229Y-10259460D01*
X3741229Y-10259460D02*
X3750753Y-10249936D01*
X3750753Y-10249936D02*
X3750753Y-10268984D01*
X3931705Y-10068984D02*
X3893610Y-10068984D01*
X3893610Y-10068984D02*
X3874562Y-10078508D01*
X3874562Y-10078508D02*
X3865039Y-10088031D01*
X3865039Y-10088031D02*
X3845991Y-10116603D01*
X3845991Y-10116603D02*
X3836467Y-10154698D01*
X3836467Y-10154698D02*
X3836467Y-10230889D01*
X3836467Y-10230889D02*
X3845991Y-10249936D01*
X3845991Y-10249936D02*
X3855515Y-10259460D01*
X3855515Y-10259460D02*
X3874562Y-10268984D01*
X3874562Y-10268984D02*
X3912658Y-10268984D01*
X3912658Y-10268984D02*
X3931705Y-10259460D01*
X3931705Y-10259460D02*
X3941229Y-10249936D01*
X3941229Y-10249936D02*
X3950753Y-10230889D01*
X3950753Y-10230889D02*
X3950753Y-10183270D01*
X3950753Y-10183270D02*
X3941229Y-10164222D01*
X3941229Y-10164222D02*
X3931705Y-10154698D01*
X3931705Y-10154698D02*
X3912658Y-10145174D01*
X3912658Y-10145174D02*
X3874562Y-10145174D01*
X3874562Y-10145174D02*
X3855515Y-10154698D01*
X3855515Y-10154698D02*
X3845991Y-10164222D01*
X3845991Y-10164222D02*
X3836467Y-10183270D01*
X4074562Y-10068984D02*
X4093610Y-10068984D01*
X4093610Y-10068984D02*
X4112658Y-10078508D01*
X4112658Y-10078508D02*
X4122182Y-10088031D01*
X4122182Y-10088031D02*
X4131705Y-10107079D01*
X4131705Y-10107079D02*
X4141229Y-10145174D01*
X4141229Y-10145174D02*
X4141229Y-10192793D01*
X4141229Y-10192793D02*
X4131705Y-10230889D01*
X4131705Y-10230889D02*
X4122182Y-10249936D01*
X4122182Y-10249936D02*
X4112658Y-10259460D01*
X4112658Y-10259460D02*
X4093610Y-10268984D01*
X4093610Y-10268984D02*
X4074562Y-10268984D01*
X4074562Y-10268984D02*
X4055515Y-10259460D01*
X4055515Y-10259460D02*
X4045991Y-10249936D01*
X4045991Y-10249936D02*
X4036467Y-10230889D01*
X4036467Y-10230889D02*
X4026943Y-10192793D01*
X4026943Y-10192793D02*
X4026943Y-10145174D01*
X4026943Y-10145174D02*
X4036467Y-10107079D01*
X4036467Y-10107079D02*
X4045991Y-10088031D01*
X4045991Y-10088031D02*
X4055515Y-10078508D01*
X4055515Y-10078508D02*
X4074562Y-10068984D01*
X4265039Y-10068984D02*
X4284086Y-10068984D01*
X4284086Y-10068984D02*
X4303134Y-10078508D01*
X4303134Y-10078508D02*
X4312658Y-10088031D01*
X4312658Y-10088031D02*
X4322182Y-10107079D01*
X4322182Y-10107079D02*
X4331705Y-10145174D01*
X4331705Y-10145174D02*
X4331705Y-10192793D01*
X4331705Y-10192793D02*
X4322182Y-10230889D01*
X4322182Y-10230889D02*
X4312658Y-10249936D01*
X4312658Y-10249936D02*
X4303134Y-10259460D01*
X4303134Y-10259460D02*
X4284086Y-10268984D01*
X4284086Y-10268984D02*
X4265039Y-10268984D01*
X4265039Y-10268984D02*
X4245991Y-10259460D01*
X4245991Y-10259460D02*
X4236467Y-10249936D01*
X4236467Y-10249936D02*
X4226944Y-10230889D01*
X4226944Y-10230889D02*
X4217420Y-10192793D01*
X4217420Y-10192793D02*
X4217420Y-10145174D01*
X4217420Y-10145174D02*
X4226944Y-10107079D01*
X4226944Y-10107079D02*
X4236467Y-10088031D01*
X4236467Y-10088031D02*
X4245991Y-10078508D01*
X4245991Y-10078508D02*
X4265039Y-10068984D01*
X4417420Y-10268984D02*
X4417420Y-10135650D01*
X4417420Y-10154698D02*
X4426944Y-10145174D01*
X4426944Y-10145174D02*
X4445991Y-10135650D01*
X4445991Y-10135650D02*
X4474563Y-10135650D01*
X4474563Y-10135650D02*
X4493610Y-10145174D01*
X4493610Y-10145174D02*
X4503134Y-10164222D01*
X4503134Y-10164222D02*
X4503134Y-10268984D01*
X4503134Y-10164222D02*
X4512658Y-10145174D01*
X4512658Y-10145174D02*
X4531705Y-10135650D01*
X4531705Y-10135650D02*
X4560277Y-10135650D01*
X4560277Y-10135650D02*
X4579325Y-10145174D01*
X4579325Y-10145174D02*
X4588848Y-10164222D01*
X4588848Y-10164222D02*
X4588848Y-10268984D01*
X4684086Y-10268984D02*
X4684086Y-10135650D01*
X4684086Y-10154698D02*
X4693610Y-10145174D01*
X4693610Y-10145174D02*
X4712658Y-10135650D01*
X4712658Y-10135650D02*
X4741229Y-10135650D01*
X4741229Y-10135650D02*
X4760277Y-10145174D01*
X4760277Y-10145174D02*
X4769801Y-10164222D01*
X4769801Y-10164222D02*
X4769801Y-10268984D01*
X4769801Y-10164222D02*
X4779325Y-10145174D01*
X4779325Y-10145174D02*
X4798372Y-10135650D01*
X4798372Y-10135650D02*
X4826944Y-10135650D01*
X4826944Y-10135650D02*
X4845991Y-10145174D01*
X4845991Y-10145174D02*
X4855515Y-10164222D01*
X4855515Y-10164222D02*
X4855515Y-10268984D01*
X5245991Y-10059460D02*
X5074563Y-10316603D01*
X5503134Y-10068984D02*
X5522182Y-10068984D01*
X5522182Y-10068984D02*
X5541229Y-10078508D01*
X5541229Y-10078508D02*
X5550753Y-10088031D01*
X5550753Y-10088031D02*
X5560277Y-10107079D01*
X5560277Y-10107079D02*
X5569801Y-10145174D01*
X5569801Y-10145174D02*
X5569801Y-10192793D01*
X5569801Y-10192793D02*
X5560277Y-10230889D01*
X5560277Y-10230889D02*
X5550753Y-10249936D01*
X5550753Y-10249936D02*
X5541229Y-10259460D01*
X5541229Y-10259460D02*
X5522182Y-10268984D01*
X5522182Y-10268984D02*
X5503134Y-10268984D01*
X5503134Y-10268984D02*
X5484087Y-10259460D01*
X5484087Y-10259460D02*
X5474563Y-10249936D01*
X5474563Y-10249936D02*
X5465039Y-10230889D01*
X5465039Y-10230889D02*
X5455515Y-10192793D01*
X5455515Y-10192793D02*
X5455515Y-10145174D01*
X5455515Y-10145174D02*
X5465039Y-10107079D01*
X5465039Y-10107079D02*
X5474563Y-10088031D01*
X5474563Y-10088031D02*
X5484087Y-10078508D01*
X5484087Y-10078508D02*
X5503134Y-10068984D01*
X5655515Y-10249936D02*
X5665039Y-10259460D01*
X5665039Y-10259460D02*
X5655515Y-10268984D01*
X5655515Y-10268984D02*
X5645991Y-10259460D01*
X5645991Y-10259460D02*
X5655515Y-10249936D01*
X5655515Y-10249936D02*
X5655515Y-10268984D01*
X5788848Y-10068984D02*
X5807896Y-10068984D01*
X5807896Y-10068984D02*
X5826944Y-10078508D01*
X5826944Y-10078508D02*
X5836467Y-10088031D01*
X5836467Y-10088031D02*
X5845991Y-10107079D01*
X5845991Y-10107079D02*
X5855515Y-10145174D01*
X5855515Y-10145174D02*
X5855515Y-10192793D01*
X5855515Y-10192793D02*
X5845991Y-10230889D01*
X5845991Y-10230889D02*
X5836467Y-10249936D01*
X5836467Y-10249936D02*
X5826944Y-10259460D01*
X5826944Y-10259460D02*
X5807896Y-10268984D01*
X5807896Y-10268984D02*
X5788848Y-10268984D01*
X5788848Y-10268984D02*
X5769801Y-10259460D01*
X5769801Y-10259460D02*
X5760277Y-10249936D01*
X5760277Y-10249936D02*
X5750753Y-10230889D01*
X5750753Y-10230889D02*
X5741229Y-10192793D01*
X5741229Y-10192793D02*
X5741229Y-10145174D01*
X5741229Y-10145174D02*
X5750753Y-10107079D01*
X5750753Y-10107079D02*
X5760277Y-10088031D01*
X5760277Y-10088031D02*
X5769801Y-10078508D01*
X5769801Y-10078508D02*
X5788848Y-10068984D01*
X5931706Y-10088031D02*
X5941229Y-10078508D01*
X5941229Y-10078508D02*
X5960277Y-10068984D01*
X5960277Y-10068984D02*
X6007896Y-10068984D01*
X6007896Y-10068984D02*
X6026944Y-10078508D01*
X6026944Y-10078508D02*
X6036467Y-10088031D01*
X6036467Y-10088031D02*
X6045991Y-10107079D01*
X6045991Y-10107079D02*
X6045991Y-10126127D01*
X6045991Y-10126127D02*
X6036467Y-10154698D01*
X6036467Y-10154698D02*
X5922182Y-10268984D01*
X5922182Y-10268984D02*
X6045991Y-10268984D01*
X6112658Y-10068984D02*
X6236467Y-10068984D01*
X6236467Y-10068984D02*
X6169801Y-10145174D01*
X6169801Y-10145174D02*
X6198372Y-10145174D01*
X6198372Y-10145174D02*
X6217420Y-10154698D01*
X6217420Y-10154698D02*
X6226944Y-10164222D01*
X6226944Y-10164222D02*
X6236467Y-10183270D01*
X6236467Y-10183270D02*
X6236467Y-10230889D01*
X6236467Y-10230889D02*
X6226944Y-10249936D01*
X6226944Y-10249936D02*
X6217420Y-10259460D01*
X6217420Y-10259460D02*
X6198372Y-10268984D01*
X6198372Y-10268984D02*
X6141229Y-10268984D01*
X6141229Y-10268984D02*
X6122182Y-10259460D01*
X6122182Y-10259460D02*
X6112658Y-10249936D01*
X6407896Y-10068984D02*
X6369801Y-10068984D01*
X6369801Y-10068984D02*
X6350753Y-10078508D01*
X6350753Y-10078508D02*
X6341229Y-10088031D01*
X6341229Y-10088031D02*
X6322182Y-10116603D01*
X6322182Y-10116603D02*
X6312658Y-10154698D01*
X6312658Y-10154698D02*
X6312658Y-10230889D01*
X6312658Y-10230889D02*
X6322182Y-10249936D01*
X6322182Y-10249936D02*
X6331706Y-10259460D01*
X6331706Y-10259460D02*
X6350753Y-10268984D01*
X6350753Y-10268984D02*
X6388848Y-10268984D01*
X6388848Y-10268984D02*
X6407896Y-10259460D01*
X6407896Y-10259460D02*
X6417420Y-10249936D01*
X6417420Y-10249936D02*
X6426944Y-10230889D01*
X6426944Y-10230889D02*
X6426944Y-10183270D01*
X6426944Y-10183270D02*
X6417420Y-10164222D01*
X6417420Y-10164222D02*
X6407896Y-10154698D01*
X6407896Y-10154698D02*
X6388848Y-10145174D01*
X6388848Y-10145174D02*
X6350753Y-10145174D01*
X6350753Y-10145174D02*
X6331706Y-10154698D01*
X6331706Y-10154698D02*
X6322182Y-10164222D01*
X6322182Y-10164222D02*
X6312658Y-10183270D01*
X6503134Y-10068984D02*
X6503134Y-10107079D01*
X6579325Y-10068984D02*
X6579325Y-10107079D01*
X6874563Y-10345174D02*
X6865039Y-10335650D01*
X6865039Y-10335650D02*
X6845991Y-10307079D01*
X6845991Y-10307079D02*
X6836468Y-10288031D01*
X6836468Y-10288031D02*
X6826944Y-10259460D01*
X6826944Y-10259460D02*
X6817420Y-10211841D01*
X6817420Y-10211841D02*
X6817420Y-10173746D01*
X6817420Y-10173746D02*
X6826944Y-10126127D01*
X6826944Y-10126127D02*
X6836468Y-10097555D01*
X6836468Y-10097555D02*
X6845991Y-10078508D01*
X6845991Y-10078508D02*
X6865039Y-10049936D01*
X6865039Y-10049936D02*
X6874563Y-10040412D01*
X6979325Y-10154698D02*
X6960277Y-10145174D01*
X6960277Y-10145174D02*
X6950753Y-10135650D01*
X6950753Y-10135650D02*
X6941229Y-10116603D01*
X6941229Y-10116603D02*
X6941229Y-10107079D01*
X6941229Y-10107079D02*
X6950753Y-10088031D01*
X6950753Y-10088031D02*
X6960277Y-10078508D01*
X6960277Y-10078508D02*
X6979325Y-10068984D01*
X6979325Y-10068984D02*
X7017420Y-10068984D01*
X7017420Y-10068984D02*
X7036468Y-10078508D01*
X7036468Y-10078508D02*
X7045991Y-10088031D01*
X7045991Y-10088031D02*
X7055515Y-10107079D01*
X7055515Y-10107079D02*
X7055515Y-10116603D01*
X7055515Y-10116603D02*
X7045991Y-10135650D01*
X7045991Y-10135650D02*
X7036468Y-10145174D01*
X7036468Y-10145174D02*
X7017420Y-10154698D01*
X7017420Y-10154698D02*
X6979325Y-10154698D01*
X6979325Y-10154698D02*
X6960277Y-10164222D01*
X6960277Y-10164222D02*
X6950753Y-10173746D01*
X6950753Y-10173746D02*
X6941229Y-10192793D01*
X6941229Y-10192793D02*
X6941229Y-10230889D01*
X6941229Y-10230889D02*
X6950753Y-10249936D01*
X6950753Y-10249936D02*
X6960277Y-10259460D01*
X6960277Y-10259460D02*
X6979325Y-10268984D01*
X6979325Y-10268984D02*
X7017420Y-10268984D01*
X7017420Y-10268984D02*
X7036468Y-10259460D01*
X7036468Y-10259460D02*
X7045991Y-10249936D01*
X7045991Y-10249936D02*
X7055515Y-10230889D01*
X7055515Y-10230889D02*
X7055515Y-10192793D01*
X7055515Y-10192793D02*
X7045991Y-10173746D01*
X7045991Y-10173746D02*
X7036468Y-10164222D01*
X7036468Y-10164222D02*
X7017420Y-10154698D01*
X7293610Y-10268984D02*
X7293610Y-10068984D01*
X7379325Y-10268984D02*
X7379325Y-10164222D01*
X7379325Y-10164222D02*
X7369801Y-10145174D01*
X7369801Y-10145174D02*
X7350753Y-10135650D01*
X7350753Y-10135650D02*
X7322182Y-10135650D01*
X7322182Y-10135650D02*
X7303134Y-10145174D01*
X7303134Y-10145174D02*
X7293610Y-10154698D01*
X7503134Y-10268984D02*
X7484087Y-10259460D01*
X7484087Y-10259460D02*
X7474563Y-10249936D01*
X7474563Y-10249936D02*
X7465039Y-10230889D01*
X7465039Y-10230889D02*
X7465039Y-10173746D01*
X7465039Y-10173746D02*
X7474563Y-10154698D01*
X7474563Y-10154698D02*
X7484087Y-10145174D01*
X7484087Y-10145174D02*
X7503134Y-10135650D01*
X7503134Y-10135650D02*
X7531706Y-10135650D01*
X7531706Y-10135650D02*
X7550753Y-10145174D01*
X7550753Y-10145174D02*
X7560277Y-10154698D01*
X7560277Y-10154698D02*
X7569801Y-10173746D01*
X7569801Y-10173746D02*
X7569801Y-10230889D01*
X7569801Y-10230889D02*
X7560277Y-10249936D01*
X7560277Y-10249936D02*
X7550753Y-10259460D01*
X7550753Y-10259460D02*
X7531706Y-10268984D01*
X7531706Y-10268984D02*
X7503134Y-10268984D01*
X7684087Y-10268984D02*
X7665039Y-10259460D01*
X7665039Y-10259460D02*
X7655515Y-10240412D01*
X7655515Y-10240412D02*
X7655515Y-10068984D01*
X7836468Y-10259460D02*
X7817420Y-10268984D01*
X7817420Y-10268984D02*
X7779325Y-10268984D01*
X7779325Y-10268984D02*
X7760277Y-10259460D01*
X7760277Y-10259460D02*
X7750753Y-10240412D01*
X7750753Y-10240412D02*
X7750753Y-10164222D01*
X7750753Y-10164222D02*
X7760277Y-10145174D01*
X7760277Y-10145174D02*
X7779325Y-10135650D01*
X7779325Y-10135650D02*
X7817420Y-10135650D01*
X7817420Y-10135650D02*
X7836468Y-10145174D01*
X7836468Y-10145174D02*
X7845991Y-10164222D01*
X7845991Y-10164222D02*
X7845991Y-10183270D01*
X7845991Y-10183270D02*
X7750753Y-10202317D01*
X7922182Y-10259460D02*
X7941230Y-10268984D01*
X7941230Y-10268984D02*
X7979325Y-10268984D01*
X7979325Y-10268984D02*
X7998372Y-10259460D01*
X7998372Y-10259460D02*
X8007896Y-10240412D01*
X8007896Y-10240412D02*
X8007896Y-10230889D01*
X8007896Y-10230889D02*
X7998372Y-10211841D01*
X7998372Y-10211841D02*
X7979325Y-10202317D01*
X7979325Y-10202317D02*
X7950753Y-10202317D01*
X7950753Y-10202317D02*
X7931706Y-10192793D01*
X7931706Y-10192793D02*
X7922182Y-10173746D01*
X7922182Y-10173746D02*
X7922182Y-10164222D01*
X7922182Y-10164222D02*
X7931706Y-10145174D01*
X7931706Y-10145174D02*
X7950753Y-10135650D01*
X7950753Y-10135650D02*
X7979325Y-10135650D01*
X7979325Y-10135650D02*
X7998372Y-10145174D01*
X8074563Y-10345174D02*
X8084087Y-10335650D01*
X8084087Y-10335650D02*
X8103134Y-10307079D01*
X8103134Y-10307079D02*
X8112658Y-10288031D01*
X8112658Y-10288031D02*
X8122182Y-10259460D01*
X8122182Y-10259460D02*
X8131706Y-10211841D01*
X8131706Y-10211841D02*
X8131706Y-10173746D01*
X8131706Y-10173746D02*
X8122182Y-10126127D01*
X8122182Y-10126127D02*
X8112658Y-10097555D01*
X8112658Y-10097555D02*
X8103134Y-10078508D01*
X8103134Y-10078508D02*
X8084087Y-10049936D01*
X8084087Y-10049936D02*
X8074563Y-10040412D01*
D12*
X3262000Y-10404000D02*
X3262000Y-10479000D01*
X3224500Y-10441500D02*
X3299500Y-10441500D01*
D11*
X3598372Y-10332984D02*
X3617420Y-10332984D01*
X3617420Y-10332984D02*
X3636467Y-10342508D01*
X3636467Y-10342508D02*
X3645991Y-10352031D01*
X3645991Y-10352031D02*
X3655515Y-10371079D01*
X3655515Y-10371079D02*
X3665039Y-10409174D01*
X3665039Y-10409174D02*
X3665039Y-10456793D01*
X3665039Y-10456793D02*
X3655515Y-10494889D01*
X3655515Y-10494889D02*
X3645991Y-10513936D01*
X3645991Y-10513936D02*
X3636467Y-10523460D01*
X3636467Y-10523460D02*
X3617420Y-10532984D01*
X3617420Y-10532984D02*
X3598372Y-10532984D01*
X3598372Y-10532984D02*
X3579324Y-10523460D01*
X3579324Y-10523460D02*
X3569801Y-10513936D01*
X3569801Y-10513936D02*
X3560277Y-10494889D01*
X3560277Y-10494889D02*
X3550753Y-10456793D01*
X3550753Y-10456793D02*
X3550753Y-10409174D01*
X3550753Y-10409174D02*
X3560277Y-10371079D01*
X3560277Y-10371079D02*
X3569801Y-10352031D01*
X3569801Y-10352031D02*
X3579324Y-10342508D01*
X3579324Y-10342508D02*
X3598372Y-10332984D01*
X3750753Y-10513936D02*
X3760277Y-10523460D01*
X3760277Y-10523460D02*
X3750753Y-10532984D01*
X3750753Y-10532984D02*
X3741229Y-10523460D01*
X3741229Y-10523460D02*
X3750753Y-10513936D01*
X3750753Y-10513936D02*
X3750753Y-10532984D01*
X3826943Y-10332984D02*
X3960277Y-10332984D01*
X3960277Y-10332984D02*
X3874562Y-10532984D01*
X4131705Y-10332984D02*
X4036467Y-10332984D01*
X4036467Y-10332984D02*
X4026943Y-10428222D01*
X4026943Y-10428222D02*
X4036467Y-10418698D01*
X4036467Y-10418698D02*
X4055515Y-10409174D01*
X4055515Y-10409174D02*
X4103134Y-10409174D01*
X4103134Y-10409174D02*
X4122182Y-10418698D01*
X4122182Y-10418698D02*
X4131705Y-10428222D01*
X4131705Y-10428222D02*
X4141229Y-10447270D01*
X4141229Y-10447270D02*
X4141229Y-10494889D01*
X4141229Y-10494889D02*
X4131705Y-10513936D01*
X4131705Y-10513936D02*
X4122182Y-10523460D01*
X4122182Y-10523460D02*
X4103134Y-10532984D01*
X4103134Y-10532984D02*
X4055515Y-10532984D01*
X4055515Y-10532984D02*
X4036467Y-10523460D01*
X4036467Y-10523460D02*
X4026943Y-10513936D01*
X4265039Y-10332984D02*
X4284086Y-10332984D01*
X4284086Y-10332984D02*
X4303134Y-10342508D01*
X4303134Y-10342508D02*
X4312658Y-10352031D01*
X4312658Y-10352031D02*
X4322182Y-10371079D01*
X4322182Y-10371079D02*
X4331705Y-10409174D01*
X4331705Y-10409174D02*
X4331705Y-10456793D01*
X4331705Y-10456793D02*
X4322182Y-10494889D01*
X4322182Y-10494889D02*
X4312658Y-10513936D01*
X4312658Y-10513936D02*
X4303134Y-10523460D01*
X4303134Y-10523460D02*
X4284086Y-10532984D01*
X4284086Y-10532984D02*
X4265039Y-10532984D01*
X4265039Y-10532984D02*
X4245991Y-10523460D01*
X4245991Y-10523460D02*
X4236467Y-10513936D01*
X4236467Y-10513936D02*
X4226944Y-10494889D01*
X4226944Y-10494889D02*
X4217420Y-10456793D01*
X4217420Y-10456793D02*
X4217420Y-10409174D01*
X4217420Y-10409174D02*
X4226944Y-10371079D01*
X4226944Y-10371079D02*
X4236467Y-10352031D01*
X4236467Y-10352031D02*
X4245991Y-10342508D01*
X4245991Y-10342508D02*
X4265039Y-10332984D01*
X4417420Y-10532984D02*
X4417420Y-10399650D01*
X4417420Y-10418698D02*
X4426944Y-10409174D01*
X4426944Y-10409174D02*
X4445991Y-10399650D01*
X4445991Y-10399650D02*
X4474563Y-10399650D01*
X4474563Y-10399650D02*
X4493610Y-10409174D01*
X4493610Y-10409174D02*
X4503134Y-10428222D01*
X4503134Y-10428222D02*
X4503134Y-10532984D01*
X4503134Y-10428222D02*
X4512658Y-10409174D01*
X4512658Y-10409174D02*
X4531705Y-10399650D01*
X4531705Y-10399650D02*
X4560277Y-10399650D01*
X4560277Y-10399650D02*
X4579325Y-10409174D01*
X4579325Y-10409174D02*
X4588848Y-10428222D01*
X4588848Y-10428222D02*
X4588848Y-10532984D01*
X4684086Y-10532984D02*
X4684086Y-10399650D01*
X4684086Y-10418698D02*
X4693610Y-10409174D01*
X4693610Y-10409174D02*
X4712658Y-10399650D01*
X4712658Y-10399650D02*
X4741229Y-10399650D01*
X4741229Y-10399650D02*
X4760277Y-10409174D01*
X4760277Y-10409174D02*
X4769801Y-10428222D01*
X4769801Y-10428222D02*
X4769801Y-10532984D01*
X4769801Y-10428222D02*
X4779325Y-10409174D01*
X4779325Y-10409174D02*
X4798372Y-10399650D01*
X4798372Y-10399650D02*
X4826944Y-10399650D01*
X4826944Y-10399650D02*
X4845991Y-10409174D01*
X4845991Y-10409174D02*
X4855515Y-10428222D01*
X4855515Y-10428222D02*
X4855515Y-10532984D01*
X5245991Y-10323460D02*
X5074563Y-10580603D01*
X5503134Y-10332984D02*
X5522182Y-10332984D01*
X5522182Y-10332984D02*
X5541229Y-10342508D01*
X5541229Y-10342508D02*
X5550753Y-10352031D01*
X5550753Y-10352031D02*
X5560277Y-10371079D01*
X5560277Y-10371079D02*
X5569801Y-10409174D01*
X5569801Y-10409174D02*
X5569801Y-10456793D01*
X5569801Y-10456793D02*
X5560277Y-10494889D01*
X5560277Y-10494889D02*
X5550753Y-10513936D01*
X5550753Y-10513936D02*
X5541229Y-10523460D01*
X5541229Y-10523460D02*
X5522182Y-10532984D01*
X5522182Y-10532984D02*
X5503134Y-10532984D01*
X5503134Y-10532984D02*
X5484087Y-10523460D01*
X5484087Y-10523460D02*
X5474563Y-10513936D01*
X5474563Y-10513936D02*
X5465039Y-10494889D01*
X5465039Y-10494889D02*
X5455515Y-10456793D01*
X5455515Y-10456793D02*
X5455515Y-10409174D01*
X5455515Y-10409174D02*
X5465039Y-10371079D01*
X5465039Y-10371079D02*
X5474563Y-10352031D01*
X5474563Y-10352031D02*
X5484087Y-10342508D01*
X5484087Y-10342508D02*
X5503134Y-10332984D01*
X5655515Y-10513936D02*
X5665039Y-10523460D01*
X5665039Y-10523460D02*
X5655515Y-10532984D01*
X5655515Y-10532984D02*
X5645991Y-10523460D01*
X5645991Y-10523460D02*
X5655515Y-10513936D01*
X5655515Y-10513936D02*
X5655515Y-10532984D01*
X5788848Y-10332984D02*
X5807896Y-10332984D01*
X5807896Y-10332984D02*
X5826944Y-10342508D01*
X5826944Y-10342508D02*
X5836467Y-10352031D01*
X5836467Y-10352031D02*
X5845991Y-10371079D01*
X5845991Y-10371079D02*
X5855515Y-10409174D01*
X5855515Y-10409174D02*
X5855515Y-10456793D01*
X5855515Y-10456793D02*
X5845991Y-10494889D01*
X5845991Y-10494889D02*
X5836467Y-10513936D01*
X5836467Y-10513936D02*
X5826944Y-10523460D01*
X5826944Y-10523460D02*
X5807896Y-10532984D01*
X5807896Y-10532984D02*
X5788848Y-10532984D01*
X5788848Y-10532984D02*
X5769801Y-10523460D01*
X5769801Y-10523460D02*
X5760277Y-10513936D01*
X5760277Y-10513936D02*
X5750753Y-10494889D01*
X5750753Y-10494889D02*
X5741229Y-10456793D01*
X5741229Y-10456793D02*
X5741229Y-10409174D01*
X5741229Y-10409174D02*
X5750753Y-10371079D01*
X5750753Y-10371079D02*
X5760277Y-10352031D01*
X5760277Y-10352031D02*
X5769801Y-10342508D01*
X5769801Y-10342508D02*
X5788848Y-10332984D01*
X5931706Y-10352031D02*
X5941229Y-10342508D01*
X5941229Y-10342508D02*
X5960277Y-10332984D01*
X5960277Y-10332984D02*
X6007896Y-10332984D01*
X6007896Y-10332984D02*
X6026944Y-10342508D01*
X6026944Y-10342508D02*
X6036467Y-10352031D01*
X6036467Y-10352031D02*
X6045991Y-10371079D01*
X6045991Y-10371079D02*
X6045991Y-10390127D01*
X6045991Y-10390127D02*
X6036467Y-10418698D01*
X6036467Y-10418698D02*
X5922182Y-10532984D01*
X5922182Y-10532984D02*
X6045991Y-10532984D01*
X6141229Y-10532984D02*
X6179325Y-10532984D01*
X6179325Y-10532984D02*
X6198372Y-10523460D01*
X6198372Y-10523460D02*
X6207896Y-10513936D01*
X6207896Y-10513936D02*
X6226944Y-10485365D01*
X6226944Y-10485365D02*
X6236467Y-10447270D01*
X6236467Y-10447270D02*
X6236467Y-10371079D01*
X6236467Y-10371079D02*
X6226944Y-10352031D01*
X6226944Y-10352031D02*
X6217420Y-10342508D01*
X6217420Y-10342508D02*
X6198372Y-10332984D01*
X6198372Y-10332984D02*
X6160277Y-10332984D01*
X6160277Y-10332984D02*
X6141229Y-10342508D01*
X6141229Y-10342508D02*
X6131706Y-10352031D01*
X6131706Y-10352031D02*
X6122182Y-10371079D01*
X6122182Y-10371079D02*
X6122182Y-10418698D01*
X6122182Y-10418698D02*
X6131706Y-10437746D01*
X6131706Y-10437746D02*
X6141229Y-10447270D01*
X6141229Y-10447270D02*
X6160277Y-10456793D01*
X6160277Y-10456793D02*
X6198372Y-10456793D01*
X6198372Y-10456793D02*
X6217420Y-10447270D01*
X6217420Y-10447270D02*
X6226944Y-10437746D01*
X6226944Y-10437746D02*
X6236467Y-10418698D01*
X6417420Y-10332984D02*
X6322182Y-10332984D01*
X6322182Y-10332984D02*
X6312658Y-10428222D01*
X6312658Y-10428222D02*
X6322182Y-10418698D01*
X6322182Y-10418698D02*
X6341229Y-10409174D01*
X6341229Y-10409174D02*
X6388848Y-10409174D01*
X6388848Y-10409174D02*
X6407896Y-10418698D01*
X6407896Y-10418698D02*
X6417420Y-10428222D01*
X6417420Y-10428222D02*
X6426944Y-10447270D01*
X6426944Y-10447270D02*
X6426944Y-10494889D01*
X6426944Y-10494889D02*
X6417420Y-10513936D01*
X6417420Y-10513936D02*
X6407896Y-10523460D01*
X6407896Y-10523460D02*
X6388848Y-10532984D01*
X6388848Y-10532984D02*
X6341229Y-10532984D01*
X6341229Y-10532984D02*
X6322182Y-10523460D01*
X6322182Y-10523460D02*
X6312658Y-10513936D01*
X6503134Y-10332984D02*
X6503134Y-10371079D01*
X6579325Y-10332984D02*
X6579325Y-10371079D01*
X6874563Y-10609174D02*
X6865039Y-10599650D01*
X6865039Y-10599650D02*
X6845991Y-10571079D01*
X6845991Y-10571079D02*
X6836468Y-10552031D01*
X6836468Y-10552031D02*
X6826944Y-10523460D01*
X6826944Y-10523460D02*
X6817420Y-10475841D01*
X6817420Y-10475841D02*
X6817420Y-10437746D01*
X6817420Y-10437746D02*
X6826944Y-10390127D01*
X6826944Y-10390127D02*
X6836468Y-10361555D01*
X6836468Y-10361555D02*
X6845991Y-10342508D01*
X6845991Y-10342508D02*
X6865039Y-10313936D01*
X6865039Y-10313936D02*
X6874563Y-10304412D01*
X7055515Y-10532984D02*
X6941229Y-10532984D01*
X6998372Y-10532984D02*
X6998372Y-10332984D01*
X6998372Y-10332984D02*
X6979325Y-10361555D01*
X6979325Y-10361555D02*
X6960277Y-10380603D01*
X6960277Y-10380603D02*
X6941229Y-10390127D01*
X7169801Y-10418698D02*
X7150753Y-10409174D01*
X7150753Y-10409174D02*
X7141229Y-10399650D01*
X7141229Y-10399650D02*
X7131706Y-10380603D01*
X7131706Y-10380603D02*
X7131706Y-10371079D01*
X7131706Y-10371079D02*
X7141229Y-10352031D01*
X7141229Y-10352031D02*
X7150753Y-10342508D01*
X7150753Y-10342508D02*
X7169801Y-10332984D01*
X7169801Y-10332984D02*
X7207896Y-10332984D01*
X7207896Y-10332984D02*
X7226944Y-10342508D01*
X7226944Y-10342508D02*
X7236468Y-10352031D01*
X7236468Y-10352031D02*
X7245991Y-10371079D01*
X7245991Y-10371079D02*
X7245991Y-10380603D01*
X7245991Y-10380603D02*
X7236468Y-10399650D01*
X7236468Y-10399650D02*
X7226944Y-10409174D01*
X7226944Y-10409174D02*
X7207896Y-10418698D01*
X7207896Y-10418698D02*
X7169801Y-10418698D01*
X7169801Y-10418698D02*
X7150753Y-10428222D01*
X7150753Y-10428222D02*
X7141229Y-10437746D01*
X7141229Y-10437746D02*
X7131706Y-10456793D01*
X7131706Y-10456793D02*
X7131706Y-10494889D01*
X7131706Y-10494889D02*
X7141229Y-10513936D01*
X7141229Y-10513936D02*
X7150753Y-10523460D01*
X7150753Y-10523460D02*
X7169801Y-10532984D01*
X7169801Y-10532984D02*
X7207896Y-10532984D01*
X7207896Y-10532984D02*
X7226944Y-10523460D01*
X7226944Y-10523460D02*
X7236468Y-10513936D01*
X7236468Y-10513936D02*
X7245991Y-10494889D01*
X7245991Y-10494889D02*
X7245991Y-10456793D01*
X7245991Y-10456793D02*
X7236468Y-10437746D01*
X7236468Y-10437746D02*
X7226944Y-10428222D01*
X7226944Y-10428222D02*
X7207896Y-10418698D01*
X7484087Y-10532984D02*
X7484087Y-10332984D01*
X7569801Y-10532984D02*
X7569801Y-10428222D01*
X7569801Y-10428222D02*
X7560277Y-10409174D01*
X7560277Y-10409174D02*
X7541230Y-10399650D01*
X7541230Y-10399650D02*
X7512658Y-10399650D01*
X7512658Y-10399650D02*
X7493610Y-10409174D01*
X7493610Y-10409174D02*
X7484087Y-10418698D01*
X7693610Y-10532984D02*
X7674563Y-10523460D01*
X7674563Y-10523460D02*
X7665039Y-10513936D01*
X7665039Y-10513936D02*
X7655515Y-10494889D01*
X7655515Y-10494889D02*
X7655515Y-10437746D01*
X7655515Y-10437746D02*
X7665039Y-10418698D01*
X7665039Y-10418698D02*
X7674563Y-10409174D01*
X7674563Y-10409174D02*
X7693610Y-10399650D01*
X7693610Y-10399650D02*
X7722182Y-10399650D01*
X7722182Y-10399650D02*
X7741230Y-10409174D01*
X7741230Y-10409174D02*
X7750753Y-10418698D01*
X7750753Y-10418698D02*
X7760277Y-10437746D01*
X7760277Y-10437746D02*
X7760277Y-10494889D01*
X7760277Y-10494889D02*
X7750753Y-10513936D01*
X7750753Y-10513936D02*
X7741230Y-10523460D01*
X7741230Y-10523460D02*
X7722182Y-10532984D01*
X7722182Y-10532984D02*
X7693610Y-10532984D01*
X7874563Y-10532984D02*
X7855515Y-10523460D01*
X7855515Y-10523460D02*
X7845991Y-10504412D01*
X7845991Y-10504412D02*
X7845991Y-10332984D01*
X8026944Y-10523460D02*
X8007896Y-10532984D01*
X8007896Y-10532984D02*
X7969801Y-10532984D01*
X7969801Y-10532984D02*
X7950753Y-10523460D01*
X7950753Y-10523460D02*
X7941230Y-10504412D01*
X7941230Y-10504412D02*
X7941230Y-10428222D01*
X7941230Y-10428222D02*
X7950753Y-10409174D01*
X7950753Y-10409174D02*
X7969801Y-10399650D01*
X7969801Y-10399650D02*
X8007896Y-10399650D01*
X8007896Y-10399650D02*
X8026944Y-10409174D01*
X8026944Y-10409174D02*
X8036468Y-10428222D01*
X8036468Y-10428222D02*
X8036468Y-10447270D01*
X8036468Y-10447270D02*
X7941230Y-10466317D01*
X8112658Y-10523460D02*
X8131706Y-10532984D01*
X8131706Y-10532984D02*
X8169801Y-10532984D01*
X8169801Y-10532984D02*
X8188849Y-10523460D01*
X8188849Y-10523460D02*
X8198372Y-10504412D01*
X8198372Y-10504412D02*
X8198372Y-10494889D01*
X8198372Y-10494889D02*
X8188849Y-10475841D01*
X8188849Y-10475841D02*
X8169801Y-10466317D01*
X8169801Y-10466317D02*
X8141230Y-10466317D01*
X8141230Y-10466317D02*
X8122182Y-10456793D01*
X8122182Y-10456793D02*
X8112658Y-10437746D01*
X8112658Y-10437746D02*
X8112658Y-10428222D01*
X8112658Y-10428222D02*
X8122182Y-10409174D01*
X8122182Y-10409174D02*
X8141230Y-10399650D01*
X8141230Y-10399650D02*
X8169801Y-10399650D01*
X8169801Y-10399650D02*
X8188849Y-10409174D01*
X8265039Y-10609174D02*
X8274563Y-10599650D01*
X8274563Y-10599650D02*
X8293611Y-10571079D01*
X8293611Y-10571079D02*
X8303134Y-10552031D01*
X8303134Y-10552031D02*
X8312658Y-10523460D01*
X8312658Y-10523460D02*
X8322182Y-10475841D01*
X8322182Y-10475841D02*
X8322182Y-10437746D01*
X8322182Y-10437746D02*
X8312658Y-10390127D01*
X8312658Y-10390127D02*
X8303134Y-10361555D01*
X8303134Y-10361555D02*
X8293611Y-10342508D01*
X8293611Y-10342508D02*
X8274563Y-10313936D01*
X8274563Y-10313936D02*
X8265039Y-10304412D01*
D12*
X3287784Y-10733785D02*
X3287784Y-10677216D01*
X3231215Y-10677216D01*
X3231215Y-10733785D01*
X3287784Y-10733785D01*
D11*
X3598372Y-10596984D02*
X3617420Y-10596984D01*
X3617420Y-10596984D02*
X3636467Y-10606508D01*
X3636467Y-10606508D02*
X3645991Y-10616031D01*
X3645991Y-10616031D02*
X3655515Y-10635079D01*
X3655515Y-10635079D02*
X3665039Y-10673174D01*
X3665039Y-10673174D02*
X3665039Y-10720793D01*
X3665039Y-10720793D02*
X3655515Y-10758889D01*
X3655515Y-10758889D02*
X3645991Y-10777936D01*
X3645991Y-10777936D02*
X3636467Y-10787460D01*
X3636467Y-10787460D02*
X3617420Y-10796984D01*
X3617420Y-10796984D02*
X3598372Y-10796984D01*
X3598372Y-10796984D02*
X3579324Y-10787460D01*
X3579324Y-10787460D02*
X3569801Y-10777936D01*
X3569801Y-10777936D02*
X3560277Y-10758889D01*
X3560277Y-10758889D02*
X3550753Y-10720793D01*
X3550753Y-10720793D02*
X3550753Y-10673174D01*
X3550753Y-10673174D02*
X3560277Y-10635079D01*
X3560277Y-10635079D02*
X3569801Y-10616031D01*
X3569801Y-10616031D02*
X3579324Y-10606508D01*
X3579324Y-10606508D02*
X3598372Y-10596984D01*
X3750753Y-10777936D02*
X3760277Y-10787460D01*
X3760277Y-10787460D02*
X3750753Y-10796984D01*
X3750753Y-10796984D02*
X3741229Y-10787460D01*
X3741229Y-10787460D02*
X3750753Y-10777936D01*
X3750753Y-10777936D02*
X3750753Y-10796984D01*
X3874562Y-10682698D02*
X3855515Y-10673174D01*
X3855515Y-10673174D02*
X3845991Y-10663650D01*
X3845991Y-10663650D02*
X3836467Y-10644603D01*
X3836467Y-10644603D02*
X3836467Y-10635079D01*
X3836467Y-10635079D02*
X3845991Y-10616031D01*
X3845991Y-10616031D02*
X3855515Y-10606508D01*
X3855515Y-10606508D02*
X3874562Y-10596984D01*
X3874562Y-10596984D02*
X3912658Y-10596984D01*
X3912658Y-10596984D02*
X3931705Y-10606508D01*
X3931705Y-10606508D02*
X3941229Y-10616031D01*
X3941229Y-10616031D02*
X3950753Y-10635079D01*
X3950753Y-10635079D02*
X3950753Y-10644603D01*
X3950753Y-10644603D02*
X3941229Y-10663650D01*
X3941229Y-10663650D02*
X3931705Y-10673174D01*
X3931705Y-10673174D02*
X3912658Y-10682698D01*
X3912658Y-10682698D02*
X3874562Y-10682698D01*
X3874562Y-10682698D02*
X3855515Y-10692222D01*
X3855515Y-10692222D02*
X3845991Y-10701746D01*
X3845991Y-10701746D02*
X3836467Y-10720793D01*
X3836467Y-10720793D02*
X3836467Y-10758889D01*
X3836467Y-10758889D02*
X3845991Y-10777936D01*
X3845991Y-10777936D02*
X3855515Y-10787460D01*
X3855515Y-10787460D02*
X3874562Y-10796984D01*
X3874562Y-10796984D02*
X3912658Y-10796984D01*
X3912658Y-10796984D02*
X3931705Y-10787460D01*
X3931705Y-10787460D02*
X3941229Y-10777936D01*
X3941229Y-10777936D02*
X3950753Y-10758889D01*
X3950753Y-10758889D02*
X3950753Y-10720793D01*
X3950753Y-10720793D02*
X3941229Y-10701746D01*
X3941229Y-10701746D02*
X3931705Y-10692222D01*
X3931705Y-10692222D02*
X3912658Y-10682698D01*
X4074562Y-10596984D02*
X4093610Y-10596984D01*
X4093610Y-10596984D02*
X4112658Y-10606508D01*
X4112658Y-10606508D02*
X4122182Y-10616031D01*
X4122182Y-10616031D02*
X4131705Y-10635079D01*
X4131705Y-10635079D02*
X4141229Y-10673174D01*
X4141229Y-10673174D02*
X4141229Y-10720793D01*
X4141229Y-10720793D02*
X4131705Y-10758889D01*
X4131705Y-10758889D02*
X4122182Y-10777936D01*
X4122182Y-10777936D02*
X4112658Y-10787460D01*
X4112658Y-10787460D02*
X4093610Y-10796984D01*
X4093610Y-10796984D02*
X4074562Y-10796984D01*
X4074562Y-10796984D02*
X4055515Y-10787460D01*
X4055515Y-10787460D02*
X4045991Y-10777936D01*
X4045991Y-10777936D02*
X4036467Y-10758889D01*
X4036467Y-10758889D02*
X4026943Y-10720793D01*
X4026943Y-10720793D02*
X4026943Y-10673174D01*
X4026943Y-10673174D02*
X4036467Y-10635079D01*
X4036467Y-10635079D02*
X4045991Y-10616031D01*
X4045991Y-10616031D02*
X4055515Y-10606508D01*
X4055515Y-10606508D02*
X4074562Y-10596984D01*
X4265039Y-10596984D02*
X4284086Y-10596984D01*
X4284086Y-10596984D02*
X4303134Y-10606508D01*
X4303134Y-10606508D02*
X4312658Y-10616031D01*
X4312658Y-10616031D02*
X4322182Y-10635079D01*
X4322182Y-10635079D02*
X4331705Y-10673174D01*
X4331705Y-10673174D02*
X4331705Y-10720793D01*
X4331705Y-10720793D02*
X4322182Y-10758889D01*
X4322182Y-10758889D02*
X4312658Y-10777936D01*
X4312658Y-10777936D02*
X4303134Y-10787460D01*
X4303134Y-10787460D02*
X4284086Y-10796984D01*
X4284086Y-10796984D02*
X4265039Y-10796984D01*
X4265039Y-10796984D02*
X4245991Y-10787460D01*
X4245991Y-10787460D02*
X4236467Y-10777936D01*
X4236467Y-10777936D02*
X4226944Y-10758889D01*
X4226944Y-10758889D02*
X4217420Y-10720793D01*
X4217420Y-10720793D02*
X4217420Y-10673174D01*
X4217420Y-10673174D02*
X4226944Y-10635079D01*
X4226944Y-10635079D02*
X4236467Y-10616031D01*
X4236467Y-10616031D02*
X4245991Y-10606508D01*
X4245991Y-10606508D02*
X4265039Y-10596984D01*
X4417420Y-10796984D02*
X4417420Y-10663650D01*
X4417420Y-10682698D02*
X4426944Y-10673174D01*
X4426944Y-10673174D02*
X4445991Y-10663650D01*
X4445991Y-10663650D02*
X4474563Y-10663650D01*
X4474563Y-10663650D02*
X4493610Y-10673174D01*
X4493610Y-10673174D02*
X4503134Y-10692222D01*
X4503134Y-10692222D02*
X4503134Y-10796984D01*
X4503134Y-10692222D02*
X4512658Y-10673174D01*
X4512658Y-10673174D02*
X4531705Y-10663650D01*
X4531705Y-10663650D02*
X4560277Y-10663650D01*
X4560277Y-10663650D02*
X4579325Y-10673174D01*
X4579325Y-10673174D02*
X4588848Y-10692222D01*
X4588848Y-10692222D02*
X4588848Y-10796984D01*
X4684086Y-10796984D02*
X4684086Y-10663650D01*
X4684086Y-10682698D02*
X4693610Y-10673174D01*
X4693610Y-10673174D02*
X4712658Y-10663650D01*
X4712658Y-10663650D02*
X4741229Y-10663650D01*
X4741229Y-10663650D02*
X4760277Y-10673174D01*
X4760277Y-10673174D02*
X4769801Y-10692222D01*
X4769801Y-10692222D02*
X4769801Y-10796984D01*
X4769801Y-10692222D02*
X4779325Y-10673174D01*
X4779325Y-10673174D02*
X4798372Y-10663650D01*
X4798372Y-10663650D02*
X4826944Y-10663650D01*
X4826944Y-10663650D02*
X4845991Y-10673174D01*
X4845991Y-10673174D02*
X4855515Y-10692222D01*
X4855515Y-10692222D02*
X4855515Y-10796984D01*
X5245991Y-10587460D02*
X5074563Y-10844603D01*
X5503134Y-10596984D02*
X5522182Y-10596984D01*
X5522182Y-10596984D02*
X5541229Y-10606508D01*
X5541229Y-10606508D02*
X5550753Y-10616031D01*
X5550753Y-10616031D02*
X5560277Y-10635079D01*
X5560277Y-10635079D02*
X5569801Y-10673174D01*
X5569801Y-10673174D02*
X5569801Y-10720793D01*
X5569801Y-10720793D02*
X5560277Y-10758889D01*
X5560277Y-10758889D02*
X5550753Y-10777936D01*
X5550753Y-10777936D02*
X5541229Y-10787460D01*
X5541229Y-10787460D02*
X5522182Y-10796984D01*
X5522182Y-10796984D02*
X5503134Y-10796984D01*
X5503134Y-10796984D02*
X5484087Y-10787460D01*
X5484087Y-10787460D02*
X5474563Y-10777936D01*
X5474563Y-10777936D02*
X5465039Y-10758889D01*
X5465039Y-10758889D02*
X5455515Y-10720793D01*
X5455515Y-10720793D02*
X5455515Y-10673174D01*
X5455515Y-10673174D02*
X5465039Y-10635079D01*
X5465039Y-10635079D02*
X5474563Y-10616031D01*
X5474563Y-10616031D02*
X5484087Y-10606508D01*
X5484087Y-10606508D02*
X5503134Y-10596984D01*
X5655515Y-10777936D02*
X5665039Y-10787460D01*
X5665039Y-10787460D02*
X5655515Y-10796984D01*
X5655515Y-10796984D02*
X5645991Y-10787460D01*
X5645991Y-10787460D02*
X5655515Y-10777936D01*
X5655515Y-10777936D02*
X5655515Y-10796984D01*
X5788848Y-10596984D02*
X5807896Y-10596984D01*
X5807896Y-10596984D02*
X5826944Y-10606508D01*
X5826944Y-10606508D02*
X5836467Y-10616031D01*
X5836467Y-10616031D02*
X5845991Y-10635079D01*
X5845991Y-10635079D02*
X5855515Y-10673174D01*
X5855515Y-10673174D02*
X5855515Y-10720793D01*
X5855515Y-10720793D02*
X5845991Y-10758889D01*
X5845991Y-10758889D02*
X5836467Y-10777936D01*
X5836467Y-10777936D02*
X5826944Y-10787460D01*
X5826944Y-10787460D02*
X5807896Y-10796984D01*
X5807896Y-10796984D02*
X5788848Y-10796984D01*
X5788848Y-10796984D02*
X5769801Y-10787460D01*
X5769801Y-10787460D02*
X5760277Y-10777936D01*
X5760277Y-10777936D02*
X5750753Y-10758889D01*
X5750753Y-10758889D02*
X5741229Y-10720793D01*
X5741229Y-10720793D02*
X5741229Y-10673174D01*
X5741229Y-10673174D02*
X5750753Y-10635079D01*
X5750753Y-10635079D02*
X5760277Y-10616031D01*
X5760277Y-10616031D02*
X5769801Y-10606508D01*
X5769801Y-10606508D02*
X5788848Y-10596984D01*
X5922182Y-10596984D02*
X6045991Y-10596984D01*
X6045991Y-10596984D02*
X5979325Y-10673174D01*
X5979325Y-10673174D02*
X6007896Y-10673174D01*
X6007896Y-10673174D02*
X6026944Y-10682698D01*
X6026944Y-10682698D02*
X6036467Y-10692222D01*
X6036467Y-10692222D02*
X6045991Y-10711270D01*
X6045991Y-10711270D02*
X6045991Y-10758889D01*
X6045991Y-10758889D02*
X6036467Y-10777936D01*
X6036467Y-10777936D02*
X6026944Y-10787460D01*
X6026944Y-10787460D02*
X6007896Y-10796984D01*
X6007896Y-10796984D02*
X5950753Y-10796984D01*
X5950753Y-10796984D02*
X5931706Y-10787460D01*
X5931706Y-10787460D02*
X5922182Y-10777936D01*
X6236467Y-10796984D02*
X6122182Y-10796984D01*
X6179325Y-10796984D02*
X6179325Y-10596984D01*
X6179325Y-10596984D02*
X6160277Y-10625555D01*
X6160277Y-10625555D02*
X6141229Y-10644603D01*
X6141229Y-10644603D02*
X6122182Y-10654127D01*
X6417420Y-10596984D02*
X6322182Y-10596984D01*
X6322182Y-10596984D02*
X6312658Y-10692222D01*
X6312658Y-10692222D02*
X6322182Y-10682698D01*
X6322182Y-10682698D02*
X6341229Y-10673174D01*
X6341229Y-10673174D02*
X6388848Y-10673174D01*
X6388848Y-10673174D02*
X6407896Y-10682698D01*
X6407896Y-10682698D02*
X6417420Y-10692222D01*
X6417420Y-10692222D02*
X6426944Y-10711270D01*
X6426944Y-10711270D02*
X6426944Y-10758889D01*
X6426944Y-10758889D02*
X6417420Y-10777936D01*
X6417420Y-10777936D02*
X6407896Y-10787460D01*
X6407896Y-10787460D02*
X6388848Y-10796984D01*
X6388848Y-10796984D02*
X6341229Y-10796984D01*
X6341229Y-10796984D02*
X6322182Y-10787460D01*
X6322182Y-10787460D02*
X6312658Y-10777936D01*
X6503134Y-10596984D02*
X6503134Y-10635079D01*
X6579325Y-10596984D02*
X6579325Y-10635079D01*
X6874563Y-10873174D02*
X6865039Y-10863650D01*
X6865039Y-10863650D02*
X6845991Y-10835079D01*
X6845991Y-10835079D02*
X6836468Y-10816031D01*
X6836468Y-10816031D02*
X6826944Y-10787460D01*
X6826944Y-10787460D02*
X6817420Y-10739841D01*
X6817420Y-10739841D02*
X6817420Y-10701746D01*
X6817420Y-10701746D02*
X6826944Y-10654127D01*
X6826944Y-10654127D02*
X6836468Y-10625555D01*
X6836468Y-10625555D02*
X6845991Y-10606508D01*
X6845991Y-10606508D02*
X6865039Y-10577936D01*
X6865039Y-10577936D02*
X6874563Y-10568412D01*
X6931706Y-10596984D02*
X7065039Y-10596984D01*
X7065039Y-10596984D02*
X6979325Y-10796984D01*
X7169801Y-10682698D02*
X7150753Y-10673174D01*
X7150753Y-10673174D02*
X7141229Y-10663650D01*
X7141229Y-10663650D02*
X7131706Y-10644603D01*
X7131706Y-10644603D02*
X7131706Y-10635079D01*
X7131706Y-10635079D02*
X7141229Y-10616031D01*
X7141229Y-10616031D02*
X7150753Y-10606508D01*
X7150753Y-10606508D02*
X7169801Y-10596984D01*
X7169801Y-10596984D02*
X7207896Y-10596984D01*
X7207896Y-10596984D02*
X7226944Y-10606508D01*
X7226944Y-10606508D02*
X7236468Y-10616031D01*
X7236468Y-10616031D02*
X7245991Y-10635079D01*
X7245991Y-10635079D02*
X7245991Y-10644603D01*
X7245991Y-10644603D02*
X7236468Y-10663650D01*
X7236468Y-10663650D02*
X7226944Y-10673174D01*
X7226944Y-10673174D02*
X7207896Y-10682698D01*
X7207896Y-10682698D02*
X7169801Y-10682698D01*
X7169801Y-10682698D02*
X7150753Y-10692222D01*
X7150753Y-10692222D02*
X7141229Y-10701746D01*
X7141229Y-10701746D02*
X7131706Y-10720793D01*
X7131706Y-10720793D02*
X7131706Y-10758889D01*
X7131706Y-10758889D02*
X7141229Y-10777936D01*
X7141229Y-10777936D02*
X7150753Y-10787460D01*
X7150753Y-10787460D02*
X7169801Y-10796984D01*
X7169801Y-10796984D02*
X7207896Y-10796984D01*
X7207896Y-10796984D02*
X7226944Y-10787460D01*
X7226944Y-10787460D02*
X7236468Y-10777936D01*
X7236468Y-10777936D02*
X7245991Y-10758889D01*
X7245991Y-10758889D02*
X7245991Y-10720793D01*
X7245991Y-10720793D02*
X7236468Y-10701746D01*
X7236468Y-10701746D02*
X7226944Y-10692222D01*
X7226944Y-10692222D02*
X7207896Y-10682698D01*
X7484087Y-10796984D02*
X7484087Y-10596984D01*
X7569801Y-10796984D02*
X7569801Y-10692222D01*
X7569801Y-10692222D02*
X7560277Y-10673174D01*
X7560277Y-10673174D02*
X7541230Y-10663650D01*
X7541230Y-10663650D02*
X7512658Y-10663650D01*
X7512658Y-10663650D02*
X7493610Y-10673174D01*
X7493610Y-10673174D02*
X7484087Y-10682698D01*
X7693610Y-10796984D02*
X7674563Y-10787460D01*
X7674563Y-10787460D02*
X7665039Y-10777936D01*
X7665039Y-10777936D02*
X7655515Y-10758889D01*
X7655515Y-10758889D02*
X7655515Y-10701746D01*
X7655515Y-10701746D02*
X7665039Y-10682698D01*
X7665039Y-10682698D02*
X7674563Y-10673174D01*
X7674563Y-10673174D02*
X7693610Y-10663650D01*
X7693610Y-10663650D02*
X7722182Y-10663650D01*
X7722182Y-10663650D02*
X7741230Y-10673174D01*
X7741230Y-10673174D02*
X7750753Y-10682698D01*
X7750753Y-10682698D02*
X7760277Y-10701746D01*
X7760277Y-10701746D02*
X7760277Y-10758889D01*
X7760277Y-10758889D02*
X7750753Y-10777936D01*
X7750753Y-10777936D02*
X7741230Y-10787460D01*
X7741230Y-10787460D02*
X7722182Y-10796984D01*
X7722182Y-10796984D02*
X7693610Y-10796984D01*
X7874563Y-10796984D02*
X7855515Y-10787460D01*
X7855515Y-10787460D02*
X7845991Y-10768412D01*
X7845991Y-10768412D02*
X7845991Y-10596984D01*
X8026944Y-10787460D02*
X8007896Y-10796984D01*
X8007896Y-10796984D02*
X7969801Y-10796984D01*
X7969801Y-10796984D02*
X7950753Y-10787460D01*
X7950753Y-10787460D02*
X7941230Y-10768412D01*
X7941230Y-10768412D02*
X7941230Y-10692222D01*
X7941230Y-10692222D02*
X7950753Y-10673174D01*
X7950753Y-10673174D02*
X7969801Y-10663650D01*
X7969801Y-10663650D02*
X8007896Y-10663650D01*
X8007896Y-10663650D02*
X8026944Y-10673174D01*
X8026944Y-10673174D02*
X8036468Y-10692222D01*
X8036468Y-10692222D02*
X8036468Y-10711270D01*
X8036468Y-10711270D02*
X7941230Y-10730317D01*
X8112658Y-10787460D02*
X8131706Y-10796984D01*
X8131706Y-10796984D02*
X8169801Y-10796984D01*
X8169801Y-10796984D02*
X8188849Y-10787460D01*
X8188849Y-10787460D02*
X8198372Y-10768412D01*
X8198372Y-10768412D02*
X8198372Y-10758889D01*
X8198372Y-10758889D02*
X8188849Y-10739841D01*
X8188849Y-10739841D02*
X8169801Y-10730317D01*
X8169801Y-10730317D02*
X8141230Y-10730317D01*
X8141230Y-10730317D02*
X8122182Y-10720793D01*
X8122182Y-10720793D02*
X8112658Y-10701746D01*
X8112658Y-10701746D02*
X8112658Y-10692222D01*
X8112658Y-10692222D02*
X8122182Y-10673174D01*
X8122182Y-10673174D02*
X8141230Y-10663650D01*
X8141230Y-10663650D02*
X8169801Y-10663650D01*
X8169801Y-10663650D02*
X8188849Y-10673174D01*
X8265039Y-10873174D02*
X8274563Y-10863650D01*
X8274563Y-10863650D02*
X8293611Y-10835079D01*
X8293611Y-10835079D02*
X8303134Y-10816031D01*
X8303134Y-10816031D02*
X8312658Y-10787460D01*
X8312658Y-10787460D02*
X8322182Y-10739841D01*
X8322182Y-10739841D02*
X8322182Y-10701746D01*
X8322182Y-10701746D02*
X8312658Y-10654127D01*
X8312658Y-10654127D02*
X8303134Y-10625555D01*
X8303134Y-10625555D02*
X8293611Y-10606508D01*
X8293611Y-10606508D02*
X8274563Y-10577936D01*
X8274563Y-10577936D02*
X8265039Y-10568412D01*
D12*
X3249500Y-11019500D02*
X3299500Y-10969500D01*
X3249500Y-10919500D01*
X3199500Y-10969500D01*
X3249500Y-11019500D01*
D11*
X3665039Y-11060984D02*
X3550753Y-11060984D01*
X3607896Y-11060984D02*
X3607896Y-10860984D01*
X3607896Y-10860984D02*
X3588848Y-10889555D01*
X3588848Y-10889555D02*
X3569801Y-10908603D01*
X3569801Y-10908603D02*
X3550753Y-10918127D01*
X3750753Y-11041936D02*
X3760277Y-11051460D01*
X3760277Y-11051460D02*
X3750753Y-11060984D01*
X3750753Y-11060984D02*
X3741229Y-11051460D01*
X3741229Y-11051460D02*
X3750753Y-11041936D01*
X3750753Y-11041936D02*
X3750753Y-11060984D01*
X3884086Y-10860984D02*
X3903134Y-10860984D01*
X3903134Y-10860984D02*
X3922182Y-10870508D01*
X3922182Y-10870508D02*
X3931705Y-10880031D01*
X3931705Y-10880031D02*
X3941229Y-10899079D01*
X3941229Y-10899079D02*
X3950753Y-10937174D01*
X3950753Y-10937174D02*
X3950753Y-10984793D01*
X3950753Y-10984793D02*
X3941229Y-11022889D01*
X3941229Y-11022889D02*
X3931705Y-11041936D01*
X3931705Y-11041936D02*
X3922182Y-11051460D01*
X3922182Y-11051460D02*
X3903134Y-11060984D01*
X3903134Y-11060984D02*
X3884086Y-11060984D01*
X3884086Y-11060984D02*
X3865039Y-11051460D01*
X3865039Y-11051460D02*
X3855515Y-11041936D01*
X3855515Y-11041936D02*
X3845991Y-11022889D01*
X3845991Y-11022889D02*
X3836467Y-10984793D01*
X3836467Y-10984793D02*
X3836467Y-10937174D01*
X3836467Y-10937174D02*
X3845991Y-10899079D01*
X3845991Y-10899079D02*
X3855515Y-10880031D01*
X3855515Y-10880031D02*
X3865039Y-10870508D01*
X3865039Y-10870508D02*
X3884086Y-10860984D01*
X4074562Y-10860984D02*
X4093610Y-10860984D01*
X4093610Y-10860984D02*
X4112658Y-10870508D01*
X4112658Y-10870508D02*
X4122182Y-10880031D01*
X4122182Y-10880031D02*
X4131705Y-10899079D01*
X4131705Y-10899079D02*
X4141229Y-10937174D01*
X4141229Y-10937174D02*
X4141229Y-10984793D01*
X4141229Y-10984793D02*
X4131705Y-11022889D01*
X4131705Y-11022889D02*
X4122182Y-11041936D01*
X4122182Y-11041936D02*
X4112658Y-11051460D01*
X4112658Y-11051460D02*
X4093610Y-11060984D01*
X4093610Y-11060984D02*
X4074562Y-11060984D01*
X4074562Y-11060984D02*
X4055515Y-11051460D01*
X4055515Y-11051460D02*
X4045991Y-11041936D01*
X4045991Y-11041936D02*
X4036467Y-11022889D01*
X4036467Y-11022889D02*
X4026943Y-10984793D01*
X4026943Y-10984793D02*
X4026943Y-10937174D01*
X4026943Y-10937174D02*
X4036467Y-10899079D01*
X4036467Y-10899079D02*
X4045991Y-10880031D01*
X4045991Y-10880031D02*
X4055515Y-10870508D01*
X4055515Y-10870508D02*
X4074562Y-10860984D01*
X4265039Y-10860984D02*
X4284086Y-10860984D01*
X4284086Y-10860984D02*
X4303134Y-10870508D01*
X4303134Y-10870508D02*
X4312658Y-10880031D01*
X4312658Y-10880031D02*
X4322182Y-10899079D01*
X4322182Y-10899079D02*
X4331705Y-10937174D01*
X4331705Y-10937174D02*
X4331705Y-10984793D01*
X4331705Y-10984793D02*
X4322182Y-11022889D01*
X4322182Y-11022889D02*
X4312658Y-11041936D01*
X4312658Y-11041936D02*
X4303134Y-11051460D01*
X4303134Y-11051460D02*
X4284086Y-11060984D01*
X4284086Y-11060984D02*
X4265039Y-11060984D01*
X4265039Y-11060984D02*
X4245991Y-11051460D01*
X4245991Y-11051460D02*
X4236467Y-11041936D01*
X4236467Y-11041936D02*
X4226944Y-11022889D01*
X4226944Y-11022889D02*
X4217420Y-10984793D01*
X4217420Y-10984793D02*
X4217420Y-10937174D01*
X4217420Y-10937174D02*
X4226944Y-10899079D01*
X4226944Y-10899079D02*
X4236467Y-10880031D01*
X4236467Y-10880031D02*
X4245991Y-10870508D01*
X4245991Y-10870508D02*
X4265039Y-10860984D01*
X4417420Y-11060984D02*
X4417420Y-10927650D01*
X4417420Y-10946698D02*
X4426944Y-10937174D01*
X4426944Y-10937174D02*
X4445991Y-10927650D01*
X4445991Y-10927650D02*
X4474563Y-10927650D01*
X4474563Y-10927650D02*
X4493610Y-10937174D01*
X4493610Y-10937174D02*
X4503134Y-10956222D01*
X4503134Y-10956222D02*
X4503134Y-11060984D01*
X4503134Y-10956222D02*
X4512658Y-10937174D01*
X4512658Y-10937174D02*
X4531705Y-10927650D01*
X4531705Y-10927650D02*
X4560277Y-10927650D01*
X4560277Y-10927650D02*
X4579325Y-10937174D01*
X4579325Y-10937174D02*
X4588848Y-10956222D01*
X4588848Y-10956222D02*
X4588848Y-11060984D01*
X4684086Y-11060984D02*
X4684086Y-10927650D01*
X4684086Y-10946698D02*
X4693610Y-10937174D01*
X4693610Y-10937174D02*
X4712658Y-10927650D01*
X4712658Y-10927650D02*
X4741229Y-10927650D01*
X4741229Y-10927650D02*
X4760277Y-10937174D01*
X4760277Y-10937174D02*
X4769801Y-10956222D01*
X4769801Y-10956222D02*
X4769801Y-11060984D01*
X4769801Y-10956222D02*
X4779325Y-10937174D01*
X4779325Y-10937174D02*
X4798372Y-10927650D01*
X4798372Y-10927650D02*
X4826944Y-10927650D01*
X4826944Y-10927650D02*
X4845991Y-10937174D01*
X4845991Y-10937174D02*
X4855515Y-10956222D01*
X4855515Y-10956222D02*
X4855515Y-11060984D01*
X5245991Y-10851460D02*
X5074563Y-11108603D01*
X5503134Y-10860984D02*
X5522182Y-10860984D01*
X5522182Y-10860984D02*
X5541229Y-10870508D01*
X5541229Y-10870508D02*
X5550753Y-10880031D01*
X5550753Y-10880031D02*
X5560277Y-10899079D01*
X5560277Y-10899079D02*
X5569801Y-10937174D01*
X5569801Y-10937174D02*
X5569801Y-10984793D01*
X5569801Y-10984793D02*
X5560277Y-11022889D01*
X5560277Y-11022889D02*
X5550753Y-11041936D01*
X5550753Y-11041936D02*
X5541229Y-11051460D01*
X5541229Y-11051460D02*
X5522182Y-11060984D01*
X5522182Y-11060984D02*
X5503134Y-11060984D01*
X5503134Y-11060984D02*
X5484087Y-11051460D01*
X5484087Y-11051460D02*
X5474563Y-11041936D01*
X5474563Y-11041936D02*
X5465039Y-11022889D01*
X5465039Y-11022889D02*
X5455515Y-10984793D01*
X5455515Y-10984793D02*
X5455515Y-10937174D01*
X5455515Y-10937174D02*
X5465039Y-10899079D01*
X5465039Y-10899079D02*
X5474563Y-10880031D01*
X5474563Y-10880031D02*
X5484087Y-10870508D01*
X5484087Y-10870508D02*
X5503134Y-10860984D01*
X5655515Y-11041936D02*
X5665039Y-11051460D01*
X5665039Y-11051460D02*
X5655515Y-11060984D01*
X5655515Y-11060984D02*
X5645991Y-11051460D01*
X5645991Y-11051460D02*
X5655515Y-11041936D01*
X5655515Y-11041936D02*
X5655515Y-11060984D01*
X5788848Y-10860984D02*
X5807896Y-10860984D01*
X5807896Y-10860984D02*
X5826944Y-10870508D01*
X5826944Y-10870508D02*
X5836467Y-10880031D01*
X5836467Y-10880031D02*
X5845991Y-10899079D01*
X5845991Y-10899079D02*
X5855515Y-10937174D01*
X5855515Y-10937174D02*
X5855515Y-10984793D01*
X5855515Y-10984793D02*
X5845991Y-11022889D01*
X5845991Y-11022889D02*
X5836467Y-11041936D01*
X5836467Y-11041936D02*
X5826944Y-11051460D01*
X5826944Y-11051460D02*
X5807896Y-11060984D01*
X5807896Y-11060984D02*
X5788848Y-11060984D01*
X5788848Y-11060984D02*
X5769801Y-11051460D01*
X5769801Y-11051460D02*
X5760277Y-11041936D01*
X5760277Y-11041936D02*
X5750753Y-11022889D01*
X5750753Y-11022889D02*
X5741229Y-10984793D01*
X5741229Y-10984793D02*
X5741229Y-10937174D01*
X5741229Y-10937174D02*
X5750753Y-10899079D01*
X5750753Y-10899079D02*
X5760277Y-10880031D01*
X5760277Y-10880031D02*
X5769801Y-10870508D01*
X5769801Y-10870508D02*
X5788848Y-10860984D01*
X5922182Y-10860984D02*
X6045991Y-10860984D01*
X6045991Y-10860984D02*
X5979325Y-10937174D01*
X5979325Y-10937174D02*
X6007896Y-10937174D01*
X6007896Y-10937174D02*
X6026944Y-10946698D01*
X6026944Y-10946698D02*
X6036467Y-10956222D01*
X6036467Y-10956222D02*
X6045991Y-10975270D01*
X6045991Y-10975270D02*
X6045991Y-11022889D01*
X6045991Y-11022889D02*
X6036467Y-11041936D01*
X6036467Y-11041936D02*
X6026944Y-11051460D01*
X6026944Y-11051460D02*
X6007896Y-11060984D01*
X6007896Y-11060984D02*
X5950753Y-11060984D01*
X5950753Y-11060984D02*
X5931706Y-11051460D01*
X5931706Y-11051460D02*
X5922182Y-11041936D01*
X6141229Y-11060984D02*
X6179325Y-11060984D01*
X6179325Y-11060984D02*
X6198372Y-11051460D01*
X6198372Y-11051460D02*
X6207896Y-11041936D01*
X6207896Y-11041936D02*
X6226944Y-11013365D01*
X6226944Y-11013365D02*
X6236467Y-10975270D01*
X6236467Y-10975270D02*
X6236467Y-10899079D01*
X6236467Y-10899079D02*
X6226944Y-10880031D01*
X6226944Y-10880031D02*
X6217420Y-10870508D01*
X6217420Y-10870508D02*
X6198372Y-10860984D01*
X6198372Y-10860984D02*
X6160277Y-10860984D01*
X6160277Y-10860984D02*
X6141229Y-10870508D01*
X6141229Y-10870508D02*
X6131706Y-10880031D01*
X6131706Y-10880031D02*
X6122182Y-10899079D01*
X6122182Y-10899079D02*
X6122182Y-10946698D01*
X6122182Y-10946698D02*
X6131706Y-10965746D01*
X6131706Y-10965746D02*
X6141229Y-10975270D01*
X6141229Y-10975270D02*
X6160277Y-10984793D01*
X6160277Y-10984793D02*
X6198372Y-10984793D01*
X6198372Y-10984793D02*
X6217420Y-10975270D01*
X6217420Y-10975270D02*
X6226944Y-10965746D01*
X6226944Y-10965746D02*
X6236467Y-10946698D01*
X6407896Y-10927650D02*
X6407896Y-11060984D01*
X6360277Y-10851460D02*
X6312658Y-10994317D01*
X6312658Y-10994317D02*
X6436467Y-10994317D01*
X6503134Y-10860984D02*
X6503134Y-10899079D01*
X6579325Y-10860984D02*
X6579325Y-10899079D01*
X6874563Y-11137174D02*
X6865039Y-11127650D01*
X6865039Y-11127650D02*
X6845991Y-11099079D01*
X6845991Y-11099079D02*
X6836468Y-11080031D01*
X6836468Y-11080031D02*
X6826944Y-11051460D01*
X6826944Y-11051460D02*
X6817420Y-11003841D01*
X6817420Y-11003841D02*
X6817420Y-10965746D01*
X6817420Y-10965746D02*
X6826944Y-10918127D01*
X6826944Y-10918127D02*
X6836468Y-10889555D01*
X6836468Y-10889555D02*
X6845991Y-10870508D01*
X6845991Y-10870508D02*
X6865039Y-10841936D01*
X6865039Y-10841936D02*
X6874563Y-10832412D01*
X6931706Y-10860984D02*
X7055515Y-10860984D01*
X7055515Y-10860984D02*
X6988848Y-10937174D01*
X6988848Y-10937174D02*
X7017420Y-10937174D01*
X7017420Y-10937174D02*
X7036468Y-10946698D01*
X7036468Y-10946698D02*
X7045991Y-10956222D01*
X7045991Y-10956222D02*
X7055515Y-10975270D01*
X7055515Y-10975270D02*
X7055515Y-11022889D01*
X7055515Y-11022889D02*
X7045991Y-11041936D01*
X7045991Y-11041936D02*
X7036468Y-11051460D01*
X7036468Y-11051460D02*
X7017420Y-11060984D01*
X7017420Y-11060984D02*
X6960277Y-11060984D01*
X6960277Y-11060984D02*
X6941229Y-11051460D01*
X6941229Y-11051460D02*
X6931706Y-11041936D01*
X7226944Y-10860984D02*
X7188848Y-10860984D01*
X7188848Y-10860984D02*
X7169801Y-10870508D01*
X7169801Y-10870508D02*
X7160277Y-10880031D01*
X7160277Y-10880031D02*
X7141229Y-10908603D01*
X7141229Y-10908603D02*
X7131706Y-10946698D01*
X7131706Y-10946698D02*
X7131706Y-11022889D01*
X7131706Y-11022889D02*
X7141229Y-11041936D01*
X7141229Y-11041936D02*
X7150753Y-11051460D01*
X7150753Y-11051460D02*
X7169801Y-11060984D01*
X7169801Y-11060984D02*
X7207896Y-11060984D01*
X7207896Y-11060984D02*
X7226944Y-11051460D01*
X7226944Y-11051460D02*
X7236468Y-11041936D01*
X7236468Y-11041936D02*
X7245991Y-11022889D01*
X7245991Y-11022889D02*
X7245991Y-10975270D01*
X7245991Y-10975270D02*
X7236468Y-10956222D01*
X7236468Y-10956222D02*
X7226944Y-10946698D01*
X7226944Y-10946698D02*
X7207896Y-10937174D01*
X7207896Y-10937174D02*
X7169801Y-10937174D01*
X7169801Y-10937174D02*
X7150753Y-10946698D01*
X7150753Y-10946698D02*
X7141229Y-10956222D01*
X7141229Y-10956222D02*
X7131706Y-10975270D01*
X7484087Y-11060984D02*
X7484087Y-10860984D01*
X7569801Y-11060984D02*
X7569801Y-10956222D01*
X7569801Y-10956222D02*
X7560277Y-10937174D01*
X7560277Y-10937174D02*
X7541230Y-10927650D01*
X7541230Y-10927650D02*
X7512658Y-10927650D01*
X7512658Y-10927650D02*
X7493610Y-10937174D01*
X7493610Y-10937174D02*
X7484087Y-10946698D01*
X7693610Y-11060984D02*
X7674563Y-11051460D01*
X7674563Y-11051460D02*
X7665039Y-11041936D01*
X7665039Y-11041936D02*
X7655515Y-11022889D01*
X7655515Y-11022889D02*
X7655515Y-10965746D01*
X7655515Y-10965746D02*
X7665039Y-10946698D01*
X7665039Y-10946698D02*
X7674563Y-10937174D01*
X7674563Y-10937174D02*
X7693610Y-10927650D01*
X7693610Y-10927650D02*
X7722182Y-10927650D01*
X7722182Y-10927650D02*
X7741230Y-10937174D01*
X7741230Y-10937174D02*
X7750753Y-10946698D01*
X7750753Y-10946698D02*
X7760277Y-10965746D01*
X7760277Y-10965746D02*
X7760277Y-11022889D01*
X7760277Y-11022889D02*
X7750753Y-11041936D01*
X7750753Y-11041936D02*
X7741230Y-11051460D01*
X7741230Y-11051460D02*
X7722182Y-11060984D01*
X7722182Y-11060984D02*
X7693610Y-11060984D01*
X7874563Y-11060984D02*
X7855515Y-11051460D01*
X7855515Y-11051460D02*
X7845991Y-11032412D01*
X7845991Y-11032412D02*
X7845991Y-10860984D01*
X8026944Y-11051460D02*
X8007896Y-11060984D01*
X8007896Y-11060984D02*
X7969801Y-11060984D01*
X7969801Y-11060984D02*
X7950753Y-11051460D01*
X7950753Y-11051460D02*
X7941230Y-11032412D01*
X7941230Y-11032412D02*
X7941230Y-10956222D01*
X7941230Y-10956222D02*
X7950753Y-10937174D01*
X7950753Y-10937174D02*
X7969801Y-10927650D01*
X7969801Y-10927650D02*
X8007896Y-10927650D01*
X8007896Y-10927650D02*
X8026944Y-10937174D01*
X8026944Y-10937174D02*
X8036468Y-10956222D01*
X8036468Y-10956222D02*
X8036468Y-10975270D01*
X8036468Y-10975270D02*
X7941230Y-10994317D01*
X8112658Y-11051460D02*
X8131706Y-11060984D01*
X8131706Y-11060984D02*
X8169801Y-11060984D01*
X8169801Y-11060984D02*
X8188849Y-11051460D01*
X8188849Y-11051460D02*
X8198372Y-11032412D01*
X8198372Y-11032412D02*
X8198372Y-11022889D01*
X8198372Y-11022889D02*
X8188849Y-11003841D01*
X8188849Y-11003841D02*
X8169801Y-10994317D01*
X8169801Y-10994317D02*
X8141230Y-10994317D01*
X8141230Y-10994317D02*
X8122182Y-10984793D01*
X8122182Y-10984793D02*
X8112658Y-10965746D01*
X8112658Y-10965746D02*
X8112658Y-10956222D01*
X8112658Y-10956222D02*
X8122182Y-10937174D01*
X8122182Y-10937174D02*
X8141230Y-10927650D01*
X8141230Y-10927650D02*
X8169801Y-10927650D01*
X8169801Y-10927650D02*
X8188849Y-10937174D01*
X8265039Y-11137174D02*
X8274563Y-11127650D01*
X8274563Y-11127650D02*
X8293611Y-11099079D01*
X8293611Y-11099079D02*
X8303134Y-11080031D01*
X8303134Y-11080031D02*
X8312658Y-11051460D01*
X8312658Y-11051460D02*
X8322182Y-11003841D01*
X8322182Y-11003841D02*
X8322182Y-10965746D01*
X8322182Y-10965746D02*
X8312658Y-10918127D01*
X8312658Y-10918127D02*
X8303134Y-10889555D01*
X8303134Y-10889555D02*
X8293611Y-10870508D01*
X8293611Y-10870508D02*
X8274563Y-10841936D01*
X8274563Y-10841936D02*
X8265039Y-10832412D01*
D13*
X3169500Y-11168500D02*
X3299500Y-11298500D01*
X3299500Y-11168500D02*
X3169500Y-11298500D01*
X3299500Y-11233500D02*
G75*
G02*
X3169500Y-11233500I-65000J0D01*
G01*
X3169500Y-11233500D02*
G75*
G02*
X3299500Y-11233500I65000J0D01*
G01*
D11*
X3665039Y-11324984D02*
X3550753Y-11324984D01*
X3607896Y-11324984D02*
X3607896Y-11124984D01*
X3607896Y-11124984D02*
X3588848Y-11153555D01*
X3588848Y-11153555D02*
X3569801Y-11172603D01*
X3569801Y-11172603D02*
X3550753Y-11182127D01*
X3750753Y-11305936D02*
X3760277Y-11315460D01*
X3760277Y-11315460D02*
X3750753Y-11324984D01*
X3750753Y-11324984D02*
X3741229Y-11315460D01*
X3741229Y-11315460D02*
X3750753Y-11305936D01*
X3750753Y-11305936D02*
X3750753Y-11324984D01*
X3826943Y-11124984D02*
X3950753Y-11124984D01*
X3950753Y-11124984D02*
X3884086Y-11201174D01*
X3884086Y-11201174D02*
X3912658Y-11201174D01*
X3912658Y-11201174D02*
X3931705Y-11210698D01*
X3931705Y-11210698D02*
X3941229Y-11220222D01*
X3941229Y-11220222D02*
X3950753Y-11239269D01*
X3950753Y-11239269D02*
X3950753Y-11286888D01*
X3950753Y-11286888D02*
X3941229Y-11305936D01*
X3941229Y-11305936D02*
X3931705Y-11315460D01*
X3931705Y-11315460D02*
X3912658Y-11324984D01*
X3912658Y-11324984D02*
X3855515Y-11324984D01*
X3855515Y-11324984D02*
X3836467Y-11315460D01*
X3836467Y-11315460D02*
X3826943Y-11305936D01*
X4074562Y-11124984D02*
X4093610Y-11124984D01*
X4093610Y-11124984D02*
X4112658Y-11134508D01*
X4112658Y-11134508D02*
X4122182Y-11144031D01*
X4122182Y-11144031D02*
X4131705Y-11163079D01*
X4131705Y-11163079D02*
X4141229Y-11201174D01*
X4141229Y-11201174D02*
X4141229Y-11248793D01*
X4141229Y-11248793D02*
X4131705Y-11286888D01*
X4131705Y-11286888D02*
X4122182Y-11305936D01*
X4122182Y-11305936D02*
X4112658Y-11315460D01*
X4112658Y-11315460D02*
X4093610Y-11324984D01*
X4093610Y-11324984D02*
X4074562Y-11324984D01*
X4074562Y-11324984D02*
X4055515Y-11315460D01*
X4055515Y-11315460D02*
X4045991Y-11305936D01*
X4045991Y-11305936D02*
X4036467Y-11286888D01*
X4036467Y-11286888D02*
X4026943Y-11248793D01*
X4026943Y-11248793D02*
X4026943Y-11201174D01*
X4026943Y-11201174D02*
X4036467Y-11163079D01*
X4036467Y-11163079D02*
X4045991Y-11144031D01*
X4045991Y-11144031D02*
X4055515Y-11134508D01*
X4055515Y-11134508D02*
X4074562Y-11124984D01*
X4265039Y-11124984D02*
X4284086Y-11124984D01*
X4284086Y-11124984D02*
X4303134Y-11134508D01*
X4303134Y-11134508D02*
X4312658Y-11144031D01*
X4312658Y-11144031D02*
X4322182Y-11163079D01*
X4322182Y-11163079D02*
X4331705Y-11201174D01*
X4331705Y-11201174D02*
X4331705Y-11248793D01*
X4331705Y-11248793D02*
X4322182Y-11286888D01*
X4322182Y-11286888D02*
X4312658Y-11305936D01*
X4312658Y-11305936D02*
X4303134Y-11315460D01*
X4303134Y-11315460D02*
X4284086Y-11324984D01*
X4284086Y-11324984D02*
X4265039Y-11324984D01*
X4265039Y-11324984D02*
X4245991Y-11315460D01*
X4245991Y-11315460D02*
X4236467Y-11305936D01*
X4236467Y-11305936D02*
X4226944Y-11286888D01*
X4226944Y-11286888D02*
X4217420Y-11248793D01*
X4217420Y-11248793D02*
X4217420Y-11201174D01*
X4217420Y-11201174D02*
X4226944Y-11163079D01*
X4226944Y-11163079D02*
X4236467Y-11144031D01*
X4236467Y-11144031D02*
X4245991Y-11134508D01*
X4245991Y-11134508D02*
X4265039Y-11124984D01*
X4417420Y-11324984D02*
X4417420Y-11191650D01*
X4417420Y-11210698D02*
X4426944Y-11201174D01*
X4426944Y-11201174D02*
X4445991Y-11191650D01*
X4445991Y-11191650D02*
X4474563Y-11191650D01*
X4474563Y-11191650D02*
X4493610Y-11201174D01*
X4493610Y-11201174D02*
X4503134Y-11220222D01*
X4503134Y-11220222D02*
X4503134Y-11324984D01*
X4503134Y-11220222D02*
X4512658Y-11201174D01*
X4512658Y-11201174D02*
X4531705Y-11191650D01*
X4531705Y-11191650D02*
X4560277Y-11191650D01*
X4560277Y-11191650D02*
X4579325Y-11201174D01*
X4579325Y-11201174D02*
X4588848Y-11220222D01*
X4588848Y-11220222D02*
X4588848Y-11324984D01*
X4684086Y-11324984D02*
X4684086Y-11191650D01*
X4684086Y-11210698D02*
X4693610Y-11201174D01*
X4693610Y-11201174D02*
X4712658Y-11191650D01*
X4712658Y-11191650D02*
X4741229Y-11191650D01*
X4741229Y-11191650D02*
X4760277Y-11201174D01*
X4760277Y-11201174D02*
X4769801Y-11220222D01*
X4769801Y-11220222D02*
X4769801Y-11324984D01*
X4769801Y-11220222D02*
X4779325Y-11201174D01*
X4779325Y-11201174D02*
X4798372Y-11191650D01*
X4798372Y-11191650D02*
X4826944Y-11191650D01*
X4826944Y-11191650D02*
X4845991Y-11201174D01*
X4845991Y-11201174D02*
X4855515Y-11220222D01*
X4855515Y-11220222D02*
X4855515Y-11324984D01*
X5245991Y-11115460D02*
X5074563Y-11372603D01*
X5503134Y-11124984D02*
X5522182Y-11124984D01*
X5522182Y-11124984D02*
X5541229Y-11134508D01*
X5541229Y-11134508D02*
X5550753Y-11144031D01*
X5550753Y-11144031D02*
X5560277Y-11163079D01*
X5560277Y-11163079D02*
X5569801Y-11201174D01*
X5569801Y-11201174D02*
X5569801Y-11248793D01*
X5569801Y-11248793D02*
X5560277Y-11286888D01*
X5560277Y-11286888D02*
X5550753Y-11305936D01*
X5550753Y-11305936D02*
X5541229Y-11315460D01*
X5541229Y-11315460D02*
X5522182Y-11324984D01*
X5522182Y-11324984D02*
X5503134Y-11324984D01*
X5503134Y-11324984D02*
X5484087Y-11315460D01*
X5484087Y-11315460D02*
X5474563Y-11305936D01*
X5474563Y-11305936D02*
X5465039Y-11286888D01*
X5465039Y-11286888D02*
X5455515Y-11248793D01*
X5455515Y-11248793D02*
X5455515Y-11201174D01*
X5455515Y-11201174D02*
X5465039Y-11163079D01*
X5465039Y-11163079D02*
X5474563Y-11144031D01*
X5474563Y-11144031D02*
X5484087Y-11134508D01*
X5484087Y-11134508D02*
X5503134Y-11124984D01*
X5655515Y-11305936D02*
X5665039Y-11315460D01*
X5665039Y-11315460D02*
X5655515Y-11324984D01*
X5655515Y-11324984D02*
X5645991Y-11315460D01*
X5645991Y-11315460D02*
X5655515Y-11305936D01*
X5655515Y-11305936D02*
X5655515Y-11324984D01*
X5788848Y-11124984D02*
X5807896Y-11124984D01*
X5807896Y-11124984D02*
X5826944Y-11134508D01*
X5826944Y-11134508D02*
X5836467Y-11144031D01*
X5836467Y-11144031D02*
X5845991Y-11163079D01*
X5845991Y-11163079D02*
X5855515Y-11201174D01*
X5855515Y-11201174D02*
X5855515Y-11248793D01*
X5855515Y-11248793D02*
X5845991Y-11286888D01*
X5845991Y-11286888D02*
X5836467Y-11305936D01*
X5836467Y-11305936D02*
X5826944Y-11315460D01*
X5826944Y-11315460D02*
X5807896Y-11324984D01*
X5807896Y-11324984D02*
X5788848Y-11324984D01*
X5788848Y-11324984D02*
X5769801Y-11315460D01*
X5769801Y-11315460D02*
X5760277Y-11305936D01*
X5760277Y-11305936D02*
X5750753Y-11286888D01*
X5750753Y-11286888D02*
X5741229Y-11248793D01*
X5741229Y-11248793D02*
X5741229Y-11201174D01*
X5741229Y-11201174D02*
X5750753Y-11163079D01*
X5750753Y-11163079D02*
X5760277Y-11144031D01*
X5760277Y-11144031D02*
X5769801Y-11134508D01*
X5769801Y-11134508D02*
X5788848Y-11124984D01*
X6036467Y-11124984D02*
X5941229Y-11124984D01*
X5941229Y-11124984D02*
X5931706Y-11220222D01*
X5931706Y-11220222D02*
X5941229Y-11210698D01*
X5941229Y-11210698D02*
X5960277Y-11201174D01*
X5960277Y-11201174D02*
X6007896Y-11201174D01*
X6007896Y-11201174D02*
X6026944Y-11210698D01*
X6026944Y-11210698D02*
X6036467Y-11220222D01*
X6036467Y-11220222D02*
X6045991Y-11239269D01*
X6045991Y-11239269D02*
X6045991Y-11286888D01*
X6045991Y-11286888D02*
X6036467Y-11305936D01*
X6036467Y-11305936D02*
X6026944Y-11315460D01*
X6026944Y-11315460D02*
X6007896Y-11324984D01*
X6007896Y-11324984D02*
X5960277Y-11324984D01*
X5960277Y-11324984D02*
X5941229Y-11315460D01*
X5941229Y-11315460D02*
X5931706Y-11305936D01*
X6236467Y-11324984D02*
X6122182Y-11324984D01*
X6179325Y-11324984D02*
X6179325Y-11124984D01*
X6179325Y-11124984D02*
X6160277Y-11153555D01*
X6160277Y-11153555D02*
X6141229Y-11172603D01*
X6141229Y-11172603D02*
X6122182Y-11182127D01*
X6312658Y-11144031D02*
X6322182Y-11134508D01*
X6322182Y-11134508D02*
X6341229Y-11124984D01*
X6341229Y-11124984D02*
X6388848Y-11124984D01*
X6388848Y-11124984D02*
X6407896Y-11134508D01*
X6407896Y-11134508D02*
X6417420Y-11144031D01*
X6417420Y-11144031D02*
X6426944Y-11163079D01*
X6426944Y-11163079D02*
X6426944Y-11182127D01*
X6426944Y-11182127D02*
X6417420Y-11210698D01*
X6417420Y-11210698D02*
X6303134Y-11324984D01*
X6303134Y-11324984D02*
X6426944Y-11324984D01*
X6503134Y-11124984D02*
X6503134Y-11163079D01*
X6579325Y-11124984D02*
X6579325Y-11163079D01*
X6874563Y-11401174D02*
X6865039Y-11391650D01*
X6865039Y-11391650D02*
X6845991Y-11363079D01*
X6845991Y-11363079D02*
X6836468Y-11344031D01*
X6836468Y-11344031D02*
X6826944Y-11315460D01*
X6826944Y-11315460D02*
X6817420Y-11267841D01*
X6817420Y-11267841D02*
X6817420Y-11229746D01*
X6817420Y-11229746D02*
X6826944Y-11182127D01*
X6826944Y-11182127D02*
X6836468Y-11153555D01*
X6836468Y-11153555D02*
X6845991Y-11134508D01*
X6845991Y-11134508D02*
X6865039Y-11105936D01*
X6865039Y-11105936D02*
X6874563Y-11096412D01*
X6931706Y-11124984D02*
X7055515Y-11124984D01*
X7055515Y-11124984D02*
X6988848Y-11201174D01*
X6988848Y-11201174D02*
X7017420Y-11201174D01*
X7017420Y-11201174D02*
X7036468Y-11210698D01*
X7036468Y-11210698D02*
X7045991Y-11220222D01*
X7045991Y-11220222D02*
X7055515Y-11239269D01*
X7055515Y-11239269D02*
X7055515Y-11286888D01*
X7055515Y-11286888D02*
X7045991Y-11305936D01*
X7045991Y-11305936D02*
X7036468Y-11315460D01*
X7036468Y-11315460D02*
X7017420Y-11324984D01*
X7017420Y-11324984D02*
X6960277Y-11324984D01*
X6960277Y-11324984D02*
X6941229Y-11315460D01*
X6941229Y-11315460D02*
X6931706Y-11305936D01*
X7226944Y-11191650D02*
X7226944Y-11324984D01*
X7179325Y-11115460D02*
X7131706Y-11258317D01*
X7131706Y-11258317D02*
X7255515Y-11258317D01*
X7484087Y-11324984D02*
X7484087Y-11124984D01*
X7569801Y-11324984D02*
X7569801Y-11220222D01*
X7569801Y-11220222D02*
X7560277Y-11201174D01*
X7560277Y-11201174D02*
X7541230Y-11191650D01*
X7541230Y-11191650D02*
X7512658Y-11191650D01*
X7512658Y-11191650D02*
X7493610Y-11201174D01*
X7493610Y-11201174D02*
X7484087Y-11210698D01*
X7693610Y-11324984D02*
X7674563Y-11315460D01*
X7674563Y-11315460D02*
X7665039Y-11305936D01*
X7665039Y-11305936D02*
X7655515Y-11286888D01*
X7655515Y-11286888D02*
X7655515Y-11229746D01*
X7655515Y-11229746D02*
X7665039Y-11210698D01*
X7665039Y-11210698D02*
X7674563Y-11201174D01*
X7674563Y-11201174D02*
X7693610Y-11191650D01*
X7693610Y-11191650D02*
X7722182Y-11191650D01*
X7722182Y-11191650D02*
X7741230Y-11201174D01*
X7741230Y-11201174D02*
X7750753Y-11210698D01*
X7750753Y-11210698D02*
X7760277Y-11229746D01*
X7760277Y-11229746D02*
X7760277Y-11286888D01*
X7760277Y-11286888D02*
X7750753Y-11305936D01*
X7750753Y-11305936D02*
X7741230Y-11315460D01*
X7741230Y-11315460D02*
X7722182Y-11324984D01*
X7722182Y-11324984D02*
X7693610Y-11324984D01*
X7874563Y-11324984D02*
X7855515Y-11315460D01*
X7855515Y-11315460D02*
X7845991Y-11296412D01*
X7845991Y-11296412D02*
X7845991Y-11124984D01*
X8026944Y-11315460D02*
X8007896Y-11324984D01*
X8007896Y-11324984D02*
X7969801Y-11324984D01*
X7969801Y-11324984D02*
X7950753Y-11315460D01*
X7950753Y-11315460D02*
X7941230Y-11296412D01*
X7941230Y-11296412D02*
X7941230Y-11220222D01*
X7941230Y-11220222D02*
X7950753Y-11201174D01*
X7950753Y-11201174D02*
X7969801Y-11191650D01*
X7969801Y-11191650D02*
X8007896Y-11191650D01*
X8007896Y-11191650D02*
X8026944Y-11201174D01*
X8026944Y-11201174D02*
X8036468Y-11220222D01*
X8036468Y-11220222D02*
X8036468Y-11239269D01*
X8036468Y-11239269D02*
X7941230Y-11258317D01*
X8112658Y-11315460D02*
X8131706Y-11324984D01*
X8131706Y-11324984D02*
X8169801Y-11324984D01*
X8169801Y-11324984D02*
X8188849Y-11315460D01*
X8188849Y-11315460D02*
X8198372Y-11296412D01*
X8198372Y-11296412D02*
X8198372Y-11286888D01*
X8198372Y-11286888D02*
X8188849Y-11267841D01*
X8188849Y-11267841D02*
X8169801Y-11258317D01*
X8169801Y-11258317D02*
X8141230Y-11258317D01*
X8141230Y-11258317D02*
X8122182Y-11248793D01*
X8122182Y-11248793D02*
X8112658Y-11229746D01*
X8112658Y-11229746D02*
X8112658Y-11220222D01*
X8112658Y-11220222D02*
X8122182Y-11201174D01*
X8122182Y-11201174D02*
X8141230Y-11191650D01*
X8141230Y-11191650D02*
X8169801Y-11191650D01*
X8169801Y-11191650D02*
X8188849Y-11201174D01*
X8265039Y-11401174D02*
X8274563Y-11391650D01*
X8274563Y-11391650D02*
X8293611Y-11363079D01*
X8293611Y-11363079D02*
X8303134Y-11344031D01*
X8303134Y-11344031D02*
X8312658Y-11315460D01*
X8312658Y-11315460D02*
X8322182Y-11267841D01*
X8322182Y-11267841D02*
X8322182Y-11229746D01*
X8322182Y-11229746D02*
X8312658Y-11182127D01*
X8312658Y-11182127D02*
X8303134Y-11153555D01*
X8303134Y-11153555D02*
X8293611Y-11134508D01*
X8293611Y-11134508D02*
X8274563Y-11105936D01*
X8274563Y-11105936D02*
X8265039Y-11096412D01*
D14*
X3149500Y-11422500D02*
X3299500Y-11572500D01*
X3299500Y-11422500D02*
X3149500Y-11572500D01*
X3224500Y-11422500D02*
X3224500Y-11572500D01*
X3149500Y-11497500D02*
X3299500Y-11497500D01*
D11*
X3665039Y-11588984D02*
X3550753Y-11588984D01*
X3607896Y-11588984D02*
X3607896Y-11388984D01*
X3607896Y-11388984D02*
X3588848Y-11417555D01*
X3588848Y-11417555D02*
X3569801Y-11436603D01*
X3569801Y-11436603D02*
X3550753Y-11446127D01*
X3750753Y-11569936D02*
X3760277Y-11579460D01*
X3760277Y-11579460D02*
X3750753Y-11588984D01*
X3750753Y-11588984D02*
X3741229Y-11579460D01*
X3741229Y-11579460D02*
X3750753Y-11569936D01*
X3750753Y-11569936D02*
X3750753Y-11588984D01*
X3941229Y-11388984D02*
X3845991Y-11388984D01*
X3845991Y-11388984D02*
X3836467Y-11484222D01*
X3836467Y-11484222D02*
X3845991Y-11474698D01*
X3845991Y-11474698D02*
X3865039Y-11465174D01*
X3865039Y-11465174D02*
X3912658Y-11465174D01*
X3912658Y-11465174D02*
X3931705Y-11474698D01*
X3931705Y-11474698D02*
X3941229Y-11484222D01*
X3941229Y-11484222D02*
X3950753Y-11503269D01*
X3950753Y-11503269D02*
X3950753Y-11550888D01*
X3950753Y-11550888D02*
X3941229Y-11569936D01*
X3941229Y-11569936D02*
X3931705Y-11579460D01*
X3931705Y-11579460D02*
X3912658Y-11588984D01*
X3912658Y-11588984D02*
X3865039Y-11588984D01*
X3865039Y-11588984D02*
X3845991Y-11579460D01*
X3845991Y-11579460D02*
X3836467Y-11569936D01*
X4074562Y-11388984D02*
X4093610Y-11388984D01*
X4093610Y-11388984D02*
X4112658Y-11398508D01*
X4112658Y-11398508D02*
X4122182Y-11408031D01*
X4122182Y-11408031D02*
X4131705Y-11427079D01*
X4131705Y-11427079D02*
X4141229Y-11465174D01*
X4141229Y-11465174D02*
X4141229Y-11512793D01*
X4141229Y-11512793D02*
X4131705Y-11550888D01*
X4131705Y-11550888D02*
X4122182Y-11569936D01*
X4122182Y-11569936D02*
X4112658Y-11579460D01*
X4112658Y-11579460D02*
X4093610Y-11588984D01*
X4093610Y-11588984D02*
X4074562Y-11588984D01*
X4074562Y-11588984D02*
X4055515Y-11579460D01*
X4055515Y-11579460D02*
X4045991Y-11569936D01*
X4045991Y-11569936D02*
X4036467Y-11550888D01*
X4036467Y-11550888D02*
X4026943Y-11512793D01*
X4026943Y-11512793D02*
X4026943Y-11465174D01*
X4026943Y-11465174D02*
X4036467Y-11427079D01*
X4036467Y-11427079D02*
X4045991Y-11408031D01*
X4045991Y-11408031D02*
X4055515Y-11398508D01*
X4055515Y-11398508D02*
X4074562Y-11388984D01*
X4265039Y-11388984D02*
X4284086Y-11388984D01*
X4284086Y-11388984D02*
X4303134Y-11398508D01*
X4303134Y-11398508D02*
X4312658Y-11408031D01*
X4312658Y-11408031D02*
X4322182Y-11427079D01*
X4322182Y-11427079D02*
X4331705Y-11465174D01*
X4331705Y-11465174D02*
X4331705Y-11512793D01*
X4331705Y-11512793D02*
X4322182Y-11550888D01*
X4322182Y-11550888D02*
X4312658Y-11569936D01*
X4312658Y-11569936D02*
X4303134Y-11579460D01*
X4303134Y-11579460D02*
X4284086Y-11588984D01*
X4284086Y-11588984D02*
X4265039Y-11588984D01*
X4265039Y-11588984D02*
X4245991Y-11579460D01*
X4245991Y-11579460D02*
X4236467Y-11569936D01*
X4236467Y-11569936D02*
X4226944Y-11550888D01*
X4226944Y-11550888D02*
X4217420Y-11512793D01*
X4217420Y-11512793D02*
X4217420Y-11465174D01*
X4217420Y-11465174D02*
X4226944Y-11427079D01*
X4226944Y-11427079D02*
X4236467Y-11408031D01*
X4236467Y-11408031D02*
X4245991Y-11398508D01*
X4245991Y-11398508D02*
X4265039Y-11388984D01*
X4417420Y-11588984D02*
X4417420Y-11455650D01*
X4417420Y-11474698D02*
X4426944Y-11465174D01*
X4426944Y-11465174D02*
X4445991Y-11455650D01*
X4445991Y-11455650D02*
X4474563Y-11455650D01*
X4474563Y-11455650D02*
X4493610Y-11465174D01*
X4493610Y-11465174D02*
X4503134Y-11484222D01*
X4503134Y-11484222D02*
X4503134Y-11588984D01*
X4503134Y-11484222D02*
X4512658Y-11465174D01*
X4512658Y-11465174D02*
X4531705Y-11455650D01*
X4531705Y-11455650D02*
X4560277Y-11455650D01*
X4560277Y-11455650D02*
X4579325Y-11465174D01*
X4579325Y-11465174D02*
X4588848Y-11484222D01*
X4588848Y-11484222D02*
X4588848Y-11588984D01*
X4684086Y-11588984D02*
X4684086Y-11455650D01*
X4684086Y-11474698D02*
X4693610Y-11465174D01*
X4693610Y-11465174D02*
X4712658Y-11455650D01*
X4712658Y-11455650D02*
X4741229Y-11455650D01*
X4741229Y-11455650D02*
X4760277Y-11465174D01*
X4760277Y-11465174D02*
X4769801Y-11484222D01*
X4769801Y-11484222D02*
X4769801Y-11588984D01*
X4769801Y-11484222D02*
X4779325Y-11465174D01*
X4779325Y-11465174D02*
X4798372Y-11455650D01*
X4798372Y-11455650D02*
X4826944Y-11455650D01*
X4826944Y-11455650D02*
X4845991Y-11465174D01*
X4845991Y-11465174D02*
X4855515Y-11484222D01*
X4855515Y-11484222D02*
X4855515Y-11588984D01*
X5245991Y-11379460D02*
X5074563Y-11636603D01*
X5503134Y-11388984D02*
X5522182Y-11388984D01*
X5522182Y-11388984D02*
X5541229Y-11398508D01*
X5541229Y-11398508D02*
X5550753Y-11408031D01*
X5550753Y-11408031D02*
X5560277Y-11427079D01*
X5560277Y-11427079D02*
X5569801Y-11465174D01*
X5569801Y-11465174D02*
X5569801Y-11512793D01*
X5569801Y-11512793D02*
X5560277Y-11550888D01*
X5560277Y-11550888D02*
X5550753Y-11569936D01*
X5550753Y-11569936D02*
X5541229Y-11579460D01*
X5541229Y-11579460D02*
X5522182Y-11588984D01*
X5522182Y-11588984D02*
X5503134Y-11588984D01*
X5503134Y-11588984D02*
X5484087Y-11579460D01*
X5484087Y-11579460D02*
X5474563Y-11569936D01*
X5474563Y-11569936D02*
X5465039Y-11550888D01*
X5465039Y-11550888D02*
X5455515Y-11512793D01*
X5455515Y-11512793D02*
X5455515Y-11465174D01*
X5455515Y-11465174D02*
X5465039Y-11427079D01*
X5465039Y-11427079D02*
X5474563Y-11408031D01*
X5474563Y-11408031D02*
X5484087Y-11398508D01*
X5484087Y-11398508D02*
X5503134Y-11388984D01*
X5655515Y-11569936D02*
X5665039Y-11579460D01*
X5665039Y-11579460D02*
X5655515Y-11588984D01*
X5655515Y-11588984D02*
X5645991Y-11579460D01*
X5645991Y-11579460D02*
X5655515Y-11569936D01*
X5655515Y-11569936D02*
X5655515Y-11588984D01*
X5788848Y-11388984D02*
X5807896Y-11388984D01*
X5807896Y-11388984D02*
X5826944Y-11398508D01*
X5826944Y-11398508D02*
X5836467Y-11408031D01*
X5836467Y-11408031D02*
X5845991Y-11427079D01*
X5845991Y-11427079D02*
X5855515Y-11465174D01*
X5855515Y-11465174D02*
X5855515Y-11512793D01*
X5855515Y-11512793D02*
X5845991Y-11550888D01*
X5845991Y-11550888D02*
X5836467Y-11569936D01*
X5836467Y-11569936D02*
X5826944Y-11579460D01*
X5826944Y-11579460D02*
X5807896Y-11588984D01*
X5807896Y-11588984D02*
X5788848Y-11588984D01*
X5788848Y-11588984D02*
X5769801Y-11579460D01*
X5769801Y-11579460D02*
X5760277Y-11569936D01*
X5760277Y-11569936D02*
X5750753Y-11550888D01*
X5750753Y-11550888D02*
X5741229Y-11512793D01*
X5741229Y-11512793D02*
X5741229Y-11465174D01*
X5741229Y-11465174D02*
X5750753Y-11427079D01*
X5750753Y-11427079D02*
X5760277Y-11408031D01*
X5760277Y-11408031D02*
X5769801Y-11398508D01*
X5769801Y-11398508D02*
X5788848Y-11388984D01*
X6036467Y-11388984D02*
X5941229Y-11388984D01*
X5941229Y-11388984D02*
X5931706Y-11484222D01*
X5931706Y-11484222D02*
X5941229Y-11474698D01*
X5941229Y-11474698D02*
X5960277Y-11465174D01*
X5960277Y-11465174D02*
X6007896Y-11465174D01*
X6007896Y-11465174D02*
X6026944Y-11474698D01*
X6026944Y-11474698D02*
X6036467Y-11484222D01*
X6036467Y-11484222D02*
X6045991Y-11503269D01*
X6045991Y-11503269D02*
X6045991Y-11550888D01*
X6045991Y-11550888D02*
X6036467Y-11569936D01*
X6036467Y-11569936D02*
X6026944Y-11579460D01*
X6026944Y-11579460D02*
X6007896Y-11588984D01*
X6007896Y-11588984D02*
X5960277Y-11588984D01*
X5960277Y-11588984D02*
X5941229Y-11579460D01*
X5941229Y-11579460D02*
X5931706Y-11569936D01*
X6141229Y-11588984D02*
X6179325Y-11588984D01*
X6179325Y-11588984D02*
X6198372Y-11579460D01*
X6198372Y-11579460D02*
X6207896Y-11569936D01*
X6207896Y-11569936D02*
X6226944Y-11541365D01*
X6226944Y-11541365D02*
X6236467Y-11503269D01*
X6236467Y-11503269D02*
X6236467Y-11427079D01*
X6236467Y-11427079D02*
X6226944Y-11408031D01*
X6226944Y-11408031D02*
X6217420Y-11398508D01*
X6217420Y-11398508D02*
X6198372Y-11388984D01*
X6198372Y-11388984D02*
X6160277Y-11388984D01*
X6160277Y-11388984D02*
X6141229Y-11398508D01*
X6141229Y-11398508D02*
X6131706Y-11408031D01*
X6131706Y-11408031D02*
X6122182Y-11427079D01*
X6122182Y-11427079D02*
X6122182Y-11474698D01*
X6122182Y-11474698D02*
X6131706Y-11493746D01*
X6131706Y-11493746D02*
X6141229Y-11503269D01*
X6141229Y-11503269D02*
X6160277Y-11512793D01*
X6160277Y-11512793D02*
X6198372Y-11512793D01*
X6198372Y-11512793D02*
X6217420Y-11503269D01*
X6217420Y-11503269D02*
X6226944Y-11493746D01*
X6226944Y-11493746D02*
X6236467Y-11474698D01*
X6426944Y-11588984D02*
X6312658Y-11588984D01*
X6369801Y-11588984D02*
X6369801Y-11388984D01*
X6369801Y-11388984D02*
X6350753Y-11417555D01*
X6350753Y-11417555D02*
X6331706Y-11436603D01*
X6331706Y-11436603D02*
X6312658Y-11446127D01*
X6503134Y-11388984D02*
X6503134Y-11427079D01*
X6579325Y-11388984D02*
X6579325Y-11427079D01*
X6874563Y-11665174D02*
X6865039Y-11655650D01*
X6865039Y-11655650D02*
X6845991Y-11627079D01*
X6845991Y-11627079D02*
X6836468Y-11608031D01*
X6836468Y-11608031D02*
X6826944Y-11579460D01*
X6826944Y-11579460D02*
X6817420Y-11531841D01*
X6817420Y-11531841D02*
X6817420Y-11493746D01*
X6817420Y-11493746D02*
X6826944Y-11446127D01*
X6826944Y-11446127D02*
X6836468Y-11417555D01*
X6836468Y-11417555D02*
X6845991Y-11398508D01*
X6845991Y-11398508D02*
X6865039Y-11369936D01*
X6865039Y-11369936D02*
X6874563Y-11360412D01*
X6931706Y-11388984D02*
X7065039Y-11388984D01*
X7065039Y-11388984D02*
X6979325Y-11588984D01*
X7293610Y-11588984D02*
X7293610Y-11388984D01*
X7379325Y-11588984D02*
X7379325Y-11484222D01*
X7379325Y-11484222D02*
X7369801Y-11465174D01*
X7369801Y-11465174D02*
X7350753Y-11455650D01*
X7350753Y-11455650D02*
X7322182Y-11455650D01*
X7322182Y-11455650D02*
X7303134Y-11465174D01*
X7303134Y-11465174D02*
X7293610Y-11474698D01*
X7503134Y-11588984D02*
X7484087Y-11579460D01*
X7484087Y-11579460D02*
X7474563Y-11569936D01*
X7474563Y-11569936D02*
X7465039Y-11550888D01*
X7465039Y-11550888D02*
X7465039Y-11493746D01*
X7465039Y-11493746D02*
X7474563Y-11474698D01*
X7474563Y-11474698D02*
X7484087Y-11465174D01*
X7484087Y-11465174D02*
X7503134Y-11455650D01*
X7503134Y-11455650D02*
X7531706Y-11455650D01*
X7531706Y-11455650D02*
X7550753Y-11465174D01*
X7550753Y-11465174D02*
X7560277Y-11474698D01*
X7560277Y-11474698D02*
X7569801Y-11493746D01*
X7569801Y-11493746D02*
X7569801Y-11550888D01*
X7569801Y-11550888D02*
X7560277Y-11569936D01*
X7560277Y-11569936D02*
X7550753Y-11579460D01*
X7550753Y-11579460D02*
X7531706Y-11588984D01*
X7531706Y-11588984D02*
X7503134Y-11588984D01*
X7684087Y-11588984D02*
X7665039Y-11579460D01*
X7665039Y-11579460D02*
X7655515Y-11560412D01*
X7655515Y-11560412D02*
X7655515Y-11388984D01*
X7836468Y-11579460D02*
X7817420Y-11588984D01*
X7817420Y-11588984D02*
X7779325Y-11588984D01*
X7779325Y-11588984D02*
X7760277Y-11579460D01*
X7760277Y-11579460D02*
X7750753Y-11560412D01*
X7750753Y-11560412D02*
X7750753Y-11484222D01*
X7750753Y-11484222D02*
X7760277Y-11465174D01*
X7760277Y-11465174D02*
X7779325Y-11455650D01*
X7779325Y-11455650D02*
X7817420Y-11455650D01*
X7817420Y-11455650D02*
X7836468Y-11465174D01*
X7836468Y-11465174D02*
X7845991Y-11484222D01*
X7845991Y-11484222D02*
X7845991Y-11503269D01*
X7845991Y-11503269D02*
X7750753Y-11522317D01*
X7922182Y-11579460D02*
X7941230Y-11588984D01*
X7941230Y-11588984D02*
X7979325Y-11588984D01*
X7979325Y-11588984D02*
X7998372Y-11579460D01*
X7998372Y-11579460D02*
X8007896Y-11560412D01*
X8007896Y-11560412D02*
X8007896Y-11550888D01*
X8007896Y-11550888D02*
X7998372Y-11531841D01*
X7998372Y-11531841D02*
X7979325Y-11522317D01*
X7979325Y-11522317D02*
X7950753Y-11522317D01*
X7950753Y-11522317D02*
X7931706Y-11512793D01*
X7931706Y-11512793D02*
X7922182Y-11493746D01*
X7922182Y-11493746D02*
X7922182Y-11484222D01*
X7922182Y-11484222D02*
X7931706Y-11465174D01*
X7931706Y-11465174D02*
X7950753Y-11455650D01*
X7950753Y-11455650D02*
X7979325Y-11455650D01*
X7979325Y-11455650D02*
X7998372Y-11465174D01*
X8074563Y-11665174D02*
X8084087Y-11655650D01*
X8084087Y-11655650D02*
X8103134Y-11627079D01*
X8103134Y-11627079D02*
X8112658Y-11608031D01*
X8112658Y-11608031D02*
X8122182Y-11579460D01*
X8122182Y-11579460D02*
X8131706Y-11531841D01*
X8131706Y-11531841D02*
X8131706Y-11493746D01*
X8131706Y-11493746D02*
X8122182Y-11446127D01*
X8122182Y-11446127D02*
X8112658Y-11417555D01*
X8112658Y-11417555D02*
X8103134Y-11398508D01*
X8103134Y-11398508D02*
X8084087Y-11369936D01*
X8084087Y-11369936D02*
X8074563Y-11360412D01*
X3099500Y-11667500D02*
X3299500Y-11867500D01*
X3299500Y-11667500D02*
X3099500Y-11867500D01*
X3270211Y-11838211D02*
X3270211Y-11696789D01*
X3128789Y-11696789D01*
X3128789Y-11838211D01*
X3270211Y-11838211D01*
X3541229Y-11658984D02*
X3665039Y-11658984D01*
X3665039Y-11658984D02*
X3598372Y-11735174D01*
X3598372Y-11735174D02*
X3626943Y-11735174D01*
X3626943Y-11735174D02*
X3645991Y-11744698D01*
X3645991Y-11744698D02*
X3655515Y-11754222D01*
X3655515Y-11754222D02*
X3665039Y-11773269D01*
X3665039Y-11773269D02*
X3665039Y-11820888D01*
X3665039Y-11820888D02*
X3655515Y-11839936D01*
X3655515Y-11839936D02*
X3645991Y-11849460D01*
X3645991Y-11849460D02*
X3626943Y-11858984D01*
X3626943Y-11858984D02*
X3569801Y-11858984D01*
X3569801Y-11858984D02*
X3550753Y-11849460D01*
X3550753Y-11849460D02*
X3541229Y-11839936D01*
X3750753Y-11839936D02*
X3760277Y-11849460D01*
X3760277Y-11849460D02*
X3750753Y-11858984D01*
X3750753Y-11858984D02*
X3741229Y-11849460D01*
X3741229Y-11849460D02*
X3750753Y-11839936D01*
X3750753Y-11839936D02*
X3750753Y-11858984D01*
X3836467Y-11678031D02*
X3845991Y-11668508D01*
X3845991Y-11668508D02*
X3865039Y-11658984D01*
X3865039Y-11658984D02*
X3912658Y-11658984D01*
X3912658Y-11658984D02*
X3931705Y-11668508D01*
X3931705Y-11668508D02*
X3941229Y-11678031D01*
X3941229Y-11678031D02*
X3950753Y-11697079D01*
X3950753Y-11697079D02*
X3950753Y-11716127D01*
X3950753Y-11716127D02*
X3941229Y-11744698D01*
X3941229Y-11744698D02*
X3826943Y-11858984D01*
X3826943Y-11858984D02*
X3950753Y-11858984D01*
X4074562Y-11658984D02*
X4093610Y-11658984D01*
X4093610Y-11658984D02*
X4112658Y-11668508D01*
X4112658Y-11668508D02*
X4122182Y-11678031D01*
X4122182Y-11678031D02*
X4131705Y-11697079D01*
X4131705Y-11697079D02*
X4141229Y-11735174D01*
X4141229Y-11735174D02*
X4141229Y-11782793D01*
X4141229Y-11782793D02*
X4131705Y-11820888D01*
X4131705Y-11820888D02*
X4122182Y-11839936D01*
X4122182Y-11839936D02*
X4112658Y-11849460D01*
X4112658Y-11849460D02*
X4093610Y-11858984D01*
X4093610Y-11858984D02*
X4074562Y-11858984D01*
X4074562Y-11858984D02*
X4055515Y-11849460D01*
X4055515Y-11849460D02*
X4045991Y-11839936D01*
X4045991Y-11839936D02*
X4036467Y-11820888D01*
X4036467Y-11820888D02*
X4026943Y-11782793D01*
X4026943Y-11782793D02*
X4026943Y-11735174D01*
X4026943Y-11735174D02*
X4036467Y-11697079D01*
X4036467Y-11697079D02*
X4045991Y-11678031D01*
X4045991Y-11678031D02*
X4055515Y-11668508D01*
X4055515Y-11668508D02*
X4074562Y-11658984D01*
X4265039Y-11658984D02*
X4284086Y-11658984D01*
X4284086Y-11658984D02*
X4303134Y-11668508D01*
X4303134Y-11668508D02*
X4312658Y-11678031D01*
X4312658Y-11678031D02*
X4322182Y-11697079D01*
X4322182Y-11697079D02*
X4331705Y-11735174D01*
X4331705Y-11735174D02*
X4331705Y-11782793D01*
X4331705Y-11782793D02*
X4322182Y-11820888D01*
X4322182Y-11820888D02*
X4312658Y-11839936D01*
X4312658Y-11839936D02*
X4303134Y-11849460D01*
X4303134Y-11849460D02*
X4284086Y-11858984D01*
X4284086Y-11858984D02*
X4265039Y-11858984D01*
X4265039Y-11858984D02*
X4245991Y-11849460D01*
X4245991Y-11849460D02*
X4236467Y-11839936D01*
X4236467Y-11839936D02*
X4226944Y-11820888D01*
X4226944Y-11820888D02*
X4217420Y-11782793D01*
X4217420Y-11782793D02*
X4217420Y-11735174D01*
X4217420Y-11735174D02*
X4226944Y-11697079D01*
X4226944Y-11697079D02*
X4236467Y-11678031D01*
X4236467Y-11678031D02*
X4245991Y-11668508D01*
X4245991Y-11668508D02*
X4265039Y-11658984D01*
X4417420Y-11858984D02*
X4417420Y-11725650D01*
X4417420Y-11744698D02*
X4426944Y-11735174D01*
X4426944Y-11735174D02*
X4445991Y-11725650D01*
X4445991Y-11725650D02*
X4474563Y-11725650D01*
X4474563Y-11725650D02*
X4493610Y-11735174D01*
X4493610Y-11735174D02*
X4503134Y-11754222D01*
X4503134Y-11754222D02*
X4503134Y-11858984D01*
X4503134Y-11754222D02*
X4512658Y-11735174D01*
X4512658Y-11735174D02*
X4531705Y-11725650D01*
X4531705Y-11725650D02*
X4560277Y-11725650D01*
X4560277Y-11725650D02*
X4579325Y-11735174D01*
X4579325Y-11735174D02*
X4588848Y-11754222D01*
X4588848Y-11754222D02*
X4588848Y-11858984D01*
X4684086Y-11858984D02*
X4684086Y-11725650D01*
X4684086Y-11744698D02*
X4693610Y-11735174D01*
X4693610Y-11735174D02*
X4712658Y-11725650D01*
X4712658Y-11725650D02*
X4741229Y-11725650D01*
X4741229Y-11725650D02*
X4760277Y-11735174D01*
X4760277Y-11735174D02*
X4769801Y-11754222D01*
X4769801Y-11754222D02*
X4769801Y-11858984D01*
X4769801Y-11754222D02*
X4779325Y-11735174D01*
X4779325Y-11735174D02*
X4798372Y-11725650D01*
X4798372Y-11725650D02*
X4826944Y-11725650D01*
X4826944Y-11725650D02*
X4845991Y-11735174D01*
X4845991Y-11735174D02*
X4855515Y-11754222D01*
X4855515Y-11754222D02*
X4855515Y-11858984D01*
X5245991Y-11649460D02*
X5074563Y-11906603D01*
X5503134Y-11658984D02*
X5522182Y-11658984D01*
X5522182Y-11658984D02*
X5541229Y-11668508D01*
X5541229Y-11668508D02*
X5550753Y-11678031D01*
X5550753Y-11678031D02*
X5560277Y-11697079D01*
X5560277Y-11697079D02*
X5569801Y-11735174D01*
X5569801Y-11735174D02*
X5569801Y-11782793D01*
X5569801Y-11782793D02*
X5560277Y-11820888D01*
X5560277Y-11820888D02*
X5550753Y-11839936D01*
X5550753Y-11839936D02*
X5541229Y-11849460D01*
X5541229Y-11849460D02*
X5522182Y-11858984D01*
X5522182Y-11858984D02*
X5503134Y-11858984D01*
X5503134Y-11858984D02*
X5484087Y-11849460D01*
X5484087Y-11849460D02*
X5474563Y-11839936D01*
X5474563Y-11839936D02*
X5465039Y-11820888D01*
X5465039Y-11820888D02*
X5455515Y-11782793D01*
X5455515Y-11782793D02*
X5455515Y-11735174D01*
X5455515Y-11735174D02*
X5465039Y-11697079D01*
X5465039Y-11697079D02*
X5474563Y-11678031D01*
X5474563Y-11678031D02*
X5484087Y-11668508D01*
X5484087Y-11668508D02*
X5503134Y-11658984D01*
X5655515Y-11839936D02*
X5665039Y-11849460D01*
X5665039Y-11849460D02*
X5655515Y-11858984D01*
X5655515Y-11858984D02*
X5645991Y-11849460D01*
X5645991Y-11849460D02*
X5655515Y-11839936D01*
X5655515Y-11839936D02*
X5655515Y-11858984D01*
X5855515Y-11858984D02*
X5741229Y-11858984D01*
X5798372Y-11858984D02*
X5798372Y-11658984D01*
X5798372Y-11658984D02*
X5779325Y-11687555D01*
X5779325Y-11687555D02*
X5760277Y-11706603D01*
X5760277Y-11706603D02*
X5741229Y-11716127D01*
X5931706Y-11678031D02*
X5941229Y-11668508D01*
X5941229Y-11668508D02*
X5960277Y-11658984D01*
X5960277Y-11658984D02*
X6007896Y-11658984D01*
X6007896Y-11658984D02*
X6026944Y-11668508D01*
X6026944Y-11668508D02*
X6036467Y-11678031D01*
X6036467Y-11678031D02*
X6045991Y-11697079D01*
X6045991Y-11697079D02*
X6045991Y-11716127D01*
X6045991Y-11716127D02*
X6036467Y-11744698D01*
X6036467Y-11744698D02*
X5922182Y-11858984D01*
X5922182Y-11858984D02*
X6045991Y-11858984D01*
X6217420Y-11658984D02*
X6179325Y-11658984D01*
X6179325Y-11658984D02*
X6160277Y-11668508D01*
X6160277Y-11668508D02*
X6150753Y-11678031D01*
X6150753Y-11678031D02*
X6131706Y-11706603D01*
X6131706Y-11706603D02*
X6122182Y-11744698D01*
X6122182Y-11744698D02*
X6122182Y-11820888D01*
X6122182Y-11820888D02*
X6131706Y-11839936D01*
X6131706Y-11839936D02*
X6141229Y-11849460D01*
X6141229Y-11849460D02*
X6160277Y-11858984D01*
X6160277Y-11858984D02*
X6198372Y-11858984D01*
X6198372Y-11858984D02*
X6217420Y-11849460D01*
X6217420Y-11849460D02*
X6226944Y-11839936D01*
X6226944Y-11839936D02*
X6236467Y-11820888D01*
X6236467Y-11820888D02*
X6236467Y-11773269D01*
X6236467Y-11773269D02*
X6226944Y-11754222D01*
X6226944Y-11754222D02*
X6217420Y-11744698D01*
X6217420Y-11744698D02*
X6198372Y-11735174D01*
X6198372Y-11735174D02*
X6160277Y-11735174D01*
X6160277Y-11735174D02*
X6141229Y-11744698D01*
X6141229Y-11744698D02*
X6131706Y-11754222D01*
X6131706Y-11754222D02*
X6122182Y-11773269D01*
X6360277Y-11658984D02*
X6379325Y-11658984D01*
X6379325Y-11658984D02*
X6398372Y-11668508D01*
X6398372Y-11668508D02*
X6407896Y-11678031D01*
X6407896Y-11678031D02*
X6417420Y-11697079D01*
X6417420Y-11697079D02*
X6426944Y-11735174D01*
X6426944Y-11735174D02*
X6426944Y-11782793D01*
X6426944Y-11782793D02*
X6417420Y-11820888D01*
X6417420Y-11820888D02*
X6407896Y-11839936D01*
X6407896Y-11839936D02*
X6398372Y-11849460D01*
X6398372Y-11849460D02*
X6379325Y-11858984D01*
X6379325Y-11858984D02*
X6360277Y-11858984D01*
X6360277Y-11858984D02*
X6341229Y-11849460D01*
X6341229Y-11849460D02*
X6331706Y-11839936D01*
X6331706Y-11839936D02*
X6322182Y-11820888D01*
X6322182Y-11820888D02*
X6312658Y-11782793D01*
X6312658Y-11782793D02*
X6312658Y-11735174D01*
X6312658Y-11735174D02*
X6322182Y-11697079D01*
X6322182Y-11697079D02*
X6331706Y-11678031D01*
X6331706Y-11678031D02*
X6341229Y-11668508D01*
X6341229Y-11668508D02*
X6360277Y-11658984D01*
X6503134Y-11658984D02*
X6503134Y-11697079D01*
X6579325Y-11658984D02*
X6579325Y-11697079D01*
X6874563Y-11935174D02*
X6865039Y-11925650D01*
X6865039Y-11925650D02*
X6845991Y-11897079D01*
X6845991Y-11897079D02*
X6836468Y-11878031D01*
X6836468Y-11878031D02*
X6826944Y-11849460D01*
X6826944Y-11849460D02*
X6817420Y-11801841D01*
X6817420Y-11801841D02*
X6817420Y-11763746D01*
X6817420Y-11763746D02*
X6826944Y-11716127D01*
X6826944Y-11716127D02*
X6836468Y-11687555D01*
X6836468Y-11687555D02*
X6845991Y-11668508D01*
X6845991Y-11668508D02*
X6865039Y-11639936D01*
X6865039Y-11639936D02*
X6874563Y-11630412D01*
X6941229Y-11678031D02*
X6950753Y-11668508D01*
X6950753Y-11668508D02*
X6969801Y-11658984D01*
X6969801Y-11658984D02*
X7017420Y-11658984D01*
X7017420Y-11658984D02*
X7036468Y-11668508D01*
X7036468Y-11668508D02*
X7045991Y-11678031D01*
X7045991Y-11678031D02*
X7055515Y-11697079D01*
X7055515Y-11697079D02*
X7055515Y-11716127D01*
X7055515Y-11716127D02*
X7045991Y-11744698D01*
X7045991Y-11744698D02*
X6931706Y-11858984D01*
X6931706Y-11858984D02*
X7055515Y-11858984D01*
X7293610Y-11858984D02*
X7293610Y-11658984D01*
X7379325Y-11858984D02*
X7379325Y-11754222D01*
X7379325Y-11754222D02*
X7369801Y-11735174D01*
X7369801Y-11735174D02*
X7350753Y-11725650D01*
X7350753Y-11725650D02*
X7322182Y-11725650D01*
X7322182Y-11725650D02*
X7303134Y-11735174D01*
X7303134Y-11735174D02*
X7293610Y-11744698D01*
X7503134Y-11858984D02*
X7484087Y-11849460D01*
X7484087Y-11849460D02*
X7474563Y-11839936D01*
X7474563Y-11839936D02*
X7465039Y-11820888D01*
X7465039Y-11820888D02*
X7465039Y-11763746D01*
X7465039Y-11763746D02*
X7474563Y-11744698D01*
X7474563Y-11744698D02*
X7484087Y-11735174D01*
X7484087Y-11735174D02*
X7503134Y-11725650D01*
X7503134Y-11725650D02*
X7531706Y-11725650D01*
X7531706Y-11725650D02*
X7550753Y-11735174D01*
X7550753Y-11735174D02*
X7560277Y-11744698D01*
X7560277Y-11744698D02*
X7569801Y-11763746D01*
X7569801Y-11763746D02*
X7569801Y-11820888D01*
X7569801Y-11820888D02*
X7560277Y-11839936D01*
X7560277Y-11839936D02*
X7550753Y-11849460D01*
X7550753Y-11849460D02*
X7531706Y-11858984D01*
X7531706Y-11858984D02*
X7503134Y-11858984D01*
X7684087Y-11858984D02*
X7665039Y-11849460D01*
X7665039Y-11849460D02*
X7655515Y-11830412D01*
X7655515Y-11830412D02*
X7655515Y-11658984D01*
X7836468Y-11849460D02*
X7817420Y-11858984D01*
X7817420Y-11858984D02*
X7779325Y-11858984D01*
X7779325Y-11858984D02*
X7760277Y-11849460D01*
X7760277Y-11849460D02*
X7750753Y-11830412D01*
X7750753Y-11830412D02*
X7750753Y-11754222D01*
X7750753Y-11754222D02*
X7760277Y-11735174D01*
X7760277Y-11735174D02*
X7779325Y-11725650D01*
X7779325Y-11725650D02*
X7817420Y-11725650D01*
X7817420Y-11725650D02*
X7836468Y-11735174D01*
X7836468Y-11735174D02*
X7845991Y-11754222D01*
X7845991Y-11754222D02*
X7845991Y-11773269D01*
X7845991Y-11773269D02*
X7750753Y-11792317D01*
X7922182Y-11849460D02*
X7941230Y-11858984D01*
X7941230Y-11858984D02*
X7979325Y-11858984D01*
X7979325Y-11858984D02*
X7998372Y-11849460D01*
X7998372Y-11849460D02*
X8007896Y-11830412D01*
X8007896Y-11830412D02*
X8007896Y-11820888D01*
X8007896Y-11820888D02*
X7998372Y-11801841D01*
X7998372Y-11801841D02*
X7979325Y-11792317D01*
X7979325Y-11792317D02*
X7950753Y-11792317D01*
X7950753Y-11792317D02*
X7931706Y-11782793D01*
X7931706Y-11782793D02*
X7922182Y-11763746D01*
X7922182Y-11763746D02*
X7922182Y-11754222D01*
X7922182Y-11754222D02*
X7931706Y-11735174D01*
X7931706Y-11735174D02*
X7950753Y-11725650D01*
X7950753Y-11725650D02*
X7979325Y-11725650D01*
X7979325Y-11725650D02*
X7998372Y-11735174D01*
X8074563Y-11935174D02*
X8084087Y-11925650D01*
X8084087Y-11925650D02*
X8103134Y-11897079D01*
X8103134Y-11897079D02*
X8112658Y-11878031D01*
X8112658Y-11878031D02*
X8122182Y-11849460D01*
X8122182Y-11849460D02*
X8131706Y-11801841D01*
X8131706Y-11801841D02*
X8131706Y-11763746D01*
X8131706Y-11763746D02*
X8122182Y-11716127D01*
X8122182Y-11716127D02*
X8112658Y-11687555D01*
X8112658Y-11687555D02*
X8103134Y-11668508D01*
X8103134Y-11668508D02*
X8084087Y-11639936D01*
X8084087Y-11639936D02*
X8074563Y-11630412D01*
M02*
