G04 #@! TF.GenerationSoftware,KiCad,Pcbnew,8.0.9*
G04 #@! TF.CreationDate,2025-03-02T13:49:30+01:00*
G04 #@! TF.ProjectId,cjss501,636a7373-3530-4312-9e6b-696361645f70,rev?*
G04 #@! TF.SameCoordinates,Original*
G04 #@! TF.FileFunction,Legend,Bot*
G04 #@! TF.FilePolarity,Positive*
%FSLAX46Y46*%
G04 Gerber Fmt 4.6, Leading zero omitted, Abs format (unit mm)*
G04 Created by KiCad (PCBNEW 8.0.9) date 2025-03-02 13:49:30*
%MOMM*%
%LPD*%
G01*
G04 APERTURE LIST*
%ADD10C,0.300000*%
%ADD11C,0.100000*%
%ADD12C,0.700000*%
%ADD13C,0.360000*%
%ADD14C,0.240000*%
%ADD15C,0.150000*%
%ADD16C,0.304800*%
%ADD17C,1.600000*%
%ADD18O,1.600000X1.600000*%
%ADD19C,5.600000*%
%ADD20R,1.200000X1.200000*%
%ADD21C,1.200000*%
%ADD22C,3.000000*%
%ADD23C,2.500000*%
%ADD24R,1.700000X1.700000*%
%ADD25O,1.700000X1.700000*%
%ADD26R,1.600000X1.600000*%
%ADD27R,1.050000X1.500000*%
%ADD28O,1.050000X1.500000*%
%ADD29C,2.200000*%
%ADD30C,2.000000*%
%ADD31O,1.900000X3.200000*%
%ADD32C,3.200000*%
G04 APERTURE END LIST*
D10*
X99006746Y-44920356D02*
G75*
G02*
X96520051Y-44976000I-1269946J1160856D01*
G01*
X100965000Y-38100000D02*
X101600000Y-37465000D01*
X100330000Y-37465000D02*
X100965000Y-38100000D01*
X97155000Y-36830000D02*
X97790000Y-37465000D01*
X93980000Y-44976051D02*
G75*
G02*
X96520000Y-44976051I1270000J-1270001D01*
G01*
X96520000Y-37465000D02*
X97155000Y-36830000D01*
X100330000Y-38100000D02*
X100965000Y-38735000D01*
X101600000Y-43180000D02*
G75*
G02*
X96520000Y-43180000I-2540000J0D01*
G01*
X96520000Y-43180000D02*
G75*
G02*
X101600000Y-43180000I2540000J0D01*
G01*
X101600000Y-37465000D02*
X100965000Y-36830000D01*
D11*
X99695000Y-44450000D02*
X100330000Y-45085000D01*
D10*
X100965000Y-38735000D02*
X100965000Y-38100000D01*
X97790000Y-37465000D02*
X97155000Y-38100000D01*
X97155000Y-38100000D02*
X97155000Y-38735000D01*
X100330000Y-37465000D02*
X99695000Y-37465000D01*
D12*
X99060000Y-45085000D02*
X99695000Y-44450000D01*
D10*
X100965000Y-36830000D02*
X100330000Y-37465000D01*
X100330000Y-39370000D02*
G75*
G02*
X97790000Y-39370000I-1270000J0D01*
G01*
X97790000Y-39370000D02*
G75*
G02*
X100330000Y-39370000I1270000J0D01*
G01*
X97155000Y-38100000D02*
X96520000Y-37465000D01*
X99695000Y-37465000D02*
X100330000Y-38100000D01*
X98425000Y-37465000D02*
X97790000Y-37465000D01*
X97155000Y-38735000D02*
X98425000Y-37465000D01*
D11*
X153969353Y-40734752D02*
X153731258Y-41401419D01*
X153731258Y-41401419D02*
X153493163Y-40734752D01*
X152588401Y-41401419D02*
X153159829Y-41401419D01*
X152874115Y-41401419D02*
X152874115Y-40401419D01*
X152874115Y-40401419D02*
X152969353Y-40544276D01*
X152969353Y-40544276D02*
X153064591Y-40639514D01*
X153064591Y-40639514D02*
X153159829Y-40687133D01*
X150683638Y-40496657D02*
X150636019Y-40449038D01*
X150636019Y-40449038D02*
X150540781Y-40401419D01*
X150540781Y-40401419D02*
X150302686Y-40401419D01*
X150302686Y-40401419D02*
X150207448Y-40449038D01*
X150207448Y-40449038D02*
X150159829Y-40496657D01*
X150159829Y-40496657D02*
X150112210Y-40591895D01*
X150112210Y-40591895D02*
X150112210Y-40687133D01*
X150112210Y-40687133D02*
X150159829Y-40829990D01*
X150159829Y-40829990D02*
X150731257Y-41401419D01*
X150731257Y-41401419D02*
X150112210Y-41401419D01*
X149493162Y-40401419D02*
X149397924Y-40401419D01*
X149397924Y-40401419D02*
X149302686Y-40449038D01*
X149302686Y-40449038D02*
X149255067Y-40496657D01*
X149255067Y-40496657D02*
X149207448Y-40591895D01*
X149207448Y-40591895D02*
X149159829Y-40782371D01*
X149159829Y-40782371D02*
X149159829Y-41020466D01*
X149159829Y-41020466D02*
X149207448Y-41210942D01*
X149207448Y-41210942D02*
X149255067Y-41306180D01*
X149255067Y-41306180D02*
X149302686Y-41353800D01*
X149302686Y-41353800D02*
X149397924Y-41401419D01*
X149397924Y-41401419D02*
X149493162Y-41401419D01*
X149493162Y-41401419D02*
X149588400Y-41353800D01*
X149588400Y-41353800D02*
X149636019Y-41306180D01*
X149636019Y-41306180D02*
X149683638Y-41210942D01*
X149683638Y-41210942D02*
X149731257Y-41020466D01*
X149731257Y-41020466D02*
X149731257Y-40782371D01*
X149731257Y-40782371D02*
X149683638Y-40591895D01*
X149683638Y-40591895D02*
X149636019Y-40496657D01*
X149636019Y-40496657D02*
X149588400Y-40449038D01*
X149588400Y-40449038D02*
X149493162Y-40401419D01*
X148778876Y-40496657D02*
X148731257Y-40449038D01*
X148731257Y-40449038D02*
X148636019Y-40401419D01*
X148636019Y-40401419D02*
X148397924Y-40401419D01*
X148397924Y-40401419D02*
X148302686Y-40449038D01*
X148302686Y-40449038D02*
X148255067Y-40496657D01*
X148255067Y-40496657D02*
X148207448Y-40591895D01*
X148207448Y-40591895D02*
X148207448Y-40687133D01*
X148207448Y-40687133D02*
X148255067Y-40829990D01*
X148255067Y-40829990D02*
X148826495Y-41401419D01*
X148826495Y-41401419D02*
X148207448Y-41401419D01*
X147302686Y-40401419D02*
X147778876Y-40401419D01*
X147778876Y-40401419D02*
X147826495Y-40877609D01*
X147826495Y-40877609D02*
X147778876Y-40829990D01*
X147778876Y-40829990D02*
X147683638Y-40782371D01*
X147683638Y-40782371D02*
X147445543Y-40782371D01*
X147445543Y-40782371D02*
X147350305Y-40829990D01*
X147350305Y-40829990D02*
X147302686Y-40877609D01*
X147302686Y-40877609D02*
X147255067Y-40972847D01*
X147255067Y-40972847D02*
X147255067Y-41210942D01*
X147255067Y-41210942D02*
X147302686Y-41306180D01*
X147302686Y-41306180D02*
X147350305Y-41353800D01*
X147350305Y-41353800D02*
X147445543Y-41401419D01*
X147445543Y-41401419D02*
X147683638Y-41401419D01*
X147683638Y-41401419D02*
X147778876Y-41353800D01*
X147778876Y-41353800D02*
X147826495Y-41306180D01*
X146683638Y-40972847D02*
X146731257Y-41020466D01*
X146731257Y-41020466D02*
X146683638Y-41068085D01*
X146683638Y-41068085D02*
X146636019Y-41020466D01*
X146636019Y-41020466D02*
X146683638Y-40972847D01*
X146683638Y-40972847D02*
X146683638Y-41068085D01*
X145874114Y-40401419D02*
X145778876Y-40401419D01*
X145778876Y-40401419D02*
X145683638Y-40449038D01*
X145683638Y-40449038D02*
X145636019Y-40496657D01*
X145636019Y-40496657D02*
X145588400Y-40591895D01*
X145588400Y-40591895D02*
X145540781Y-40782371D01*
X145540781Y-40782371D02*
X145540781Y-41020466D01*
X145540781Y-41020466D02*
X145588400Y-41210942D01*
X145588400Y-41210942D02*
X145636019Y-41306180D01*
X145636019Y-41306180D02*
X145683638Y-41353800D01*
X145683638Y-41353800D02*
X145778876Y-41401419D01*
X145778876Y-41401419D02*
X145874114Y-41401419D01*
X145874114Y-41401419D02*
X145969352Y-41353800D01*
X145969352Y-41353800D02*
X146016971Y-41306180D01*
X146016971Y-41306180D02*
X146064590Y-41210942D01*
X146064590Y-41210942D02*
X146112209Y-41020466D01*
X146112209Y-41020466D02*
X146112209Y-40782371D01*
X146112209Y-40782371D02*
X146064590Y-40591895D01*
X146064590Y-40591895D02*
X146016971Y-40496657D01*
X146016971Y-40496657D02*
X145969352Y-40449038D01*
X145969352Y-40449038D02*
X145874114Y-40401419D01*
X145159828Y-40496657D02*
X145112209Y-40449038D01*
X145112209Y-40449038D02*
X145016971Y-40401419D01*
X145016971Y-40401419D02*
X144778876Y-40401419D01*
X144778876Y-40401419D02*
X144683638Y-40449038D01*
X144683638Y-40449038D02*
X144636019Y-40496657D01*
X144636019Y-40496657D02*
X144588400Y-40591895D01*
X144588400Y-40591895D02*
X144588400Y-40687133D01*
X144588400Y-40687133D02*
X144636019Y-40829990D01*
X144636019Y-40829990D02*
X145207447Y-41401419D01*
X145207447Y-41401419D02*
X144588400Y-41401419D01*
X146984401Y-87772419D02*
X146984401Y-88486704D01*
X146984401Y-88486704D02*
X147032020Y-88629561D01*
X147032020Y-88629561D02*
X147127258Y-88724800D01*
X147127258Y-88724800D02*
X147270115Y-88772419D01*
X147270115Y-88772419D02*
X147365353Y-88772419D01*
X146032020Y-88772419D02*
X146508210Y-88772419D01*
X146508210Y-88772419D02*
X146508210Y-87772419D01*
X145127258Y-88677180D02*
X145174877Y-88724800D01*
X145174877Y-88724800D02*
X145317734Y-88772419D01*
X145317734Y-88772419D02*
X145412972Y-88772419D01*
X145412972Y-88772419D02*
X145555829Y-88724800D01*
X145555829Y-88724800D02*
X145651067Y-88629561D01*
X145651067Y-88629561D02*
X145698686Y-88534323D01*
X145698686Y-88534323D02*
X145746305Y-88343847D01*
X145746305Y-88343847D02*
X145746305Y-88200990D01*
X145746305Y-88200990D02*
X145698686Y-88010514D01*
X145698686Y-88010514D02*
X145651067Y-87915276D01*
X145651067Y-87915276D02*
X145555829Y-87820038D01*
X145555829Y-87820038D02*
X145412972Y-87772419D01*
X145412972Y-87772419D02*
X145317734Y-87772419D01*
X145317734Y-87772419D02*
X145174877Y-87820038D01*
X145174877Y-87820038D02*
X145127258Y-87867657D01*
X144412972Y-87772419D02*
X144412972Y-88486704D01*
X144412972Y-88486704D02*
X144460591Y-88629561D01*
X144460591Y-88629561D02*
X144555829Y-88724800D01*
X144555829Y-88724800D02*
X144698686Y-88772419D01*
X144698686Y-88772419D02*
X144793924Y-88772419D01*
X143460591Y-88772419D02*
X143936781Y-88772419D01*
X143936781Y-88772419D02*
X143936781Y-87772419D01*
X142555829Y-88677180D02*
X142603448Y-88724800D01*
X142603448Y-88724800D02*
X142746305Y-88772419D01*
X142746305Y-88772419D02*
X142841543Y-88772419D01*
X142841543Y-88772419D02*
X142984400Y-88724800D01*
X142984400Y-88724800D02*
X143079638Y-88629561D01*
X143079638Y-88629561D02*
X143127257Y-88534323D01*
X143127257Y-88534323D02*
X143174876Y-88343847D01*
X143174876Y-88343847D02*
X143174876Y-88200990D01*
X143174876Y-88200990D02*
X143127257Y-88010514D01*
X143127257Y-88010514D02*
X143079638Y-87915276D01*
X143079638Y-87915276D02*
X142984400Y-87820038D01*
X142984400Y-87820038D02*
X142841543Y-87772419D01*
X142841543Y-87772419D02*
X142746305Y-87772419D01*
X142746305Y-87772419D02*
X142603448Y-87820038D01*
X142603448Y-87820038D02*
X142555829Y-87867657D01*
X141841543Y-87772419D02*
X141841543Y-88486704D01*
X141841543Y-88486704D02*
X141889162Y-88629561D01*
X141889162Y-88629561D02*
X141984400Y-88724800D01*
X141984400Y-88724800D02*
X142127257Y-88772419D01*
X142127257Y-88772419D02*
X142222495Y-88772419D01*
X140889162Y-88772419D02*
X141365352Y-88772419D01*
X141365352Y-88772419D02*
X141365352Y-87772419D01*
X139984400Y-88677180D02*
X140032019Y-88724800D01*
X140032019Y-88724800D02*
X140174876Y-88772419D01*
X140174876Y-88772419D02*
X140270114Y-88772419D01*
X140270114Y-88772419D02*
X140412971Y-88724800D01*
X140412971Y-88724800D02*
X140508209Y-88629561D01*
X140508209Y-88629561D02*
X140555828Y-88534323D01*
X140555828Y-88534323D02*
X140603447Y-88343847D01*
X140603447Y-88343847D02*
X140603447Y-88200990D01*
X140603447Y-88200990D02*
X140555828Y-88010514D01*
X140555828Y-88010514D02*
X140508209Y-87915276D01*
X140508209Y-87915276D02*
X140412971Y-87820038D01*
X140412971Y-87820038D02*
X140270114Y-87772419D01*
X140270114Y-87772419D02*
X140174876Y-87772419D01*
X140174876Y-87772419D02*
X140032019Y-87820038D01*
X140032019Y-87820038D02*
X139984400Y-87867657D01*
X139270114Y-87772419D02*
X139270114Y-88486704D01*
X139270114Y-88486704D02*
X139317733Y-88629561D01*
X139317733Y-88629561D02*
X139412971Y-88724800D01*
X139412971Y-88724800D02*
X139555828Y-88772419D01*
X139555828Y-88772419D02*
X139651066Y-88772419D01*
X138317733Y-88772419D02*
X138793923Y-88772419D01*
X138793923Y-88772419D02*
X138793923Y-87772419D01*
X137412971Y-88677180D02*
X137460590Y-88724800D01*
X137460590Y-88724800D02*
X137603447Y-88772419D01*
X137603447Y-88772419D02*
X137698685Y-88772419D01*
X137698685Y-88772419D02*
X137841542Y-88724800D01*
X137841542Y-88724800D02*
X137936780Y-88629561D01*
X137936780Y-88629561D02*
X137984399Y-88534323D01*
X137984399Y-88534323D02*
X138032018Y-88343847D01*
X138032018Y-88343847D02*
X138032018Y-88200990D01*
X138032018Y-88200990D02*
X137984399Y-88010514D01*
X137984399Y-88010514D02*
X137936780Y-87915276D01*
X137936780Y-87915276D02*
X137841542Y-87820038D01*
X137841542Y-87820038D02*
X137698685Y-87772419D01*
X137698685Y-87772419D02*
X137603447Y-87772419D01*
X137603447Y-87772419D02*
X137460590Y-87820038D01*
X137460590Y-87820038D02*
X137412971Y-87867657D01*
D13*
X154531729Y-36695994D02*
X153503158Y-36695994D01*
X154017443Y-38495994D02*
X154017443Y-36695994D01*
X152131729Y-37295994D02*
X152131729Y-38495994D01*
X152903157Y-37295994D02*
X152903157Y-38238851D01*
X152903157Y-38238851D02*
X152817443Y-38410280D01*
X152817443Y-38410280D02*
X152646014Y-38495994D01*
X152646014Y-38495994D02*
X152388871Y-38495994D01*
X152388871Y-38495994D02*
X152217443Y-38410280D01*
X152217443Y-38410280D02*
X152131729Y-38324565D01*
X150503158Y-38410280D02*
X150674586Y-38495994D01*
X150674586Y-38495994D02*
X151017443Y-38495994D01*
X151017443Y-38495994D02*
X151188872Y-38410280D01*
X151188872Y-38410280D02*
X151274586Y-38324565D01*
X151274586Y-38324565D02*
X151360300Y-38153137D01*
X151360300Y-38153137D02*
X151360300Y-37638851D01*
X151360300Y-37638851D02*
X151274586Y-37467422D01*
X151274586Y-37467422D02*
X151188872Y-37381708D01*
X151188872Y-37381708D02*
X151017443Y-37295994D01*
X151017443Y-37295994D02*
X150674586Y-37295994D01*
X150674586Y-37295994D02*
X150503158Y-37381708D01*
X149731729Y-38495994D02*
X149731729Y-36695994D01*
X148960301Y-38495994D02*
X148960301Y-37553137D01*
X148960301Y-37553137D02*
X149046015Y-37381708D01*
X149046015Y-37381708D02*
X149217443Y-37295994D01*
X149217443Y-37295994D02*
X149474586Y-37295994D01*
X149474586Y-37295994D02*
X149646015Y-37381708D01*
X149646015Y-37381708D02*
X149731729Y-37467422D01*
X148188872Y-37981708D02*
X147331730Y-37981708D01*
X148360301Y-38495994D02*
X147760301Y-36695994D01*
X147760301Y-36695994D02*
X147160301Y-38495994D01*
X145788873Y-37295994D02*
X145788873Y-38495994D01*
X146560301Y-37295994D02*
X146560301Y-38238851D01*
X146560301Y-38238851D02*
X146474587Y-38410280D01*
X146474587Y-38410280D02*
X146303158Y-38495994D01*
X146303158Y-38495994D02*
X146046015Y-38495994D01*
X146046015Y-38495994D02*
X145874587Y-38410280D01*
X145874587Y-38410280D02*
X145788873Y-38324565D01*
X144160302Y-38495994D02*
X144160302Y-36695994D01*
X144160302Y-38410280D02*
X144331730Y-38495994D01*
X144331730Y-38495994D02*
X144674587Y-38495994D01*
X144674587Y-38495994D02*
X144846016Y-38410280D01*
X144846016Y-38410280D02*
X144931730Y-38324565D01*
X144931730Y-38324565D02*
X145017444Y-38153137D01*
X145017444Y-38153137D02*
X145017444Y-37638851D01*
X145017444Y-37638851D02*
X144931730Y-37467422D01*
X144931730Y-37467422D02*
X144846016Y-37381708D01*
X144846016Y-37381708D02*
X144674587Y-37295994D01*
X144674587Y-37295994D02*
X144331730Y-37295994D01*
X144331730Y-37295994D02*
X144160302Y-37381708D01*
X143303159Y-38495994D02*
X143303159Y-37295994D01*
X143303159Y-36695994D02*
X143388873Y-36781708D01*
X143388873Y-36781708D02*
X143303159Y-36867422D01*
X143303159Y-36867422D02*
X143217445Y-36781708D01*
X143217445Y-36781708D02*
X143303159Y-36695994D01*
X143303159Y-36695994D02*
X143303159Y-36867422D01*
X142188873Y-38495994D02*
X142360302Y-38410280D01*
X142360302Y-38410280D02*
X142446016Y-38324565D01*
X142446016Y-38324565D02*
X142531730Y-38153137D01*
X142531730Y-38153137D02*
X142531730Y-37638851D01*
X142531730Y-37638851D02*
X142446016Y-37467422D01*
X142446016Y-37467422D02*
X142360302Y-37381708D01*
X142360302Y-37381708D02*
X142188873Y-37295994D01*
X142188873Y-37295994D02*
X141931730Y-37295994D01*
X141931730Y-37295994D02*
X141760302Y-37381708D01*
X141760302Y-37381708D02*
X141674588Y-37467422D01*
X141674588Y-37467422D02*
X141588873Y-37638851D01*
X141588873Y-37638851D02*
X141588873Y-38153137D01*
X141588873Y-38153137D02*
X141674588Y-38324565D01*
X141674588Y-38324565D02*
X141760302Y-38410280D01*
X141760302Y-38410280D02*
X141931730Y-38495994D01*
X141931730Y-38495994D02*
X142188873Y-38495994D01*
X138588873Y-36695994D02*
X139446016Y-36695994D01*
X139446016Y-36695994D02*
X139531730Y-37553137D01*
X139531730Y-37553137D02*
X139446016Y-37467422D01*
X139446016Y-37467422D02*
X139274588Y-37381708D01*
X139274588Y-37381708D02*
X138846016Y-37381708D01*
X138846016Y-37381708D02*
X138674588Y-37467422D01*
X138674588Y-37467422D02*
X138588873Y-37553137D01*
X138588873Y-37553137D02*
X138503159Y-37724565D01*
X138503159Y-37724565D02*
X138503159Y-38153137D01*
X138503159Y-38153137D02*
X138588873Y-38324565D01*
X138588873Y-38324565D02*
X138674588Y-38410280D01*
X138674588Y-38410280D02*
X138846016Y-38495994D01*
X138846016Y-38495994D02*
X139274588Y-38495994D01*
X139274588Y-38495994D02*
X139446016Y-38410280D01*
X139446016Y-38410280D02*
X139531730Y-38324565D01*
X137388873Y-36695994D02*
X137217444Y-36695994D01*
X137217444Y-36695994D02*
X137046016Y-36781708D01*
X137046016Y-36781708D02*
X136960302Y-36867422D01*
X136960302Y-36867422D02*
X136874587Y-37038851D01*
X136874587Y-37038851D02*
X136788873Y-37381708D01*
X136788873Y-37381708D02*
X136788873Y-37810280D01*
X136788873Y-37810280D02*
X136874587Y-38153137D01*
X136874587Y-38153137D02*
X136960302Y-38324565D01*
X136960302Y-38324565D02*
X137046016Y-38410280D01*
X137046016Y-38410280D02*
X137217444Y-38495994D01*
X137217444Y-38495994D02*
X137388873Y-38495994D01*
X137388873Y-38495994D02*
X137560302Y-38410280D01*
X137560302Y-38410280D02*
X137646016Y-38324565D01*
X137646016Y-38324565D02*
X137731730Y-38153137D01*
X137731730Y-38153137D02*
X137817444Y-37810280D01*
X137817444Y-37810280D02*
X137817444Y-37381708D01*
X137817444Y-37381708D02*
X137731730Y-37038851D01*
X137731730Y-37038851D02*
X137646016Y-36867422D01*
X137646016Y-36867422D02*
X137560302Y-36781708D01*
X137560302Y-36781708D02*
X137388873Y-36695994D01*
X135074587Y-38495994D02*
X136103158Y-38495994D01*
X135588873Y-38495994D02*
X135588873Y-36695994D01*
X135588873Y-36695994D02*
X135760301Y-36953137D01*
X135760301Y-36953137D02*
X135931730Y-37124565D01*
X135931730Y-37124565D02*
X136103158Y-37210280D01*
D14*
X61819283Y-37940662D02*
X61819283Y-36740662D01*
X61247854Y-37140662D02*
X61247854Y-37940662D01*
X61247854Y-37254948D02*
X61190711Y-37197805D01*
X61190711Y-37197805D02*
X61076426Y-37140662D01*
X61076426Y-37140662D02*
X60904997Y-37140662D01*
X60904997Y-37140662D02*
X60790711Y-37197805D01*
X60790711Y-37197805D02*
X60733569Y-37312091D01*
X60733569Y-37312091D02*
X60733569Y-37940662D01*
X60162140Y-37140662D02*
X60162140Y-38340662D01*
X60162140Y-37197805D02*
X60047855Y-37140662D01*
X60047855Y-37140662D02*
X59819283Y-37140662D01*
X59819283Y-37140662D02*
X59704997Y-37197805D01*
X59704997Y-37197805D02*
X59647855Y-37254948D01*
X59647855Y-37254948D02*
X59590712Y-37369234D01*
X59590712Y-37369234D02*
X59590712Y-37712091D01*
X59590712Y-37712091D02*
X59647855Y-37826377D01*
X59647855Y-37826377D02*
X59704997Y-37883520D01*
X59704997Y-37883520D02*
X59819283Y-37940662D01*
X59819283Y-37940662D02*
X60047855Y-37940662D01*
X60047855Y-37940662D02*
X60162140Y-37883520D01*
X58562141Y-37140662D02*
X58562141Y-37940662D01*
X59076426Y-37140662D02*
X59076426Y-37769234D01*
X59076426Y-37769234D02*
X59019283Y-37883520D01*
X59019283Y-37883520D02*
X58904998Y-37940662D01*
X58904998Y-37940662D02*
X58733569Y-37940662D01*
X58733569Y-37940662D02*
X58619283Y-37883520D01*
X58619283Y-37883520D02*
X58562141Y-37826377D01*
X58162141Y-37140662D02*
X57704998Y-37140662D01*
X57990712Y-36740662D02*
X57990712Y-37769234D01*
X57990712Y-37769234D02*
X57933569Y-37883520D01*
X57933569Y-37883520D02*
X57819284Y-37940662D01*
X57819284Y-37940662D02*
X57704998Y-37940662D01*
X56447855Y-37883520D02*
X56276427Y-37940662D01*
X56276427Y-37940662D02*
X55990712Y-37940662D01*
X55990712Y-37940662D02*
X55876427Y-37883520D01*
X55876427Y-37883520D02*
X55819284Y-37826377D01*
X55819284Y-37826377D02*
X55762141Y-37712091D01*
X55762141Y-37712091D02*
X55762141Y-37597805D01*
X55762141Y-37597805D02*
X55819284Y-37483520D01*
X55819284Y-37483520D02*
X55876427Y-37426377D01*
X55876427Y-37426377D02*
X55990712Y-37369234D01*
X55990712Y-37369234D02*
X56219284Y-37312091D01*
X56219284Y-37312091D02*
X56333569Y-37254948D01*
X56333569Y-37254948D02*
X56390712Y-37197805D01*
X56390712Y-37197805D02*
X56447855Y-37083520D01*
X56447855Y-37083520D02*
X56447855Y-36969234D01*
X56447855Y-36969234D02*
X56390712Y-36854948D01*
X56390712Y-36854948D02*
X56333569Y-36797805D01*
X56333569Y-36797805D02*
X56219284Y-36740662D01*
X56219284Y-36740662D02*
X55933569Y-36740662D01*
X55933569Y-36740662D02*
X55762141Y-36797805D01*
X54790712Y-37883520D02*
X54904998Y-37940662D01*
X54904998Y-37940662D02*
X55133570Y-37940662D01*
X55133570Y-37940662D02*
X55247855Y-37883520D01*
X55247855Y-37883520D02*
X55304998Y-37769234D01*
X55304998Y-37769234D02*
X55304998Y-37312091D01*
X55304998Y-37312091D02*
X55247855Y-37197805D01*
X55247855Y-37197805D02*
X55133570Y-37140662D01*
X55133570Y-37140662D02*
X54904998Y-37140662D01*
X54904998Y-37140662D02*
X54790712Y-37197805D01*
X54790712Y-37197805D02*
X54733570Y-37312091D01*
X54733570Y-37312091D02*
X54733570Y-37426377D01*
X54733570Y-37426377D02*
X55304998Y-37540662D01*
X54047856Y-37940662D02*
X54162141Y-37883520D01*
X54162141Y-37883520D02*
X54219284Y-37769234D01*
X54219284Y-37769234D02*
X54219284Y-36740662D01*
X53133570Y-37883520D02*
X53247856Y-37940662D01*
X53247856Y-37940662D02*
X53476428Y-37940662D01*
X53476428Y-37940662D02*
X53590713Y-37883520D01*
X53590713Y-37883520D02*
X53647856Y-37769234D01*
X53647856Y-37769234D02*
X53647856Y-37312091D01*
X53647856Y-37312091D02*
X53590713Y-37197805D01*
X53590713Y-37197805D02*
X53476428Y-37140662D01*
X53476428Y-37140662D02*
X53247856Y-37140662D01*
X53247856Y-37140662D02*
X53133570Y-37197805D01*
X53133570Y-37197805D02*
X53076428Y-37312091D01*
X53076428Y-37312091D02*
X53076428Y-37426377D01*
X53076428Y-37426377D02*
X53647856Y-37540662D01*
X52047857Y-37883520D02*
X52162142Y-37940662D01*
X52162142Y-37940662D02*
X52390714Y-37940662D01*
X52390714Y-37940662D02*
X52504999Y-37883520D01*
X52504999Y-37883520D02*
X52562142Y-37826377D01*
X52562142Y-37826377D02*
X52619285Y-37712091D01*
X52619285Y-37712091D02*
X52619285Y-37369234D01*
X52619285Y-37369234D02*
X52562142Y-37254948D01*
X52562142Y-37254948D02*
X52504999Y-37197805D01*
X52504999Y-37197805D02*
X52390714Y-37140662D01*
X52390714Y-37140662D02*
X52162142Y-37140662D01*
X52162142Y-37140662D02*
X52047857Y-37197805D01*
X51705000Y-37140662D02*
X51247857Y-37140662D01*
X51533571Y-36740662D02*
X51533571Y-37769234D01*
X51533571Y-37769234D02*
X51476428Y-37883520D01*
X51476428Y-37883520D02*
X51362143Y-37940662D01*
X51362143Y-37940662D02*
X51247857Y-37940662D01*
X50676429Y-37940662D02*
X50790714Y-37883520D01*
X50790714Y-37883520D02*
X50847857Y-37826377D01*
X50847857Y-37826377D02*
X50905000Y-37712091D01*
X50905000Y-37712091D02*
X50905000Y-37369234D01*
X50905000Y-37369234D02*
X50847857Y-37254948D01*
X50847857Y-37254948D02*
X50790714Y-37197805D01*
X50790714Y-37197805D02*
X50676429Y-37140662D01*
X50676429Y-37140662D02*
X50505000Y-37140662D01*
X50505000Y-37140662D02*
X50390714Y-37197805D01*
X50390714Y-37197805D02*
X50333572Y-37254948D01*
X50333572Y-37254948D02*
X50276429Y-37369234D01*
X50276429Y-37369234D02*
X50276429Y-37712091D01*
X50276429Y-37712091D02*
X50333572Y-37826377D01*
X50333572Y-37826377D02*
X50390714Y-37883520D01*
X50390714Y-37883520D02*
X50505000Y-37940662D01*
X50505000Y-37940662D02*
X50676429Y-37940662D01*
X49762143Y-37940662D02*
X49762143Y-37140662D01*
X49762143Y-37369234D02*
X49705000Y-37254948D01*
X49705000Y-37254948D02*
X49647858Y-37197805D01*
X49647858Y-37197805D02*
X49533572Y-37140662D01*
X49533572Y-37140662D02*
X49419286Y-37140662D01*
X48105000Y-37940662D02*
X48105000Y-36740662D01*
X48105000Y-37197805D02*
X47990715Y-37140662D01*
X47990715Y-37140662D02*
X47762143Y-37140662D01*
X47762143Y-37140662D02*
X47647857Y-37197805D01*
X47647857Y-37197805D02*
X47590715Y-37254948D01*
X47590715Y-37254948D02*
X47533572Y-37369234D01*
X47533572Y-37369234D02*
X47533572Y-37712091D01*
X47533572Y-37712091D02*
X47590715Y-37826377D01*
X47590715Y-37826377D02*
X47647857Y-37883520D01*
X47647857Y-37883520D02*
X47762143Y-37940662D01*
X47762143Y-37940662D02*
X47990715Y-37940662D01*
X47990715Y-37940662D02*
X48105000Y-37883520D01*
X46847858Y-37940662D02*
X46962143Y-37883520D01*
X46962143Y-37883520D02*
X47019286Y-37826377D01*
X47019286Y-37826377D02*
X47076429Y-37712091D01*
X47076429Y-37712091D02*
X47076429Y-37369234D01*
X47076429Y-37369234D02*
X47019286Y-37254948D01*
X47019286Y-37254948D02*
X46962143Y-37197805D01*
X46962143Y-37197805D02*
X46847858Y-37140662D01*
X46847858Y-37140662D02*
X46676429Y-37140662D01*
X46676429Y-37140662D02*
X46562143Y-37197805D01*
X46562143Y-37197805D02*
X46505001Y-37254948D01*
X46505001Y-37254948D02*
X46447858Y-37369234D01*
X46447858Y-37369234D02*
X46447858Y-37712091D01*
X46447858Y-37712091D02*
X46505001Y-37826377D01*
X46505001Y-37826377D02*
X46562143Y-37883520D01*
X46562143Y-37883520D02*
X46676429Y-37940662D01*
X46676429Y-37940662D02*
X46847858Y-37940662D01*
X45419287Y-37940662D02*
X45419287Y-37312091D01*
X45419287Y-37312091D02*
X45476429Y-37197805D01*
X45476429Y-37197805D02*
X45590715Y-37140662D01*
X45590715Y-37140662D02*
X45819287Y-37140662D01*
X45819287Y-37140662D02*
X45933572Y-37197805D01*
X45419287Y-37883520D02*
X45533572Y-37940662D01*
X45533572Y-37940662D02*
X45819287Y-37940662D01*
X45819287Y-37940662D02*
X45933572Y-37883520D01*
X45933572Y-37883520D02*
X45990715Y-37769234D01*
X45990715Y-37769234D02*
X45990715Y-37654948D01*
X45990715Y-37654948D02*
X45933572Y-37540662D01*
X45933572Y-37540662D02*
X45819287Y-37483520D01*
X45819287Y-37483520D02*
X45533572Y-37483520D01*
X45533572Y-37483520D02*
X45419287Y-37426377D01*
X44847858Y-37940662D02*
X44847858Y-37140662D01*
X44847858Y-37369234D02*
X44790715Y-37254948D01*
X44790715Y-37254948D02*
X44733573Y-37197805D01*
X44733573Y-37197805D02*
X44619287Y-37140662D01*
X44619287Y-37140662D02*
X44505001Y-37140662D01*
X43590716Y-37940662D02*
X43590716Y-36740662D01*
X43590716Y-37883520D02*
X43705001Y-37940662D01*
X43705001Y-37940662D02*
X43933573Y-37940662D01*
X43933573Y-37940662D02*
X44047858Y-37883520D01*
X44047858Y-37883520D02*
X44105001Y-37826377D01*
X44105001Y-37826377D02*
X44162144Y-37712091D01*
X44162144Y-37712091D02*
X44162144Y-37369234D01*
X44162144Y-37369234D02*
X44105001Y-37254948D01*
X44105001Y-37254948D02*
X44047858Y-37197805D01*
X44047858Y-37197805D02*
X43933573Y-37140662D01*
X43933573Y-37140662D02*
X43705001Y-37140662D01*
X43705001Y-37140662D02*
X43590716Y-37197805D01*
D15*
X93525180Y-55887857D02*
X94001371Y-56221190D01*
X93525180Y-56459285D02*
X94525180Y-56459285D01*
X94525180Y-56459285D02*
X94525180Y-56078333D01*
X94525180Y-56078333D02*
X94477561Y-55983095D01*
X94477561Y-55983095D02*
X94429942Y-55935476D01*
X94429942Y-55935476D02*
X94334704Y-55887857D01*
X94334704Y-55887857D02*
X94191847Y-55887857D01*
X94191847Y-55887857D02*
X94096609Y-55935476D01*
X94096609Y-55935476D02*
X94048990Y-55983095D01*
X94048990Y-55983095D02*
X94001371Y-56078333D01*
X94001371Y-56078333D02*
X94001371Y-56459285D01*
X93525180Y-54935476D02*
X93525180Y-55506904D01*
X93525180Y-55221190D02*
X94525180Y-55221190D01*
X94525180Y-55221190D02*
X94382323Y-55316428D01*
X94382323Y-55316428D02*
X94287085Y-55411666D01*
X94287085Y-55411666D02*
X94239466Y-55506904D01*
X94525180Y-54030714D02*
X94525180Y-54506904D01*
X94525180Y-54506904D02*
X94048990Y-54554523D01*
X94048990Y-54554523D02*
X94096609Y-54506904D01*
X94096609Y-54506904D02*
X94144228Y-54411666D01*
X94144228Y-54411666D02*
X94144228Y-54173571D01*
X94144228Y-54173571D02*
X94096609Y-54078333D01*
X94096609Y-54078333D02*
X94048990Y-54030714D01*
X94048990Y-54030714D02*
X93953752Y-53983095D01*
X93953752Y-53983095D02*
X93715657Y-53983095D01*
X93715657Y-53983095D02*
X93620419Y-54030714D01*
X93620419Y-54030714D02*
X93572800Y-54078333D01*
X93572800Y-54078333D02*
X93525180Y-54173571D01*
X93525180Y-54173571D02*
X93525180Y-54411666D01*
X93525180Y-54411666D02*
X93572800Y-54506904D01*
X93572800Y-54506904D02*
X93620419Y-54554523D01*
X139592857Y-75289580D02*
X139640476Y-75337200D01*
X139640476Y-75337200D02*
X139783333Y-75384819D01*
X139783333Y-75384819D02*
X139878571Y-75384819D01*
X139878571Y-75384819D02*
X140021428Y-75337200D01*
X140021428Y-75337200D02*
X140116666Y-75241961D01*
X140116666Y-75241961D02*
X140164285Y-75146723D01*
X140164285Y-75146723D02*
X140211904Y-74956247D01*
X140211904Y-74956247D02*
X140211904Y-74813390D01*
X140211904Y-74813390D02*
X140164285Y-74622914D01*
X140164285Y-74622914D02*
X140116666Y-74527676D01*
X140116666Y-74527676D02*
X140021428Y-74432438D01*
X140021428Y-74432438D02*
X139878571Y-74384819D01*
X139878571Y-74384819D02*
X139783333Y-74384819D01*
X139783333Y-74384819D02*
X139640476Y-74432438D01*
X139640476Y-74432438D02*
X139592857Y-74480057D01*
X138640476Y-75384819D02*
X139211904Y-75384819D01*
X138926190Y-75384819D02*
X138926190Y-74384819D01*
X138926190Y-74384819D02*
X139021428Y-74527676D01*
X139021428Y-74527676D02*
X139116666Y-74622914D01*
X139116666Y-74622914D02*
X139211904Y-74670533D01*
X137783333Y-74718152D02*
X137783333Y-75384819D01*
X138021428Y-74337200D02*
X138259523Y-75051485D01*
X138259523Y-75051485D02*
X137640476Y-75051485D01*
X77894285Y-64589819D02*
X77894285Y-63589819D01*
X77322857Y-64589819D02*
X77751428Y-64018390D01*
X77322857Y-63589819D02*
X77894285Y-64161247D01*
X76370476Y-64589819D02*
X76941904Y-64589819D01*
X76656190Y-64589819D02*
X76656190Y-63589819D01*
X76656190Y-63589819D02*
X76751428Y-63732676D01*
X76751428Y-63732676D02*
X76846666Y-63827914D01*
X76846666Y-63827914D02*
X76941904Y-63875533D01*
X75418095Y-64589819D02*
X75989523Y-64589819D01*
X75703809Y-64589819D02*
X75703809Y-63589819D01*
X75703809Y-63589819D02*
X75799047Y-63732676D01*
X75799047Y-63732676D02*
X75894285Y-63827914D01*
X75894285Y-63827914D02*
X75989523Y-63875533D01*
X128603333Y-88989819D02*
X128603333Y-89704104D01*
X128603333Y-89704104D02*
X128650952Y-89846961D01*
X128650952Y-89846961D02*
X128746190Y-89942200D01*
X128746190Y-89942200D02*
X128889047Y-89989819D01*
X128889047Y-89989819D02*
X128984285Y-89989819D01*
X128079523Y-89989819D02*
X127889047Y-89989819D01*
X127889047Y-89989819D02*
X127793809Y-89942200D01*
X127793809Y-89942200D02*
X127746190Y-89894580D01*
X127746190Y-89894580D02*
X127650952Y-89751723D01*
X127650952Y-89751723D02*
X127603333Y-89561247D01*
X127603333Y-89561247D02*
X127603333Y-89180295D01*
X127603333Y-89180295D02*
X127650952Y-89085057D01*
X127650952Y-89085057D02*
X127698571Y-89037438D01*
X127698571Y-89037438D02*
X127793809Y-88989819D01*
X127793809Y-88989819D02*
X127984285Y-88989819D01*
X127984285Y-88989819D02*
X128079523Y-89037438D01*
X128079523Y-89037438D02*
X128127142Y-89085057D01*
X128127142Y-89085057D02*
X128174761Y-89180295D01*
X128174761Y-89180295D02*
X128174761Y-89418390D01*
X128174761Y-89418390D02*
X128127142Y-89513628D01*
X128127142Y-89513628D02*
X128079523Y-89561247D01*
X128079523Y-89561247D02*
X127984285Y-89608866D01*
X127984285Y-89608866D02*
X127793809Y-89608866D01*
X127793809Y-89608866D02*
X127698571Y-89561247D01*
X127698571Y-89561247D02*
X127650952Y-89513628D01*
X127650952Y-89513628D02*
X127603333Y-89418390D01*
X107495180Y-55887857D02*
X107971371Y-56221190D01*
X107495180Y-56459285D02*
X108495180Y-56459285D01*
X108495180Y-56459285D02*
X108495180Y-56078333D01*
X108495180Y-56078333D02*
X108447561Y-55983095D01*
X108447561Y-55983095D02*
X108399942Y-55935476D01*
X108399942Y-55935476D02*
X108304704Y-55887857D01*
X108304704Y-55887857D02*
X108161847Y-55887857D01*
X108161847Y-55887857D02*
X108066609Y-55935476D01*
X108066609Y-55935476D02*
X108018990Y-55983095D01*
X108018990Y-55983095D02*
X107971371Y-56078333D01*
X107971371Y-56078333D02*
X107971371Y-56459285D01*
X108495180Y-54983095D02*
X108495180Y-55459285D01*
X108495180Y-55459285D02*
X108018990Y-55506904D01*
X108018990Y-55506904D02*
X108066609Y-55459285D01*
X108066609Y-55459285D02*
X108114228Y-55364047D01*
X108114228Y-55364047D02*
X108114228Y-55125952D01*
X108114228Y-55125952D02*
X108066609Y-55030714D01*
X108066609Y-55030714D02*
X108018990Y-54983095D01*
X108018990Y-54983095D02*
X107923752Y-54935476D01*
X107923752Y-54935476D02*
X107685657Y-54935476D01*
X107685657Y-54935476D02*
X107590419Y-54983095D01*
X107590419Y-54983095D02*
X107542800Y-55030714D01*
X107542800Y-55030714D02*
X107495180Y-55125952D01*
X107495180Y-55125952D02*
X107495180Y-55364047D01*
X107495180Y-55364047D02*
X107542800Y-55459285D01*
X107542800Y-55459285D02*
X107590419Y-55506904D01*
X108399942Y-54554523D02*
X108447561Y-54506904D01*
X108447561Y-54506904D02*
X108495180Y-54411666D01*
X108495180Y-54411666D02*
X108495180Y-54173571D01*
X108495180Y-54173571D02*
X108447561Y-54078333D01*
X108447561Y-54078333D02*
X108399942Y-54030714D01*
X108399942Y-54030714D02*
X108304704Y-53983095D01*
X108304704Y-53983095D02*
X108209466Y-53983095D01*
X108209466Y-53983095D02*
X108066609Y-54030714D01*
X108066609Y-54030714D02*
X107495180Y-54602142D01*
X107495180Y-54602142D02*
X107495180Y-53983095D01*
X137975180Y-83192857D02*
X138451371Y-83526190D01*
X137975180Y-83764285D02*
X138975180Y-83764285D01*
X138975180Y-83764285D02*
X138975180Y-83383333D01*
X138975180Y-83383333D02*
X138927561Y-83288095D01*
X138927561Y-83288095D02*
X138879942Y-83240476D01*
X138879942Y-83240476D02*
X138784704Y-83192857D01*
X138784704Y-83192857D02*
X138641847Y-83192857D01*
X138641847Y-83192857D02*
X138546609Y-83240476D01*
X138546609Y-83240476D02*
X138498990Y-83288095D01*
X138498990Y-83288095D02*
X138451371Y-83383333D01*
X138451371Y-83383333D02*
X138451371Y-83764285D01*
X137975180Y-82240476D02*
X137975180Y-82811904D01*
X137975180Y-82526190D02*
X138975180Y-82526190D01*
X138975180Y-82526190D02*
X138832323Y-82621428D01*
X138832323Y-82621428D02*
X138737085Y-82716666D01*
X138737085Y-82716666D02*
X138689466Y-82811904D01*
X137975180Y-81764285D02*
X137975180Y-81573809D01*
X137975180Y-81573809D02*
X138022800Y-81478571D01*
X138022800Y-81478571D02*
X138070419Y-81430952D01*
X138070419Y-81430952D02*
X138213276Y-81335714D01*
X138213276Y-81335714D02*
X138403752Y-81288095D01*
X138403752Y-81288095D02*
X138784704Y-81288095D01*
X138784704Y-81288095D02*
X138879942Y-81335714D01*
X138879942Y-81335714D02*
X138927561Y-81383333D01*
X138927561Y-81383333D02*
X138975180Y-81478571D01*
X138975180Y-81478571D02*
X138975180Y-81669047D01*
X138975180Y-81669047D02*
X138927561Y-81764285D01*
X138927561Y-81764285D02*
X138879942Y-81811904D01*
X138879942Y-81811904D02*
X138784704Y-81859523D01*
X138784704Y-81859523D02*
X138546609Y-81859523D01*
X138546609Y-81859523D02*
X138451371Y-81811904D01*
X138451371Y-81811904D02*
X138403752Y-81764285D01*
X138403752Y-81764285D02*
X138356133Y-81669047D01*
X138356133Y-81669047D02*
X138356133Y-81478571D01*
X138356133Y-81478571D02*
X138403752Y-81383333D01*
X138403752Y-81383333D02*
X138451371Y-81335714D01*
X138451371Y-81335714D02*
X138546609Y-81288095D01*
X110035180Y-63444285D02*
X111035180Y-63444285D01*
X111035180Y-63444285D02*
X111035180Y-63206190D01*
X111035180Y-63206190D02*
X110987561Y-63063333D01*
X110987561Y-63063333D02*
X110892323Y-62968095D01*
X110892323Y-62968095D02*
X110797085Y-62920476D01*
X110797085Y-62920476D02*
X110606609Y-62872857D01*
X110606609Y-62872857D02*
X110463752Y-62872857D01*
X110463752Y-62872857D02*
X110273276Y-62920476D01*
X110273276Y-62920476D02*
X110178038Y-62968095D01*
X110178038Y-62968095D02*
X110082800Y-63063333D01*
X110082800Y-63063333D02*
X110035180Y-63206190D01*
X110035180Y-63206190D02*
X110035180Y-63444285D01*
X110035180Y-61920476D02*
X110035180Y-62491904D01*
X110035180Y-62206190D02*
X111035180Y-62206190D01*
X111035180Y-62206190D02*
X110892323Y-62301428D01*
X110892323Y-62301428D02*
X110797085Y-62396666D01*
X110797085Y-62396666D02*
X110749466Y-62491904D01*
X110939942Y-61539523D02*
X110987561Y-61491904D01*
X110987561Y-61491904D02*
X111035180Y-61396666D01*
X111035180Y-61396666D02*
X111035180Y-61158571D01*
X111035180Y-61158571D02*
X110987561Y-61063333D01*
X110987561Y-61063333D02*
X110939942Y-61015714D01*
X110939942Y-61015714D02*
X110844704Y-60968095D01*
X110844704Y-60968095D02*
X110749466Y-60968095D01*
X110749466Y-60968095D02*
X110606609Y-61015714D01*
X110606609Y-61015714D02*
X110035180Y-61587142D01*
X110035180Y-61587142D02*
X110035180Y-60968095D01*
X80978333Y-88989819D02*
X80978333Y-89704104D01*
X80978333Y-89704104D02*
X81025952Y-89846961D01*
X81025952Y-89846961D02*
X81121190Y-89942200D01*
X81121190Y-89942200D02*
X81264047Y-89989819D01*
X81264047Y-89989819D02*
X81359285Y-89989819D01*
X80597380Y-88989819D02*
X79930714Y-88989819D01*
X79930714Y-88989819D02*
X80359285Y-89989819D01*
X141785180Y-83192857D02*
X142261371Y-83526190D01*
X141785180Y-83764285D02*
X142785180Y-83764285D01*
X142785180Y-83764285D02*
X142785180Y-83383333D01*
X142785180Y-83383333D02*
X142737561Y-83288095D01*
X142737561Y-83288095D02*
X142689942Y-83240476D01*
X142689942Y-83240476D02*
X142594704Y-83192857D01*
X142594704Y-83192857D02*
X142451847Y-83192857D01*
X142451847Y-83192857D02*
X142356609Y-83240476D01*
X142356609Y-83240476D02*
X142308990Y-83288095D01*
X142308990Y-83288095D02*
X142261371Y-83383333D01*
X142261371Y-83383333D02*
X142261371Y-83764285D01*
X141785180Y-82240476D02*
X141785180Y-82811904D01*
X141785180Y-82526190D02*
X142785180Y-82526190D01*
X142785180Y-82526190D02*
X142642323Y-82621428D01*
X142642323Y-82621428D02*
X142547085Y-82716666D01*
X142547085Y-82716666D02*
X142499466Y-82811904D01*
X142356609Y-81669047D02*
X142404228Y-81764285D01*
X142404228Y-81764285D02*
X142451847Y-81811904D01*
X142451847Y-81811904D02*
X142547085Y-81859523D01*
X142547085Y-81859523D02*
X142594704Y-81859523D01*
X142594704Y-81859523D02*
X142689942Y-81811904D01*
X142689942Y-81811904D02*
X142737561Y-81764285D01*
X142737561Y-81764285D02*
X142785180Y-81669047D01*
X142785180Y-81669047D02*
X142785180Y-81478571D01*
X142785180Y-81478571D02*
X142737561Y-81383333D01*
X142737561Y-81383333D02*
X142689942Y-81335714D01*
X142689942Y-81335714D02*
X142594704Y-81288095D01*
X142594704Y-81288095D02*
X142547085Y-81288095D01*
X142547085Y-81288095D02*
X142451847Y-81335714D01*
X142451847Y-81335714D02*
X142404228Y-81383333D01*
X142404228Y-81383333D02*
X142356609Y-81478571D01*
X142356609Y-81478571D02*
X142356609Y-81669047D01*
X142356609Y-81669047D02*
X142308990Y-81764285D01*
X142308990Y-81764285D02*
X142261371Y-81811904D01*
X142261371Y-81811904D02*
X142166133Y-81859523D01*
X142166133Y-81859523D02*
X141975657Y-81859523D01*
X141975657Y-81859523D02*
X141880419Y-81811904D01*
X141880419Y-81811904D02*
X141832800Y-81764285D01*
X141832800Y-81764285D02*
X141785180Y-81669047D01*
X141785180Y-81669047D02*
X141785180Y-81478571D01*
X141785180Y-81478571D02*
X141832800Y-81383333D01*
X141832800Y-81383333D02*
X141880419Y-81335714D01*
X141880419Y-81335714D02*
X141975657Y-81288095D01*
X141975657Y-81288095D02*
X142166133Y-81288095D01*
X142166133Y-81288095D02*
X142261371Y-81335714D01*
X142261371Y-81335714D02*
X142308990Y-81383333D01*
X142308990Y-81383333D02*
X142356609Y-81478571D01*
X107495180Y-80017857D02*
X107971371Y-80351190D01*
X107495180Y-80589285D02*
X108495180Y-80589285D01*
X108495180Y-80589285D02*
X108495180Y-80208333D01*
X108495180Y-80208333D02*
X108447561Y-80113095D01*
X108447561Y-80113095D02*
X108399942Y-80065476D01*
X108399942Y-80065476D02*
X108304704Y-80017857D01*
X108304704Y-80017857D02*
X108161847Y-80017857D01*
X108161847Y-80017857D02*
X108066609Y-80065476D01*
X108066609Y-80065476D02*
X108018990Y-80113095D01*
X108018990Y-80113095D02*
X107971371Y-80208333D01*
X107971371Y-80208333D02*
X107971371Y-80589285D01*
X108399942Y-79636904D02*
X108447561Y-79589285D01*
X108447561Y-79589285D02*
X108495180Y-79494047D01*
X108495180Y-79494047D02*
X108495180Y-79255952D01*
X108495180Y-79255952D02*
X108447561Y-79160714D01*
X108447561Y-79160714D02*
X108399942Y-79113095D01*
X108399942Y-79113095D02*
X108304704Y-79065476D01*
X108304704Y-79065476D02*
X108209466Y-79065476D01*
X108209466Y-79065476D02*
X108066609Y-79113095D01*
X108066609Y-79113095D02*
X107495180Y-79684523D01*
X107495180Y-79684523D02*
X107495180Y-79065476D01*
X108399942Y-78684523D02*
X108447561Y-78636904D01*
X108447561Y-78636904D02*
X108495180Y-78541666D01*
X108495180Y-78541666D02*
X108495180Y-78303571D01*
X108495180Y-78303571D02*
X108447561Y-78208333D01*
X108447561Y-78208333D02*
X108399942Y-78160714D01*
X108399942Y-78160714D02*
X108304704Y-78113095D01*
X108304704Y-78113095D02*
X108209466Y-78113095D01*
X108209466Y-78113095D02*
X108066609Y-78160714D01*
X108066609Y-78160714D02*
X107495180Y-78732142D01*
X107495180Y-78732142D02*
X107495180Y-78113095D01*
X150770419Y-63467857D02*
X150722800Y-63515476D01*
X150722800Y-63515476D02*
X150675180Y-63658333D01*
X150675180Y-63658333D02*
X150675180Y-63753571D01*
X150675180Y-63753571D02*
X150722800Y-63896428D01*
X150722800Y-63896428D02*
X150818038Y-63991666D01*
X150818038Y-63991666D02*
X150913276Y-64039285D01*
X150913276Y-64039285D02*
X151103752Y-64086904D01*
X151103752Y-64086904D02*
X151246609Y-64086904D01*
X151246609Y-64086904D02*
X151437085Y-64039285D01*
X151437085Y-64039285D02*
X151532323Y-63991666D01*
X151532323Y-63991666D02*
X151627561Y-63896428D01*
X151627561Y-63896428D02*
X151675180Y-63753571D01*
X151675180Y-63753571D02*
X151675180Y-63658333D01*
X151675180Y-63658333D02*
X151627561Y-63515476D01*
X151627561Y-63515476D02*
X151579942Y-63467857D01*
X151579942Y-63086904D02*
X151627561Y-63039285D01*
X151627561Y-63039285D02*
X151675180Y-62944047D01*
X151675180Y-62944047D02*
X151675180Y-62705952D01*
X151675180Y-62705952D02*
X151627561Y-62610714D01*
X151627561Y-62610714D02*
X151579942Y-62563095D01*
X151579942Y-62563095D02*
X151484704Y-62515476D01*
X151484704Y-62515476D02*
X151389466Y-62515476D01*
X151389466Y-62515476D02*
X151246609Y-62563095D01*
X151246609Y-62563095D02*
X150675180Y-63134523D01*
X150675180Y-63134523D02*
X150675180Y-62515476D01*
X151675180Y-62182142D02*
X151675180Y-61563095D01*
X151675180Y-61563095D02*
X151294228Y-61896428D01*
X151294228Y-61896428D02*
X151294228Y-61753571D01*
X151294228Y-61753571D02*
X151246609Y-61658333D01*
X151246609Y-61658333D02*
X151198990Y-61610714D01*
X151198990Y-61610714D02*
X151103752Y-61563095D01*
X151103752Y-61563095D02*
X150865657Y-61563095D01*
X150865657Y-61563095D02*
X150770419Y-61610714D01*
X150770419Y-61610714D02*
X150722800Y-61658333D01*
X150722800Y-61658333D02*
X150675180Y-61753571D01*
X150675180Y-61753571D02*
X150675180Y-62039285D01*
X150675180Y-62039285D02*
X150722800Y-62134523D01*
X150722800Y-62134523D02*
X150770419Y-62182142D01*
X98414819Y-65397142D02*
X97938628Y-65063809D01*
X98414819Y-64825714D02*
X97414819Y-64825714D01*
X97414819Y-64825714D02*
X97414819Y-65206666D01*
X97414819Y-65206666D02*
X97462438Y-65301904D01*
X97462438Y-65301904D02*
X97510057Y-65349523D01*
X97510057Y-65349523D02*
X97605295Y-65397142D01*
X97605295Y-65397142D02*
X97748152Y-65397142D01*
X97748152Y-65397142D02*
X97843390Y-65349523D01*
X97843390Y-65349523D02*
X97891009Y-65301904D01*
X97891009Y-65301904D02*
X97938628Y-65206666D01*
X97938628Y-65206666D02*
X97938628Y-64825714D01*
X97510057Y-65778095D02*
X97462438Y-65825714D01*
X97462438Y-65825714D02*
X97414819Y-65920952D01*
X97414819Y-65920952D02*
X97414819Y-66159047D01*
X97414819Y-66159047D02*
X97462438Y-66254285D01*
X97462438Y-66254285D02*
X97510057Y-66301904D01*
X97510057Y-66301904D02*
X97605295Y-66349523D01*
X97605295Y-66349523D02*
X97700533Y-66349523D01*
X97700533Y-66349523D02*
X97843390Y-66301904D01*
X97843390Y-66301904D02*
X98414819Y-65730476D01*
X98414819Y-65730476D02*
X98414819Y-66349523D01*
X97414819Y-66682857D02*
X97414819Y-67301904D01*
X97414819Y-67301904D02*
X97795771Y-66968571D01*
X97795771Y-66968571D02*
X97795771Y-67111428D01*
X97795771Y-67111428D02*
X97843390Y-67206666D01*
X97843390Y-67206666D02*
X97891009Y-67254285D01*
X97891009Y-67254285D02*
X97986247Y-67301904D01*
X97986247Y-67301904D02*
X98224342Y-67301904D01*
X98224342Y-67301904D02*
X98319580Y-67254285D01*
X98319580Y-67254285D02*
X98367200Y-67206666D01*
X98367200Y-67206666D02*
X98414819Y-67111428D01*
X98414819Y-67111428D02*
X98414819Y-66825714D01*
X98414819Y-66825714D02*
X98367200Y-66730476D01*
X98367200Y-66730476D02*
X98319580Y-66682857D01*
X101145180Y-73667857D02*
X101621371Y-74001190D01*
X101145180Y-74239285D02*
X102145180Y-74239285D01*
X102145180Y-74239285D02*
X102145180Y-73858333D01*
X102145180Y-73858333D02*
X102097561Y-73763095D01*
X102097561Y-73763095D02*
X102049942Y-73715476D01*
X102049942Y-73715476D02*
X101954704Y-73667857D01*
X101954704Y-73667857D02*
X101811847Y-73667857D01*
X101811847Y-73667857D02*
X101716609Y-73715476D01*
X101716609Y-73715476D02*
X101668990Y-73763095D01*
X101668990Y-73763095D02*
X101621371Y-73858333D01*
X101621371Y-73858333D02*
X101621371Y-74239285D01*
X102049942Y-73286904D02*
X102097561Y-73239285D01*
X102097561Y-73239285D02*
X102145180Y-73144047D01*
X102145180Y-73144047D02*
X102145180Y-72905952D01*
X102145180Y-72905952D02*
X102097561Y-72810714D01*
X102097561Y-72810714D02*
X102049942Y-72763095D01*
X102049942Y-72763095D02*
X101954704Y-72715476D01*
X101954704Y-72715476D02*
X101859466Y-72715476D01*
X101859466Y-72715476D02*
X101716609Y-72763095D01*
X101716609Y-72763095D02*
X101145180Y-73334523D01*
X101145180Y-73334523D02*
X101145180Y-72715476D01*
X101145180Y-71763095D02*
X101145180Y-72334523D01*
X101145180Y-72048809D02*
X102145180Y-72048809D01*
X102145180Y-72048809D02*
X102002323Y-72144047D01*
X102002323Y-72144047D02*
X101907085Y-72239285D01*
X101907085Y-72239285D02*
X101859466Y-72334523D01*
X60499523Y-90894819D02*
X60499523Y-91609104D01*
X60499523Y-91609104D02*
X60547142Y-91751961D01*
X60547142Y-91751961D02*
X60642380Y-91847200D01*
X60642380Y-91847200D02*
X60785237Y-91894819D01*
X60785237Y-91894819D02*
X60880475Y-91894819D01*
X59594761Y-91228152D02*
X59594761Y-91894819D01*
X59832856Y-90847200D02*
X60070951Y-91561485D01*
X60070951Y-91561485D02*
X59451904Y-91561485D01*
X59118570Y-90990057D02*
X59070951Y-90942438D01*
X59070951Y-90942438D02*
X58975713Y-90894819D01*
X58975713Y-90894819D02*
X58737618Y-90894819D01*
X58737618Y-90894819D02*
X58642380Y-90942438D01*
X58642380Y-90942438D02*
X58594761Y-90990057D01*
X58594761Y-90990057D02*
X58547142Y-91085295D01*
X58547142Y-91085295D02*
X58547142Y-91180533D01*
X58547142Y-91180533D02*
X58594761Y-91323390D01*
X58594761Y-91323390D02*
X59166189Y-91894819D01*
X59166189Y-91894819D02*
X58547142Y-91894819D01*
X105981428Y-74845057D02*
X106076666Y-74797438D01*
X106076666Y-74797438D02*
X106171904Y-74702200D01*
X106171904Y-74702200D02*
X106314761Y-74559342D01*
X106314761Y-74559342D02*
X106409999Y-74511723D01*
X106409999Y-74511723D02*
X106505237Y-74511723D01*
X106457618Y-74749819D02*
X106552856Y-74702200D01*
X106552856Y-74702200D02*
X106648094Y-74606961D01*
X106648094Y-74606961D02*
X106695713Y-74416485D01*
X106695713Y-74416485D02*
X106695713Y-74083152D01*
X106695713Y-74083152D02*
X106648094Y-73892676D01*
X106648094Y-73892676D02*
X106552856Y-73797438D01*
X106552856Y-73797438D02*
X106457618Y-73749819D01*
X106457618Y-73749819D02*
X106267142Y-73749819D01*
X106267142Y-73749819D02*
X106171904Y-73797438D01*
X106171904Y-73797438D02*
X106076666Y-73892676D01*
X106076666Y-73892676D02*
X106029047Y-74083152D01*
X106029047Y-74083152D02*
X106029047Y-74416485D01*
X106029047Y-74416485D02*
X106076666Y-74606961D01*
X106076666Y-74606961D02*
X106171904Y-74702200D01*
X106171904Y-74702200D02*
X106267142Y-74749819D01*
X106267142Y-74749819D02*
X106457618Y-74749819D01*
X105648094Y-73845057D02*
X105600475Y-73797438D01*
X105600475Y-73797438D02*
X105505237Y-73749819D01*
X105505237Y-73749819D02*
X105267142Y-73749819D01*
X105267142Y-73749819D02*
X105171904Y-73797438D01*
X105171904Y-73797438D02*
X105124285Y-73845057D01*
X105124285Y-73845057D02*
X105076666Y-73940295D01*
X105076666Y-73940295D02*
X105076666Y-74035533D01*
X105076666Y-74035533D02*
X105124285Y-74178390D01*
X105124285Y-74178390D02*
X105695713Y-74749819D01*
X105695713Y-74749819D02*
X105076666Y-74749819D01*
X104124285Y-74749819D02*
X104695713Y-74749819D01*
X104409999Y-74749819D02*
X104409999Y-73749819D01*
X104409999Y-73749819D02*
X104505237Y-73892676D01*
X104505237Y-73892676D02*
X104600475Y-73987914D01*
X104600475Y-73987914D02*
X104695713Y-74035533D01*
X110035180Y-79954285D02*
X111035180Y-79954285D01*
X111035180Y-79954285D02*
X111035180Y-79716190D01*
X111035180Y-79716190D02*
X110987561Y-79573333D01*
X110987561Y-79573333D02*
X110892323Y-79478095D01*
X110892323Y-79478095D02*
X110797085Y-79430476D01*
X110797085Y-79430476D02*
X110606609Y-79382857D01*
X110606609Y-79382857D02*
X110463752Y-79382857D01*
X110463752Y-79382857D02*
X110273276Y-79430476D01*
X110273276Y-79430476D02*
X110178038Y-79478095D01*
X110178038Y-79478095D02*
X110082800Y-79573333D01*
X110082800Y-79573333D02*
X110035180Y-79716190D01*
X110035180Y-79716190D02*
X110035180Y-79954285D01*
X110939942Y-79001904D02*
X110987561Y-78954285D01*
X110987561Y-78954285D02*
X111035180Y-78859047D01*
X111035180Y-78859047D02*
X111035180Y-78620952D01*
X111035180Y-78620952D02*
X110987561Y-78525714D01*
X110987561Y-78525714D02*
X110939942Y-78478095D01*
X110939942Y-78478095D02*
X110844704Y-78430476D01*
X110844704Y-78430476D02*
X110749466Y-78430476D01*
X110749466Y-78430476D02*
X110606609Y-78478095D01*
X110606609Y-78478095D02*
X110035180Y-79049523D01*
X110035180Y-79049523D02*
X110035180Y-78430476D01*
X110939942Y-78049523D02*
X110987561Y-78001904D01*
X110987561Y-78001904D02*
X111035180Y-77906666D01*
X111035180Y-77906666D02*
X111035180Y-77668571D01*
X111035180Y-77668571D02*
X110987561Y-77573333D01*
X110987561Y-77573333D02*
X110939942Y-77525714D01*
X110939942Y-77525714D02*
X110844704Y-77478095D01*
X110844704Y-77478095D02*
X110749466Y-77478095D01*
X110749466Y-77478095D02*
X110606609Y-77525714D01*
X110606609Y-77525714D02*
X110035180Y-78097142D01*
X110035180Y-78097142D02*
X110035180Y-77478095D01*
X148135180Y-64142857D02*
X148611371Y-64476190D01*
X148135180Y-64714285D02*
X149135180Y-64714285D01*
X149135180Y-64714285D02*
X149135180Y-64333333D01*
X149135180Y-64333333D02*
X149087561Y-64238095D01*
X149087561Y-64238095D02*
X149039942Y-64190476D01*
X149039942Y-64190476D02*
X148944704Y-64142857D01*
X148944704Y-64142857D02*
X148801847Y-64142857D01*
X148801847Y-64142857D02*
X148706609Y-64190476D01*
X148706609Y-64190476D02*
X148658990Y-64238095D01*
X148658990Y-64238095D02*
X148611371Y-64333333D01*
X148611371Y-64333333D02*
X148611371Y-64714285D01*
X149039942Y-63761904D02*
X149087561Y-63714285D01*
X149087561Y-63714285D02*
X149135180Y-63619047D01*
X149135180Y-63619047D02*
X149135180Y-63380952D01*
X149135180Y-63380952D02*
X149087561Y-63285714D01*
X149087561Y-63285714D02*
X149039942Y-63238095D01*
X149039942Y-63238095D02*
X148944704Y-63190476D01*
X148944704Y-63190476D02*
X148849466Y-63190476D01*
X148849466Y-63190476D02*
X148706609Y-63238095D01*
X148706609Y-63238095D02*
X148135180Y-63809523D01*
X148135180Y-63809523D02*
X148135180Y-63190476D01*
X149135180Y-62333333D02*
X149135180Y-62523809D01*
X149135180Y-62523809D02*
X149087561Y-62619047D01*
X149087561Y-62619047D02*
X149039942Y-62666666D01*
X149039942Y-62666666D02*
X148897085Y-62761904D01*
X148897085Y-62761904D02*
X148706609Y-62809523D01*
X148706609Y-62809523D02*
X148325657Y-62809523D01*
X148325657Y-62809523D02*
X148230419Y-62761904D01*
X148230419Y-62761904D02*
X148182800Y-62714285D01*
X148182800Y-62714285D02*
X148135180Y-62619047D01*
X148135180Y-62619047D02*
X148135180Y-62428571D01*
X148135180Y-62428571D02*
X148182800Y-62333333D01*
X148182800Y-62333333D02*
X148230419Y-62285714D01*
X148230419Y-62285714D02*
X148325657Y-62238095D01*
X148325657Y-62238095D02*
X148563752Y-62238095D01*
X148563752Y-62238095D02*
X148658990Y-62285714D01*
X148658990Y-62285714D02*
X148706609Y-62333333D01*
X148706609Y-62333333D02*
X148754228Y-62428571D01*
X148754228Y-62428571D02*
X148754228Y-62619047D01*
X148754228Y-62619047D02*
X148706609Y-62714285D01*
X148706609Y-62714285D02*
X148658990Y-62761904D01*
X148658990Y-62761904D02*
X148563752Y-62809523D01*
D16*
X121963714Y-37265181D02*
X121963714Y-38353752D01*
X121963714Y-38353752D02*
X122036285Y-38571467D01*
X122036285Y-38571467D02*
X122181428Y-38716610D01*
X122181428Y-38716610D02*
X122399142Y-38789181D01*
X122399142Y-38789181D02*
X122544285Y-38789181D01*
X120512285Y-37265181D02*
X121237999Y-37265181D01*
X121237999Y-37265181D02*
X121310571Y-37990895D01*
X121310571Y-37990895D02*
X121237999Y-37918324D01*
X121237999Y-37918324D02*
X121092857Y-37845752D01*
X121092857Y-37845752D02*
X120729999Y-37845752D01*
X120729999Y-37845752D02*
X120584857Y-37918324D01*
X120584857Y-37918324D02*
X120512285Y-37990895D01*
X120512285Y-37990895D02*
X120439714Y-38136038D01*
X120439714Y-38136038D02*
X120439714Y-38498895D01*
X120439714Y-38498895D02*
X120512285Y-38644038D01*
X120512285Y-38644038D02*
X120584857Y-38716610D01*
X120584857Y-38716610D02*
X120729999Y-38789181D01*
X120729999Y-38789181D02*
X121092857Y-38789181D01*
X121092857Y-38789181D02*
X121237999Y-38716610D01*
X121237999Y-38716610D02*
X121310571Y-38644038D01*
X119859142Y-37410324D02*
X119786570Y-37337752D01*
X119786570Y-37337752D02*
X119641428Y-37265181D01*
X119641428Y-37265181D02*
X119278570Y-37265181D01*
X119278570Y-37265181D02*
X119133428Y-37337752D01*
X119133428Y-37337752D02*
X119060856Y-37410324D01*
X119060856Y-37410324D02*
X118988285Y-37555467D01*
X118988285Y-37555467D02*
X118988285Y-37700610D01*
X118988285Y-37700610D02*
X119060856Y-37918324D01*
X119060856Y-37918324D02*
X119931713Y-38789181D01*
X119931713Y-38789181D02*
X118988285Y-38789181D01*
D15*
X136705180Y-55887857D02*
X137181371Y-56221190D01*
X136705180Y-56459285D02*
X137705180Y-56459285D01*
X137705180Y-56459285D02*
X137705180Y-56078333D01*
X137705180Y-56078333D02*
X137657561Y-55983095D01*
X137657561Y-55983095D02*
X137609942Y-55935476D01*
X137609942Y-55935476D02*
X137514704Y-55887857D01*
X137514704Y-55887857D02*
X137371847Y-55887857D01*
X137371847Y-55887857D02*
X137276609Y-55935476D01*
X137276609Y-55935476D02*
X137228990Y-55983095D01*
X137228990Y-55983095D02*
X137181371Y-56078333D01*
X137181371Y-56078333D02*
X137181371Y-56459285D01*
X137705180Y-54983095D02*
X137705180Y-55459285D01*
X137705180Y-55459285D02*
X137228990Y-55506904D01*
X137228990Y-55506904D02*
X137276609Y-55459285D01*
X137276609Y-55459285D02*
X137324228Y-55364047D01*
X137324228Y-55364047D02*
X137324228Y-55125952D01*
X137324228Y-55125952D02*
X137276609Y-55030714D01*
X137276609Y-55030714D02*
X137228990Y-54983095D01*
X137228990Y-54983095D02*
X137133752Y-54935476D01*
X137133752Y-54935476D02*
X136895657Y-54935476D01*
X136895657Y-54935476D02*
X136800419Y-54983095D01*
X136800419Y-54983095D02*
X136752800Y-55030714D01*
X136752800Y-55030714D02*
X136705180Y-55125952D01*
X136705180Y-55125952D02*
X136705180Y-55364047D01*
X136705180Y-55364047D02*
X136752800Y-55459285D01*
X136752800Y-55459285D02*
X136800419Y-55506904D01*
X137705180Y-54602142D02*
X137705180Y-53983095D01*
X137705180Y-53983095D02*
X137324228Y-54316428D01*
X137324228Y-54316428D02*
X137324228Y-54173571D01*
X137324228Y-54173571D02*
X137276609Y-54078333D01*
X137276609Y-54078333D02*
X137228990Y-54030714D01*
X137228990Y-54030714D02*
X137133752Y-53983095D01*
X137133752Y-53983095D02*
X136895657Y-53983095D01*
X136895657Y-53983095D02*
X136800419Y-54030714D01*
X136800419Y-54030714D02*
X136752800Y-54078333D01*
X136752800Y-54078333D02*
X136705180Y-54173571D01*
X136705180Y-54173571D02*
X136705180Y-54459285D01*
X136705180Y-54459285D02*
X136752800Y-54554523D01*
X136752800Y-54554523D02*
X136800419Y-54602142D01*
X92261666Y-84814580D02*
X92309285Y-84862200D01*
X92309285Y-84862200D02*
X92452142Y-84909819D01*
X92452142Y-84909819D02*
X92547380Y-84909819D01*
X92547380Y-84909819D02*
X92690237Y-84862200D01*
X92690237Y-84862200D02*
X92785475Y-84766961D01*
X92785475Y-84766961D02*
X92833094Y-84671723D01*
X92833094Y-84671723D02*
X92880713Y-84481247D01*
X92880713Y-84481247D02*
X92880713Y-84338390D01*
X92880713Y-84338390D02*
X92833094Y-84147914D01*
X92833094Y-84147914D02*
X92785475Y-84052676D01*
X92785475Y-84052676D02*
X92690237Y-83957438D01*
X92690237Y-83957438D02*
X92547380Y-83909819D01*
X92547380Y-83909819D02*
X92452142Y-83909819D01*
X92452142Y-83909819D02*
X92309285Y-83957438D01*
X92309285Y-83957438D02*
X92261666Y-84005057D01*
X91309285Y-84909819D02*
X91880713Y-84909819D01*
X91594999Y-84909819D02*
X91594999Y-83909819D01*
X91594999Y-83909819D02*
X91690237Y-84052676D01*
X91690237Y-84052676D02*
X91785475Y-84147914D01*
X91785475Y-84147914D02*
X91880713Y-84195533D01*
X93525180Y-62237857D02*
X94001371Y-62571190D01*
X93525180Y-62809285D02*
X94525180Y-62809285D01*
X94525180Y-62809285D02*
X94525180Y-62428333D01*
X94525180Y-62428333D02*
X94477561Y-62333095D01*
X94477561Y-62333095D02*
X94429942Y-62285476D01*
X94429942Y-62285476D02*
X94334704Y-62237857D01*
X94334704Y-62237857D02*
X94191847Y-62237857D01*
X94191847Y-62237857D02*
X94096609Y-62285476D01*
X94096609Y-62285476D02*
X94048990Y-62333095D01*
X94048990Y-62333095D02*
X94001371Y-62428333D01*
X94001371Y-62428333D02*
X94001371Y-62809285D01*
X93525180Y-61285476D02*
X93525180Y-61856904D01*
X93525180Y-61571190D02*
X94525180Y-61571190D01*
X94525180Y-61571190D02*
X94382323Y-61666428D01*
X94382323Y-61666428D02*
X94287085Y-61761666D01*
X94287085Y-61761666D02*
X94239466Y-61856904D01*
X94191847Y-60428333D02*
X93525180Y-60428333D01*
X94572800Y-60666428D02*
X93858514Y-60904523D01*
X93858514Y-60904523D02*
X93858514Y-60285476D01*
X103685180Y-62237857D02*
X104161371Y-62571190D01*
X103685180Y-62809285D02*
X104685180Y-62809285D01*
X104685180Y-62809285D02*
X104685180Y-62428333D01*
X104685180Y-62428333D02*
X104637561Y-62333095D01*
X104637561Y-62333095D02*
X104589942Y-62285476D01*
X104589942Y-62285476D02*
X104494704Y-62237857D01*
X104494704Y-62237857D02*
X104351847Y-62237857D01*
X104351847Y-62237857D02*
X104256609Y-62285476D01*
X104256609Y-62285476D02*
X104208990Y-62333095D01*
X104208990Y-62333095D02*
X104161371Y-62428333D01*
X104161371Y-62428333D02*
X104161371Y-62809285D01*
X104589942Y-61856904D02*
X104637561Y-61809285D01*
X104637561Y-61809285D02*
X104685180Y-61714047D01*
X104685180Y-61714047D02*
X104685180Y-61475952D01*
X104685180Y-61475952D02*
X104637561Y-61380714D01*
X104637561Y-61380714D02*
X104589942Y-61333095D01*
X104589942Y-61333095D02*
X104494704Y-61285476D01*
X104494704Y-61285476D02*
X104399466Y-61285476D01*
X104399466Y-61285476D02*
X104256609Y-61333095D01*
X104256609Y-61333095D02*
X103685180Y-61904523D01*
X103685180Y-61904523D02*
X103685180Y-61285476D01*
X104351847Y-60428333D02*
X103685180Y-60428333D01*
X104732800Y-60666428D02*
X104018514Y-60904523D01*
X104018514Y-60904523D02*
X104018514Y-60285476D01*
X95821428Y-74845057D02*
X95916666Y-74797438D01*
X95916666Y-74797438D02*
X96011904Y-74702200D01*
X96011904Y-74702200D02*
X96154761Y-74559342D01*
X96154761Y-74559342D02*
X96249999Y-74511723D01*
X96249999Y-74511723D02*
X96345237Y-74511723D01*
X96297618Y-74749819D02*
X96392856Y-74702200D01*
X96392856Y-74702200D02*
X96488094Y-74606961D01*
X96488094Y-74606961D02*
X96535713Y-74416485D01*
X96535713Y-74416485D02*
X96535713Y-74083152D01*
X96535713Y-74083152D02*
X96488094Y-73892676D01*
X96488094Y-73892676D02*
X96392856Y-73797438D01*
X96392856Y-73797438D02*
X96297618Y-73749819D01*
X96297618Y-73749819D02*
X96107142Y-73749819D01*
X96107142Y-73749819D02*
X96011904Y-73797438D01*
X96011904Y-73797438D02*
X95916666Y-73892676D01*
X95916666Y-73892676D02*
X95869047Y-74083152D01*
X95869047Y-74083152D02*
X95869047Y-74416485D01*
X95869047Y-74416485D02*
X95916666Y-74606961D01*
X95916666Y-74606961D02*
X96011904Y-74702200D01*
X96011904Y-74702200D02*
X96107142Y-74749819D01*
X96107142Y-74749819D02*
X96297618Y-74749819D01*
X94916666Y-74749819D02*
X95488094Y-74749819D01*
X95202380Y-74749819D02*
X95202380Y-73749819D01*
X95202380Y-73749819D02*
X95297618Y-73892676D01*
X95297618Y-73892676D02*
X95392856Y-73987914D01*
X95392856Y-73987914D02*
X95488094Y-74035533D01*
X93964285Y-74749819D02*
X94535713Y-74749819D01*
X94249999Y-74749819D02*
X94249999Y-73749819D01*
X94249999Y-73749819D02*
X94345237Y-73892676D01*
X94345237Y-73892676D02*
X94440475Y-73987914D01*
X94440475Y-73987914D02*
X94535713Y-74035533D01*
X35099523Y-74164819D02*
X35099523Y-74879104D01*
X35099523Y-74879104D02*
X35147142Y-75021961D01*
X35147142Y-75021961D02*
X35242380Y-75117200D01*
X35242380Y-75117200D02*
X35385237Y-75164819D01*
X35385237Y-75164819D02*
X35480475Y-75164819D01*
X34194761Y-74498152D02*
X34194761Y-75164819D01*
X34432856Y-74117200D02*
X34670951Y-74831485D01*
X34670951Y-74831485D02*
X34051904Y-74831485D01*
X33242380Y-74498152D02*
X33242380Y-75164819D01*
X33480475Y-74117200D02*
X33718570Y-74831485D01*
X33718570Y-74831485D02*
X33099523Y-74831485D01*
X97335180Y-80017857D02*
X97811371Y-80351190D01*
X97335180Y-80589285D02*
X98335180Y-80589285D01*
X98335180Y-80589285D02*
X98335180Y-80208333D01*
X98335180Y-80208333D02*
X98287561Y-80113095D01*
X98287561Y-80113095D02*
X98239942Y-80065476D01*
X98239942Y-80065476D02*
X98144704Y-80017857D01*
X98144704Y-80017857D02*
X98001847Y-80017857D01*
X98001847Y-80017857D02*
X97906609Y-80065476D01*
X97906609Y-80065476D02*
X97858990Y-80113095D01*
X97858990Y-80113095D02*
X97811371Y-80208333D01*
X97811371Y-80208333D02*
X97811371Y-80589285D01*
X97335180Y-79065476D02*
X97335180Y-79636904D01*
X97335180Y-79351190D02*
X98335180Y-79351190D01*
X98335180Y-79351190D02*
X98192323Y-79446428D01*
X98192323Y-79446428D02*
X98097085Y-79541666D01*
X98097085Y-79541666D02*
X98049466Y-79636904D01*
X98239942Y-78684523D02*
X98287561Y-78636904D01*
X98287561Y-78636904D02*
X98335180Y-78541666D01*
X98335180Y-78541666D02*
X98335180Y-78303571D01*
X98335180Y-78303571D02*
X98287561Y-78208333D01*
X98287561Y-78208333D02*
X98239942Y-78160714D01*
X98239942Y-78160714D02*
X98144704Y-78113095D01*
X98144704Y-78113095D02*
X98049466Y-78113095D01*
X98049466Y-78113095D02*
X97906609Y-78160714D01*
X97906609Y-78160714D02*
X97335180Y-78732142D01*
X97335180Y-78732142D02*
X97335180Y-78113095D01*
X148135180Y-55887857D02*
X148611371Y-56221190D01*
X148135180Y-56459285D02*
X149135180Y-56459285D01*
X149135180Y-56459285D02*
X149135180Y-56078333D01*
X149135180Y-56078333D02*
X149087561Y-55983095D01*
X149087561Y-55983095D02*
X149039942Y-55935476D01*
X149039942Y-55935476D02*
X148944704Y-55887857D01*
X148944704Y-55887857D02*
X148801847Y-55887857D01*
X148801847Y-55887857D02*
X148706609Y-55935476D01*
X148706609Y-55935476D02*
X148658990Y-55983095D01*
X148658990Y-55983095D02*
X148611371Y-56078333D01*
X148611371Y-56078333D02*
X148611371Y-56459285D01*
X149135180Y-54983095D02*
X149135180Y-55459285D01*
X149135180Y-55459285D02*
X148658990Y-55506904D01*
X148658990Y-55506904D02*
X148706609Y-55459285D01*
X148706609Y-55459285D02*
X148754228Y-55364047D01*
X148754228Y-55364047D02*
X148754228Y-55125952D01*
X148754228Y-55125952D02*
X148706609Y-55030714D01*
X148706609Y-55030714D02*
X148658990Y-54983095D01*
X148658990Y-54983095D02*
X148563752Y-54935476D01*
X148563752Y-54935476D02*
X148325657Y-54935476D01*
X148325657Y-54935476D02*
X148230419Y-54983095D01*
X148230419Y-54983095D02*
X148182800Y-55030714D01*
X148182800Y-55030714D02*
X148135180Y-55125952D01*
X148135180Y-55125952D02*
X148135180Y-55364047D01*
X148135180Y-55364047D02*
X148182800Y-55459285D01*
X148182800Y-55459285D02*
X148230419Y-55506904D01*
X148801847Y-54078333D02*
X148135180Y-54078333D01*
X149182800Y-54316428D02*
X148468514Y-54554523D01*
X148468514Y-54554523D02*
X148468514Y-53935476D01*
D16*
X99083714Y-47425181D02*
X99083714Y-48513752D01*
X99083714Y-48513752D02*
X99156285Y-48731467D01*
X99156285Y-48731467D02*
X99301428Y-48876610D01*
X99301428Y-48876610D02*
X99519142Y-48949181D01*
X99519142Y-48949181D02*
X99664285Y-48949181D01*
X98503142Y-47425181D02*
X97559714Y-47425181D01*
X97559714Y-47425181D02*
X98067714Y-48005752D01*
X98067714Y-48005752D02*
X97849999Y-48005752D01*
X97849999Y-48005752D02*
X97704857Y-48078324D01*
X97704857Y-48078324D02*
X97632285Y-48150895D01*
X97632285Y-48150895D02*
X97559714Y-48296038D01*
X97559714Y-48296038D02*
X97559714Y-48658895D01*
X97559714Y-48658895D02*
X97632285Y-48804038D01*
X97632285Y-48804038D02*
X97704857Y-48876610D01*
X97704857Y-48876610D02*
X97849999Y-48949181D01*
X97849999Y-48949181D02*
X98285428Y-48949181D01*
X98285428Y-48949181D02*
X98430571Y-48876610D01*
X98430571Y-48876610D02*
X98503142Y-48804038D01*
X96979142Y-47570324D02*
X96906570Y-47497752D01*
X96906570Y-47497752D02*
X96761428Y-47425181D01*
X96761428Y-47425181D02*
X96398570Y-47425181D01*
X96398570Y-47425181D02*
X96253428Y-47497752D01*
X96253428Y-47497752D02*
X96180856Y-47570324D01*
X96180856Y-47570324D02*
X96108285Y-47715467D01*
X96108285Y-47715467D02*
X96108285Y-47860610D01*
X96108285Y-47860610D02*
X96180856Y-48078324D01*
X96180856Y-48078324D02*
X97051713Y-48949181D01*
X97051713Y-48949181D02*
X96108285Y-48949181D01*
D15*
X64315180Y-63444285D02*
X65315180Y-63444285D01*
X65315180Y-63444285D02*
X65315180Y-63206190D01*
X65315180Y-63206190D02*
X65267561Y-63063333D01*
X65267561Y-63063333D02*
X65172323Y-62968095D01*
X65172323Y-62968095D02*
X65077085Y-62920476D01*
X65077085Y-62920476D02*
X64886609Y-62872857D01*
X64886609Y-62872857D02*
X64743752Y-62872857D01*
X64743752Y-62872857D02*
X64553276Y-62920476D01*
X64553276Y-62920476D02*
X64458038Y-62968095D01*
X64458038Y-62968095D02*
X64362800Y-63063333D01*
X64362800Y-63063333D02*
X64315180Y-63206190D01*
X64315180Y-63206190D02*
X64315180Y-63444285D01*
X64315180Y-61920476D02*
X64315180Y-62491904D01*
X64315180Y-62206190D02*
X65315180Y-62206190D01*
X65315180Y-62206190D02*
X65172323Y-62301428D01*
X65172323Y-62301428D02*
X65077085Y-62396666D01*
X65077085Y-62396666D02*
X65029466Y-62491904D01*
X64315180Y-60968095D02*
X64315180Y-61539523D01*
X64315180Y-61253809D02*
X65315180Y-61253809D01*
X65315180Y-61253809D02*
X65172323Y-61349047D01*
X65172323Y-61349047D02*
X65077085Y-61444285D01*
X65077085Y-61444285D02*
X65029466Y-61539523D01*
X136705180Y-64142857D02*
X137181371Y-64476190D01*
X136705180Y-64714285D02*
X137705180Y-64714285D01*
X137705180Y-64714285D02*
X137705180Y-64333333D01*
X137705180Y-64333333D02*
X137657561Y-64238095D01*
X137657561Y-64238095D02*
X137609942Y-64190476D01*
X137609942Y-64190476D02*
X137514704Y-64142857D01*
X137514704Y-64142857D02*
X137371847Y-64142857D01*
X137371847Y-64142857D02*
X137276609Y-64190476D01*
X137276609Y-64190476D02*
X137228990Y-64238095D01*
X137228990Y-64238095D02*
X137181371Y-64333333D01*
X137181371Y-64333333D02*
X137181371Y-64714285D01*
X136705180Y-63190476D02*
X136705180Y-63761904D01*
X136705180Y-63476190D02*
X137705180Y-63476190D01*
X137705180Y-63476190D02*
X137562323Y-63571428D01*
X137562323Y-63571428D02*
X137467085Y-63666666D01*
X137467085Y-63666666D02*
X137419466Y-63761904D01*
X137705180Y-62333333D02*
X137705180Y-62523809D01*
X137705180Y-62523809D02*
X137657561Y-62619047D01*
X137657561Y-62619047D02*
X137609942Y-62666666D01*
X137609942Y-62666666D02*
X137467085Y-62761904D01*
X137467085Y-62761904D02*
X137276609Y-62809523D01*
X137276609Y-62809523D02*
X136895657Y-62809523D01*
X136895657Y-62809523D02*
X136800419Y-62761904D01*
X136800419Y-62761904D02*
X136752800Y-62714285D01*
X136752800Y-62714285D02*
X136705180Y-62619047D01*
X136705180Y-62619047D02*
X136705180Y-62428571D01*
X136705180Y-62428571D02*
X136752800Y-62333333D01*
X136752800Y-62333333D02*
X136800419Y-62285714D01*
X136800419Y-62285714D02*
X136895657Y-62238095D01*
X136895657Y-62238095D02*
X137133752Y-62238095D01*
X137133752Y-62238095D02*
X137228990Y-62285714D01*
X137228990Y-62285714D02*
X137276609Y-62333333D01*
X137276609Y-62333333D02*
X137324228Y-62428571D01*
X137324228Y-62428571D02*
X137324228Y-62619047D01*
X137324228Y-62619047D02*
X137276609Y-62714285D01*
X137276609Y-62714285D02*
X137228990Y-62761904D01*
X137228990Y-62761904D02*
X137133752Y-62809523D01*
X52494285Y-64589819D02*
X52494285Y-63589819D01*
X51922857Y-64589819D02*
X52351428Y-64018390D01*
X51922857Y-63589819D02*
X52494285Y-64161247D01*
X51065714Y-63923152D02*
X51065714Y-64589819D01*
X51303809Y-63542200D02*
X51541904Y-64256485D01*
X51541904Y-64256485D02*
X50922857Y-64256485D01*
X50018095Y-64589819D02*
X50589523Y-64589819D01*
X50303809Y-64589819D02*
X50303809Y-63589819D01*
X50303809Y-63589819D02*
X50399047Y-63732676D01*
X50399047Y-63732676D02*
X50494285Y-63827914D01*
X50494285Y-63827914D02*
X50589523Y-63875533D01*
X139340419Y-63467857D02*
X139292800Y-63515476D01*
X139292800Y-63515476D02*
X139245180Y-63658333D01*
X139245180Y-63658333D02*
X139245180Y-63753571D01*
X139245180Y-63753571D02*
X139292800Y-63896428D01*
X139292800Y-63896428D02*
X139388038Y-63991666D01*
X139388038Y-63991666D02*
X139483276Y-64039285D01*
X139483276Y-64039285D02*
X139673752Y-64086904D01*
X139673752Y-64086904D02*
X139816609Y-64086904D01*
X139816609Y-64086904D02*
X140007085Y-64039285D01*
X140007085Y-64039285D02*
X140102323Y-63991666D01*
X140102323Y-63991666D02*
X140197561Y-63896428D01*
X140197561Y-63896428D02*
X140245180Y-63753571D01*
X140245180Y-63753571D02*
X140245180Y-63658333D01*
X140245180Y-63658333D02*
X140197561Y-63515476D01*
X140197561Y-63515476D02*
X140149942Y-63467857D01*
X139245180Y-62515476D02*
X139245180Y-63086904D01*
X139245180Y-62801190D02*
X140245180Y-62801190D01*
X140245180Y-62801190D02*
X140102323Y-62896428D01*
X140102323Y-62896428D02*
X140007085Y-62991666D01*
X140007085Y-62991666D02*
X139959466Y-63086904D01*
X140245180Y-62182142D02*
X140245180Y-61563095D01*
X140245180Y-61563095D02*
X139864228Y-61896428D01*
X139864228Y-61896428D02*
X139864228Y-61753571D01*
X139864228Y-61753571D02*
X139816609Y-61658333D01*
X139816609Y-61658333D02*
X139768990Y-61610714D01*
X139768990Y-61610714D02*
X139673752Y-61563095D01*
X139673752Y-61563095D02*
X139435657Y-61563095D01*
X139435657Y-61563095D02*
X139340419Y-61610714D01*
X139340419Y-61610714D02*
X139292800Y-61658333D01*
X139292800Y-61658333D02*
X139245180Y-61753571D01*
X139245180Y-61753571D02*
X139245180Y-62039285D01*
X139245180Y-62039285D02*
X139292800Y-62134523D01*
X139292800Y-62134523D02*
X139340419Y-62182142D01*
X35893333Y-52159819D02*
X35893333Y-52874104D01*
X35893333Y-52874104D02*
X35940952Y-53016961D01*
X35940952Y-53016961D02*
X36036190Y-53112200D01*
X36036190Y-53112200D02*
X36179047Y-53159819D01*
X36179047Y-53159819D02*
X36274285Y-53159819D01*
X35274285Y-52588390D02*
X35369523Y-52540771D01*
X35369523Y-52540771D02*
X35417142Y-52493152D01*
X35417142Y-52493152D02*
X35464761Y-52397914D01*
X35464761Y-52397914D02*
X35464761Y-52350295D01*
X35464761Y-52350295D02*
X35417142Y-52255057D01*
X35417142Y-52255057D02*
X35369523Y-52207438D01*
X35369523Y-52207438D02*
X35274285Y-52159819D01*
X35274285Y-52159819D02*
X35083809Y-52159819D01*
X35083809Y-52159819D02*
X34988571Y-52207438D01*
X34988571Y-52207438D02*
X34940952Y-52255057D01*
X34940952Y-52255057D02*
X34893333Y-52350295D01*
X34893333Y-52350295D02*
X34893333Y-52397914D01*
X34893333Y-52397914D02*
X34940952Y-52493152D01*
X34940952Y-52493152D02*
X34988571Y-52540771D01*
X34988571Y-52540771D02*
X35083809Y-52588390D01*
X35083809Y-52588390D02*
X35274285Y-52588390D01*
X35274285Y-52588390D02*
X35369523Y-52636009D01*
X35369523Y-52636009D02*
X35417142Y-52683628D01*
X35417142Y-52683628D02*
X35464761Y-52778866D01*
X35464761Y-52778866D02*
X35464761Y-52969342D01*
X35464761Y-52969342D02*
X35417142Y-53064580D01*
X35417142Y-53064580D02*
X35369523Y-53112200D01*
X35369523Y-53112200D02*
X35274285Y-53159819D01*
X35274285Y-53159819D02*
X35083809Y-53159819D01*
X35083809Y-53159819D02*
X34988571Y-53112200D01*
X34988571Y-53112200D02*
X34940952Y-53064580D01*
X34940952Y-53064580D02*
X34893333Y-52969342D01*
X34893333Y-52969342D02*
X34893333Y-52778866D01*
X34893333Y-52778866D02*
X34940952Y-52683628D01*
X34940952Y-52683628D02*
X34988571Y-52636009D01*
X34988571Y-52636009D02*
X35083809Y-52588390D01*
X149405180Y-83192857D02*
X149881371Y-83526190D01*
X149405180Y-83764285D02*
X150405180Y-83764285D01*
X150405180Y-83764285D02*
X150405180Y-83383333D01*
X150405180Y-83383333D02*
X150357561Y-83288095D01*
X150357561Y-83288095D02*
X150309942Y-83240476D01*
X150309942Y-83240476D02*
X150214704Y-83192857D01*
X150214704Y-83192857D02*
X150071847Y-83192857D01*
X150071847Y-83192857D02*
X149976609Y-83240476D01*
X149976609Y-83240476D02*
X149928990Y-83288095D01*
X149928990Y-83288095D02*
X149881371Y-83383333D01*
X149881371Y-83383333D02*
X149881371Y-83764285D01*
X150309942Y-82811904D02*
X150357561Y-82764285D01*
X150357561Y-82764285D02*
X150405180Y-82669047D01*
X150405180Y-82669047D02*
X150405180Y-82430952D01*
X150405180Y-82430952D02*
X150357561Y-82335714D01*
X150357561Y-82335714D02*
X150309942Y-82288095D01*
X150309942Y-82288095D02*
X150214704Y-82240476D01*
X150214704Y-82240476D02*
X150119466Y-82240476D01*
X150119466Y-82240476D02*
X149976609Y-82288095D01*
X149976609Y-82288095D02*
X149405180Y-82859523D01*
X149405180Y-82859523D02*
X149405180Y-82240476D01*
X149405180Y-81764285D02*
X149405180Y-81573809D01*
X149405180Y-81573809D02*
X149452800Y-81478571D01*
X149452800Y-81478571D02*
X149500419Y-81430952D01*
X149500419Y-81430952D02*
X149643276Y-81335714D01*
X149643276Y-81335714D02*
X149833752Y-81288095D01*
X149833752Y-81288095D02*
X150214704Y-81288095D01*
X150214704Y-81288095D02*
X150309942Y-81335714D01*
X150309942Y-81335714D02*
X150357561Y-81383333D01*
X150357561Y-81383333D02*
X150405180Y-81478571D01*
X150405180Y-81478571D02*
X150405180Y-81669047D01*
X150405180Y-81669047D02*
X150357561Y-81764285D01*
X150357561Y-81764285D02*
X150309942Y-81811904D01*
X150309942Y-81811904D02*
X150214704Y-81859523D01*
X150214704Y-81859523D02*
X149976609Y-81859523D01*
X149976609Y-81859523D02*
X149881371Y-81811904D01*
X149881371Y-81811904D02*
X149833752Y-81764285D01*
X149833752Y-81764285D02*
X149786133Y-81669047D01*
X149786133Y-81669047D02*
X149786133Y-81478571D01*
X149786133Y-81478571D02*
X149833752Y-81383333D01*
X149833752Y-81383333D02*
X149881371Y-81335714D01*
X149881371Y-81335714D02*
X149976609Y-81288095D01*
X107590419Y-60967857D02*
X107542800Y-61015476D01*
X107542800Y-61015476D02*
X107495180Y-61158333D01*
X107495180Y-61158333D02*
X107495180Y-61253571D01*
X107495180Y-61253571D02*
X107542800Y-61396428D01*
X107542800Y-61396428D02*
X107638038Y-61491666D01*
X107638038Y-61491666D02*
X107733276Y-61539285D01*
X107733276Y-61539285D02*
X107923752Y-61586904D01*
X107923752Y-61586904D02*
X108066609Y-61586904D01*
X108066609Y-61586904D02*
X108257085Y-61539285D01*
X108257085Y-61539285D02*
X108352323Y-61491666D01*
X108352323Y-61491666D02*
X108447561Y-61396428D01*
X108447561Y-61396428D02*
X108495180Y-61253571D01*
X108495180Y-61253571D02*
X108495180Y-61158333D01*
X108495180Y-61158333D02*
X108447561Y-61015476D01*
X108447561Y-61015476D02*
X108399942Y-60967857D01*
X108399942Y-60586904D02*
X108447561Y-60539285D01*
X108447561Y-60539285D02*
X108495180Y-60444047D01*
X108495180Y-60444047D02*
X108495180Y-60205952D01*
X108495180Y-60205952D02*
X108447561Y-60110714D01*
X108447561Y-60110714D02*
X108399942Y-60063095D01*
X108399942Y-60063095D02*
X108304704Y-60015476D01*
X108304704Y-60015476D02*
X108209466Y-60015476D01*
X108209466Y-60015476D02*
X108066609Y-60063095D01*
X108066609Y-60063095D02*
X107495180Y-60634523D01*
X107495180Y-60634523D02*
X107495180Y-60015476D01*
X108399942Y-59634523D02*
X108447561Y-59586904D01*
X108447561Y-59586904D02*
X108495180Y-59491666D01*
X108495180Y-59491666D02*
X108495180Y-59253571D01*
X108495180Y-59253571D02*
X108447561Y-59158333D01*
X108447561Y-59158333D02*
X108399942Y-59110714D01*
X108399942Y-59110714D02*
X108304704Y-59063095D01*
X108304704Y-59063095D02*
X108209466Y-59063095D01*
X108209466Y-59063095D02*
X108066609Y-59110714D01*
X108066609Y-59110714D02*
X107495180Y-59682142D01*
X107495180Y-59682142D02*
X107495180Y-59063095D01*
X38915180Y-63444285D02*
X39915180Y-63444285D01*
X39915180Y-63444285D02*
X39915180Y-63206190D01*
X39915180Y-63206190D02*
X39867561Y-63063333D01*
X39867561Y-63063333D02*
X39772323Y-62968095D01*
X39772323Y-62968095D02*
X39677085Y-62920476D01*
X39677085Y-62920476D02*
X39486609Y-62872857D01*
X39486609Y-62872857D02*
X39343752Y-62872857D01*
X39343752Y-62872857D02*
X39153276Y-62920476D01*
X39153276Y-62920476D02*
X39058038Y-62968095D01*
X39058038Y-62968095D02*
X38962800Y-63063333D01*
X38962800Y-63063333D02*
X38915180Y-63206190D01*
X38915180Y-63206190D02*
X38915180Y-63444285D01*
X39581847Y-62015714D02*
X38915180Y-62015714D01*
X39962800Y-62253809D02*
X39248514Y-62491904D01*
X39248514Y-62491904D02*
X39248514Y-61872857D01*
X38915180Y-60968095D02*
X38915180Y-61539523D01*
X38915180Y-61253809D02*
X39915180Y-61253809D01*
X39915180Y-61253809D02*
X39772323Y-61349047D01*
X39772323Y-61349047D02*
X39677085Y-61444285D01*
X39677085Y-61444285D02*
X39629466Y-61539523D01*
X50339523Y-90894819D02*
X50339523Y-91609104D01*
X50339523Y-91609104D02*
X50387142Y-91751961D01*
X50387142Y-91751961D02*
X50482380Y-91847200D01*
X50482380Y-91847200D02*
X50625237Y-91894819D01*
X50625237Y-91894819D02*
X50720475Y-91894819D01*
X49434761Y-91228152D02*
X49434761Y-91894819D01*
X49672856Y-90847200D02*
X49910951Y-91561485D01*
X49910951Y-91561485D02*
X49291904Y-91561485D01*
X48387142Y-91894819D02*
X48958570Y-91894819D01*
X48672856Y-91894819D02*
X48672856Y-90894819D01*
X48672856Y-90894819D02*
X48768094Y-91037676D01*
X48768094Y-91037676D02*
X48863332Y-91132914D01*
X48863332Y-91132914D02*
X48958570Y-91180533D01*
X35099523Y-68879819D02*
X35099523Y-69594104D01*
X35099523Y-69594104D02*
X35147142Y-69736961D01*
X35147142Y-69736961D02*
X35242380Y-69832200D01*
X35242380Y-69832200D02*
X35385237Y-69879819D01*
X35385237Y-69879819D02*
X35480475Y-69879819D01*
X34194761Y-69213152D02*
X34194761Y-69879819D01*
X34432856Y-68832200D02*
X34670951Y-69546485D01*
X34670951Y-69546485D02*
X34051904Y-69546485D01*
X33766189Y-68879819D02*
X33147142Y-68879819D01*
X33147142Y-68879819D02*
X33480475Y-69260771D01*
X33480475Y-69260771D02*
X33337618Y-69260771D01*
X33337618Y-69260771D02*
X33242380Y-69308390D01*
X33242380Y-69308390D02*
X33194761Y-69356009D01*
X33194761Y-69356009D02*
X33147142Y-69451247D01*
X33147142Y-69451247D02*
X33147142Y-69689342D01*
X33147142Y-69689342D02*
X33194761Y-69784580D01*
X33194761Y-69784580D02*
X33242380Y-69832200D01*
X33242380Y-69832200D02*
X33337618Y-69879819D01*
X33337618Y-69879819D02*
X33623332Y-69879819D01*
X33623332Y-69879819D02*
X33718570Y-69832200D01*
X33718570Y-69832200D02*
X33766189Y-69784580D01*
X90985180Y-66047857D02*
X91461371Y-66381190D01*
X90985180Y-66619285D02*
X91985180Y-66619285D01*
X91985180Y-66619285D02*
X91985180Y-66238333D01*
X91985180Y-66238333D02*
X91937561Y-66143095D01*
X91937561Y-66143095D02*
X91889942Y-66095476D01*
X91889942Y-66095476D02*
X91794704Y-66047857D01*
X91794704Y-66047857D02*
X91651847Y-66047857D01*
X91651847Y-66047857D02*
X91556609Y-66095476D01*
X91556609Y-66095476D02*
X91508990Y-66143095D01*
X91508990Y-66143095D02*
X91461371Y-66238333D01*
X91461371Y-66238333D02*
X91461371Y-66619285D01*
X90985180Y-65095476D02*
X90985180Y-65666904D01*
X90985180Y-65381190D02*
X91985180Y-65381190D01*
X91985180Y-65381190D02*
X91842323Y-65476428D01*
X91842323Y-65476428D02*
X91747085Y-65571666D01*
X91747085Y-65571666D02*
X91699466Y-65666904D01*
X91985180Y-64762142D02*
X91985180Y-64143095D01*
X91985180Y-64143095D02*
X91604228Y-64476428D01*
X91604228Y-64476428D02*
X91604228Y-64333571D01*
X91604228Y-64333571D02*
X91556609Y-64238333D01*
X91556609Y-64238333D02*
X91508990Y-64190714D01*
X91508990Y-64190714D02*
X91413752Y-64143095D01*
X91413752Y-64143095D02*
X91175657Y-64143095D01*
X91175657Y-64143095D02*
X91080419Y-64190714D01*
X91080419Y-64190714D02*
X91032800Y-64238333D01*
X91032800Y-64238333D02*
X90985180Y-64333571D01*
X90985180Y-64333571D02*
X90985180Y-64619285D01*
X90985180Y-64619285D02*
X91032800Y-64714523D01*
X91032800Y-64714523D02*
X91080419Y-64762142D01*
X136056666Y-90624819D02*
X136389999Y-90148628D01*
X136628094Y-90624819D02*
X136628094Y-89624819D01*
X136628094Y-89624819D02*
X136247142Y-89624819D01*
X136247142Y-89624819D02*
X136151904Y-89672438D01*
X136151904Y-89672438D02*
X136104285Y-89720057D01*
X136104285Y-89720057D02*
X136056666Y-89815295D01*
X136056666Y-89815295D02*
X136056666Y-89958152D01*
X136056666Y-89958152D02*
X136104285Y-90053390D01*
X136104285Y-90053390D02*
X136151904Y-90101009D01*
X136151904Y-90101009D02*
X136247142Y-90148628D01*
X136247142Y-90148628D02*
X136628094Y-90148628D01*
X135723332Y-89624819D02*
X135104285Y-89624819D01*
X135104285Y-89624819D02*
X135437618Y-90005771D01*
X135437618Y-90005771D02*
X135294761Y-90005771D01*
X135294761Y-90005771D02*
X135199523Y-90053390D01*
X135199523Y-90053390D02*
X135151904Y-90101009D01*
X135151904Y-90101009D02*
X135104285Y-90196247D01*
X135104285Y-90196247D02*
X135104285Y-90434342D01*
X135104285Y-90434342D02*
X135151904Y-90529580D01*
X135151904Y-90529580D02*
X135199523Y-90577200D01*
X135199523Y-90577200D02*
X135294761Y-90624819D01*
X135294761Y-90624819D02*
X135580475Y-90624819D01*
X135580475Y-90624819D02*
X135675713Y-90577200D01*
X135675713Y-90577200D02*
X135723332Y-90529580D01*
X153215180Y-83192857D02*
X153691371Y-83526190D01*
X153215180Y-83764285D02*
X154215180Y-83764285D01*
X154215180Y-83764285D02*
X154215180Y-83383333D01*
X154215180Y-83383333D02*
X154167561Y-83288095D01*
X154167561Y-83288095D02*
X154119942Y-83240476D01*
X154119942Y-83240476D02*
X154024704Y-83192857D01*
X154024704Y-83192857D02*
X153881847Y-83192857D01*
X153881847Y-83192857D02*
X153786609Y-83240476D01*
X153786609Y-83240476D02*
X153738990Y-83288095D01*
X153738990Y-83288095D02*
X153691371Y-83383333D01*
X153691371Y-83383333D02*
X153691371Y-83764285D01*
X154119942Y-82811904D02*
X154167561Y-82764285D01*
X154167561Y-82764285D02*
X154215180Y-82669047D01*
X154215180Y-82669047D02*
X154215180Y-82430952D01*
X154215180Y-82430952D02*
X154167561Y-82335714D01*
X154167561Y-82335714D02*
X154119942Y-82288095D01*
X154119942Y-82288095D02*
X154024704Y-82240476D01*
X154024704Y-82240476D02*
X153929466Y-82240476D01*
X153929466Y-82240476D02*
X153786609Y-82288095D01*
X153786609Y-82288095D02*
X153215180Y-82859523D01*
X153215180Y-82859523D02*
X153215180Y-82240476D01*
X153786609Y-81669047D02*
X153834228Y-81764285D01*
X153834228Y-81764285D02*
X153881847Y-81811904D01*
X153881847Y-81811904D02*
X153977085Y-81859523D01*
X153977085Y-81859523D02*
X154024704Y-81859523D01*
X154024704Y-81859523D02*
X154119942Y-81811904D01*
X154119942Y-81811904D02*
X154167561Y-81764285D01*
X154167561Y-81764285D02*
X154215180Y-81669047D01*
X154215180Y-81669047D02*
X154215180Y-81478571D01*
X154215180Y-81478571D02*
X154167561Y-81383333D01*
X154167561Y-81383333D02*
X154119942Y-81335714D01*
X154119942Y-81335714D02*
X154024704Y-81288095D01*
X154024704Y-81288095D02*
X153977085Y-81288095D01*
X153977085Y-81288095D02*
X153881847Y-81335714D01*
X153881847Y-81335714D02*
X153834228Y-81383333D01*
X153834228Y-81383333D02*
X153786609Y-81478571D01*
X153786609Y-81478571D02*
X153786609Y-81669047D01*
X153786609Y-81669047D02*
X153738990Y-81764285D01*
X153738990Y-81764285D02*
X153691371Y-81811904D01*
X153691371Y-81811904D02*
X153596133Y-81859523D01*
X153596133Y-81859523D02*
X153405657Y-81859523D01*
X153405657Y-81859523D02*
X153310419Y-81811904D01*
X153310419Y-81811904D02*
X153262800Y-81764285D01*
X153262800Y-81764285D02*
X153215180Y-81669047D01*
X153215180Y-81669047D02*
X153215180Y-81478571D01*
X153215180Y-81478571D02*
X153262800Y-81383333D01*
X153262800Y-81383333D02*
X153310419Y-81335714D01*
X153310419Y-81335714D02*
X153405657Y-81288095D01*
X153405657Y-81288095D02*
X153596133Y-81288095D01*
X153596133Y-81288095D02*
X153691371Y-81335714D01*
X153691371Y-81335714D02*
X153738990Y-81383333D01*
X153738990Y-81383333D02*
X153786609Y-81478571D01*
X77894285Y-81099819D02*
X77894285Y-80099819D01*
X77322857Y-81099819D02*
X77751428Y-80528390D01*
X77322857Y-80099819D02*
X77894285Y-80671247D01*
X76941904Y-80195057D02*
X76894285Y-80147438D01*
X76894285Y-80147438D02*
X76799047Y-80099819D01*
X76799047Y-80099819D02*
X76560952Y-80099819D01*
X76560952Y-80099819D02*
X76465714Y-80147438D01*
X76465714Y-80147438D02*
X76418095Y-80195057D01*
X76418095Y-80195057D02*
X76370476Y-80290295D01*
X76370476Y-80290295D02*
X76370476Y-80385533D01*
X76370476Y-80385533D02*
X76418095Y-80528390D01*
X76418095Y-80528390D02*
X76989523Y-81099819D01*
X76989523Y-81099819D02*
X76370476Y-81099819D01*
X75418095Y-81099819D02*
X75989523Y-81099819D01*
X75703809Y-81099819D02*
X75703809Y-80099819D01*
X75703809Y-80099819D02*
X75799047Y-80242676D01*
X75799047Y-80242676D02*
X75894285Y-80337914D01*
X75894285Y-80337914D02*
X75989523Y-80385533D01*
X103685180Y-55887857D02*
X104161371Y-56221190D01*
X103685180Y-56459285D02*
X104685180Y-56459285D01*
X104685180Y-56459285D02*
X104685180Y-56078333D01*
X104685180Y-56078333D02*
X104637561Y-55983095D01*
X104637561Y-55983095D02*
X104589942Y-55935476D01*
X104589942Y-55935476D02*
X104494704Y-55887857D01*
X104494704Y-55887857D02*
X104351847Y-55887857D01*
X104351847Y-55887857D02*
X104256609Y-55935476D01*
X104256609Y-55935476D02*
X104208990Y-55983095D01*
X104208990Y-55983095D02*
X104161371Y-56078333D01*
X104161371Y-56078333D02*
X104161371Y-56459285D01*
X104589942Y-55506904D02*
X104637561Y-55459285D01*
X104637561Y-55459285D02*
X104685180Y-55364047D01*
X104685180Y-55364047D02*
X104685180Y-55125952D01*
X104685180Y-55125952D02*
X104637561Y-55030714D01*
X104637561Y-55030714D02*
X104589942Y-54983095D01*
X104589942Y-54983095D02*
X104494704Y-54935476D01*
X104494704Y-54935476D02*
X104399466Y-54935476D01*
X104399466Y-54935476D02*
X104256609Y-54983095D01*
X104256609Y-54983095D02*
X103685180Y-55554523D01*
X103685180Y-55554523D02*
X103685180Y-54935476D01*
X104685180Y-54030714D02*
X104685180Y-54506904D01*
X104685180Y-54506904D02*
X104208990Y-54554523D01*
X104208990Y-54554523D02*
X104256609Y-54506904D01*
X104256609Y-54506904D02*
X104304228Y-54411666D01*
X104304228Y-54411666D02*
X104304228Y-54173571D01*
X104304228Y-54173571D02*
X104256609Y-54078333D01*
X104256609Y-54078333D02*
X104208990Y-54030714D01*
X104208990Y-54030714D02*
X104113752Y-53983095D01*
X104113752Y-53983095D02*
X103875657Y-53983095D01*
X103875657Y-53983095D02*
X103780419Y-54030714D01*
X103780419Y-54030714D02*
X103732800Y-54078333D01*
X103732800Y-54078333D02*
X103685180Y-54173571D01*
X103685180Y-54173571D02*
X103685180Y-54411666D01*
X103685180Y-54411666D02*
X103732800Y-54506904D01*
X103732800Y-54506904D02*
X103780419Y-54554523D01*
X64315180Y-79954285D02*
X65315180Y-79954285D01*
X65315180Y-79954285D02*
X65315180Y-79716190D01*
X65315180Y-79716190D02*
X65267561Y-79573333D01*
X65267561Y-79573333D02*
X65172323Y-79478095D01*
X65172323Y-79478095D02*
X65077085Y-79430476D01*
X65077085Y-79430476D02*
X64886609Y-79382857D01*
X64886609Y-79382857D02*
X64743752Y-79382857D01*
X64743752Y-79382857D02*
X64553276Y-79430476D01*
X64553276Y-79430476D02*
X64458038Y-79478095D01*
X64458038Y-79478095D02*
X64362800Y-79573333D01*
X64362800Y-79573333D02*
X64315180Y-79716190D01*
X64315180Y-79716190D02*
X64315180Y-79954285D01*
X65219942Y-79001904D02*
X65267561Y-78954285D01*
X65267561Y-78954285D02*
X65315180Y-78859047D01*
X65315180Y-78859047D02*
X65315180Y-78620952D01*
X65315180Y-78620952D02*
X65267561Y-78525714D01*
X65267561Y-78525714D02*
X65219942Y-78478095D01*
X65219942Y-78478095D02*
X65124704Y-78430476D01*
X65124704Y-78430476D02*
X65029466Y-78430476D01*
X65029466Y-78430476D02*
X64886609Y-78478095D01*
X64886609Y-78478095D02*
X64315180Y-79049523D01*
X64315180Y-79049523D02*
X64315180Y-78430476D01*
X64315180Y-77478095D02*
X64315180Y-78049523D01*
X64315180Y-77763809D02*
X65315180Y-77763809D01*
X65315180Y-77763809D02*
X65172323Y-77859047D01*
X65172323Y-77859047D02*
X65077085Y-77954285D01*
X65077085Y-77954285D02*
X65029466Y-78049523D01*
X151022857Y-75289580D02*
X151070476Y-75337200D01*
X151070476Y-75337200D02*
X151213333Y-75384819D01*
X151213333Y-75384819D02*
X151308571Y-75384819D01*
X151308571Y-75384819D02*
X151451428Y-75337200D01*
X151451428Y-75337200D02*
X151546666Y-75241961D01*
X151546666Y-75241961D02*
X151594285Y-75146723D01*
X151594285Y-75146723D02*
X151641904Y-74956247D01*
X151641904Y-74956247D02*
X151641904Y-74813390D01*
X151641904Y-74813390D02*
X151594285Y-74622914D01*
X151594285Y-74622914D02*
X151546666Y-74527676D01*
X151546666Y-74527676D02*
X151451428Y-74432438D01*
X151451428Y-74432438D02*
X151308571Y-74384819D01*
X151308571Y-74384819D02*
X151213333Y-74384819D01*
X151213333Y-74384819D02*
X151070476Y-74432438D01*
X151070476Y-74432438D02*
X151022857Y-74480057D01*
X150641904Y-74480057D02*
X150594285Y-74432438D01*
X150594285Y-74432438D02*
X150499047Y-74384819D01*
X150499047Y-74384819D02*
X150260952Y-74384819D01*
X150260952Y-74384819D02*
X150165714Y-74432438D01*
X150165714Y-74432438D02*
X150118095Y-74480057D01*
X150118095Y-74480057D02*
X150070476Y-74575295D01*
X150070476Y-74575295D02*
X150070476Y-74670533D01*
X150070476Y-74670533D02*
X150118095Y-74813390D01*
X150118095Y-74813390D02*
X150689523Y-75384819D01*
X150689523Y-75384819D02*
X150070476Y-75384819D01*
X149213333Y-74718152D02*
X149213333Y-75384819D01*
X149451428Y-74337200D02*
X149689523Y-75051485D01*
X149689523Y-75051485D02*
X149070476Y-75051485D01*
X140515180Y-55887857D02*
X140991371Y-56221190D01*
X140515180Y-56459285D02*
X141515180Y-56459285D01*
X141515180Y-56459285D02*
X141515180Y-56078333D01*
X141515180Y-56078333D02*
X141467561Y-55983095D01*
X141467561Y-55983095D02*
X141419942Y-55935476D01*
X141419942Y-55935476D02*
X141324704Y-55887857D01*
X141324704Y-55887857D02*
X141181847Y-55887857D01*
X141181847Y-55887857D02*
X141086609Y-55935476D01*
X141086609Y-55935476D02*
X141038990Y-55983095D01*
X141038990Y-55983095D02*
X140991371Y-56078333D01*
X140991371Y-56078333D02*
X140991371Y-56459285D01*
X141515180Y-54983095D02*
X141515180Y-55459285D01*
X141515180Y-55459285D02*
X141038990Y-55506904D01*
X141038990Y-55506904D02*
X141086609Y-55459285D01*
X141086609Y-55459285D02*
X141134228Y-55364047D01*
X141134228Y-55364047D02*
X141134228Y-55125952D01*
X141134228Y-55125952D02*
X141086609Y-55030714D01*
X141086609Y-55030714D02*
X141038990Y-54983095D01*
X141038990Y-54983095D02*
X140943752Y-54935476D01*
X140943752Y-54935476D02*
X140705657Y-54935476D01*
X140705657Y-54935476D02*
X140610419Y-54983095D01*
X140610419Y-54983095D02*
X140562800Y-55030714D01*
X140562800Y-55030714D02*
X140515180Y-55125952D01*
X140515180Y-55125952D02*
X140515180Y-55364047D01*
X140515180Y-55364047D02*
X140562800Y-55459285D01*
X140562800Y-55459285D02*
X140610419Y-55506904D01*
X141515180Y-54030714D02*
X141515180Y-54506904D01*
X141515180Y-54506904D02*
X141038990Y-54554523D01*
X141038990Y-54554523D02*
X141086609Y-54506904D01*
X141086609Y-54506904D02*
X141134228Y-54411666D01*
X141134228Y-54411666D02*
X141134228Y-54173571D01*
X141134228Y-54173571D02*
X141086609Y-54078333D01*
X141086609Y-54078333D02*
X141038990Y-54030714D01*
X141038990Y-54030714D02*
X140943752Y-53983095D01*
X140943752Y-53983095D02*
X140705657Y-53983095D01*
X140705657Y-53983095D02*
X140610419Y-54030714D01*
X140610419Y-54030714D02*
X140562800Y-54078333D01*
X140562800Y-54078333D02*
X140515180Y-54173571D01*
X140515180Y-54173571D02*
X140515180Y-54411666D01*
X140515180Y-54411666D02*
X140562800Y-54506904D01*
X140562800Y-54506904D02*
X140610419Y-54554523D01*
X136705180Y-71762857D02*
X137181371Y-72096190D01*
X136705180Y-72334285D02*
X137705180Y-72334285D01*
X137705180Y-72334285D02*
X137705180Y-71953333D01*
X137705180Y-71953333D02*
X137657561Y-71858095D01*
X137657561Y-71858095D02*
X137609942Y-71810476D01*
X137609942Y-71810476D02*
X137514704Y-71762857D01*
X137514704Y-71762857D02*
X137371847Y-71762857D01*
X137371847Y-71762857D02*
X137276609Y-71810476D01*
X137276609Y-71810476D02*
X137228990Y-71858095D01*
X137228990Y-71858095D02*
X137181371Y-71953333D01*
X137181371Y-71953333D02*
X137181371Y-72334285D01*
X136705180Y-70810476D02*
X136705180Y-71381904D01*
X136705180Y-71096190D02*
X137705180Y-71096190D01*
X137705180Y-71096190D02*
X137562323Y-71191428D01*
X137562323Y-71191428D02*
X137467085Y-71286666D01*
X137467085Y-71286666D02*
X137419466Y-71381904D01*
X137705180Y-70477142D02*
X137705180Y-69810476D01*
X137705180Y-69810476D02*
X136705180Y-70239047D01*
X123614285Y-64589819D02*
X123614285Y-63589819D01*
X123042857Y-64589819D02*
X123471428Y-64018390D01*
X123042857Y-63589819D02*
X123614285Y-64161247D01*
X122090476Y-64589819D02*
X122661904Y-64589819D01*
X122376190Y-64589819D02*
X122376190Y-63589819D01*
X122376190Y-63589819D02*
X122471428Y-63732676D01*
X122471428Y-63732676D02*
X122566666Y-63827914D01*
X122566666Y-63827914D02*
X122661904Y-63875533D01*
X121709523Y-63685057D02*
X121661904Y-63637438D01*
X121661904Y-63637438D02*
X121566666Y-63589819D01*
X121566666Y-63589819D02*
X121328571Y-63589819D01*
X121328571Y-63589819D02*
X121233333Y-63637438D01*
X121233333Y-63637438D02*
X121185714Y-63685057D01*
X121185714Y-63685057D02*
X121138095Y-63780295D01*
X121138095Y-63780295D02*
X121138095Y-63875533D01*
X121138095Y-63875533D02*
X121185714Y-64018390D01*
X121185714Y-64018390D02*
X121757142Y-64589819D01*
X121757142Y-64589819D02*
X121138095Y-64589819D01*
X95821428Y-69765057D02*
X95916666Y-69717438D01*
X95916666Y-69717438D02*
X96011904Y-69622200D01*
X96011904Y-69622200D02*
X96154761Y-69479342D01*
X96154761Y-69479342D02*
X96249999Y-69431723D01*
X96249999Y-69431723D02*
X96345237Y-69431723D01*
X96297618Y-69669819D02*
X96392856Y-69622200D01*
X96392856Y-69622200D02*
X96488094Y-69526961D01*
X96488094Y-69526961D02*
X96535713Y-69336485D01*
X96535713Y-69336485D02*
X96535713Y-69003152D01*
X96535713Y-69003152D02*
X96488094Y-68812676D01*
X96488094Y-68812676D02*
X96392856Y-68717438D01*
X96392856Y-68717438D02*
X96297618Y-68669819D01*
X96297618Y-68669819D02*
X96107142Y-68669819D01*
X96107142Y-68669819D02*
X96011904Y-68717438D01*
X96011904Y-68717438D02*
X95916666Y-68812676D01*
X95916666Y-68812676D02*
X95869047Y-69003152D01*
X95869047Y-69003152D02*
X95869047Y-69336485D01*
X95869047Y-69336485D02*
X95916666Y-69526961D01*
X95916666Y-69526961D02*
X96011904Y-69622200D01*
X96011904Y-69622200D02*
X96107142Y-69669819D01*
X96107142Y-69669819D02*
X96297618Y-69669819D01*
X94916666Y-69669819D02*
X95488094Y-69669819D01*
X95202380Y-69669819D02*
X95202380Y-68669819D01*
X95202380Y-68669819D02*
X95297618Y-68812676D01*
X95297618Y-68812676D02*
X95392856Y-68907914D01*
X95392856Y-68907914D02*
X95488094Y-68955533D01*
X94535713Y-68765057D02*
X94488094Y-68717438D01*
X94488094Y-68717438D02*
X94392856Y-68669819D01*
X94392856Y-68669819D02*
X94154761Y-68669819D01*
X94154761Y-68669819D02*
X94059523Y-68717438D01*
X94059523Y-68717438D02*
X94011904Y-68765057D01*
X94011904Y-68765057D02*
X93964285Y-68860295D01*
X93964285Y-68860295D02*
X93964285Y-68955533D01*
X93964285Y-68955533D02*
X94011904Y-69098390D01*
X94011904Y-69098390D02*
X94583332Y-69669819D01*
X94583332Y-69669819D02*
X93964285Y-69669819D01*
X105981428Y-69765057D02*
X106076666Y-69717438D01*
X106076666Y-69717438D02*
X106171904Y-69622200D01*
X106171904Y-69622200D02*
X106314761Y-69479342D01*
X106314761Y-69479342D02*
X106409999Y-69431723D01*
X106409999Y-69431723D02*
X106505237Y-69431723D01*
X106457618Y-69669819D02*
X106552856Y-69622200D01*
X106552856Y-69622200D02*
X106648094Y-69526961D01*
X106648094Y-69526961D02*
X106695713Y-69336485D01*
X106695713Y-69336485D02*
X106695713Y-69003152D01*
X106695713Y-69003152D02*
X106648094Y-68812676D01*
X106648094Y-68812676D02*
X106552856Y-68717438D01*
X106552856Y-68717438D02*
X106457618Y-68669819D01*
X106457618Y-68669819D02*
X106267142Y-68669819D01*
X106267142Y-68669819D02*
X106171904Y-68717438D01*
X106171904Y-68717438D02*
X106076666Y-68812676D01*
X106076666Y-68812676D02*
X106029047Y-69003152D01*
X106029047Y-69003152D02*
X106029047Y-69336485D01*
X106029047Y-69336485D02*
X106076666Y-69526961D01*
X106076666Y-69526961D02*
X106171904Y-69622200D01*
X106171904Y-69622200D02*
X106267142Y-69669819D01*
X106267142Y-69669819D02*
X106457618Y-69669819D01*
X105648094Y-68765057D02*
X105600475Y-68717438D01*
X105600475Y-68717438D02*
X105505237Y-68669819D01*
X105505237Y-68669819D02*
X105267142Y-68669819D01*
X105267142Y-68669819D02*
X105171904Y-68717438D01*
X105171904Y-68717438D02*
X105124285Y-68765057D01*
X105124285Y-68765057D02*
X105076666Y-68860295D01*
X105076666Y-68860295D02*
X105076666Y-68955533D01*
X105076666Y-68955533D02*
X105124285Y-69098390D01*
X105124285Y-69098390D02*
X105695713Y-69669819D01*
X105695713Y-69669819D02*
X105076666Y-69669819D01*
X104695713Y-68765057D02*
X104648094Y-68717438D01*
X104648094Y-68717438D02*
X104552856Y-68669819D01*
X104552856Y-68669819D02*
X104314761Y-68669819D01*
X104314761Y-68669819D02*
X104219523Y-68717438D01*
X104219523Y-68717438D02*
X104171904Y-68765057D01*
X104171904Y-68765057D02*
X104124285Y-68860295D01*
X104124285Y-68860295D02*
X104124285Y-68955533D01*
X104124285Y-68955533D02*
X104171904Y-69098390D01*
X104171904Y-69098390D02*
X104743332Y-69669819D01*
X104743332Y-69669819D02*
X104124285Y-69669819D01*
X148135180Y-71762857D02*
X148611371Y-72096190D01*
X148135180Y-72334285D02*
X149135180Y-72334285D01*
X149135180Y-72334285D02*
X149135180Y-71953333D01*
X149135180Y-71953333D02*
X149087561Y-71858095D01*
X149087561Y-71858095D02*
X149039942Y-71810476D01*
X149039942Y-71810476D02*
X148944704Y-71762857D01*
X148944704Y-71762857D02*
X148801847Y-71762857D01*
X148801847Y-71762857D02*
X148706609Y-71810476D01*
X148706609Y-71810476D02*
X148658990Y-71858095D01*
X148658990Y-71858095D02*
X148611371Y-71953333D01*
X148611371Y-71953333D02*
X148611371Y-72334285D01*
X149039942Y-71381904D02*
X149087561Y-71334285D01*
X149087561Y-71334285D02*
X149135180Y-71239047D01*
X149135180Y-71239047D02*
X149135180Y-71000952D01*
X149135180Y-71000952D02*
X149087561Y-70905714D01*
X149087561Y-70905714D02*
X149039942Y-70858095D01*
X149039942Y-70858095D02*
X148944704Y-70810476D01*
X148944704Y-70810476D02*
X148849466Y-70810476D01*
X148849466Y-70810476D02*
X148706609Y-70858095D01*
X148706609Y-70858095D02*
X148135180Y-71429523D01*
X148135180Y-71429523D02*
X148135180Y-70810476D01*
X149135180Y-70477142D02*
X149135180Y-69810476D01*
X149135180Y-69810476D02*
X148135180Y-70239047D01*
X123614285Y-81099819D02*
X123614285Y-80099819D01*
X123042857Y-81099819D02*
X123471428Y-80528390D01*
X123042857Y-80099819D02*
X123614285Y-80671247D01*
X122661904Y-80195057D02*
X122614285Y-80147438D01*
X122614285Y-80147438D02*
X122519047Y-80099819D01*
X122519047Y-80099819D02*
X122280952Y-80099819D01*
X122280952Y-80099819D02*
X122185714Y-80147438D01*
X122185714Y-80147438D02*
X122138095Y-80195057D01*
X122138095Y-80195057D02*
X122090476Y-80290295D01*
X122090476Y-80290295D02*
X122090476Y-80385533D01*
X122090476Y-80385533D02*
X122138095Y-80528390D01*
X122138095Y-80528390D02*
X122709523Y-81099819D01*
X122709523Y-81099819D02*
X122090476Y-81099819D01*
X121709523Y-80195057D02*
X121661904Y-80147438D01*
X121661904Y-80147438D02*
X121566666Y-80099819D01*
X121566666Y-80099819D02*
X121328571Y-80099819D01*
X121328571Y-80099819D02*
X121233333Y-80147438D01*
X121233333Y-80147438D02*
X121185714Y-80195057D01*
X121185714Y-80195057D02*
X121138095Y-80290295D01*
X121138095Y-80290295D02*
X121138095Y-80385533D01*
X121138095Y-80385533D02*
X121185714Y-80528390D01*
X121185714Y-80528390D02*
X121757142Y-81099819D01*
X121757142Y-81099819D02*
X121138095Y-81099819D01*
X72088333Y-88989819D02*
X72088333Y-89704104D01*
X72088333Y-89704104D02*
X72135952Y-89846961D01*
X72135952Y-89846961D02*
X72231190Y-89942200D01*
X72231190Y-89942200D02*
X72374047Y-89989819D01*
X72374047Y-89989819D02*
X72469285Y-89989819D01*
X71183571Y-89323152D02*
X71183571Y-89989819D01*
X71421666Y-88942200D02*
X71659761Y-89656485D01*
X71659761Y-89656485D02*
X71040714Y-89656485D01*
X38915180Y-79954285D02*
X39915180Y-79954285D01*
X39915180Y-79954285D02*
X39915180Y-79716190D01*
X39915180Y-79716190D02*
X39867561Y-79573333D01*
X39867561Y-79573333D02*
X39772323Y-79478095D01*
X39772323Y-79478095D02*
X39677085Y-79430476D01*
X39677085Y-79430476D02*
X39486609Y-79382857D01*
X39486609Y-79382857D02*
X39343752Y-79382857D01*
X39343752Y-79382857D02*
X39153276Y-79430476D01*
X39153276Y-79430476D02*
X39058038Y-79478095D01*
X39058038Y-79478095D02*
X38962800Y-79573333D01*
X38962800Y-79573333D02*
X38915180Y-79716190D01*
X38915180Y-79716190D02*
X38915180Y-79954285D01*
X39581847Y-78525714D02*
X38915180Y-78525714D01*
X39962800Y-78763809D02*
X39248514Y-79001904D01*
X39248514Y-79001904D02*
X39248514Y-78382857D01*
X39819942Y-78049523D02*
X39867561Y-78001904D01*
X39867561Y-78001904D02*
X39915180Y-77906666D01*
X39915180Y-77906666D02*
X39915180Y-77668571D01*
X39915180Y-77668571D02*
X39867561Y-77573333D01*
X39867561Y-77573333D02*
X39819942Y-77525714D01*
X39819942Y-77525714D02*
X39724704Y-77478095D01*
X39724704Y-77478095D02*
X39629466Y-77478095D01*
X39629466Y-77478095D02*
X39486609Y-77525714D01*
X39486609Y-77525714D02*
X38915180Y-78097142D01*
X38915180Y-78097142D02*
X38915180Y-77478095D01*
X108283333Y-88989819D02*
X108283333Y-89704104D01*
X108283333Y-89704104D02*
X108330952Y-89846961D01*
X108330952Y-89846961D02*
X108426190Y-89942200D01*
X108426190Y-89942200D02*
X108569047Y-89989819D01*
X108569047Y-89989819D02*
X108664285Y-89989819D01*
X107854761Y-89085057D02*
X107807142Y-89037438D01*
X107807142Y-89037438D02*
X107711904Y-88989819D01*
X107711904Y-88989819D02*
X107473809Y-88989819D01*
X107473809Y-88989819D02*
X107378571Y-89037438D01*
X107378571Y-89037438D02*
X107330952Y-89085057D01*
X107330952Y-89085057D02*
X107283333Y-89180295D01*
X107283333Y-89180295D02*
X107283333Y-89275533D01*
X107283333Y-89275533D02*
X107330952Y-89418390D01*
X107330952Y-89418390D02*
X107902380Y-89989819D01*
X107902380Y-89989819D02*
X107283333Y-89989819D01*
X97335180Y-55887857D02*
X97811371Y-56221190D01*
X97335180Y-56459285D02*
X98335180Y-56459285D01*
X98335180Y-56459285D02*
X98335180Y-56078333D01*
X98335180Y-56078333D02*
X98287561Y-55983095D01*
X98287561Y-55983095D02*
X98239942Y-55935476D01*
X98239942Y-55935476D02*
X98144704Y-55887857D01*
X98144704Y-55887857D02*
X98001847Y-55887857D01*
X98001847Y-55887857D02*
X97906609Y-55935476D01*
X97906609Y-55935476D02*
X97858990Y-55983095D01*
X97858990Y-55983095D02*
X97811371Y-56078333D01*
X97811371Y-56078333D02*
X97811371Y-56459285D01*
X98335180Y-54983095D02*
X98335180Y-55459285D01*
X98335180Y-55459285D02*
X97858990Y-55506904D01*
X97858990Y-55506904D02*
X97906609Y-55459285D01*
X97906609Y-55459285D02*
X97954228Y-55364047D01*
X97954228Y-55364047D02*
X97954228Y-55125952D01*
X97954228Y-55125952D02*
X97906609Y-55030714D01*
X97906609Y-55030714D02*
X97858990Y-54983095D01*
X97858990Y-54983095D02*
X97763752Y-54935476D01*
X97763752Y-54935476D02*
X97525657Y-54935476D01*
X97525657Y-54935476D02*
X97430419Y-54983095D01*
X97430419Y-54983095D02*
X97382800Y-55030714D01*
X97382800Y-55030714D02*
X97335180Y-55125952D01*
X97335180Y-55125952D02*
X97335180Y-55364047D01*
X97335180Y-55364047D02*
X97382800Y-55459285D01*
X97382800Y-55459285D02*
X97430419Y-55506904D01*
X97335180Y-53983095D02*
X97335180Y-54554523D01*
X97335180Y-54268809D02*
X98335180Y-54268809D01*
X98335180Y-54268809D02*
X98192323Y-54364047D01*
X98192323Y-54364047D02*
X98097085Y-54459285D01*
X98097085Y-54459285D02*
X98049466Y-54554523D01*
X141541428Y-69130057D02*
X141636666Y-69082438D01*
X141636666Y-69082438D02*
X141731904Y-68987200D01*
X141731904Y-68987200D02*
X141874761Y-68844342D01*
X141874761Y-68844342D02*
X141969999Y-68796723D01*
X141969999Y-68796723D02*
X142065237Y-68796723D01*
X142017618Y-69034819D02*
X142112856Y-68987200D01*
X142112856Y-68987200D02*
X142208094Y-68891961D01*
X142208094Y-68891961D02*
X142255713Y-68701485D01*
X142255713Y-68701485D02*
X142255713Y-68368152D01*
X142255713Y-68368152D02*
X142208094Y-68177676D01*
X142208094Y-68177676D02*
X142112856Y-68082438D01*
X142112856Y-68082438D02*
X142017618Y-68034819D01*
X142017618Y-68034819D02*
X141827142Y-68034819D01*
X141827142Y-68034819D02*
X141731904Y-68082438D01*
X141731904Y-68082438D02*
X141636666Y-68177676D01*
X141636666Y-68177676D02*
X141589047Y-68368152D01*
X141589047Y-68368152D02*
X141589047Y-68701485D01*
X141589047Y-68701485D02*
X141636666Y-68891961D01*
X141636666Y-68891961D02*
X141731904Y-68987200D01*
X141731904Y-68987200D02*
X141827142Y-69034819D01*
X141827142Y-69034819D02*
X142017618Y-69034819D01*
X140636666Y-69034819D02*
X141208094Y-69034819D01*
X140922380Y-69034819D02*
X140922380Y-68034819D01*
X140922380Y-68034819D02*
X141017618Y-68177676D01*
X141017618Y-68177676D02*
X141112856Y-68272914D01*
X141112856Y-68272914D02*
X141208094Y-68320533D01*
X140303332Y-68034819D02*
X139684285Y-68034819D01*
X139684285Y-68034819D02*
X140017618Y-68415771D01*
X140017618Y-68415771D02*
X139874761Y-68415771D01*
X139874761Y-68415771D02*
X139779523Y-68463390D01*
X139779523Y-68463390D02*
X139731904Y-68511009D01*
X139731904Y-68511009D02*
X139684285Y-68606247D01*
X139684285Y-68606247D02*
X139684285Y-68844342D01*
X139684285Y-68844342D02*
X139731904Y-68939580D01*
X139731904Y-68939580D02*
X139779523Y-68987200D01*
X139779523Y-68987200D02*
X139874761Y-69034819D01*
X139874761Y-69034819D02*
X140160475Y-69034819D01*
X140160475Y-69034819D02*
X140255713Y-68987200D01*
X140255713Y-68987200D02*
X140303332Y-68939580D01*
X43981666Y-53159819D02*
X44314999Y-52683628D01*
X44553094Y-53159819D02*
X44553094Y-52159819D01*
X44553094Y-52159819D02*
X44172142Y-52159819D01*
X44172142Y-52159819D02*
X44076904Y-52207438D01*
X44076904Y-52207438D02*
X44029285Y-52255057D01*
X44029285Y-52255057D02*
X43981666Y-52350295D01*
X43981666Y-52350295D02*
X43981666Y-52493152D01*
X43981666Y-52493152D02*
X44029285Y-52588390D01*
X44029285Y-52588390D02*
X44076904Y-52636009D01*
X44076904Y-52636009D02*
X44172142Y-52683628D01*
X44172142Y-52683628D02*
X44553094Y-52683628D01*
X43600713Y-52255057D02*
X43553094Y-52207438D01*
X43553094Y-52207438D02*
X43457856Y-52159819D01*
X43457856Y-52159819D02*
X43219761Y-52159819D01*
X43219761Y-52159819D02*
X43124523Y-52207438D01*
X43124523Y-52207438D02*
X43076904Y-52255057D01*
X43076904Y-52255057D02*
X43029285Y-52350295D01*
X43029285Y-52350295D02*
X43029285Y-52445533D01*
X43029285Y-52445533D02*
X43076904Y-52588390D01*
X43076904Y-52588390D02*
X43648332Y-53159819D01*
X43648332Y-53159819D02*
X43029285Y-53159819D01*
X92350419Y-79342857D02*
X92302800Y-79390476D01*
X92302800Y-79390476D02*
X92255180Y-79533333D01*
X92255180Y-79533333D02*
X92255180Y-79628571D01*
X92255180Y-79628571D02*
X92302800Y-79771428D01*
X92302800Y-79771428D02*
X92398038Y-79866666D01*
X92398038Y-79866666D02*
X92493276Y-79914285D01*
X92493276Y-79914285D02*
X92683752Y-79961904D01*
X92683752Y-79961904D02*
X92826609Y-79961904D01*
X92826609Y-79961904D02*
X93017085Y-79914285D01*
X93017085Y-79914285D02*
X93112323Y-79866666D01*
X93112323Y-79866666D02*
X93207561Y-79771428D01*
X93207561Y-79771428D02*
X93255180Y-79628571D01*
X93255180Y-79628571D02*
X93255180Y-79533333D01*
X93255180Y-79533333D02*
X93207561Y-79390476D01*
X93207561Y-79390476D02*
X93159942Y-79342857D01*
X92255180Y-78390476D02*
X92255180Y-78961904D01*
X92255180Y-78676190D02*
X93255180Y-78676190D01*
X93255180Y-78676190D02*
X93112323Y-78771428D01*
X93112323Y-78771428D02*
X93017085Y-78866666D01*
X93017085Y-78866666D02*
X92969466Y-78961904D01*
X92255180Y-77438095D02*
X92255180Y-78009523D01*
X92255180Y-77723809D02*
X93255180Y-77723809D01*
X93255180Y-77723809D02*
X93112323Y-77819047D01*
X93112323Y-77819047D02*
X93017085Y-77914285D01*
X93017085Y-77914285D02*
X92969466Y-78009523D01*
X157813333Y-51734819D02*
X157813333Y-52449104D01*
X157813333Y-52449104D02*
X157860952Y-52591961D01*
X157860952Y-52591961D02*
X157956190Y-52687200D01*
X157956190Y-52687200D02*
X158099047Y-52734819D01*
X158099047Y-52734819D02*
X158194285Y-52734819D01*
X157432380Y-51734819D02*
X156813333Y-51734819D01*
X156813333Y-51734819D02*
X157146666Y-52115771D01*
X157146666Y-52115771D02*
X157003809Y-52115771D01*
X157003809Y-52115771D02*
X156908571Y-52163390D01*
X156908571Y-52163390D02*
X156860952Y-52211009D01*
X156860952Y-52211009D02*
X156813333Y-52306247D01*
X156813333Y-52306247D02*
X156813333Y-52544342D01*
X156813333Y-52544342D02*
X156860952Y-52639580D01*
X156860952Y-52639580D02*
X156908571Y-52687200D01*
X156908571Y-52687200D02*
X157003809Y-52734819D01*
X157003809Y-52734819D02*
X157289523Y-52734819D01*
X157289523Y-52734819D02*
X157384761Y-52687200D01*
X157384761Y-52687200D02*
X157432380Y-52639580D01*
X90985180Y-73667857D02*
X91461371Y-74001190D01*
X90985180Y-74239285D02*
X91985180Y-74239285D01*
X91985180Y-74239285D02*
X91985180Y-73858333D01*
X91985180Y-73858333D02*
X91937561Y-73763095D01*
X91937561Y-73763095D02*
X91889942Y-73715476D01*
X91889942Y-73715476D02*
X91794704Y-73667857D01*
X91794704Y-73667857D02*
X91651847Y-73667857D01*
X91651847Y-73667857D02*
X91556609Y-73715476D01*
X91556609Y-73715476D02*
X91508990Y-73763095D01*
X91508990Y-73763095D02*
X91461371Y-73858333D01*
X91461371Y-73858333D02*
X91461371Y-74239285D01*
X90985180Y-72715476D02*
X90985180Y-73286904D01*
X90985180Y-73001190D02*
X91985180Y-73001190D01*
X91985180Y-73001190D02*
X91842323Y-73096428D01*
X91842323Y-73096428D02*
X91747085Y-73191666D01*
X91747085Y-73191666D02*
X91699466Y-73286904D01*
X90985180Y-71763095D02*
X90985180Y-72334523D01*
X90985180Y-72048809D02*
X91985180Y-72048809D01*
X91985180Y-72048809D02*
X91842323Y-72144047D01*
X91842323Y-72144047D02*
X91747085Y-72239285D01*
X91747085Y-72239285D02*
X91699466Y-72334523D01*
X52494285Y-81099819D02*
X52494285Y-80099819D01*
X51922857Y-81099819D02*
X52351428Y-80528390D01*
X51922857Y-80099819D02*
X52494285Y-80671247D01*
X51065714Y-80433152D02*
X51065714Y-81099819D01*
X51303809Y-80052200D02*
X51541904Y-80766485D01*
X51541904Y-80766485D02*
X50922857Y-80766485D01*
X50589523Y-80195057D02*
X50541904Y-80147438D01*
X50541904Y-80147438D02*
X50446666Y-80099819D01*
X50446666Y-80099819D02*
X50208571Y-80099819D01*
X50208571Y-80099819D02*
X50113333Y-80147438D01*
X50113333Y-80147438D02*
X50065714Y-80195057D01*
X50065714Y-80195057D02*
X50018095Y-80290295D01*
X50018095Y-80290295D02*
X50018095Y-80385533D01*
X50018095Y-80385533D02*
X50065714Y-80528390D01*
X50065714Y-80528390D02*
X50637142Y-81099819D01*
X50637142Y-81099819D02*
X50018095Y-81099819D01*
X100456666Y-86719580D02*
X100504285Y-86767200D01*
X100504285Y-86767200D02*
X100647142Y-86814819D01*
X100647142Y-86814819D02*
X100742380Y-86814819D01*
X100742380Y-86814819D02*
X100885237Y-86767200D01*
X100885237Y-86767200D02*
X100980475Y-86671961D01*
X100980475Y-86671961D02*
X101028094Y-86576723D01*
X101028094Y-86576723D02*
X101075713Y-86386247D01*
X101075713Y-86386247D02*
X101075713Y-86243390D01*
X101075713Y-86243390D02*
X101028094Y-86052914D01*
X101028094Y-86052914D02*
X100980475Y-85957676D01*
X100980475Y-85957676D02*
X100885237Y-85862438D01*
X100885237Y-85862438D02*
X100742380Y-85814819D01*
X100742380Y-85814819D02*
X100647142Y-85814819D01*
X100647142Y-85814819D02*
X100504285Y-85862438D01*
X100504285Y-85862438D02*
X100456666Y-85910057D01*
X100075713Y-85910057D02*
X100028094Y-85862438D01*
X100028094Y-85862438D02*
X99932856Y-85814819D01*
X99932856Y-85814819D02*
X99694761Y-85814819D01*
X99694761Y-85814819D02*
X99599523Y-85862438D01*
X99599523Y-85862438D02*
X99551904Y-85910057D01*
X99551904Y-85910057D02*
X99504285Y-86005295D01*
X99504285Y-86005295D02*
X99504285Y-86100533D01*
X99504285Y-86100533D02*
X99551904Y-86243390D01*
X99551904Y-86243390D02*
X100123332Y-86814819D01*
X100123332Y-86814819D02*
X99504285Y-86814819D01*
X119713333Y-88989819D02*
X119713333Y-89704104D01*
X119713333Y-89704104D02*
X119760952Y-89846961D01*
X119760952Y-89846961D02*
X119856190Y-89942200D01*
X119856190Y-89942200D02*
X119999047Y-89989819D01*
X119999047Y-89989819D02*
X120094285Y-89989819D01*
X118808571Y-88989819D02*
X118999047Y-88989819D01*
X118999047Y-88989819D02*
X119094285Y-89037438D01*
X119094285Y-89037438D02*
X119141904Y-89085057D01*
X119141904Y-89085057D02*
X119237142Y-89227914D01*
X119237142Y-89227914D02*
X119284761Y-89418390D01*
X119284761Y-89418390D02*
X119284761Y-89799342D01*
X119284761Y-89799342D02*
X119237142Y-89894580D01*
X119237142Y-89894580D02*
X119189523Y-89942200D01*
X119189523Y-89942200D02*
X119094285Y-89989819D01*
X119094285Y-89989819D02*
X118903809Y-89989819D01*
X118903809Y-89989819D02*
X118808571Y-89942200D01*
X118808571Y-89942200D02*
X118760952Y-89894580D01*
X118760952Y-89894580D02*
X118713333Y-89799342D01*
X118713333Y-89799342D02*
X118713333Y-89561247D01*
X118713333Y-89561247D02*
X118760952Y-89466009D01*
X118760952Y-89466009D02*
X118808571Y-89418390D01*
X118808571Y-89418390D02*
X118903809Y-89370771D01*
X118903809Y-89370771D02*
X119094285Y-89370771D01*
X119094285Y-89370771D02*
X119189523Y-89418390D01*
X119189523Y-89418390D02*
X119237142Y-89466009D01*
X119237142Y-89466009D02*
X119284761Y-89561247D01*
X102510419Y-79342857D02*
X102462800Y-79390476D01*
X102462800Y-79390476D02*
X102415180Y-79533333D01*
X102415180Y-79533333D02*
X102415180Y-79628571D01*
X102415180Y-79628571D02*
X102462800Y-79771428D01*
X102462800Y-79771428D02*
X102558038Y-79866666D01*
X102558038Y-79866666D02*
X102653276Y-79914285D01*
X102653276Y-79914285D02*
X102843752Y-79961904D01*
X102843752Y-79961904D02*
X102986609Y-79961904D01*
X102986609Y-79961904D02*
X103177085Y-79914285D01*
X103177085Y-79914285D02*
X103272323Y-79866666D01*
X103272323Y-79866666D02*
X103367561Y-79771428D01*
X103367561Y-79771428D02*
X103415180Y-79628571D01*
X103415180Y-79628571D02*
X103415180Y-79533333D01*
X103415180Y-79533333D02*
X103367561Y-79390476D01*
X103367561Y-79390476D02*
X103319942Y-79342857D01*
X103319942Y-78961904D02*
X103367561Y-78914285D01*
X103367561Y-78914285D02*
X103415180Y-78819047D01*
X103415180Y-78819047D02*
X103415180Y-78580952D01*
X103415180Y-78580952D02*
X103367561Y-78485714D01*
X103367561Y-78485714D02*
X103319942Y-78438095D01*
X103319942Y-78438095D02*
X103224704Y-78390476D01*
X103224704Y-78390476D02*
X103129466Y-78390476D01*
X103129466Y-78390476D02*
X102986609Y-78438095D01*
X102986609Y-78438095D02*
X102415180Y-79009523D01*
X102415180Y-79009523D02*
X102415180Y-78390476D01*
X102415180Y-77438095D02*
X102415180Y-78009523D01*
X102415180Y-77723809D02*
X103415180Y-77723809D01*
X103415180Y-77723809D02*
X103272323Y-77819047D01*
X103272323Y-77819047D02*
X103177085Y-77914285D01*
X103177085Y-77914285D02*
X103129466Y-78009523D01*
X152971428Y-69130057D02*
X153066666Y-69082438D01*
X153066666Y-69082438D02*
X153161904Y-68987200D01*
X153161904Y-68987200D02*
X153304761Y-68844342D01*
X153304761Y-68844342D02*
X153399999Y-68796723D01*
X153399999Y-68796723D02*
X153495237Y-68796723D01*
X153447618Y-69034819D02*
X153542856Y-68987200D01*
X153542856Y-68987200D02*
X153638094Y-68891961D01*
X153638094Y-68891961D02*
X153685713Y-68701485D01*
X153685713Y-68701485D02*
X153685713Y-68368152D01*
X153685713Y-68368152D02*
X153638094Y-68177676D01*
X153638094Y-68177676D02*
X153542856Y-68082438D01*
X153542856Y-68082438D02*
X153447618Y-68034819D01*
X153447618Y-68034819D02*
X153257142Y-68034819D01*
X153257142Y-68034819D02*
X153161904Y-68082438D01*
X153161904Y-68082438D02*
X153066666Y-68177676D01*
X153066666Y-68177676D02*
X153019047Y-68368152D01*
X153019047Y-68368152D02*
X153019047Y-68701485D01*
X153019047Y-68701485D02*
X153066666Y-68891961D01*
X153066666Y-68891961D02*
X153161904Y-68987200D01*
X153161904Y-68987200D02*
X153257142Y-69034819D01*
X153257142Y-69034819D02*
X153447618Y-69034819D01*
X152638094Y-68130057D02*
X152590475Y-68082438D01*
X152590475Y-68082438D02*
X152495237Y-68034819D01*
X152495237Y-68034819D02*
X152257142Y-68034819D01*
X152257142Y-68034819D02*
X152161904Y-68082438D01*
X152161904Y-68082438D02*
X152114285Y-68130057D01*
X152114285Y-68130057D02*
X152066666Y-68225295D01*
X152066666Y-68225295D02*
X152066666Y-68320533D01*
X152066666Y-68320533D02*
X152114285Y-68463390D01*
X152114285Y-68463390D02*
X152685713Y-69034819D01*
X152685713Y-69034819D02*
X152066666Y-69034819D01*
X151733332Y-68034819D02*
X151114285Y-68034819D01*
X151114285Y-68034819D02*
X151447618Y-68415771D01*
X151447618Y-68415771D02*
X151304761Y-68415771D01*
X151304761Y-68415771D02*
X151209523Y-68463390D01*
X151209523Y-68463390D02*
X151161904Y-68511009D01*
X151161904Y-68511009D02*
X151114285Y-68606247D01*
X151114285Y-68606247D02*
X151114285Y-68844342D01*
X151114285Y-68844342D02*
X151161904Y-68939580D01*
X151161904Y-68939580D02*
X151209523Y-68987200D01*
X151209523Y-68987200D02*
X151304761Y-69034819D01*
X151304761Y-69034819D02*
X151590475Y-69034819D01*
X151590475Y-69034819D02*
X151685713Y-68987200D01*
X151685713Y-68987200D02*
X151733332Y-68939580D01*
D16*
X144683714Y-47425181D02*
X144683714Y-48513752D01*
X144683714Y-48513752D02*
X144756285Y-48731467D01*
X144756285Y-48731467D02*
X144901428Y-48876610D01*
X144901428Y-48876610D02*
X145119142Y-48949181D01*
X145119142Y-48949181D02*
X145264285Y-48949181D01*
X144103142Y-47425181D02*
X143159714Y-47425181D01*
X143159714Y-47425181D02*
X143667714Y-48005752D01*
X143667714Y-48005752D02*
X143449999Y-48005752D01*
X143449999Y-48005752D02*
X143304857Y-48078324D01*
X143304857Y-48078324D02*
X143232285Y-48150895D01*
X143232285Y-48150895D02*
X143159714Y-48296038D01*
X143159714Y-48296038D02*
X143159714Y-48658895D01*
X143159714Y-48658895D02*
X143232285Y-48804038D01*
X143232285Y-48804038D02*
X143304857Y-48876610D01*
X143304857Y-48876610D02*
X143449999Y-48949181D01*
X143449999Y-48949181D02*
X143885428Y-48949181D01*
X143885428Y-48949181D02*
X144030571Y-48876610D01*
X144030571Y-48876610D02*
X144103142Y-48804038D01*
X142651713Y-47425181D02*
X141708285Y-47425181D01*
X141708285Y-47425181D02*
X142216285Y-48005752D01*
X142216285Y-48005752D02*
X141998570Y-48005752D01*
X141998570Y-48005752D02*
X141853428Y-48078324D01*
X141853428Y-48078324D02*
X141780856Y-48150895D01*
X141780856Y-48150895D02*
X141708285Y-48296038D01*
X141708285Y-48296038D02*
X141708285Y-48658895D01*
X141708285Y-48658895D02*
X141780856Y-48804038D01*
X141780856Y-48804038D02*
X141853428Y-48876610D01*
X141853428Y-48876610D02*
X141998570Y-48949181D01*
X141998570Y-48949181D02*
X142433999Y-48949181D01*
X142433999Y-48949181D02*
X142579142Y-48876610D01*
X142579142Y-48876610D02*
X142651713Y-48804038D01*
D15*
X99393333Y-88989819D02*
X99393333Y-89704104D01*
X99393333Y-89704104D02*
X99440952Y-89846961D01*
X99440952Y-89846961D02*
X99536190Y-89942200D01*
X99536190Y-89942200D02*
X99679047Y-89989819D01*
X99679047Y-89989819D02*
X99774285Y-89989819D01*
X98393333Y-89989819D02*
X98964761Y-89989819D01*
X98679047Y-89989819D02*
X98679047Y-88989819D01*
X98679047Y-88989819D02*
X98774285Y-89132676D01*
X98774285Y-89132676D02*
X98869523Y-89227914D01*
X98869523Y-89227914D02*
X98964761Y-89275533D01*
X157813333Y-69094819D02*
X157813333Y-69809104D01*
X157813333Y-69809104D02*
X157860952Y-69951961D01*
X157860952Y-69951961D02*
X157956190Y-70047200D01*
X157956190Y-70047200D02*
X158099047Y-70094819D01*
X158099047Y-70094819D02*
X158194285Y-70094819D01*
X156860952Y-69094819D02*
X157337142Y-69094819D01*
X157337142Y-69094819D02*
X157384761Y-69571009D01*
X157384761Y-69571009D02*
X157337142Y-69523390D01*
X157337142Y-69523390D02*
X157241904Y-69475771D01*
X157241904Y-69475771D02*
X157003809Y-69475771D01*
X157003809Y-69475771D02*
X156908571Y-69523390D01*
X156908571Y-69523390D02*
X156860952Y-69571009D01*
X156860952Y-69571009D02*
X156813333Y-69666247D01*
X156813333Y-69666247D02*
X156813333Y-69904342D01*
X156813333Y-69904342D02*
X156860952Y-69999580D01*
X156860952Y-69999580D02*
X156908571Y-70047200D01*
X156908571Y-70047200D02*
X157003809Y-70094819D01*
X157003809Y-70094819D02*
X157241904Y-70094819D01*
X157241904Y-70094819D02*
X157337142Y-70047200D01*
X157337142Y-70047200D02*
X157384761Y-69999580D01*
X97430419Y-60967857D02*
X97382800Y-61015476D01*
X97382800Y-61015476D02*
X97335180Y-61158333D01*
X97335180Y-61158333D02*
X97335180Y-61253571D01*
X97335180Y-61253571D02*
X97382800Y-61396428D01*
X97382800Y-61396428D02*
X97478038Y-61491666D01*
X97478038Y-61491666D02*
X97573276Y-61539285D01*
X97573276Y-61539285D02*
X97763752Y-61586904D01*
X97763752Y-61586904D02*
X97906609Y-61586904D01*
X97906609Y-61586904D02*
X98097085Y-61539285D01*
X98097085Y-61539285D02*
X98192323Y-61491666D01*
X98192323Y-61491666D02*
X98287561Y-61396428D01*
X98287561Y-61396428D02*
X98335180Y-61253571D01*
X98335180Y-61253571D02*
X98335180Y-61158333D01*
X98335180Y-61158333D02*
X98287561Y-61015476D01*
X98287561Y-61015476D02*
X98239942Y-60967857D01*
X97335180Y-60015476D02*
X97335180Y-60586904D01*
X97335180Y-60301190D02*
X98335180Y-60301190D01*
X98335180Y-60301190D02*
X98192323Y-60396428D01*
X98192323Y-60396428D02*
X98097085Y-60491666D01*
X98097085Y-60491666D02*
X98049466Y-60586904D01*
X98239942Y-59634523D02*
X98287561Y-59586904D01*
X98287561Y-59586904D02*
X98335180Y-59491666D01*
X98335180Y-59491666D02*
X98335180Y-59253571D01*
X98335180Y-59253571D02*
X98287561Y-59158333D01*
X98287561Y-59158333D02*
X98239942Y-59110714D01*
X98239942Y-59110714D02*
X98144704Y-59063095D01*
X98144704Y-59063095D02*
X98049466Y-59063095D01*
X98049466Y-59063095D02*
X97906609Y-59110714D01*
X97906609Y-59110714D02*
X97335180Y-59682142D01*
X97335180Y-59682142D02*
X97335180Y-59063095D01*
D16*
X76243714Y-37265181D02*
X76243714Y-38353752D01*
X76243714Y-38353752D02*
X76316285Y-38571467D01*
X76316285Y-38571467D02*
X76461428Y-38716610D01*
X76461428Y-38716610D02*
X76679142Y-38789181D01*
X76679142Y-38789181D02*
X76824285Y-38789181D01*
X74792285Y-37265181D02*
X75517999Y-37265181D01*
X75517999Y-37265181D02*
X75590571Y-37990895D01*
X75590571Y-37990895D02*
X75517999Y-37918324D01*
X75517999Y-37918324D02*
X75372857Y-37845752D01*
X75372857Y-37845752D02*
X75009999Y-37845752D01*
X75009999Y-37845752D02*
X74864857Y-37918324D01*
X74864857Y-37918324D02*
X74792285Y-37990895D01*
X74792285Y-37990895D02*
X74719714Y-38136038D01*
X74719714Y-38136038D02*
X74719714Y-38498895D01*
X74719714Y-38498895D02*
X74792285Y-38644038D01*
X74792285Y-38644038D02*
X74864857Y-38716610D01*
X74864857Y-38716610D02*
X75009999Y-38789181D01*
X75009999Y-38789181D02*
X75372857Y-38789181D01*
X75372857Y-38789181D02*
X75517999Y-38716610D01*
X75517999Y-38716610D02*
X75590571Y-38644038D01*
X73268285Y-38789181D02*
X74139142Y-38789181D01*
X73703713Y-38789181D02*
X73703713Y-37265181D01*
X73703713Y-37265181D02*
X73848856Y-37482895D01*
X73848856Y-37482895D02*
X73993999Y-37628038D01*
X73993999Y-37628038D02*
X74139142Y-37700610D01*
X53503714Y-47425181D02*
X53503714Y-48513752D01*
X53503714Y-48513752D02*
X53576285Y-48731467D01*
X53576285Y-48731467D02*
X53721428Y-48876610D01*
X53721428Y-48876610D02*
X53939142Y-48949181D01*
X53939142Y-48949181D02*
X54084285Y-48949181D01*
X52923142Y-47425181D02*
X51979714Y-47425181D01*
X51979714Y-47425181D02*
X52487714Y-48005752D01*
X52487714Y-48005752D02*
X52269999Y-48005752D01*
X52269999Y-48005752D02*
X52124857Y-48078324D01*
X52124857Y-48078324D02*
X52052285Y-48150895D01*
X52052285Y-48150895D02*
X51979714Y-48296038D01*
X51979714Y-48296038D02*
X51979714Y-48658895D01*
X51979714Y-48658895D02*
X52052285Y-48804038D01*
X52052285Y-48804038D02*
X52124857Y-48876610D01*
X52124857Y-48876610D02*
X52269999Y-48949181D01*
X52269999Y-48949181D02*
X52705428Y-48949181D01*
X52705428Y-48949181D02*
X52850571Y-48876610D01*
X52850571Y-48876610D02*
X52923142Y-48804038D01*
X50528285Y-48949181D02*
X51399142Y-48949181D01*
X50963713Y-48949181D02*
X50963713Y-47425181D01*
X50963713Y-47425181D02*
X51108856Y-47642895D01*
X51108856Y-47642895D02*
X51253999Y-47788038D01*
X51253999Y-47788038D02*
X51399142Y-47860610D01*
D15*
X88431666Y-90624819D02*
X88764999Y-90148628D01*
X89003094Y-90624819D02*
X89003094Y-89624819D01*
X89003094Y-89624819D02*
X88622142Y-89624819D01*
X88622142Y-89624819D02*
X88526904Y-89672438D01*
X88526904Y-89672438D02*
X88479285Y-89720057D01*
X88479285Y-89720057D02*
X88431666Y-89815295D01*
X88431666Y-89815295D02*
X88431666Y-89958152D01*
X88431666Y-89958152D02*
X88479285Y-90053390D01*
X88479285Y-90053390D02*
X88526904Y-90101009D01*
X88526904Y-90101009D02*
X88622142Y-90148628D01*
X88622142Y-90148628D02*
X89003094Y-90148628D01*
X87479285Y-90624819D02*
X88050713Y-90624819D01*
X87764999Y-90624819D02*
X87764999Y-89624819D01*
X87764999Y-89624819D02*
X87860237Y-89767676D01*
X87860237Y-89767676D02*
X87955475Y-89862914D01*
X87955475Y-89862914D02*
X88050713Y-89910533D01*
X151945180Y-55887857D02*
X152421371Y-56221190D01*
X151945180Y-56459285D02*
X152945180Y-56459285D01*
X152945180Y-56459285D02*
X152945180Y-56078333D01*
X152945180Y-56078333D02*
X152897561Y-55983095D01*
X152897561Y-55983095D02*
X152849942Y-55935476D01*
X152849942Y-55935476D02*
X152754704Y-55887857D01*
X152754704Y-55887857D02*
X152611847Y-55887857D01*
X152611847Y-55887857D02*
X152516609Y-55935476D01*
X152516609Y-55935476D02*
X152468990Y-55983095D01*
X152468990Y-55983095D02*
X152421371Y-56078333D01*
X152421371Y-56078333D02*
X152421371Y-56459285D01*
X152945180Y-54983095D02*
X152945180Y-55459285D01*
X152945180Y-55459285D02*
X152468990Y-55506904D01*
X152468990Y-55506904D02*
X152516609Y-55459285D01*
X152516609Y-55459285D02*
X152564228Y-55364047D01*
X152564228Y-55364047D02*
X152564228Y-55125952D01*
X152564228Y-55125952D02*
X152516609Y-55030714D01*
X152516609Y-55030714D02*
X152468990Y-54983095D01*
X152468990Y-54983095D02*
X152373752Y-54935476D01*
X152373752Y-54935476D02*
X152135657Y-54935476D01*
X152135657Y-54935476D02*
X152040419Y-54983095D01*
X152040419Y-54983095D02*
X151992800Y-55030714D01*
X151992800Y-55030714D02*
X151945180Y-55125952D01*
X151945180Y-55125952D02*
X151945180Y-55364047D01*
X151945180Y-55364047D02*
X151992800Y-55459285D01*
X151992800Y-55459285D02*
X152040419Y-55506904D01*
X152945180Y-54078333D02*
X152945180Y-54268809D01*
X152945180Y-54268809D02*
X152897561Y-54364047D01*
X152897561Y-54364047D02*
X152849942Y-54411666D01*
X152849942Y-54411666D02*
X152707085Y-54506904D01*
X152707085Y-54506904D02*
X152516609Y-54554523D01*
X152516609Y-54554523D02*
X152135657Y-54554523D01*
X152135657Y-54554523D02*
X152040419Y-54506904D01*
X152040419Y-54506904D02*
X151992800Y-54459285D01*
X151992800Y-54459285D02*
X151945180Y-54364047D01*
X151945180Y-54364047D02*
X151945180Y-54173571D01*
X151945180Y-54173571D02*
X151992800Y-54078333D01*
X151992800Y-54078333D02*
X152040419Y-54030714D01*
X152040419Y-54030714D02*
X152135657Y-53983095D01*
X152135657Y-53983095D02*
X152373752Y-53983095D01*
X152373752Y-53983095D02*
X152468990Y-54030714D01*
X152468990Y-54030714D02*
X152516609Y-54078333D01*
X152516609Y-54078333D02*
X152564228Y-54173571D01*
X152564228Y-54173571D02*
X152564228Y-54364047D01*
X152564228Y-54364047D02*
X152516609Y-54459285D01*
X152516609Y-54459285D02*
X152468990Y-54506904D01*
X152468990Y-54506904D02*
X152373752Y-54554523D01*
%LPC*%
D17*
X92710000Y-53340000D03*
D18*
X92710000Y-55880000D03*
D19*
X154940000Y-48260000D03*
D20*
X139700000Y-76200000D03*
D21*
X138200000Y-76200000D03*
D22*
X68580000Y-64370000D03*
D23*
X70530000Y-70420000D03*
D22*
X82730000Y-70420000D03*
X82780000Y-58370000D03*
D23*
X70530000Y-58420000D03*
D24*
X129540000Y-91440000D03*
D25*
X127000000Y-91440000D03*
D17*
X106680000Y-53340000D03*
D18*
X106680000Y-55880000D03*
D17*
X137160000Y-80645000D03*
D18*
X137160000Y-83185000D03*
D26*
X110490000Y-58420000D03*
D18*
X110490000Y-66040000D03*
D24*
X81915000Y-91440000D03*
D25*
X79375000Y-91440000D03*
D17*
X140970000Y-80645000D03*
D18*
X140970000Y-83185000D03*
D17*
X106680000Y-77470000D03*
D18*
X106680000Y-80010000D03*
D17*
X151130000Y-60325000D03*
X151130000Y-65325000D03*
X100330000Y-67310000D03*
D18*
X100330000Y-64770000D03*
D17*
X100330000Y-71120000D03*
D18*
X100330000Y-73660000D03*
D24*
X57150000Y-91440000D03*
D27*
X104140000Y-72390000D03*
D28*
X105410000Y-72390000D03*
X106680000Y-72390000D03*
D26*
X110490000Y-74930000D03*
D18*
X110490000Y-82550000D03*
D17*
X147320000Y-65405000D03*
D18*
X147320000Y-62865000D03*
D29*
X115730000Y-38100000D03*
X125730000Y-38100000D03*
D30*
X113230000Y-47800000D03*
X120730000Y-47800000D03*
X128230000Y-47800000D03*
X115730000Y-50300000D03*
X125730000Y-50300000D03*
D17*
X135890000Y-57150000D03*
D18*
X135890000Y-54610000D03*
D26*
X93345000Y-86360000D03*
D17*
X90845000Y-86360000D03*
X92710000Y-59690000D03*
D18*
X92710000Y-62230000D03*
D17*
X102870000Y-59690000D03*
D18*
X102870000Y-62230000D03*
D27*
X93980000Y-72390000D03*
D28*
X95250000Y-72390000D03*
X96520000Y-72390000D03*
D24*
X34290000Y-77040000D03*
D17*
X96520000Y-77470000D03*
D18*
X96520000Y-80010000D03*
D17*
X147320000Y-57150000D03*
D18*
X147320000Y-54610000D03*
D31*
X104000000Y-44510000D03*
X91700000Y-44510000D03*
D30*
X94100000Y-48260000D03*
X101600000Y-48260000D03*
D29*
X94100000Y-41010000D03*
D26*
X64770000Y-58420000D03*
D18*
X64770000Y-66040000D03*
D32*
X36830000Y-90170000D03*
D17*
X135890000Y-65405000D03*
D18*
X135890000Y-62865000D03*
D22*
X43180000Y-64370000D03*
D23*
X45130000Y-70420000D03*
D22*
X57330000Y-70420000D03*
X57380000Y-58370000D03*
D23*
X45130000Y-58420000D03*
D17*
X139700000Y-60325000D03*
X139700000Y-65325000D03*
D24*
X34290000Y-53975000D03*
D25*
X36830000Y-53975000D03*
D17*
X148590000Y-80645000D03*
D18*
X148590000Y-83185000D03*
D20*
X106680000Y-60960000D03*
D21*
X106680000Y-59460000D03*
D26*
X39370000Y-58420000D03*
D18*
X39370000Y-66040000D03*
D24*
X52070000Y-91440000D03*
X34290000Y-71755000D03*
D17*
X90170000Y-67310000D03*
D18*
X90170000Y-64770000D03*
D17*
X137160000Y-91440000D03*
D18*
X134620000Y-91440000D03*
D17*
X152400000Y-80645000D03*
D18*
X152400000Y-83185000D03*
D19*
X36830000Y-48260000D03*
D22*
X68580000Y-80880000D03*
D23*
X70530000Y-86930000D03*
D22*
X82730000Y-86930000D03*
X82780000Y-74880000D03*
D23*
X70530000Y-74930000D03*
D17*
X102870000Y-53340000D03*
D18*
X102870000Y-55880000D03*
D26*
X64770000Y-74930000D03*
D18*
X64770000Y-82550000D03*
D20*
X151130000Y-76200000D03*
D21*
X149630000Y-76200000D03*
D17*
X139700000Y-57150000D03*
D18*
X139700000Y-54610000D03*
D17*
X135890000Y-69215000D03*
D18*
X135890000Y-71755000D03*
D22*
X114300000Y-64370000D03*
D23*
X116250000Y-70420000D03*
D22*
X128450000Y-70420000D03*
X128500000Y-58370000D03*
D23*
X116250000Y-58420000D03*
D27*
X93980000Y-67310000D03*
D28*
X95250000Y-67310000D03*
X96520000Y-67310000D03*
D27*
X104140000Y-67310000D03*
D28*
X105410000Y-67310000D03*
X106680000Y-67310000D03*
D17*
X147320000Y-69215000D03*
D18*
X147320000Y-71755000D03*
D22*
X114300000Y-80880000D03*
D23*
X116250000Y-86930000D03*
D22*
X128450000Y-86930000D03*
X128500000Y-74880000D03*
D23*
X116250000Y-74930000D03*
D24*
X70485000Y-91440000D03*
D25*
X73025000Y-91440000D03*
D26*
X39370000Y-74930000D03*
D18*
X39370000Y-82550000D03*
D24*
X105410000Y-91440000D03*
D25*
X107950000Y-91440000D03*
X110490000Y-91440000D03*
D17*
X96520000Y-53340000D03*
D18*
X96520000Y-55880000D03*
D27*
X142240000Y-70485000D03*
D28*
X140970000Y-70485000D03*
X139700000Y-70485000D03*
D17*
X45085000Y-53975000D03*
D18*
X42545000Y-53975000D03*
D17*
X92710000Y-81200000D03*
X92710000Y-76200000D03*
D24*
X157480000Y-54610000D03*
D25*
X157480000Y-57150000D03*
X157480000Y-59690000D03*
D17*
X90170000Y-71120000D03*
D18*
X90170000Y-73660000D03*
D22*
X43180000Y-80880000D03*
D23*
X45130000Y-86930000D03*
D22*
X57330000Y-86930000D03*
X57380000Y-74880000D03*
D23*
X45130000Y-74930000D03*
D17*
X97790000Y-86360000D03*
X102790000Y-86360000D03*
D24*
X118110000Y-91440000D03*
D25*
X120650000Y-91440000D03*
D17*
X102870000Y-81200000D03*
X102870000Y-76200000D03*
D27*
X153670000Y-70485000D03*
D28*
X152400000Y-70485000D03*
X151130000Y-70485000D03*
D31*
X149600000Y-44510000D03*
X137300000Y-44510000D03*
D30*
X139700000Y-48260000D03*
X147200000Y-48260000D03*
D29*
X139700000Y-41010000D03*
D24*
X97785000Y-91440000D03*
D25*
X100325000Y-91440000D03*
D24*
X157480000Y-67310000D03*
D25*
X157480000Y-64770000D03*
D20*
X96520000Y-60960000D03*
D21*
X96520000Y-59460000D03*
D29*
X70010000Y-38100000D03*
X80010000Y-38100000D03*
D30*
X67510000Y-47800000D03*
X75010000Y-47800000D03*
X82510000Y-47800000D03*
X70010000Y-50300000D03*
X80010000Y-50300000D03*
D31*
X58420000Y-44510000D03*
X46120000Y-44510000D03*
D30*
X48520000Y-48260000D03*
X56020000Y-48260000D03*
D29*
X48520000Y-41010000D03*
D17*
X89535000Y-91440000D03*
D18*
X86995000Y-91440000D03*
D17*
X151130000Y-57150000D03*
D18*
X151130000Y-54610000D03*
D32*
X154940000Y-90170000D03*
%LPD*%
M02*
