M48
; DRILL file {KiCad 8.0.9} date 2025-03-02T13:49:46+0100
; FORMAT={-:-/ absolute / metric / decimal}
; #@! TF.CreationDate,2025-03-02T13:49:46+01:00
; #@! TF.GenerationSoftware,Kicad,Pcbnew,8.0.9
; #@! TF.FileFunction,Plated,1,2,PTH
FMAT,2
METRIC
; #@! TA.AperFunction,Plated,PTH,ViaDrill
T1C0.300
; #@! TA.AperFunction,Plated,PTH,ComponentDrill
T2C0.600
; #@! TA.AperFunction,Plated,PTH,ComponentDrill
T3C0.750
; #@! TA.AperFunction,Plated,PTH,ComponentDrill
T4C0.800
; #@! TA.AperFunction,Plated,PTH,ComponentDrill
T5C1.000
; #@! TA.AperFunction,Plated,PTH,ComponentDrill
T6C1.300
; #@! TA.AperFunction,Plated,PTH,ComponentDrill
T7C1.500
; #@! TA.AperFunction,Plated,PTH,ComponentDrill
T8C3.200
%
G90
G05
T1
X87.63Y-64.77
X87.63Y-81.28
T2
X96.52Y-59.46
X96.52Y-60.96
X106.68Y-59.46
X106.68Y-60.96
X138.2Y-76.2
X139.7Y-76.2
X149.63Y-76.2
X151.13Y-76.2
T3
X93.98Y-67.31
X93.98Y-72.39
X95.25Y-67.31
X95.25Y-72.39
X96.52Y-67.31
X96.52Y-72.39
X104.14Y-67.31
X104.14Y-72.39
X105.41Y-67.31
X105.41Y-72.39
X106.68Y-67.31
X106.68Y-72.39
X139.7Y-70.485
X140.97Y-70.485
X142.24Y-70.485
X151.13Y-70.485
X152.4Y-70.485
X153.67Y-70.485
T4
X39.37Y-58.42
X39.37Y-66.04
X39.37Y-74.93
X39.37Y-82.55
X42.545Y-53.975
X45.085Y-53.975
X64.77Y-58.42
X64.77Y-66.04
X64.77Y-74.93
X64.77Y-82.55
X86.995Y-91.44
X89.535Y-91.44
X90.17Y-64.77
X90.17Y-67.31
X90.17Y-71.12
X90.17Y-73.66
X90.845Y-86.36
X92.71Y-53.34
X92.71Y-55.88
X92.71Y-59.69
X92.71Y-62.23
X92.71Y-76.2
X92.71Y-81.2
X93.345Y-86.36
X96.52Y-53.34
X96.52Y-55.88
X96.52Y-77.47
X96.52Y-80.01
X97.79Y-86.36
X100.33Y-64.77
X100.33Y-67.31
X100.33Y-71.12
X100.33Y-73.66
X102.79Y-86.36
X102.87Y-53.34
X102.87Y-55.88
X102.87Y-59.69
X102.87Y-62.23
X102.87Y-76.2
X102.87Y-81.2
X106.68Y-53.34
X106.68Y-55.88
X106.68Y-77.47
X106.68Y-80.01
X110.49Y-58.42
X110.49Y-66.04
X110.49Y-74.93
X110.49Y-82.55
X134.62Y-91.44
X135.89Y-54.61
X135.89Y-57.15
X135.89Y-62.865
X135.89Y-65.405
X135.89Y-69.215
X135.89Y-71.755
X137.16Y-80.645
X137.16Y-83.185
X137.16Y-91.44
X139.7Y-54.61
X139.7Y-57.15
X139.7Y-60.325
X139.7Y-65.325
X140.97Y-80.645
X140.97Y-83.185
X147.32Y-54.61
X147.32Y-57.15
X147.32Y-62.865
X147.32Y-65.405
X147.32Y-69.215
X147.32Y-71.755
X148.59Y-80.645
X148.59Y-83.185
X151.13Y-54.61
X151.13Y-57.15
X151.13Y-60.325
X151.13Y-65.325
X152.4Y-80.645
X152.4Y-83.185
T5
X34.29Y-53.975
X34.29Y-71.755
X34.29Y-77.04
X36.83Y-53.975
X45.13Y-58.42
X45.13Y-70.42
X45.13Y-74.93
X45.13Y-86.93
X52.07Y-91.44
X57.15Y-91.44
X70.485Y-91.44
X70.53Y-58.42
X70.53Y-70.42
X70.53Y-74.93
X70.53Y-86.93
X73.025Y-91.44
X79.375Y-91.44
X81.915Y-91.44
X97.785Y-91.44
X100.325Y-91.44
X105.41Y-91.44
X107.95Y-91.44
X110.49Y-91.44
X116.25Y-58.42
X116.25Y-70.42
X116.25Y-74.93
X116.25Y-86.93
X118.11Y-91.44
X120.65Y-91.44
X127.0Y-91.44
X129.54Y-91.44
X157.48Y-54.61
X157.48Y-57.15
X157.48Y-59.69
X157.48Y-64.77
X157.48Y-67.31
T6
X43.18Y-64.37
X43.18Y-80.88
X48.52Y-48.26
X56.02Y-48.26
X57.33Y-70.42
X57.33Y-86.93
X57.38Y-58.37
X57.38Y-74.88
X67.51Y-47.8
X68.58Y-64.37
X68.58Y-80.88
X70.01Y-50.3
X75.01Y-47.8
X80.01Y-50.3
X82.51Y-47.8
X82.73Y-70.42
X82.73Y-86.93
X82.78Y-58.37
X82.78Y-74.88
X94.1Y-48.26
X101.6Y-48.26
X113.23Y-47.8
X114.3Y-64.37
X114.3Y-80.88
X115.73Y-50.3
X120.73Y-47.8
X125.73Y-50.3
X128.23Y-47.8
X128.45Y-70.42
X128.45Y-86.93
X128.5Y-58.37
X128.5Y-74.88
X139.7Y-48.26
X147.2Y-48.26
T7
X48.52Y-41.01
X70.01Y-38.1
X80.01Y-38.1
X94.1Y-41.01
X115.73Y-38.1
X125.73Y-38.1
X139.7Y-41.01
T8
X36.83Y-48.26
X154.94Y-48.26
M30
